%TF.GenerationSoftware,KiCad,Pcbnew,7.0.9*%
%TF.CreationDate,2023-12-08T00:00:21+01:00*%
%TF.ProjectId,kicad_RCJ,6b696361-645f-4524-934a-2e6b69636164,rev?*%
%TF.SameCoordinates,Original*%
%TF.FileFunction,Drillmap*%
%TF.FilePolarity,Positive*%
%FSLAX45Y45*%
G04 Gerber Fmt 4.5, Leading zero omitted, Abs format (unit mm)*
G04 Created by KiCad (PCBNEW 7.0.9) date 2023-12-08 00:00:21*
%MOMM*%
%LPD*%
G01*
G04 APERTURE LIST*
%ADD10C,0.150000*%
%ADD11C,0.200000*%
%ADD12C,0.100000*%
%ADD13C,0.320000*%
G04 APERTURE END LIST*
D10*
X3470000Y-3260000D02*
G75*
G03*
X3260000Y-3470000I0J-210000D01*
G01*
X3260000Y-13525500D02*
G75*
G03*
X3475000Y-13745047I215000J-4500D01*
G01*
X8300012Y-13910000D02*
G75*
G03*
X8128000Y-13740000I-170012J0D01*
G01*
X8300000Y-19050000D02*
G75*
G03*
X8530000Y-19280000I230000J0D01*
G01*
X14610000Y-19280000D02*
G75*
G03*
X14840000Y-19050000I-5000J235000D01*
G01*
X14840000Y-3495000D02*
G75*
G03*
X14605000Y-3260000I-235000J0D01*
G01*
X3475000Y-13745000D02*
X8128000Y-13740000D01*
X14840000Y-19050000D02*
X14840000Y-3495000D01*
X3260000Y-3470000D02*
X3260000Y-13525500D01*
X8300000Y-13910000D02*
X8300000Y-19050000D01*
X14605000Y-3260000D02*
X3470000Y-3260000D01*
X8530000Y-19280000D02*
X14610000Y-19280000D01*
D11*
D12*
X4300500Y-5634000D02*
X4335500Y-5669000D01*
X4335500Y-5634000D02*
X4300500Y-5669000D01*
X4300500Y-8301000D02*
X4335500Y-8336000D01*
X4335500Y-8301000D02*
X4300500Y-8336000D01*
X4872000Y-5888000D02*
X4907000Y-5923000D01*
X4907000Y-5888000D02*
X4872000Y-5923000D01*
X4872000Y-8618500D02*
X4907000Y-8653500D01*
X4907000Y-8618500D02*
X4872000Y-8653500D01*
X4872000Y-12809500D02*
X4907000Y-12844500D01*
X4907000Y-12809500D02*
X4872000Y-12844500D01*
X5392700Y-7805700D02*
X5427700Y-7840700D01*
X5427700Y-7805700D02*
X5392700Y-7840700D01*
X10015500Y-17572000D02*
X10050500Y-17607000D01*
X10050500Y-17572000D02*
X10015500Y-17607000D01*
X13063500Y-13063500D02*
X13098500Y-13098500D01*
X13098500Y-13063500D02*
X13063500Y-13098500D01*
X13063500Y-15540000D02*
X13098500Y-15575000D01*
X13098500Y-15540000D02*
X13063500Y-15575000D01*
X13508000Y-13508000D02*
X13543000Y-13543000D01*
X13543000Y-13508000D02*
X13508000Y-13543000D01*
X13508000Y-15984500D02*
X13543000Y-16019500D01*
X13543000Y-15984500D02*
X13508000Y-16019500D01*
X4211000Y-4699000D02*
G75*
G03*
X4211000Y-4699000I-20000J0D01*
G01*
X4592000Y-10287000D02*
G75*
G03*
X4592000Y-10287000I-20000J0D01*
G01*
X4655500Y-5080000D02*
G75*
G03*
X4655500Y-5080000I-20000J0D01*
G01*
X4909500Y-7556500D02*
G75*
G03*
X4909500Y-7556500I-20000J0D01*
G01*
X5014910Y-10435590D02*
G75*
G03*
X5014910Y-10435590I-20000J0D01*
G01*
X5036500Y-10287000D02*
G75*
G03*
X5036500Y-10287000I-20000J0D01*
G01*
X5036500Y-10668000D02*
G75*
G03*
X5036500Y-10668000I-20000J0D01*
G01*
X5074600Y-7696200D02*
G75*
G03*
X5074600Y-7696200I-20000J0D01*
G01*
X5100000Y-4127500D02*
G75*
G03*
X5100000Y-4127500I-20000J0D01*
G01*
X5163500Y-10795000D02*
G75*
G03*
X5163500Y-10795000I-20000J0D01*
G01*
X5227000Y-11874500D02*
G75*
G03*
X5227000Y-11874500I-20000J0D01*
G01*
X5354000Y-4318000D02*
G75*
G03*
X5354000Y-4318000I-20000J0D01*
G01*
X5417500Y-11938000D02*
G75*
G03*
X5417500Y-11938000I-20000J0D01*
G01*
X5417500Y-12446000D02*
G75*
G03*
X5417500Y-12446000I-20000J0D01*
G01*
X5798500Y-8382000D02*
G75*
G03*
X5798500Y-8382000I-20000J0D01*
G01*
X5862000Y-8890000D02*
G75*
G03*
X5862000Y-8890000I-20000J0D01*
G01*
X5925500Y-11811000D02*
G75*
G03*
X5925500Y-11811000I-20000J0D01*
G01*
X5938200Y-4826000D02*
G75*
G03*
X5938200Y-4826000I-20000J0D01*
G01*
X6039800Y-4318000D02*
G75*
G03*
X6039800Y-4318000I-20000J0D01*
G01*
X6166800Y-9093200D02*
G75*
G03*
X6166800Y-9093200I-20000J0D01*
G01*
X6166800Y-9245600D02*
G75*
G03*
X6166800Y-9245600I-20000J0D01*
G01*
X6179500Y-6921500D02*
G75*
G03*
X6179500Y-6921500I-20000J0D01*
G01*
X6179500Y-11620500D02*
G75*
G03*
X6179500Y-11620500I-20000J0D01*
G01*
X6192200Y-4826000D02*
G75*
G03*
X6192200Y-4826000I-20000J0D01*
G01*
X6243000Y-9969500D02*
G75*
G03*
X6243000Y-9969500I-20000J0D01*
G01*
X6433500Y-10096500D02*
G75*
G03*
X6433500Y-10096500I-20000J0D01*
G01*
X6471600Y-4089400D02*
G75*
G03*
X6471600Y-4089400I-20000J0D01*
G01*
X6484300Y-4267200D02*
G75*
G03*
X6484300Y-4267200I-20000J0D01*
G01*
X6814500Y-9093200D02*
G75*
G03*
X6814500Y-9093200I-20000J0D01*
G01*
X6814500Y-9245600D02*
G75*
G03*
X6814500Y-9245600I-20000J0D01*
G01*
X7106600Y-11938000D02*
G75*
G03*
X7106600Y-11938000I-20000J0D01*
G01*
X7132000Y-11811000D02*
G75*
G03*
X7132000Y-11811000I-20000J0D01*
G01*
X7195500Y-12446000D02*
G75*
G03*
X7195500Y-12446000I-20000J0D01*
G01*
X7309800Y-6223000D02*
G75*
G03*
X7309800Y-6223000I-20000J0D01*
G01*
X7322500Y-5524500D02*
G75*
G03*
X7322500Y-5524500I-20000J0D01*
G01*
X7322500Y-10541000D02*
G75*
G03*
X7322500Y-10541000I-20000J0D01*
G01*
X7335200Y-8940800D02*
G75*
G03*
X7335200Y-8940800I-20000J0D01*
G01*
X7436800Y-8839200D02*
G75*
G03*
X7436800Y-8839200I-20000J0D01*
G01*
X7449500Y-10287000D02*
G75*
G03*
X7449500Y-10287000I-20000J0D01*
G01*
X7462200Y-4762500D02*
G75*
G03*
X7462200Y-4762500I-20000J0D01*
G01*
X7487600Y-5461000D02*
G75*
G03*
X7487600Y-5461000I-20000J0D01*
G01*
X7591740Y-9039860D02*
G75*
G03*
X7591740Y-9039860I-20000J0D01*
G01*
X7606980Y-4950460D02*
G75*
G03*
X7606980Y-4950460I-20000J0D01*
G01*
X7609520Y-9199880D02*
G75*
G03*
X7609520Y-9199880I-20000J0D01*
G01*
X7640000Y-8331200D02*
G75*
G03*
X7640000Y-8331200I-20000J0D01*
G01*
X7665400Y-12065000D02*
G75*
G03*
X7665400Y-12065000I-20000J0D01*
G01*
X7817800Y-8839200D02*
G75*
G03*
X7817800Y-8839200I-20000J0D01*
G01*
X7817800Y-8991600D02*
G75*
G03*
X7817800Y-8991600I-20000J0D01*
G01*
X7843200Y-12446000D02*
G75*
G03*
X7843200Y-12446000I-20000J0D01*
G01*
X7919400Y-13004800D02*
G75*
G03*
X7919400Y-13004800I-20000J0D01*
G01*
X8046400Y-13385800D02*
G75*
G03*
X8046400Y-13385800I-20000J0D01*
G01*
X8071800Y-4800600D02*
G75*
G03*
X8071800Y-4800600I-20000J0D01*
G01*
X8097200Y-8686800D02*
G75*
G03*
X8097200Y-8686800I-20000J0D01*
G01*
X8122600Y-8458200D02*
G75*
G03*
X8122600Y-8458200I-20000J0D01*
G01*
X8122600Y-8839200D02*
G75*
G03*
X8122600Y-8839200I-20000J0D01*
G01*
X8122600Y-10134600D02*
G75*
G03*
X8122600Y-10134600I-20000J0D01*
G01*
X8122600Y-10312400D02*
G75*
G03*
X8122600Y-10312400I-20000J0D01*
G01*
X8148000Y-7061200D02*
G75*
G03*
X8148000Y-7061200I-20000J0D01*
G01*
X8148000Y-7696200D02*
G75*
G03*
X8148000Y-7696200I-20000J0D01*
G01*
X8173400Y-4267200D02*
G75*
G03*
X8173400Y-4267200I-20000J0D01*
G01*
X8198800Y-3937000D02*
G75*
G03*
X8198800Y-3937000I-20000J0D01*
G01*
X8198800Y-4089400D02*
G75*
G03*
X8198800Y-4089400I-20000J0D01*
G01*
X8198800Y-13284200D02*
G75*
G03*
X8198800Y-13284200I-20000J0D01*
G01*
X8211500Y-3759200D02*
G75*
G03*
X8211500Y-3759200I-20000J0D01*
G01*
X8325800Y-3581400D02*
G75*
G03*
X8325800Y-3581400I-20000J0D01*
G01*
X8338500Y-4762500D02*
G75*
G03*
X8338500Y-4762500I-20000J0D01*
G01*
X8452800Y-18333720D02*
G75*
G03*
X8452800Y-18333720I-20000J0D01*
G01*
X8465500Y-3429000D02*
G75*
G03*
X8465500Y-3429000I-20000J0D01*
G01*
X8484610Y-14940280D02*
G75*
G03*
X8484610Y-14940280I-20000J0D01*
G01*
X8516300Y-11684000D02*
G75*
G03*
X8516300Y-11684000I-20000J0D01*
G01*
X8529000Y-7061200D02*
G75*
G03*
X8529000Y-7061200I-20000J0D01*
G01*
X8529000Y-10464800D02*
G75*
G03*
X8529000Y-10464800I-20000J0D01*
G01*
X8617900Y-13296900D02*
G75*
G03*
X8617900Y-13296900I-20000J0D01*
G01*
X8681400Y-11836400D02*
G75*
G03*
X8681400Y-11836400I-20000J0D01*
G01*
X8681400Y-12649200D02*
G75*
G03*
X8681400Y-12649200I-20000J0D01*
G01*
X8706800Y-8407400D02*
G75*
G03*
X8706800Y-8407400I-20000J0D01*
G01*
X8732200Y-9931400D02*
G75*
G03*
X8732200Y-9931400I-20000J0D01*
G01*
X8783000Y-3492500D02*
G75*
G03*
X8783000Y-3492500I-20000J0D01*
G01*
X8783000Y-4445000D02*
G75*
G03*
X8783000Y-4445000I-20000J0D01*
G01*
X8783000Y-4597400D02*
G75*
G03*
X8783000Y-4597400I-20000J0D01*
G01*
X8783000Y-16129000D02*
G75*
G03*
X8783000Y-16129000I-20000J0D01*
G01*
X8795700Y-3746500D02*
G75*
G03*
X8795700Y-3746500I-20000J0D01*
G01*
X8795700Y-3937000D02*
G75*
G03*
X8795700Y-3937000I-20000J0D01*
G01*
X8833800Y-8280400D02*
G75*
G03*
X8833800Y-8280400I-20000J0D01*
G01*
X8884600Y-9944100D02*
G75*
G03*
X8884600Y-9944100I-20000J0D01*
G01*
X8884600Y-10464800D02*
G75*
G03*
X8884600Y-10464800I-20000J0D01*
G01*
X8910000Y-12217400D02*
G75*
G03*
X8910000Y-12217400I-20000J0D01*
G01*
X8910000Y-12700000D02*
G75*
G03*
X8910000Y-12700000I-20000J0D01*
G01*
X8922700Y-3619500D02*
G75*
G03*
X8922700Y-3619500I-20000J0D01*
G01*
X8973500Y-13716000D02*
G75*
G03*
X8973500Y-13716000I-20000J0D01*
G01*
X9037000Y-9956800D02*
G75*
G03*
X9037000Y-9956800I-20000J0D01*
G01*
X9037000Y-10464800D02*
G75*
G03*
X9037000Y-10464800I-20000J0D01*
G01*
X9113200Y-13792200D02*
G75*
G03*
X9113200Y-13792200I-20000J0D01*
G01*
X9164000Y-12128500D02*
G75*
G03*
X9164000Y-12128500I-20000J0D01*
G01*
X9164000Y-12700000D02*
G75*
G03*
X9164000Y-12700000I-20000J0D01*
G01*
X9189400Y-10998200D02*
G75*
G03*
X9189400Y-10998200I-20000J0D01*
G01*
X9227500Y-17526000D02*
G75*
G03*
X9227500Y-17526000I-20000J0D01*
G01*
X9265600Y-4800600D02*
G75*
G03*
X9265600Y-4800600I-20000J0D01*
G01*
X9265600Y-8178800D02*
G75*
G03*
X9265600Y-8178800I-20000J0D01*
G01*
X9265600Y-8331200D02*
G75*
G03*
X9265600Y-8331200I-20000J0D01*
G01*
X9265600Y-10464800D02*
G75*
G03*
X9265600Y-10464800I-20000J0D01*
G01*
X9291000Y-16002000D02*
G75*
G03*
X9291000Y-16002000I-20000J0D01*
G01*
X9354500Y-15621000D02*
G75*
G03*
X9354500Y-15621000I-20000J0D01*
G01*
X9418000Y-4800600D02*
G75*
G03*
X9418000Y-4800600I-20000J0D01*
G01*
X9418000Y-10033000D02*
G75*
G03*
X9418000Y-10033000I-20000J0D01*
G01*
X9418000Y-10464800D02*
G75*
G03*
X9418000Y-10464800I-20000J0D01*
G01*
X9418000Y-11506200D02*
G75*
G03*
X9418000Y-11506200I-20000J0D01*
G01*
X9418000Y-16002000D02*
G75*
G03*
X9418000Y-16002000I-20000J0D01*
G01*
X9545000Y-15684500D02*
G75*
G03*
X9545000Y-15684500I-20000J0D01*
G01*
X9545000Y-17526000D02*
G75*
G03*
X9545000Y-17526000I-20000J0D01*
G01*
X9545000Y-17843500D02*
G75*
G03*
X9545000Y-17843500I-20000J0D01*
G01*
X9545000Y-18351500D02*
G75*
G03*
X9545000Y-18351500I-20000J0D01*
G01*
X9570400Y-9994900D02*
G75*
G03*
X9570400Y-9994900I-20000J0D01*
G01*
X9570400Y-11684000D02*
G75*
G03*
X9570400Y-11684000I-20000J0D01*
G01*
X9672000Y-14224000D02*
G75*
G03*
X9672000Y-14224000I-20000J0D01*
G01*
X9735500Y-13525500D02*
G75*
G03*
X9735500Y-13525500I-20000J0D01*
G01*
X9773600Y-14693900D02*
G75*
G03*
X9773600Y-14693900I-20000J0D01*
G01*
X9799000Y-14160500D02*
G75*
G03*
X9799000Y-14160500I-20000J0D01*
G01*
X9828210Y-14829790D02*
G75*
G03*
X9828210Y-14829790I-20000J0D01*
G01*
X9862500Y-17843500D02*
G75*
G03*
X9862500Y-17843500I-20000J0D01*
G01*
X9875200Y-9982200D02*
G75*
G03*
X9875200Y-9982200I-20000J0D01*
G01*
X9951400Y-10464800D02*
G75*
G03*
X9951400Y-10464800I-20000J0D01*
G01*
X10002200Y-9982200D02*
G75*
G03*
X10002200Y-9982200I-20000J0D01*
G01*
X10014900Y-8496300D02*
G75*
G03*
X10014900Y-8496300I-20000J0D01*
G01*
X10014900Y-9055100D02*
G75*
G03*
X10014900Y-9055100I-20000J0D01*
G01*
X10078400Y-12115800D02*
G75*
G03*
X10078400Y-12115800I-20000J0D01*
G01*
X10103800Y-10236200D02*
G75*
G03*
X10103800Y-10236200I-20000J0D01*
G01*
X10103800Y-10414000D02*
G75*
G03*
X10103800Y-10414000I-20000J0D01*
G01*
X10180000Y-11506200D02*
G75*
G03*
X10180000Y-11506200I-20000J0D01*
G01*
X10180000Y-11861800D02*
G75*
G03*
X10180000Y-11861800I-20000J0D01*
G01*
X10205400Y-10134600D02*
G75*
G03*
X10205400Y-10134600I-20000J0D01*
G01*
X10205400Y-11353800D02*
G75*
G03*
X10205400Y-11353800I-20000J0D01*
G01*
X10205400Y-11988800D02*
G75*
G03*
X10205400Y-11988800I-20000J0D01*
G01*
X10222252Y-17610748D02*
G75*
G03*
X10222252Y-17610748I-20000J0D01*
G01*
X10230800Y-13919200D02*
G75*
G03*
X10230800Y-13919200I-20000J0D01*
G01*
X10357800Y-12395200D02*
G75*
G03*
X10357800Y-12395200I-20000J0D01*
G01*
X10434000Y-14224000D02*
G75*
G03*
X10434000Y-14224000I-20000J0D01*
G01*
X10434000Y-17526000D02*
G75*
G03*
X10434000Y-17526000I-20000J0D01*
G01*
X10484800Y-12268200D02*
G75*
G03*
X10484800Y-12268200I-20000J0D01*
G01*
X10484800Y-13919200D02*
G75*
G03*
X10484800Y-13919200I-20000J0D01*
G01*
X10586400Y-11734800D02*
G75*
G03*
X10586400Y-11734800I-20000J0D01*
G01*
X10586400Y-11887200D02*
G75*
G03*
X10586400Y-11887200I-20000J0D01*
G01*
X10713400Y-14249400D02*
G75*
G03*
X10713400Y-14249400I-20000J0D01*
G01*
X10751500Y-13906500D02*
G75*
G03*
X10751500Y-13906500I-20000J0D01*
G01*
X10776900Y-4152900D02*
G75*
G03*
X10776900Y-4152900I-20000J0D01*
G01*
X10840400Y-13741400D02*
G75*
G03*
X10840400Y-13741400I-20000J0D01*
G01*
X11500800Y-12141200D02*
G75*
G03*
X11500800Y-12141200I-20000J0D01*
G01*
X11500800Y-12319000D02*
G75*
G03*
X11500800Y-12319000I-20000J0D01*
G01*
X11551600Y-4597400D02*
G75*
G03*
X11551600Y-4597400I-20000J0D01*
G01*
X11602400Y-12014200D02*
G75*
G03*
X11602400Y-12014200I-20000J0D01*
G01*
X11704000Y-7874000D02*
G75*
G03*
X11704000Y-7874000I-20000J0D01*
G01*
X11831000Y-5791200D02*
G75*
G03*
X11831000Y-5791200I-20000J0D01*
G01*
X11831000Y-9728200D02*
G75*
G03*
X11831000Y-9728200I-20000J0D01*
G01*
X11881800Y-5562600D02*
G75*
G03*
X11881800Y-5562600I-20000J0D01*
G01*
X11958000Y-9855200D02*
G75*
G03*
X11958000Y-9855200I-20000J0D01*
G01*
X12021500Y-12522200D02*
G75*
G03*
X12021500Y-12522200I-20000J0D01*
G01*
X12085000Y-4889500D02*
G75*
G03*
X12085000Y-4889500I-20000J0D01*
G01*
X12085000Y-5143500D02*
G75*
G03*
X12085000Y-5143500I-20000J0D01*
G01*
X12355450Y-15062200D02*
G75*
G03*
X12355450Y-15062200I-20000J0D01*
G01*
X12364400Y-14152880D02*
G75*
G03*
X12364400Y-14152880I-20000J0D01*
G01*
X12402500Y-8255000D02*
G75*
G03*
X12402500Y-8255000I-20000J0D01*
G01*
X12466000Y-4191000D02*
G75*
G03*
X12466000Y-4191000I-20000J0D01*
G01*
X12466000Y-5969000D02*
G75*
G03*
X12466000Y-5969000I-20000J0D01*
G01*
X12656500Y-7366000D02*
G75*
G03*
X12656500Y-7366000I-20000J0D01*
G01*
X12720000Y-6223000D02*
G75*
G03*
X12720000Y-6223000I-20000J0D01*
G01*
X12720000Y-11633200D02*
G75*
G03*
X12720000Y-11633200I-20000J0D01*
G01*
X12770800Y-14097000D02*
G75*
G03*
X12770800Y-14097000I-20000J0D01*
G01*
X12783500Y-16573500D02*
G75*
G03*
X12783500Y-16573500I-20000J0D01*
G01*
X12821600Y-12573000D02*
G75*
G03*
X12821600Y-12573000I-20000J0D01*
G01*
X12847000Y-3810000D02*
G75*
G03*
X12847000Y-3810000I-20000J0D01*
G01*
X12847000Y-5270500D02*
G75*
G03*
X12847000Y-5270500I-20000J0D01*
G01*
X12847000Y-7175500D02*
G75*
G03*
X12847000Y-7175500I-20000J0D01*
G01*
X12847000Y-12763500D02*
G75*
G03*
X12847000Y-12763500I-20000J0D01*
G01*
X12910500Y-5842000D02*
G75*
G03*
X12910500Y-5842000I-20000J0D01*
G01*
X12910500Y-15113000D02*
G75*
G03*
X12910500Y-15113000I-20000J0D01*
G01*
X12974000Y-12890500D02*
G75*
G03*
X12974000Y-12890500I-20000J0D01*
G01*
X12974000Y-14097000D02*
G75*
G03*
X12974000Y-14097000I-20000J0D01*
G01*
X12974000Y-16764000D02*
G75*
G03*
X12974000Y-16764000I-20000J0D01*
G01*
X13037500Y-5270500D02*
G75*
G03*
X13037500Y-5270500I-20000J0D01*
G01*
X13164500Y-15113000D02*
G75*
G03*
X13164500Y-15113000I-20000J0D01*
G01*
X13228000Y-14097000D02*
G75*
G03*
X13228000Y-14097000I-20000J0D01*
G01*
X13355000Y-4445000D02*
G75*
G03*
X13355000Y-4445000I-20000J0D01*
G01*
X13418500Y-12763500D02*
G75*
G03*
X13418500Y-12763500I-20000J0D01*
G01*
X13418500Y-15113000D02*
G75*
G03*
X13418500Y-15113000I-20000J0D01*
G01*
X13482000Y-17526000D02*
G75*
G03*
X13482000Y-17526000I-20000J0D01*
G01*
X13609000Y-12636500D02*
G75*
G03*
X13609000Y-12636500I-20000J0D01*
G01*
X14053500Y-4381500D02*
G75*
G03*
X14053500Y-4381500I-20000J0D01*
G01*
X14244000Y-10223500D02*
G75*
G03*
X14244000Y-10223500I-20000J0D01*
G01*
X10015220Y-12423540D02*
X10015220Y-12473540D01*
X9990220Y-12448540D02*
X10040220Y-12448540D01*
X4344941Y-5868941D02*
X4344941Y-5815059D01*
X4291059Y-5815059D01*
X4291059Y-5868941D01*
X4344941Y-5868941D01*
X4344941Y-6122941D02*
X4344941Y-6069059D01*
X4291059Y-6069059D01*
X4291059Y-6122941D01*
X4344941Y-6122941D01*
X4344941Y-6376941D02*
X4344941Y-6323059D01*
X4291059Y-6323059D01*
X4291059Y-6376941D01*
X4344941Y-6376941D01*
X4344941Y-6630941D02*
X4344941Y-6577059D01*
X4291059Y-6577059D01*
X4291059Y-6630941D01*
X4344941Y-6630941D01*
X4344941Y-6884941D02*
X4344941Y-6831059D01*
X4291059Y-6831059D01*
X4291059Y-6884941D01*
X4344941Y-6884941D01*
X4344941Y-7138941D02*
X4344941Y-7085059D01*
X4291059Y-7085059D01*
X4291059Y-7138941D01*
X4344941Y-7138941D01*
X4344941Y-7392941D02*
X4344941Y-7339059D01*
X4291059Y-7339059D01*
X4291059Y-7392941D01*
X4344941Y-7392941D01*
X4344941Y-8533441D02*
X4344941Y-8479559D01*
X4291059Y-8479559D01*
X4291059Y-8533441D01*
X4344941Y-8533441D01*
X4344941Y-8787441D02*
X4344941Y-8733559D01*
X4291059Y-8733559D01*
X4291059Y-8787441D01*
X4344941Y-8787441D01*
X4344941Y-9041441D02*
X4344941Y-8987559D01*
X4291059Y-8987559D01*
X4291059Y-9041441D01*
X4344941Y-9041441D01*
X4344941Y-9295441D02*
X4344941Y-9241559D01*
X4291059Y-9241559D01*
X4291059Y-9295441D01*
X4344941Y-9295441D01*
X4344941Y-9549441D02*
X4344941Y-9495559D01*
X4291059Y-9495559D01*
X4291059Y-9549441D01*
X4344941Y-9549441D01*
X4344941Y-9803441D02*
X4344941Y-9749559D01*
X4291059Y-9749559D01*
X4291059Y-9803441D01*
X4344941Y-9803441D01*
X4344941Y-10057441D02*
X4344941Y-10003559D01*
X4291059Y-10003559D01*
X4291059Y-10057441D01*
X4344941Y-10057441D01*
X5614941Y-5868941D02*
X5614941Y-5815059D01*
X5561059Y-5815059D01*
X5561059Y-5868941D01*
X5614941Y-5868941D01*
X5614941Y-6122941D02*
X5614941Y-6069059D01*
X5561059Y-6069059D01*
X5561059Y-6122941D01*
X5614941Y-6122941D01*
X5614941Y-6376941D02*
X5614941Y-6323059D01*
X5561059Y-6323059D01*
X5561059Y-6376941D01*
X5614941Y-6376941D01*
X5614941Y-6630941D02*
X5614941Y-6577059D01*
X5561059Y-6577059D01*
X5561059Y-6630941D01*
X5614941Y-6630941D01*
X5614941Y-6884941D02*
X5614941Y-6831059D01*
X5561059Y-6831059D01*
X5561059Y-6884941D01*
X5614941Y-6884941D01*
X5614941Y-7138941D02*
X5614941Y-7085059D01*
X5561059Y-7085059D01*
X5561059Y-7138941D01*
X5614941Y-7138941D01*
X5614941Y-7392941D02*
X5614941Y-7339059D01*
X5561059Y-7339059D01*
X5561059Y-7392941D01*
X5614941Y-7392941D01*
X5614941Y-8533441D02*
X5614941Y-8479559D01*
X5561059Y-8479559D01*
X5561059Y-8533441D01*
X5614941Y-8533441D01*
X5614941Y-8787441D02*
X5614941Y-8733559D01*
X5561059Y-8733559D01*
X5561059Y-8787441D01*
X5614941Y-8787441D01*
X5614941Y-9041441D02*
X5614941Y-8987559D01*
X5561059Y-8987559D01*
X5561059Y-9041441D01*
X5614941Y-9041441D01*
X5614941Y-9295441D02*
X5614941Y-9241559D01*
X5561059Y-9241559D01*
X5561059Y-9295441D01*
X5614941Y-9295441D01*
X5614941Y-9549441D02*
X5614941Y-9495559D01*
X5561059Y-9495559D01*
X5561059Y-9549441D01*
X5614941Y-9549441D01*
X5614941Y-9803441D02*
X5614941Y-9749559D01*
X5561059Y-9749559D01*
X5561059Y-9803441D01*
X5614941Y-9803441D01*
X5614941Y-10057441D02*
X5614941Y-10003559D01*
X5561059Y-10003559D01*
X5561059Y-10057441D01*
X5614941Y-10057441D01*
X6630941Y-4861941D02*
X6630941Y-4808059D01*
X6577059Y-4808059D01*
X6577059Y-4861941D01*
X6630941Y-4861941D01*
X6630941Y-5115941D02*
X6630941Y-5062059D01*
X6577059Y-5062059D01*
X6577059Y-5115941D01*
X6630941Y-5115941D01*
X6630941Y-5369941D02*
X6630941Y-5316059D01*
X6577059Y-5316059D01*
X6577059Y-5369941D01*
X6630941Y-5369941D01*
X6630941Y-5623941D02*
X6630941Y-5570059D01*
X6577059Y-5570059D01*
X6577059Y-5623941D01*
X6630941Y-5623941D01*
X6630941Y-5877941D02*
X6630941Y-5824059D01*
X6577059Y-5824059D01*
X6577059Y-5877941D01*
X6630941Y-5877941D01*
X6630941Y-6131941D02*
X6630941Y-6078059D01*
X6577059Y-6078059D01*
X6577059Y-6131941D01*
X6630941Y-6131941D01*
X6630941Y-6385941D02*
X6630941Y-6332059D01*
X6577059Y-6332059D01*
X6577059Y-6385941D01*
X6630941Y-6385941D01*
X6630941Y-6639941D02*
X6630941Y-6586059D01*
X6577059Y-6586059D01*
X6577059Y-6639941D01*
X6630941Y-6639941D01*
X7202441Y-7655941D02*
X7202441Y-7602059D01*
X7148559Y-7602059D01*
X7148559Y-7655941D01*
X7202441Y-7655941D01*
X7327941Y-7240941D02*
X7327941Y-7187059D01*
X7274059Y-7187059D01*
X7274059Y-7240941D01*
X7327941Y-7240941D01*
X7456441Y-7655941D02*
X7456441Y-7602059D01*
X7402559Y-7602059D01*
X7402559Y-7655941D01*
X7456441Y-7655941D01*
X7581941Y-7240941D02*
X7581941Y-7187059D01*
X7528059Y-7187059D01*
X7528059Y-7240941D01*
X7581941Y-7240941D01*
X7710441Y-7655941D02*
X7710441Y-7602059D01*
X7656559Y-7602059D01*
X7656559Y-7655941D01*
X7710441Y-7655941D01*
X7835941Y-7240941D02*
X7835941Y-7187059D01*
X7782059Y-7187059D01*
X7782059Y-7240941D01*
X7835941Y-7240941D01*
X7964441Y-7655941D02*
X7964441Y-7602059D01*
X7910559Y-7602059D01*
X7910559Y-7655941D01*
X7964441Y-7655941D01*
X8535941Y-4861941D02*
X8535941Y-4808059D01*
X8482059Y-4808059D01*
X8482059Y-4861941D01*
X8535941Y-4861941D01*
X8535941Y-5115941D02*
X8535941Y-5062059D01*
X8482059Y-5062059D01*
X8482059Y-5115941D01*
X8535941Y-5115941D01*
X8535941Y-5369941D02*
X8535941Y-5316059D01*
X8482059Y-5316059D01*
X8482059Y-5369941D01*
X8535941Y-5369941D01*
X8535941Y-5623941D02*
X8535941Y-5570059D01*
X8482059Y-5570059D01*
X8482059Y-5623941D01*
X8535941Y-5623941D01*
X8535941Y-5877941D02*
X8535941Y-5824059D01*
X8482059Y-5824059D01*
X8482059Y-5877941D01*
X8535941Y-5877941D01*
X8535941Y-6131941D02*
X8535941Y-6078059D01*
X8482059Y-6078059D01*
X8482059Y-6131941D01*
X8535941Y-6131941D01*
X8535941Y-6385941D02*
X8535941Y-6332059D01*
X8482059Y-6332059D01*
X8482059Y-6385941D01*
X8535941Y-6385941D01*
X8535941Y-6639941D02*
X8535941Y-6586059D01*
X8482059Y-6586059D01*
X8482059Y-6639941D01*
X8535941Y-6639941D01*
X9678941Y-3836941D02*
X9678941Y-3783059D01*
X9625059Y-3783059D01*
X9625059Y-3836941D01*
X9678941Y-3836941D01*
X9678941Y-4090941D02*
X9678941Y-4037059D01*
X9625059Y-4037059D01*
X9625059Y-4090941D01*
X9678941Y-4090941D01*
X9678941Y-4344941D02*
X9678941Y-4291059D01*
X9625059Y-4291059D01*
X9625059Y-4344941D01*
X9678941Y-4344941D01*
X9678941Y-4598941D02*
X9678941Y-4545059D01*
X9625059Y-4545059D01*
X9625059Y-4598941D01*
X9678941Y-4598941D01*
X9678941Y-4852941D02*
X9678941Y-4799059D01*
X9625059Y-4799059D01*
X9625059Y-4852941D01*
X9678941Y-4852941D01*
X9678941Y-5106941D02*
X9678941Y-5053059D01*
X9625059Y-5053059D01*
X9625059Y-5106941D01*
X9678941Y-5106941D01*
X9678941Y-5360941D02*
X9678941Y-5307059D01*
X9625059Y-5307059D01*
X9625059Y-5360941D01*
X9678941Y-5360941D01*
X9678941Y-5614941D02*
X9678941Y-5561059D01*
X9625059Y-5561059D01*
X9625059Y-5614941D01*
X9678941Y-5614941D01*
X9678941Y-5868941D02*
X9678941Y-5815059D01*
X9625059Y-5815059D01*
X9625059Y-5868941D01*
X9678941Y-5868941D01*
X9678941Y-6122941D02*
X9678941Y-6069059D01*
X9625059Y-6069059D01*
X9625059Y-6122941D01*
X9678941Y-6122941D01*
X9678941Y-6376941D02*
X9678941Y-6323059D01*
X9625059Y-6323059D01*
X9625059Y-6376941D01*
X9678941Y-6376941D01*
X9678941Y-6630941D02*
X9678941Y-6577059D01*
X9625059Y-6577059D01*
X9625059Y-6630941D01*
X9678941Y-6630941D01*
X9678941Y-6884941D02*
X9678941Y-6831059D01*
X9625059Y-6831059D01*
X9625059Y-6884941D01*
X9678941Y-6884941D01*
X9678941Y-7138941D02*
X9678941Y-7085059D01*
X9625059Y-7085059D01*
X9625059Y-7138941D01*
X9678941Y-7138941D01*
X9678941Y-7392941D02*
X9678941Y-7339059D01*
X9625059Y-7339059D01*
X9625059Y-7392941D01*
X9678941Y-7392941D01*
X9678941Y-7646941D02*
X9678941Y-7593059D01*
X9625059Y-7593059D01*
X9625059Y-7646941D01*
X9678941Y-7646941D01*
X9678941Y-7900941D02*
X9678941Y-7847059D01*
X9625059Y-7847059D01*
X9625059Y-7900941D01*
X9678941Y-7900941D01*
X9678941Y-8154941D02*
X9678941Y-8101059D01*
X9625059Y-8101059D01*
X9625059Y-8154941D01*
X9678941Y-8154941D01*
X9678941Y-8408941D02*
X9678941Y-8355059D01*
X9625059Y-8355059D01*
X9625059Y-8408941D01*
X9678941Y-8408941D01*
X9678941Y-8662941D02*
X9678941Y-8609059D01*
X9625059Y-8609059D01*
X9625059Y-8662941D01*
X9678941Y-8662941D01*
X9678941Y-8916941D02*
X9678941Y-8863059D01*
X9625059Y-8863059D01*
X9625059Y-8916941D01*
X9678941Y-8916941D01*
X9678941Y-9170941D02*
X9678941Y-9117059D01*
X9625059Y-9117059D01*
X9625059Y-9170941D01*
X9678941Y-9170941D01*
X9678941Y-9424941D02*
X9678941Y-9371059D01*
X9625059Y-9371059D01*
X9625059Y-9424941D01*
X9678941Y-9424941D01*
X9678941Y-9678941D02*
X9678941Y-9625059D01*
X9625059Y-9625059D01*
X9625059Y-9678941D01*
X9678941Y-9678941D01*
X11202941Y-3836941D02*
X11202941Y-3783059D01*
X11149059Y-3783059D01*
X11149059Y-3836941D01*
X11202941Y-3836941D01*
X11202941Y-4090941D02*
X11202941Y-4037059D01*
X11149059Y-4037059D01*
X11149059Y-4090941D01*
X11202941Y-4090941D01*
X11202941Y-4344941D02*
X11202941Y-4291059D01*
X11149059Y-4291059D01*
X11149059Y-4344941D01*
X11202941Y-4344941D01*
X11202941Y-4598941D02*
X11202941Y-4545059D01*
X11149059Y-4545059D01*
X11149059Y-4598941D01*
X11202941Y-4598941D01*
X11202941Y-4852941D02*
X11202941Y-4799059D01*
X11149059Y-4799059D01*
X11149059Y-4852941D01*
X11202941Y-4852941D01*
X11202941Y-5106941D02*
X11202941Y-5053059D01*
X11149059Y-5053059D01*
X11149059Y-5106941D01*
X11202941Y-5106941D01*
X11202941Y-5360941D02*
X11202941Y-5307059D01*
X11149059Y-5307059D01*
X11149059Y-5360941D01*
X11202941Y-5360941D01*
X11202941Y-5614941D02*
X11202941Y-5561059D01*
X11149059Y-5561059D01*
X11149059Y-5614941D01*
X11202941Y-5614941D01*
X11202941Y-5868941D02*
X11202941Y-5815059D01*
X11149059Y-5815059D01*
X11149059Y-5868941D01*
X11202941Y-5868941D01*
X11202941Y-6122941D02*
X11202941Y-6069059D01*
X11149059Y-6069059D01*
X11149059Y-6122941D01*
X11202941Y-6122941D01*
X11202941Y-6376941D02*
X11202941Y-6323059D01*
X11149059Y-6323059D01*
X11149059Y-6376941D01*
X11202941Y-6376941D01*
X11202941Y-6630941D02*
X11202941Y-6577059D01*
X11149059Y-6577059D01*
X11149059Y-6630941D01*
X11202941Y-6630941D01*
X11202941Y-6884941D02*
X11202941Y-6831059D01*
X11149059Y-6831059D01*
X11149059Y-6884941D01*
X11202941Y-6884941D01*
X11202941Y-7138941D02*
X11202941Y-7085059D01*
X11149059Y-7085059D01*
X11149059Y-7138941D01*
X11202941Y-7138941D01*
X11202941Y-7392941D02*
X11202941Y-7339059D01*
X11149059Y-7339059D01*
X11149059Y-7392941D01*
X11202941Y-7392941D01*
X11202941Y-7646941D02*
X11202941Y-7593059D01*
X11149059Y-7593059D01*
X11149059Y-7646941D01*
X11202941Y-7646941D01*
X11202941Y-7900941D02*
X11202941Y-7847059D01*
X11149059Y-7847059D01*
X11149059Y-7900941D01*
X11202941Y-7900941D01*
X11202941Y-8154941D02*
X11202941Y-8101059D01*
X11149059Y-8101059D01*
X11149059Y-8154941D01*
X11202941Y-8154941D01*
X11202941Y-8408941D02*
X11202941Y-8355059D01*
X11149059Y-8355059D01*
X11149059Y-8408941D01*
X11202941Y-8408941D01*
X11202941Y-8662941D02*
X11202941Y-8609059D01*
X11149059Y-8609059D01*
X11149059Y-8662941D01*
X11202941Y-8662941D01*
X11202941Y-8916941D02*
X11202941Y-8863059D01*
X11149059Y-8863059D01*
X11149059Y-8916941D01*
X11202941Y-8916941D01*
X11202941Y-9170941D02*
X11202941Y-9117059D01*
X11149059Y-9117059D01*
X11149059Y-9170941D01*
X11202941Y-9170941D01*
X11202941Y-9424941D02*
X11202941Y-9371059D01*
X11149059Y-9371059D01*
X11149059Y-9424941D01*
X11202941Y-9424941D01*
X11202941Y-9678941D02*
X11202941Y-9625059D01*
X11149059Y-9625059D01*
X11149059Y-9678941D01*
X11202941Y-9678941D01*
X11774441Y-4027441D02*
X11774441Y-3973559D01*
X11720559Y-3973559D01*
X11720559Y-4027441D01*
X11774441Y-4027441D01*
X11774441Y-4281441D02*
X11774441Y-4227559D01*
X11720559Y-4227559D01*
X11720559Y-4281441D01*
X11774441Y-4281441D01*
X11774441Y-4535441D02*
X11774441Y-4481559D01*
X11720559Y-4481559D01*
X11720559Y-4535441D01*
X11774441Y-4535441D01*
X11774441Y-4789441D02*
X11774441Y-4735559D01*
X11720559Y-4735559D01*
X11720559Y-4789441D01*
X11774441Y-4789441D01*
X11774441Y-5043441D02*
X11774441Y-4989559D01*
X11720559Y-4989559D01*
X11720559Y-5043441D01*
X11774441Y-5043441D01*
X11774441Y-5297441D02*
X11774441Y-5243559D01*
X11720559Y-5243559D01*
X11720559Y-5297441D01*
X11774441Y-5297441D01*
X12345941Y-6757941D02*
X12345941Y-6704059D01*
X12292059Y-6704059D01*
X12292059Y-6757941D01*
X12345941Y-6757941D01*
X12345941Y-8027941D02*
X12345941Y-7974059D01*
X12292059Y-7974059D01*
X12292059Y-8027941D01*
X12345941Y-8027941D01*
X12345941Y-8726441D02*
X12345941Y-8672559D01*
X12292059Y-8672559D01*
X12292059Y-8726441D01*
X12345941Y-8726441D01*
X12599941Y-6757941D02*
X12599941Y-6704059D01*
X12546059Y-6704059D01*
X12546059Y-6757941D01*
X12599941Y-6757941D01*
X12599941Y-8027941D02*
X12599941Y-7974059D01*
X12546059Y-7974059D01*
X12546059Y-8027941D01*
X12599941Y-8027941D01*
X12599941Y-8726441D02*
X12599941Y-8672559D01*
X12546059Y-8672559D01*
X12546059Y-8726441D01*
X12599941Y-8726441D01*
X12599941Y-9996441D02*
X12599941Y-9942559D01*
X12546059Y-9942559D01*
X12546059Y-9996441D01*
X12599941Y-9996441D01*
X12599941Y-11837941D02*
X12599941Y-11784059D01*
X12546059Y-11784059D01*
X12546059Y-11837941D01*
X12599941Y-11837941D01*
X12599941Y-12091941D02*
X12599941Y-12038059D01*
X12546059Y-12038059D01*
X12546059Y-12091941D01*
X12599941Y-12091941D01*
X12599941Y-12345941D02*
X12599941Y-12292059D01*
X12546059Y-12292059D01*
X12546059Y-12345941D01*
X12599941Y-12345941D01*
X12599941Y-12599941D02*
X12599941Y-12546059D01*
X12546059Y-12546059D01*
X12546059Y-12599941D01*
X12599941Y-12599941D01*
X12599941Y-12853941D02*
X12599941Y-12800059D01*
X12546059Y-12800059D01*
X12546059Y-12853941D01*
X12599941Y-12853941D01*
X12599941Y-13107941D02*
X12599941Y-13054059D01*
X12546059Y-13054059D01*
X12546059Y-13107941D01*
X12599941Y-13107941D01*
X12599941Y-13361941D02*
X12599941Y-13308059D01*
X12546059Y-13308059D01*
X12546059Y-13361941D01*
X12599941Y-13361941D01*
X12599941Y-14250941D02*
X12599941Y-14197059D01*
X12546059Y-14197059D01*
X12546059Y-14250941D01*
X12599941Y-14250941D01*
X12599941Y-14504941D02*
X12599941Y-14451059D01*
X12546059Y-14451059D01*
X12546059Y-14504941D01*
X12599941Y-14504941D01*
X12599941Y-14758941D02*
X12599941Y-14705059D01*
X12546059Y-14705059D01*
X12546059Y-14758941D01*
X12599941Y-14758941D01*
X12599941Y-15012941D02*
X12599941Y-14959059D01*
X12546059Y-14959059D01*
X12546059Y-15012941D01*
X12599941Y-15012941D01*
X12599941Y-15266941D02*
X12599941Y-15213059D01*
X12546059Y-15213059D01*
X12546059Y-15266941D01*
X12599941Y-15266941D01*
X12599941Y-15520941D02*
X12599941Y-15467059D01*
X12546059Y-15467059D01*
X12546059Y-15520941D01*
X12599941Y-15520941D01*
X12599941Y-15774941D02*
X12599941Y-15721059D01*
X12546059Y-15721059D01*
X12546059Y-15774941D01*
X12599941Y-15774941D01*
X12853941Y-6757941D02*
X12853941Y-6704059D01*
X12800059Y-6704059D01*
X12800059Y-6757941D01*
X12853941Y-6757941D01*
X12853941Y-8027941D02*
X12853941Y-7974059D01*
X12800059Y-7974059D01*
X12800059Y-8027941D01*
X12853941Y-8027941D01*
X12853941Y-8726441D02*
X12853941Y-8672559D01*
X12800059Y-8672559D01*
X12800059Y-8726441D01*
X12853941Y-8726441D01*
X12853941Y-9996441D02*
X12853941Y-9942559D01*
X12800059Y-9942559D01*
X12800059Y-9996441D01*
X12853941Y-9996441D01*
X13107941Y-6757941D02*
X13107941Y-6704059D01*
X13054059Y-6704059D01*
X13054059Y-6757941D01*
X13107941Y-6757941D01*
X13107941Y-8027941D02*
X13107941Y-7974059D01*
X13054059Y-7974059D01*
X13054059Y-8027941D01*
X13107941Y-8027941D01*
X13107941Y-8726441D02*
X13107941Y-8672559D01*
X13054059Y-8672559D01*
X13054059Y-8726441D01*
X13107941Y-8726441D01*
X13107941Y-9996441D02*
X13107941Y-9942559D01*
X13054059Y-9942559D01*
X13054059Y-9996441D01*
X13107941Y-9996441D01*
X13361941Y-6757941D02*
X13361941Y-6704059D01*
X13308059Y-6704059D01*
X13308059Y-6757941D01*
X13361941Y-6757941D01*
X13361941Y-8027941D02*
X13361941Y-7974059D01*
X13308059Y-7974059D01*
X13308059Y-8027941D01*
X13361941Y-8027941D01*
X13361941Y-8726441D02*
X13361941Y-8672559D01*
X13308059Y-8672559D01*
X13308059Y-8726441D01*
X13361941Y-8726441D01*
X13361941Y-9996441D02*
X13361941Y-9942559D01*
X13308059Y-9942559D01*
X13308059Y-9996441D01*
X13361941Y-9996441D01*
X13552441Y-4027441D02*
X13552441Y-3973559D01*
X13498559Y-3973559D01*
X13498559Y-4027441D01*
X13552441Y-4027441D01*
X13552441Y-4281441D02*
X13552441Y-4227559D01*
X13498559Y-4227559D01*
X13498559Y-4281441D01*
X13552441Y-4281441D01*
X13552441Y-4535441D02*
X13552441Y-4481559D01*
X13498559Y-4481559D01*
X13498559Y-4535441D01*
X13552441Y-4535441D01*
X13552441Y-4789441D02*
X13552441Y-4735559D01*
X13498559Y-4735559D01*
X13498559Y-4789441D01*
X13552441Y-4789441D01*
X13552441Y-5043441D02*
X13552441Y-4989559D01*
X13498559Y-4989559D01*
X13498559Y-5043441D01*
X13552441Y-5043441D01*
X13552441Y-5297441D02*
X13552441Y-5243559D01*
X13498559Y-5243559D01*
X13498559Y-5297441D01*
X13552441Y-5297441D01*
X13615941Y-6757941D02*
X13615941Y-6704059D01*
X13562059Y-6704059D01*
X13562059Y-6757941D01*
X13615941Y-6757941D01*
X13615941Y-8027941D02*
X13615941Y-7974059D01*
X13562059Y-7974059D01*
X13562059Y-8027941D01*
X13615941Y-8027941D01*
X13615941Y-8726441D02*
X13615941Y-8672559D01*
X13562059Y-8672559D01*
X13562059Y-8726441D01*
X13615941Y-8726441D01*
X13615941Y-9996441D02*
X13615941Y-9942559D01*
X13562059Y-9942559D01*
X13562059Y-9996441D01*
X13615941Y-9996441D01*
X13869941Y-11837941D02*
X13869941Y-11784059D01*
X13816059Y-11784059D01*
X13816059Y-11837941D01*
X13869941Y-11837941D01*
X13869941Y-12091941D02*
X13869941Y-12038059D01*
X13816059Y-12038059D01*
X13816059Y-12091941D01*
X13869941Y-12091941D01*
X13869941Y-12345941D02*
X13869941Y-12292059D01*
X13816059Y-12292059D01*
X13816059Y-12345941D01*
X13869941Y-12345941D01*
X13869941Y-12599941D02*
X13869941Y-12546059D01*
X13816059Y-12546059D01*
X13816059Y-12599941D01*
X13869941Y-12599941D01*
X13869941Y-12853941D02*
X13869941Y-12800059D01*
X13816059Y-12800059D01*
X13816059Y-12853941D01*
X13869941Y-12853941D01*
X13869941Y-13107941D02*
X13869941Y-13054059D01*
X13816059Y-13054059D01*
X13816059Y-13107941D01*
X13869941Y-13107941D01*
X13869941Y-13361941D02*
X13869941Y-13308059D01*
X13816059Y-13308059D01*
X13816059Y-13361941D01*
X13869941Y-13361941D01*
X13869941Y-14250941D02*
X13869941Y-14197059D01*
X13816059Y-14197059D01*
X13816059Y-14250941D01*
X13869941Y-14250941D01*
X13869941Y-14504941D02*
X13869941Y-14451059D01*
X13816059Y-14451059D01*
X13816059Y-14504941D01*
X13869941Y-14504941D01*
X13869941Y-14758941D02*
X13869941Y-14705059D01*
X13816059Y-14705059D01*
X13816059Y-14758941D01*
X13869941Y-14758941D01*
X13869941Y-15012941D02*
X13869941Y-14959059D01*
X13816059Y-14959059D01*
X13816059Y-15012941D01*
X13869941Y-15012941D01*
X13869941Y-15266941D02*
X13869941Y-15213059D01*
X13816059Y-15213059D01*
X13816059Y-15266941D01*
X13869941Y-15266941D01*
X13869941Y-15520941D02*
X13869941Y-15467059D01*
X13816059Y-15467059D01*
X13816059Y-15520941D01*
X13869941Y-15520941D01*
X13869941Y-15774941D02*
X13869941Y-15721059D01*
X13816059Y-15721059D01*
X13816059Y-15774941D01*
X13869941Y-15774941D01*
X6223000Y-8549000D02*
X6263000Y-8509000D01*
X6223000Y-8469000D01*
X6183000Y-8509000D01*
X6223000Y-8549000D01*
X6223000Y-9565000D02*
X6263000Y-9525000D01*
X6223000Y-9485000D01*
X6183000Y-9525000D01*
X6223000Y-9565000D01*
X6604000Y-8549000D02*
X6644000Y-8509000D01*
X6604000Y-8469000D01*
X6564000Y-8509000D01*
X6604000Y-8549000D01*
X6604000Y-9565000D02*
X6644000Y-9525000D01*
X6604000Y-9485000D01*
X6564000Y-9525000D01*
X6604000Y-9565000D01*
X6985000Y-8549000D02*
X7025000Y-8509000D01*
X6985000Y-8469000D01*
X6945000Y-8509000D01*
X6985000Y-8549000D01*
X6985000Y-9565000D02*
X7025000Y-9525000D01*
X6985000Y-9485000D01*
X6945000Y-9525000D01*
X6985000Y-9565000D01*
X7366000Y-8549000D02*
X7406000Y-8509000D01*
X7366000Y-8469000D01*
X7326000Y-8509000D01*
X7366000Y-8549000D01*
X7366000Y-9565000D02*
X7406000Y-9525000D01*
X7366000Y-9485000D01*
X7326000Y-9525000D01*
X7366000Y-9565000D01*
X11049000Y-17375500D02*
X11089000Y-17335500D01*
X11049000Y-17295500D01*
X11009000Y-17335500D01*
X11049000Y-17375500D01*
X11049000Y-17693000D02*
X11089000Y-17653000D01*
X11049000Y-17613000D01*
X11009000Y-17653000D01*
X11049000Y-17693000D01*
X11049000Y-18010500D02*
X11089000Y-17970500D01*
X11049000Y-17930500D01*
X11009000Y-17970500D01*
X11049000Y-18010500D01*
X11049000Y-18328000D02*
X11089000Y-18288000D01*
X11049000Y-18248000D01*
X11009000Y-18288000D01*
X11049000Y-18328000D01*
X12065000Y-17375500D02*
X12105000Y-17335500D01*
X12065000Y-17295500D01*
X12025000Y-17335500D01*
X12065000Y-17375500D01*
X12065000Y-17693000D02*
X12105000Y-17653000D01*
X12065000Y-17613000D01*
X12025000Y-17653000D01*
X12065000Y-17693000D01*
X12065000Y-18010500D02*
X12105000Y-17970500D01*
X12065000Y-17930500D01*
X12025000Y-17970500D01*
X12065000Y-18010500D01*
X12065000Y-18328000D02*
X12105000Y-18288000D01*
X12065000Y-18248000D01*
X12025000Y-18288000D01*
X12065000Y-18328000D01*
X12890500Y-17883500D02*
X12930500Y-17843500D01*
X12890500Y-17803500D01*
X12850500Y-17843500D01*
X12890500Y-17883500D01*
X12890500Y-18264500D02*
X12930500Y-18224500D01*
X12890500Y-18184500D01*
X12850500Y-18224500D01*
X12890500Y-18264500D01*
X13906500Y-17883500D02*
X13946500Y-17843500D01*
X13906500Y-17803500D01*
X13866500Y-17843500D01*
X13906500Y-17883500D01*
X13906500Y-18264500D02*
X13946500Y-18224500D01*
X13906500Y-18184500D01*
X13866500Y-18224500D01*
X13906500Y-18264500D01*
X3572000Y-10696000D02*
X3667000Y-10791000D01*
X3667000Y-10696000D02*
X3572000Y-10791000D01*
X3667000Y-10743500D02*
G75*
G03*
X3667000Y-10743500I-47500J0D01*
G01*
X3572000Y-10946000D02*
X3667000Y-11041000D01*
X3667000Y-10946000D02*
X3572000Y-11041000D01*
X3667000Y-10993500D02*
G75*
G03*
X3667000Y-10993500I-47500J0D01*
G01*
X3572000Y-11196000D02*
X3667000Y-11291000D01*
X3667000Y-11196000D02*
X3572000Y-11291000D01*
X3667000Y-11243500D02*
G75*
G03*
X3667000Y-11243500I-47500J0D01*
G01*
X3572000Y-11446000D02*
X3667000Y-11541000D01*
X3667000Y-11446000D02*
X3572000Y-11541000D01*
X3667000Y-11493500D02*
G75*
G03*
X3667000Y-11493500I-47500J0D01*
G01*
X3572000Y-11696000D02*
X3667000Y-11791000D01*
X3667000Y-11696000D02*
X3572000Y-11791000D01*
X3667000Y-11743500D02*
G75*
G03*
X3667000Y-11743500I-47500J0D01*
G01*
X3699000Y-3580000D02*
X3794000Y-3675000D01*
X3794000Y-3580000D02*
X3699000Y-3675000D01*
X3794000Y-3627500D02*
G75*
G03*
X3794000Y-3627500I-47500J0D01*
G01*
X3699000Y-3830000D02*
X3794000Y-3925000D01*
X3794000Y-3830000D02*
X3699000Y-3925000D01*
X3794000Y-3877500D02*
G75*
G03*
X3794000Y-3877500I-47500J0D01*
G01*
X3699000Y-4080000D02*
X3794000Y-4175000D01*
X3794000Y-4080000D02*
X3699000Y-4175000D01*
X3794000Y-4127500D02*
G75*
G03*
X3794000Y-4127500I-47500J0D01*
G01*
X3699000Y-4330000D02*
X3794000Y-4425000D01*
X3794000Y-4330000D02*
X3699000Y-4425000D01*
X3794000Y-4377500D02*
G75*
G03*
X3794000Y-4377500I-47500J0D01*
G01*
X3699000Y-4580000D02*
X3794000Y-4675000D01*
X3794000Y-4580000D02*
X3699000Y-4675000D01*
X3794000Y-4627500D02*
G75*
G03*
X3794000Y-4627500I-47500J0D01*
G01*
X4472000Y-10688000D02*
X4567000Y-10783000D01*
X4567000Y-10688000D02*
X4472000Y-10783000D01*
X4567000Y-10735500D02*
G75*
G03*
X4567000Y-10735500I-47500J0D01*
G01*
X4472000Y-10938000D02*
X4567000Y-11033000D01*
X4567000Y-10938000D02*
X4472000Y-11033000D01*
X4567000Y-10985500D02*
G75*
G03*
X4567000Y-10985500I-47500J0D01*
G01*
X4472000Y-11188000D02*
X4567000Y-11283000D01*
X4567000Y-11188000D02*
X4472000Y-11283000D01*
X4567000Y-11235500D02*
G75*
G03*
X4567000Y-11235500I-47500J0D01*
G01*
X4472000Y-11438000D02*
X4567000Y-11533000D01*
X4567000Y-11438000D02*
X4472000Y-11533000D01*
X4567000Y-11485500D02*
G75*
G03*
X4567000Y-11485500I-47500J0D01*
G01*
X4472000Y-11688000D02*
X4567000Y-11783000D01*
X4567000Y-11688000D02*
X4472000Y-11783000D01*
X4567000Y-11735500D02*
G75*
G03*
X4567000Y-11735500I-47500J0D01*
G01*
X4588000Y-3580000D02*
X4683000Y-3675000D01*
X4683000Y-3580000D02*
X4588000Y-3675000D01*
X4683000Y-3627500D02*
G75*
G03*
X4683000Y-3627500I-47500J0D01*
G01*
X4588000Y-3830000D02*
X4683000Y-3925000D01*
X4683000Y-3830000D02*
X4588000Y-3925000D01*
X4683000Y-3877500D02*
G75*
G03*
X4683000Y-3877500I-47500J0D01*
G01*
X4588000Y-4080000D02*
X4683000Y-4175000D01*
X4683000Y-4080000D02*
X4588000Y-4175000D01*
X4683000Y-4127500D02*
G75*
G03*
X4683000Y-4127500I-47500J0D01*
G01*
X4588000Y-4330000D02*
X4683000Y-4425000D01*
X4683000Y-4330000D02*
X4588000Y-4425000D01*
X4683000Y-4377500D02*
G75*
G03*
X4683000Y-4377500I-47500J0D01*
G01*
X4588000Y-4580000D02*
X4683000Y-4675000D01*
X4683000Y-4580000D02*
X4588000Y-4675000D01*
X4683000Y-4627500D02*
G75*
G03*
X4683000Y-4627500I-47500J0D01*
G01*
X6556500Y-10311000D02*
X6651500Y-10406000D01*
X6651500Y-10311000D02*
X6556500Y-10406000D01*
X6651500Y-10358500D02*
G75*
G03*
X6651500Y-10358500I-47500J0D01*
G01*
X6556500Y-10561000D02*
X6651500Y-10656000D01*
X6651500Y-10561000D02*
X6556500Y-10656000D01*
X6651500Y-10608500D02*
G75*
G03*
X6651500Y-10608500I-47500J0D01*
G01*
X6556500Y-10811000D02*
X6651500Y-10906000D01*
X6651500Y-10811000D02*
X6556500Y-10906000D01*
X6651500Y-10858500D02*
G75*
G03*
X6651500Y-10858500I-47500J0D01*
G01*
X8592500Y-18748500D02*
X8687500Y-18843500D01*
X8687500Y-18748500D02*
X8592500Y-18843500D01*
X8687500Y-18796000D02*
G75*
G03*
X8687500Y-18796000I-47500J0D01*
G01*
X8604500Y-17975500D02*
X8699500Y-18070500D01*
X8699500Y-17975500D02*
X8604500Y-18070500D01*
X8699500Y-18023000D02*
G75*
G03*
X8699500Y-18023000I-47500J0D01*
G01*
X8757000Y-16657000D02*
X8852000Y-16752000D01*
X8852000Y-16657000D02*
X8757000Y-16752000D01*
X8852000Y-16704500D02*
G75*
G03*
X8852000Y-16704500I-47500J0D01*
G01*
X8757000Y-16907000D02*
X8852000Y-17002000D01*
X8852000Y-16907000D02*
X8757000Y-17002000D01*
X8852000Y-16954500D02*
G75*
G03*
X8852000Y-16954500I-47500J0D01*
G01*
X8757000Y-17157000D02*
X8852000Y-17252000D01*
X8852000Y-17157000D02*
X8757000Y-17252000D01*
X8852000Y-17204500D02*
G75*
G03*
X8852000Y-17204500I-47500J0D01*
G01*
X8842500Y-18748500D02*
X8937500Y-18843500D01*
X8937500Y-18748500D02*
X8842500Y-18843500D01*
X8937500Y-18796000D02*
G75*
G03*
X8937500Y-18796000I-47500J0D01*
G01*
X8848500Y-14441500D02*
X8943500Y-14536500D01*
X8943500Y-14441500D02*
X8848500Y-14536500D01*
X8943500Y-14489000D02*
G75*
G03*
X8943500Y-14489000I-47500J0D01*
G01*
X8854500Y-17975500D02*
X8949500Y-18070500D01*
X8949500Y-17975500D02*
X8854500Y-18070500D01*
X8949500Y-18023000D02*
G75*
G03*
X8949500Y-18023000I-47500J0D01*
G01*
X9092500Y-18748500D02*
X9187500Y-18843500D01*
X9187500Y-18748500D02*
X9092500Y-18843500D01*
X9187500Y-18796000D02*
G75*
G03*
X9187500Y-18796000I-47500J0D01*
G01*
X9098500Y-14441500D02*
X9193500Y-14536500D01*
X9193500Y-14441500D02*
X9098500Y-14536500D01*
X9193500Y-14489000D02*
G75*
G03*
X9193500Y-14489000I-47500J0D01*
G01*
X9104500Y-17975500D02*
X9199500Y-18070500D01*
X9199500Y-17975500D02*
X9104500Y-18070500D01*
X9199500Y-18023000D02*
G75*
G03*
X9199500Y-18023000I-47500J0D01*
G01*
X9342500Y-18748500D02*
X9437500Y-18843500D01*
X9437500Y-18748500D02*
X9342500Y-18843500D01*
X9437500Y-18796000D02*
G75*
G03*
X9437500Y-18796000I-47500J0D01*
G01*
X9348500Y-14441500D02*
X9443500Y-14536500D01*
X9443500Y-14441500D02*
X9348500Y-14536500D01*
X9443500Y-14489000D02*
G75*
G03*
X9443500Y-14489000I-47500J0D01*
G01*
X9354500Y-17975500D02*
X9449500Y-18070500D01*
X9449500Y-17975500D02*
X9354500Y-18070500D01*
X9449500Y-18023000D02*
G75*
G03*
X9449500Y-18023000I-47500J0D01*
G01*
X9547000Y-15319500D02*
X9642000Y-15414500D01*
X9642000Y-15319500D02*
X9547000Y-15414500D01*
X9642000Y-15367000D02*
G75*
G03*
X9642000Y-15367000I-47500J0D01*
G01*
X9592500Y-18748500D02*
X9687500Y-18843500D01*
X9687500Y-18748500D02*
X9592500Y-18843500D01*
X9687500Y-18796000D02*
G75*
G03*
X9687500Y-18796000I-47500J0D01*
G01*
X9593500Y-16657000D02*
X9688500Y-16752000D01*
X9688500Y-16657000D02*
X9593500Y-16752000D01*
X9688500Y-16704500D02*
G75*
G03*
X9688500Y-16704500I-47500J0D01*
G01*
X9593500Y-16907000D02*
X9688500Y-17002000D01*
X9688500Y-16907000D02*
X9593500Y-17002000D01*
X9688500Y-16954500D02*
G75*
G03*
X9688500Y-16954500I-47500J0D01*
G01*
X9593500Y-17157000D02*
X9688500Y-17252000D01*
X9688500Y-17157000D02*
X9593500Y-17252000D01*
X9688500Y-17204500D02*
G75*
G03*
X9688500Y-17204500I-47500J0D01*
G01*
X9598500Y-14441500D02*
X9693500Y-14536500D01*
X9693500Y-14441500D02*
X9598500Y-14536500D01*
X9693500Y-14489000D02*
G75*
G03*
X9693500Y-14489000I-47500J0D01*
G01*
X9604500Y-17975500D02*
X9699500Y-18070500D01*
X9699500Y-17975500D02*
X9604500Y-18070500D01*
X9699500Y-18023000D02*
G75*
G03*
X9699500Y-18023000I-47500J0D01*
G01*
X9797000Y-15319500D02*
X9892000Y-15414500D01*
X9892000Y-15319500D02*
X9797000Y-15414500D01*
X9892000Y-15367000D02*
G75*
G03*
X9892000Y-15367000I-47500J0D01*
G01*
X9854500Y-17975500D02*
X9949500Y-18070500D01*
X9949500Y-17975500D02*
X9854500Y-18070500D01*
X9949500Y-18023000D02*
G75*
G03*
X9949500Y-18023000I-47500J0D01*
G01*
X10047000Y-15319500D02*
X10142000Y-15414500D01*
X10142000Y-15319500D02*
X10047000Y-15414500D01*
X10142000Y-15367000D02*
G75*
G03*
X10142000Y-15367000I-47500J0D01*
G01*
X10297000Y-15319500D02*
X10392000Y-15414500D01*
X10392000Y-15319500D02*
X10297000Y-15414500D01*
X10392000Y-15367000D02*
G75*
G03*
X10392000Y-15367000I-47500J0D01*
G01*
X10303000Y-16081500D02*
X10398000Y-16176500D01*
X10398000Y-16081500D02*
X10303000Y-16176500D01*
X10398000Y-16129000D02*
G75*
G03*
X10398000Y-16129000I-47500J0D01*
G01*
X10303000Y-16331500D02*
X10398000Y-16426500D01*
X10398000Y-16331500D02*
X10303000Y-16426500D01*
X10398000Y-16379000D02*
G75*
G03*
X10398000Y-16379000I-47500J0D01*
G01*
X10303000Y-16581500D02*
X10398000Y-16676500D01*
X10398000Y-16581500D02*
X10303000Y-16676500D01*
X10398000Y-16629000D02*
G75*
G03*
X10398000Y-16629000I-47500J0D01*
G01*
X10303000Y-16831500D02*
X10398000Y-16926500D01*
X10398000Y-16831500D02*
X10303000Y-16926500D01*
X10398000Y-16879000D02*
G75*
G03*
X10398000Y-16879000I-47500J0D01*
G01*
X10303000Y-17081500D02*
X10398000Y-17176500D01*
X10398000Y-17081500D02*
X10303000Y-17176500D01*
X10398000Y-17129000D02*
G75*
G03*
X10398000Y-17129000I-47500J0D01*
G01*
X11069000Y-18748500D02*
X11164000Y-18843500D01*
X11164000Y-18748500D02*
X11069000Y-18843500D01*
X11164000Y-18796000D02*
G75*
G03*
X11164000Y-18796000I-47500J0D01*
G01*
X11139500Y-15585500D02*
X11234500Y-15680500D01*
X11234500Y-15585500D02*
X11139500Y-15680500D01*
X11234500Y-15633000D02*
G75*
G03*
X11234500Y-15633000I-47500J0D01*
G01*
X11139500Y-15835500D02*
X11234500Y-15930500D01*
X11234500Y-15835500D02*
X11139500Y-15930500D01*
X11234500Y-15883000D02*
G75*
G03*
X11234500Y-15883000I-47500J0D01*
G01*
X11139500Y-16085500D02*
X11234500Y-16180500D01*
X11234500Y-16085500D02*
X11139500Y-16180500D01*
X11234500Y-16133000D02*
G75*
G03*
X11234500Y-16133000I-47500J0D01*
G01*
X11139500Y-16335500D02*
X11234500Y-16430500D01*
X11234500Y-16335500D02*
X11139500Y-16430500D01*
X11234500Y-16383000D02*
G75*
G03*
X11234500Y-16383000I-47500J0D01*
G01*
X11139500Y-16585500D02*
X11234500Y-16680500D01*
X11234500Y-16585500D02*
X11139500Y-16680500D01*
X11234500Y-16633000D02*
G75*
G03*
X11234500Y-16633000I-47500J0D01*
G01*
X11319000Y-18748500D02*
X11414000Y-18843500D01*
X11414000Y-18748500D02*
X11319000Y-18843500D01*
X11414000Y-18796000D02*
G75*
G03*
X11414000Y-18796000I-47500J0D01*
G01*
X11569000Y-18748500D02*
X11664000Y-18843500D01*
X11664000Y-18748500D02*
X11569000Y-18843500D01*
X11664000Y-18796000D02*
G75*
G03*
X11664000Y-18796000I-47500J0D01*
G01*
X11819000Y-18748500D02*
X11914000Y-18843500D01*
X11914000Y-18748500D02*
X11819000Y-18843500D01*
X11914000Y-18796000D02*
G75*
G03*
X11914000Y-18796000I-47500J0D01*
G01*
X12069000Y-18748500D02*
X12164000Y-18843500D01*
X12164000Y-18748500D02*
X12069000Y-18843500D01*
X12164000Y-18796000D02*
G75*
G03*
X12164000Y-18796000I-47500J0D01*
G01*
X12724000Y-18748500D02*
X12819000Y-18843500D01*
X12819000Y-18748500D02*
X12724000Y-18843500D01*
X12819000Y-18796000D02*
G75*
G03*
X12819000Y-18796000I-47500J0D01*
G01*
X12974000Y-18748500D02*
X13069000Y-18843500D01*
X13069000Y-18748500D02*
X12974000Y-18843500D01*
X13069000Y-18796000D02*
G75*
G03*
X13069000Y-18796000I-47500J0D01*
G01*
X13224000Y-18748500D02*
X13319000Y-18843500D01*
X13319000Y-18748500D02*
X13224000Y-18843500D01*
X13319000Y-18796000D02*
G75*
G03*
X13319000Y-18796000I-47500J0D01*
G01*
X13863000Y-18748500D02*
X13958000Y-18843500D01*
X13958000Y-18748500D02*
X13863000Y-18843500D01*
X13958000Y-18796000D02*
G75*
G03*
X13958000Y-18796000I-47500J0D01*
G01*
X14113000Y-18748500D02*
X14208000Y-18843500D01*
X14208000Y-18748500D02*
X14113000Y-18843500D01*
X14208000Y-18796000D02*
G75*
G03*
X14208000Y-18796000I-47500J0D01*
G01*
X14303500Y-3580000D02*
X14398500Y-3675000D01*
X14398500Y-3580000D02*
X14303500Y-3675000D01*
X14398500Y-3627500D02*
G75*
G03*
X14398500Y-3627500I-47500J0D01*
G01*
X14303500Y-3830000D02*
X14398500Y-3925000D01*
X14398500Y-3830000D02*
X14303500Y-3925000D01*
X14398500Y-3877500D02*
G75*
G03*
X14398500Y-3877500I-47500J0D01*
G01*
X14303500Y-4080000D02*
X14398500Y-4175000D01*
X14398500Y-4080000D02*
X14303500Y-4175000D01*
X14398500Y-4127500D02*
G75*
G03*
X14398500Y-4127500I-47500J0D01*
G01*
X14303500Y-4330000D02*
X14398500Y-4425000D01*
X14398500Y-4330000D02*
X14303500Y-4425000D01*
X14398500Y-4377500D02*
G75*
G03*
X14398500Y-4377500I-47500J0D01*
G01*
X14303500Y-4580000D02*
X14398500Y-4675000D01*
X14398500Y-4580000D02*
X14303500Y-4675000D01*
X14398500Y-4627500D02*
G75*
G03*
X14398500Y-4627500I-47500J0D01*
G01*
X14303500Y-16220500D02*
X14398500Y-16315500D01*
X14398500Y-16220500D02*
X14303500Y-16315500D01*
X14398500Y-16268000D02*
G75*
G03*
X14398500Y-16268000I-47500J0D01*
G01*
X14303500Y-16470500D02*
X14398500Y-16565500D01*
X14398500Y-16470500D02*
X14303500Y-16565500D01*
X14398500Y-16518000D02*
G75*
G03*
X14398500Y-16518000I-47500J0D01*
G01*
X14303500Y-16720500D02*
X14398500Y-16815500D01*
X14398500Y-16720500D02*
X14303500Y-16815500D01*
X14398500Y-16768000D02*
G75*
G03*
X14398500Y-16768000I-47500J0D01*
G01*
X14303500Y-16970500D02*
X14398500Y-17065500D01*
X14398500Y-16970500D02*
X14303500Y-17065500D01*
X14398500Y-17018000D02*
G75*
G03*
X14398500Y-17018000I-47500J0D01*
G01*
X14303500Y-17220500D02*
X14398500Y-17315500D01*
X14398500Y-17220500D02*
X14303500Y-17315500D01*
X14398500Y-17268000D02*
G75*
G03*
X14398500Y-17268000I-47500J0D01*
G01*
X14363000Y-18748500D02*
X14458000Y-18843500D01*
X14458000Y-18748500D02*
X14363000Y-18843500D01*
X14458000Y-18796000D02*
G75*
G03*
X14458000Y-18796000I-47500J0D01*
G01*
X3506000Y-5220500D02*
X3606000Y-5320500D01*
X3606000Y-5220500D02*
X3506000Y-5320500D01*
X3556000Y-5220500D02*
X3556000Y-5320500D01*
X3506000Y-5270500D02*
X3606000Y-5270500D01*
X3506000Y-5474500D02*
X3606000Y-5574500D01*
X3606000Y-5474500D02*
X3506000Y-5574500D01*
X3556000Y-5474500D02*
X3556000Y-5574500D01*
X3506000Y-5524500D02*
X3606000Y-5524500D01*
X3506000Y-5728500D02*
X3606000Y-5828500D01*
X3606000Y-5728500D02*
X3506000Y-5828500D01*
X3556000Y-5728500D02*
X3556000Y-5828500D01*
X3506000Y-5778500D02*
X3606000Y-5778500D01*
X3506000Y-5982500D02*
X3606000Y-6082500D01*
X3606000Y-5982500D02*
X3506000Y-6082500D01*
X3556000Y-5982500D02*
X3556000Y-6082500D01*
X3506000Y-6032500D02*
X3606000Y-6032500D01*
X3506000Y-6236500D02*
X3606000Y-6336500D01*
X3606000Y-6236500D02*
X3506000Y-6336500D01*
X3556000Y-6236500D02*
X3556000Y-6336500D01*
X3506000Y-6286500D02*
X3606000Y-6286500D01*
X3506000Y-6490500D02*
X3606000Y-6590500D01*
X3606000Y-6490500D02*
X3506000Y-6590500D01*
X3556000Y-6490500D02*
X3556000Y-6590500D01*
X3506000Y-6540500D02*
X3606000Y-6540500D01*
X3506000Y-7887500D02*
X3606000Y-7987500D01*
X3606000Y-7887500D02*
X3506000Y-7987500D01*
X3556000Y-7887500D02*
X3556000Y-7987500D01*
X3506000Y-7937500D02*
X3606000Y-7937500D01*
X3506000Y-8141500D02*
X3606000Y-8241500D01*
X3606000Y-8141500D02*
X3506000Y-8241500D01*
X3556000Y-8141500D02*
X3556000Y-8241500D01*
X3506000Y-8191500D02*
X3606000Y-8191500D01*
X3506000Y-8395500D02*
X3606000Y-8495500D01*
X3606000Y-8395500D02*
X3506000Y-8495500D01*
X3556000Y-8395500D02*
X3556000Y-8495500D01*
X3506000Y-8445500D02*
X3606000Y-8445500D01*
X3506000Y-8649500D02*
X3606000Y-8749500D01*
X3606000Y-8649500D02*
X3506000Y-8749500D01*
X3556000Y-8649500D02*
X3556000Y-8749500D01*
X3506000Y-8699500D02*
X3606000Y-8699500D01*
X3506000Y-8903500D02*
X3606000Y-9003500D01*
X3606000Y-8903500D02*
X3506000Y-9003500D01*
X3556000Y-8903500D02*
X3556000Y-9003500D01*
X3506000Y-8953500D02*
X3606000Y-8953500D01*
X3506000Y-9157500D02*
X3606000Y-9257500D01*
X3606000Y-9157500D02*
X3506000Y-9257500D01*
X3556000Y-9157500D02*
X3556000Y-9257500D01*
X3506000Y-9207500D02*
X3606000Y-9207500D01*
X3573500Y-12407000D02*
X3673500Y-12507000D01*
X3673500Y-12407000D02*
X3573500Y-12507000D01*
X3623500Y-12407000D02*
X3623500Y-12507000D01*
X3573500Y-12457000D02*
X3673500Y-12457000D01*
X3633000Y-13221500D02*
X3733000Y-13321500D01*
X3733000Y-13221500D02*
X3633000Y-13321500D01*
X3683000Y-13221500D02*
X3683000Y-13321500D01*
X3633000Y-13271500D02*
X3733000Y-13271500D01*
X3685500Y-7062000D02*
X3785500Y-7162000D01*
X3785500Y-7062000D02*
X3685500Y-7162000D01*
X3735500Y-7062000D02*
X3735500Y-7162000D01*
X3685500Y-7112000D02*
X3785500Y-7112000D01*
X3685500Y-7312000D02*
X3785500Y-7412000D01*
X3785500Y-7312000D02*
X3685500Y-7412000D01*
X3735500Y-7312000D02*
X3735500Y-7412000D01*
X3685500Y-7362000D02*
X3785500Y-7362000D01*
X3685500Y-9729000D02*
X3785500Y-9829000D01*
X3785500Y-9729000D02*
X3685500Y-9829000D01*
X3735500Y-9729000D02*
X3735500Y-9829000D01*
X3685500Y-9779000D02*
X3785500Y-9779000D01*
X3685500Y-9979000D02*
X3785500Y-10079000D01*
X3785500Y-9979000D02*
X3685500Y-10079000D01*
X3735500Y-9979000D02*
X3735500Y-10079000D01*
X3685500Y-10029000D02*
X3785500Y-10029000D01*
X3823500Y-12407000D02*
X3923500Y-12507000D01*
X3923500Y-12407000D02*
X3823500Y-12507000D01*
X3873500Y-12407000D02*
X3873500Y-12507000D01*
X3823500Y-12457000D02*
X3923500Y-12457000D01*
X3883000Y-13221500D02*
X3983000Y-13321500D01*
X3983000Y-13221500D02*
X3883000Y-13321500D01*
X3933000Y-13221500D02*
X3933000Y-13321500D01*
X3883000Y-13271500D02*
X3983000Y-13271500D01*
X4268000Y-5347500D02*
X4368000Y-5447500D01*
X4368000Y-5347500D02*
X4268000Y-5447500D01*
X4318000Y-5347500D02*
X4318000Y-5447500D01*
X4268000Y-5397500D02*
X4368000Y-5397500D01*
X4268000Y-8014500D02*
X4368000Y-8114500D01*
X4368000Y-8014500D02*
X4268000Y-8114500D01*
X4318000Y-8014500D02*
X4318000Y-8114500D01*
X4268000Y-8064500D02*
X4368000Y-8064500D01*
X4522000Y-5347500D02*
X4622000Y-5447500D01*
X4622000Y-5347500D02*
X4522000Y-5447500D01*
X4572000Y-5347500D02*
X4572000Y-5447500D01*
X4522000Y-5397500D02*
X4622000Y-5397500D01*
X4522000Y-8014500D02*
X4622000Y-8114500D01*
X4622000Y-8014500D02*
X4522000Y-8114500D01*
X4572000Y-8014500D02*
X4572000Y-8114500D01*
X4522000Y-8064500D02*
X4622000Y-8064500D01*
X4522000Y-13221500D02*
X4622000Y-13321500D01*
X4622000Y-13221500D02*
X4522000Y-13321500D01*
X4572000Y-13221500D02*
X4572000Y-13321500D01*
X4522000Y-13271500D02*
X4622000Y-13271500D01*
X4772000Y-13221500D02*
X4872000Y-13321500D01*
X4872000Y-13221500D02*
X4772000Y-13321500D01*
X4822000Y-13221500D02*
X4822000Y-13321500D01*
X4772000Y-13271500D02*
X4872000Y-13271500D01*
X4776000Y-5347500D02*
X4876000Y-5447500D01*
X4876000Y-5347500D02*
X4776000Y-5447500D01*
X4826000Y-5347500D02*
X4826000Y-5447500D01*
X4776000Y-5397500D02*
X4876000Y-5397500D01*
X4776000Y-8014500D02*
X4876000Y-8114500D01*
X4876000Y-8014500D02*
X4776000Y-8114500D01*
X4826000Y-8014500D02*
X4826000Y-8114500D01*
X4776000Y-8064500D02*
X4876000Y-8064500D01*
X5030000Y-5347500D02*
X5130000Y-5447500D01*
X5130000Y-5347500D02*
X5030000Y-5447500D01*
X5080000Y-5347500D02*
X5080000Y-5447500D01*
X5030000Y-5397500D02*
X5130000Y-5397500D01*
X5030000Y-8014500D02*
X5130000Y-8114500D01*
X5130000Y-8014500D02*
X5030000Y-8114500D01*
X5080000Y-8014500D02*
X5080000Y-8114500D01*
X5030000Y-8064500D02*
X5130000Y-8064500D01*
X5093500Y-12143500D02*
X5193500Y-12243500D01*
X5193500Y-12143500D02*
X5093500Y-12243500D01*
X5143500Y-12143500D02*
X5143500Y-12243500D01*
X5093500Y-12193500D02*
X5193500Y-12193500D01*
X5093500Y-12397500D02*
X5193500Y-12497500D01*
X5193500Y-12397500D02*
X5093500Y-12497500D01*
X5143500Y-12397500D02*
X5143500Y-12497500D01*
X5093500Y-12447500D02*
X5193500Y-12447500D01*
X5157000Y-11061000D02*
X5257000Y-11161000D01*
X5257000Y-11061000D02*
X5157000Y-11161000D01*
X5207000Y-11061000D02*
X5207000Y-11161000D01*
X5157000Y-11111000D02*
X5257000Y-11111000D01*
X5157000Y-11315000D02*
X5257000Y-11415000D01*
X5257000Y-11315000D02*
X5157000Y-11415000D01*
X5207000Y-11315000D02*
X5207000Y-11415000D01*
X5157000Y-11365000D02*
X5257000Y-11365000D01*
X5157000Y-11569000D02*
X5257000Y-11669000D01*
X5257000Y-11569000D02*
X5157000Y-11669000D01*
X5207000Y-11569000D02*
X5207000Y-11669000D01*
X5157000Y-11619000D02*
X5257000Y-11619000D01*
X5411000Y-13094500D02*
X5511000Y-13194500D01*
X5511000Y-13094500D02*
X5411000Y-13194500D01*
X5461000Y-13094500D02*
X5461000Y-13194500D01*
X5411000Y-13144500D02*
X5511000Y-13144500D01*
X5540500Y-12143500D02*
X5640500Y-12243500D01*
X5640500Y-12143500D02*
X5540500Y-12243500D01*
X5590500Y-12143500D02*
X5590500Y-12243500D01*
X5540500Y-12193500D02*
X5640500Y-12193500D01*
X5540500Y-12397500D02*
X5640500Y-12497500D01*
X5640500Y-12397500D02*
X5540500Y-12497500D01*
X5590500Y-12397500D02*
X5590500Y-12497500D01*
X5540500Y-12447500D02*
X5640500Y-12447500D01*
X5540500Y-12651500D02*
X5640500Y-12751500D01*
X5640500Y-12651500D02*
X5540500Y-12751500D01*
X5590500Y-12651500D02*
X5590500Y-12751500D01*
X5540500Y-12701500D02*
X5640500Y-12701500D01*
X5599000Y-11059500D02*
X5699000Y-11159500D01*
X5699000Y-11059500D02*
X5599000Y-11159500D01*
X5649000Y-11059500D02*
X5649000Y-11159500D01*
X5599000Y-11109500D02*
X5699000Y-11109500D01*
X5599000Y-11313500D02*
X5699000Y-11413500D01*
X5699000Y-11313500D02*
X5599000Y-11413500D01*
X5649000Y-11313500D02*
X5649000Y-11413500D01*
X5599000Y-11363500D02*
X5699000Y-11363500D01*
X5599000Y-11567500D02*
X5699000Y-11667500D01*
X5699000Y-11567500D02*
X5599000Y-11667500D01*
X5649000Y-11567500D02*
X5649000Y-11667500D01*
X5599000Y-11617500D02*
X5699000Y-11617500D01*
X5665000Y-13094500D02*
X5765000Y-13194500D01*
X5765000Y-13094500D02*
X5665000Y-13194500D01*
X5715000Y-13094500D02*
X5715000Y-13194500D01*
X5665000Y-13144500D02*
X5765000Y-13144500D01*
X5919000Y-13094500D02*
X6019000Y-13194500D01*
X6019000Y-13094500D02*
X5919000Y-13194500D01*
X5969000Y-13094500D02*
X5969000Y-13194500D01*
X5919000Y-13144500D02*
X6019000Y-13144500D01*
X5921500Y-12143500D02*
X6021500Y-12243500D01*
X6021500Y-12143500D02*
X5921500Y-12243500D01*
X5971500Y-12143500D02*
X5971500Y-12243500D01*
X5921500Y-12193500D02*
X6021500Y-12193500D01*
X5921500Y-12397500D02*
X6021500Y-12497500D01*
X6021500Y-12397500D02*
X5921500Y-12497500D01*
X5971500Y-12397500D02*
X5971500Y-12497500D01*
X5921500Y-12447500D02*
X6021500Y-12447500D01*
X5921500Y-12651500D02*
X6021500Y-12751500D01*
X6021500Y-12651500D02*
X5921500Y-12751500D01*
X5971500Y-12651500D02*
X5971500Y-12751500D01*
X5921500Y-12701500D02*
X6021500Y-12701500D01*
X5982500Y-8014500D02*
X6082500Y-8114500D01*
X6082500Y-8014500D02*
X5982500Y-8114500D01*
X6032500Y-8014500D02*
X6032500Y-8114500D01*
X5982500Y-8064500D02*
X6082500Y-8064500D01*
X6173000Y-13094500D02*
X6273000Y-13194500D01*
X6273000Y-13094500D02*
X6173000Y-13194500D01*
X6223000Y-13094500D02*
X6223000Y-13194500D01*
X6173000Y-13144500D02*
X6273000Y-13144500D01*
X6236500Y-8014500D02*
X6336500Y-8114500D01*
X6336500Y-8014500D02*
X6236500Y-8114500D01*
X6286500Y-8014500D02*
X6286500Y-8114500D01*
X6236500Y-8064500D02*
X6336500Y-8064500D01*
X6302500Y-12143500D02*
X6402500Y-12243500D01*
X6402500Y-12143500D02*
X6302500Y-12243500D01*
X6352500Y-12143500D02*
X6352500Y-12243500D01*
X6302500Y-12193500D02*
X6402500Y-12193500D01*
X6302500Y-12397500D02*
X6402500Y-12497500D01*
X6402500Y-12397500D02*
X6302500Y-12497500D01*
X6352500Y-12397500D02*
X6352500Y-12497500D01*
X6302500Y-12447500D02*
X6402500Y-12447500D01*
X6302500Y-12651500D02*
X6402500Y-12751500D01*
X6402500Y-12651500D02*
X6302500Y-12751500D01*
X6352500Y-12651500D02*
X6352500Y-12751500D01*
X6302500Y-12701500D02*
X6402500Y-12701500D01*
X6427000Y-13094500D02*
X6527000Y-13194500D01*
X6527000Y-13094500D02*
X6427000Y-13194500D01*
X6477000Y-13094500D02*
X6477000Y-13194500D01*
X6427000Y-13144500D02*
X6527000Y-13144500D01*
X6490500Y-8014500D02*
X6590500Y-8114500D01*
X6590500Y-8014500D02*
X6490500Y-8114500D01*
X6540500Y-8014500D02*
X6540500Y-8114500D01*
X6490500Y-8064500D02*
X6590500Y-8064500D01*
X6681000Y-11443500D02*
X6781000Y-11543500D01*
X6781000Y-11443500D02*
X6681000Y-11543500D01*
X6731000Y-11443500D02*
X6731000Y-11543500D01*
X6681000Y-11493500D02*
X6781000Y-11493500D01*
X6681000Y-12143500D02*
X6781000Y-12243500D01*
X6781000Y-12143500D02*
X6681000Y-12243500D01*
X6731000Y-12143500D02*
X6731000Y-12243500D01*
X6681000Y-12193500D02*
X6781000Y-12193500D01*
X6681000Y-12397500D02*
X6781000Y-12497500D01*
X6781000Y-12397500D02*
X6681000Y-12497500D01*
X6731000Y-12397500D02*
X6731000Y-12497500D01*
X6681000Y-12447500D02*
X6781000Y-12447500D01*
X6681000Y-12651500D02*
X6781000Y-12751500D01*
X6781000Y-12651500D02*
X6681000Y-12751500D01*
X6731000Y-12651500D02*
X6731000Y-12751500D01*
X6681000Y-12701500D02*
X6781000Y-12701500D01*
X6681000Y-13094500D02*
X6781000Y-13194500D01*
X6781000Y-13094500D02*
X6681000Y-13194500D01*
X6731000Y-13094500D02*
X6731000Y-13194500D01*
X6681000Y-13144500D02*
X6781000Y-13144500D01*
X6744500Y-8014500D02*
X6844500Y-8114500D01*
X6844500Y-8014500D02*
X6744500Y-8114500D01*
X6794500Y-8014500D02*
X6794500Y-8114500D01*
X6744500Y-8064500D02*
X6844500Y-8064500D01*
X6998500Y-8014500D02*
X7098500Y-8114500D01*
X7098500Y-8014500D02*
X6998500Y-8114500D01*
X7048500Y-8014500D02*
X7048500Y-8114500D01*
X6998500Y-8064500D02*
X7098500Y-8064500D01*
X7252500Y-8014500D02*
X7352500Y-8114500D01*
X7352500Y-8014500D02*
X7252500Y-8114500D01*
X7302500Y-8014500D02*
X7302500Y-8114500D01*
X7252500Y-8064500D02*
X7352500Y-8064500D01*
X7506500Y-8014500D02*
X7606500Y-8114500D01*
X7606500Y-8014500D02*
X7506500Y-8114500D01*
X7556500Y-8014500D02*
X7556500Y-8114500D01*
X7506500Y-8064500D02*
X7606500Y-8064500D01*
X8205000Y-8014500D02*
X8305000Y-8114500D01*
X8305000Y-8014500D02*
X8205000Y-8114500D01*
X8255000Y-8014500D02*
X8255000Y-8114500D01*
X8205000Y-8064500D02*
X8305000Y-8064500D01*
X8459000Y-8014500D02*
X8559000Y-8114500D01*
X8559000Y-8014500D02*
X8459000Y-8114500D01*
X8509000Y-8014500D02*
X8509000Y-8114500D01*
X8459000Y-8064500D02*
X8559000Y-8064500D01*
X8586000Y-15285250D02*
X8686000Y-15385250D01*
X8686000Y-15285250D02*
X8586000Y-15385250D01*
X8636000Y-15285250D02*
X8636000Y-15385250D01*
X8586000Y-15335250D02*
X8686000Y-15335250D01*
X8586000Y-15539250D02*
X8686000Y-15639250D01*
X8686000Y-15539250D02*
X8586000Y-15639250D01*
X8636000Y-15539250D02*
X8636000Y-15639250D01*
X8586000Y-15589250D02*
X8686000Y-15589250D01*
X8586000Y-15793250D02*
X8686000Y-15893250D01*
X8686000Y-15793250D02*
X8586000Y-15893250D01*
X8636000Y-15793250D02*
X8636000Y-15893250D01*
X8586000Y-15843250D02*
X8686000Y-15843250D01*
X8713000Y-8014500D02*
X8813000Y-8114500D01*
X8813000Y-8014500D02*
X8713000Y-8114500D01*
X8763000Y-8014500D02*
X8763000Y-8114500D01*
X8713000Y-8064500D02*
X8813000Y-8064500D01*
X9010000Y-15285250D02*
X9110000Y-15385250D01*
X9110000Y-15285250D02*
X9010000Y-15385250D01*
X9060000Y-15285250D02*
X9060000Y-15385250D01*
X9010000Y-15335250D02*
X9110000Y-15335250D01*
X9010000Y-15539250D02*
X9110000Y-15639250D01*
X9110000Y-15539250D02*
X9010000Y-15639250D01*
X9060000Y-15539250D02*
X9060000Y-15639250D01*
X9010000Y-15589250D02*
X9110000Y-15589250D01*
X9010000Y-15793250D02*
X9110000Y-15893250D01*
X9110000Y-15793250D02*
X9010000Y-15893250D01*
X9060000Y-15793250D02*
X9060000Y-15893250D01*
X9010000Y-15843250D02*
X9110000Y-15843250D01*
X9149880Y-8710460D02*
X9249880Y-8810460D01*
X9249880Y-8710460D02*
X9149880Y-8810460D01*
X9199880Y-8710460D02*
X9199880Y-8810460D01*
X9149880Y-8760460D02*
X9249880Y-8760460D01*
X9149880Y-8964460D02*
X9249880Y-9064460D01*
X9249880Y-8964460D02*
X9149880Y-9064460D01*
X9199880Y-8964460D02*
X9199880Y-9064460D01*
X9149880Y-9014460D02*
X9249880Y-9014460D01*
X9149880Y-9218460D02*
X9249880Y-9318460D01*
X9249880Y-9218460D02*
X9149880Y-9318460D01*
X9199880Y-9218460D02*
X9199880Y-9318460D01*
X9149880Y-9268460D02*
X9249880Y-9268460D01*
X10110000Y-3782860D02*
X10210000Y-3882860D01*
X10210000Y-3782860D02*
X10110000Y-3882860D01*
X10160000Y-3782860D02*
X10160000Y-3882860D01*
X10110000Y-3832860D02*
X10210000Y-3832860D01*
X10110000Y-4036860D02*
X10210000Y-4136860D01*
X10210000Y-4036860D02*
X10110000Y-4136860D01*
X10160000Y-4036860D02*
X10160000Y-4136860D01*
X10110000Y-4086860D02*
X10210000Y-4086860D01*
X10110000Y-4290860D02*
X10210000Y-4390860D01*
X10210000Y-4290860D02*
X10110000Y-4390860D01*
X10160000Y-4290860D02*
X10160000Y-4390860D01*
X10110000Y-4340860D02*
X10210000Y-4340860D01*
X10110000Y-4544860D02*
X10210000Y-4644860D01*
X10210000Y-4544860D02*
X10110000Y-4644860D01*
X10160000Y-4544860D02*
X10160000Y-4644860D01*
X10110000Y-4594860D02*
X10210000Y-4594860D01*
X10110000Y-4798860D02*
X10210000Y-4898860D01*
X10210000Y-4798860D02*
X10110000Y-4898860D01*
X10160000Y-4798860D02*
X10160000Y-4898860D01*
X10110000Y-4848860D02*
X10210000Y-4848860D01*
X10110000Y-5052860D02*
X10210000Y-5152860D01*
X10210000Y-5052860D02*
X10110000Y-5152860D01*
X10160000Y-5052860D02*
X10160000Y-5152860D01*
X10110000Y-5102860D02*
X10210000Y-5102860D01*
X10173500Y-14491500D02*
X10273500Y-14591500D01*
X10273500Y-14491500D02*
X10173500Y-14591500D01*
X10223500Y-14491500D02*
X10223500Y-14591500D01*
X10173500Y-14541500D02*
X10273500Y-14541500D01*
X10173500Y-14745500D02*
X10273500Y-14845500D01*
X10273500Y-14745500D02*
X10173500Y-14845500D01*
X10223500Y-14745500D02*
X10223500Y-14845500D01*
X10173500Y-14795500D02*
X10273500Y-14795500D01*
X10427500Y-14491500D02*
X10527500Y-14591500D01*
X10527500Y-14491500D02*
X10427500Y-14591500D01*
X10477500Y-14491500D02*
X10477500Y-14591500D01*
X10427500Y-14541500D02*
X10527500Y-14541500D01*
X10427500Y-14745500D02*
X10527500Y-14845500D01*
X10527500Y-14745500D02*
X10427500Y-14845500D01*
X10477500Y-14745500D02*
X10477500Y-14845500D01*
X10427500Y-14795500D02*
X10527500Y-14795500D01*
X10427500Y-17730000D02*
X10527500Y-17830000D01*
X10527500Y-17730000D02*
X10427500Y-17830000D01*
X10477500Y-17730000D02*
X10477500Y-17830000D01*
X10427500Y-17780000D02*
X10527500Y-17780000D01*
X10427500Y-17984000D02*
X10527500Y-18084000D01*
X10527500Y-17984000D02*
X10427500Y-18084000D01*
X10477500Y-17984000D02*
X10477500Y-18084000D01*
X10427500Y-18034000D02*
X10527500Y-18034000D01*
X10427500Y-18238000D02*
X10527500Y-18338000D01*
X10527500Y-18238000D02*
X10427500Y-18338000D01*
X10477500Y-18238000D02*
X10477500Y-18338000D01*
X10427500Y-18288000D02*
X10527500Y-18288000D01*
X10681500Y-14491500D02*
X10781500Y-14591500D01*
X10781500Y-14491500D02*
X10681500Y-14591500D01*
X10731500Y-14491500D02*
X10731500Y-14591500D01*
X10681500Y-14541500D02*
X10781500Y-14541500D01*
X10681500Y-14745500D02*
X10781500Y-14845500D01*
X10781500Y-14745500D02*
X10681500Y-14845500D01*
X10731500Y-14745500D02*
X10731500Y-14845500D01*
X10681500Y-14795500D02*
X10781500Y-14795500D01*
X10681500Y-17730000D02*
X10781500Y-17830000D01*
X10781500Y-17730000D02*
X10681500Y-17830000D01*
X10731500Y-17730000D02*
X10731500Y-17830000D01*
X10681500Y-17780000D02*
X10781500Y-17780000D01*
X10681500Y-17984000D02*
X10781500Y-18084000D01*
X10781500Y-17984000D02*
X10681500Y-18084000D01*
X10731500Y-17984000D02*
X10731500Y-18084000D01*
X10681500Y-18034000D02*
X10781500Y-18034000D01*
X10681500Y-18238000D02*
X10781500Y-18338000D01*
X10781500Y-18238000D02*
X10681500Y-18338000D01*
X10731500Y-18238000D02*
X10731500Y-18338000D01*
X10681500Y-18288000D02*
X10781500Y-18288000D01*
X10935500Y-14491500D02*
X11035500Y-14591500D01*
X11035500Y-14491500D02*
X10935500Y-14591500D01*
X10985500Y-14491500D02*
X10985500Y-14591500D01*
X10935500Y-14541500D02*
X11035500Y-14541500D01*
X10935500Y-14745500D02*
X11035500Y-14845500D01*
X11035500Y-14745500D02*
X10935500Y-14845500D01*
X10985500Y-14745500D02*
X10985500Y-14845500D01*
X10935500Y-14795500D02*
X11035500Y-14795500D01*
X11126000Y-12713500D02*
X11226000Y-12813500D01*
X11226000Y-12713500D02*
X11126000Y-12813500D01*
X11176000Y-12713500D02*
X11176000Y-12813500D01*
X11126000Y-12763500D02*
X11226000Y-12763500D01*
X11126000Y-12967500D02*
X11226000Y-13067500D01*
X11226000Y-12967500D02*
X11126000Y-13067500D01*
X11176000Y-12967500D02*
X11176000Y-13067500D01*
X11126000Y-13017500D02*
X11226000Y-13017500D01*
X11126000Y-13221500D02*
X11226000Y-13321500D01*
X11226000Y-13221500D02*
X11126000Y-13321500D01*
X11176000Y-13221500D02*
X11176000Y-13321500D01*
X11126000Y-13271500D02*
X11226000Y-13271500D01*
X11126000Y-13475500D02*
X11226000Y-13575500D01*
X11226000Y-13475500D02*
X11126000Y-13575500D01*
X11176000Y-13475500D02*
X11176000Y-13575500D01*
X11126000Y-13525500D02*
X11226000Y-13525500D01*
X11126000Y-13729500D02*
X11226000Y-13829500D01*
X11226000Y-13729500D02*
X11126000Y-13829500D01*
X11176000Y-13729500D02*
X11176000Y-13829500D01*
X11126000Y-13779500D02*
X11226000Y-13779500D01*
X11189500Y-14491500D02*
X11289500Y-14591500D01*
X11289500Y-14491500D02*
X11189500Y-14591500D01*
X11239500Y-14491500D02*
X11239500Y-14591500D01*
X11189500Y-14541500D02*
X11289500Y-14541500D01*
X11189500Y-14745500D02*
X11289500Y-14845500D01*
X11289500Y-14745500D02*
X11189500Y-14845500D01*
X11239500Y-14745500D02*
X11239500Y-14845500D01*
X11189500Y-14795500D02*
X11289500Y-14795500D01*
X11380000Y-12713500D02*
X11480000Y-12813500D01*
X11480000Y-12713500D02*
X11380000Y-12813500D01*
X11430000Y-12713500D02*
X11430000Y-12813500D01*
X11380000Y-12763500D02*
X11480000Y-12763500D01*
X11380000Y-12967500D02*
X11480000Y-13067500D01*
X11480000Y-12967500D02*
X11380000Y-13067500D01*
X11430000Y-12967500D02*
X11430000Y-13067500D01*
X11380000Y-13017500D02*
X11480000Y-13017500D01*
X11380000Y-13221500D02*
X11480000Y-13321500D01*
X11480000Y-13221500D02*
X11380000Y-13321500D01*
X11430000Y-13221500D02*
X11430000Y-13321500D01*
X11380000Y-13271500D02*
X11480000Y-13271500D01*
X11380000Y-13475500D02*
X11480000Y-13575500D01*
X11480000Y-13475500D02*
X11380000Y-13575500D01*
X11430000Y-13475500D02*
X11430000Y-13575500D01*
X11380000Y-13525500D02*
X11480000Y-13525500D01*
X11380000Y-13729500D02*
X11480000Y-13829500D01*
X11480000Y-13729500D02*
X11380000Y-13829500D01*
X11430000Y-13729500D02*
X11430000Y-13829500D01*
X11380000Y-13779500D02*
X11480000Y-13779500D01*
X12584500Y-10620500D02*
X12684500Y-10720500D01*
X12684500Y-10620500D02*
X12584500Y-10720500D01*
X12634500Y-10620500D02*
X12634500Y-10720500D01*
X12584500Y-10670500D02*
X12684500Y-10670500D01*
X12650000Y-13729500D02*
X12750000Y-13829500D01*
X12750000Y-13729500D02*
X12650000Y-13829500D01*
X12700000Y-13729500D02*
X12700000Y-13829500D01*
X12650000Y-13779500D02*
X12750000Y-13779500D01*
X12777000Y-16206000D02*
X12877000Y-16306000D01*
X12877000Y-16206000D02*
X12777000Y-16306000D01*
X12827000Y-16206000D02*
X12827000Y-16306000D01*
X12777000Y-16256000D02*
X12877000Y-16256000D01*
X12838500Y-10620500D02*
X12938500Y-10720500D01*
X12938500Y-10620500D02*
X12838500Y-10720500D01*
X12888500Y-10620500D02*
X12888500Y-10720500D01*
X12838500Y-10670500D02*
X12938500Y-10670500D01*
X12904000Y-13729500D02*
X13004000Y-13829500D01*
X13004000Y-13729500D02*
X12904000Y-13829500D01*
X12954000Y-13729500D02*
X12954000Y-13829500D01*
X12904000Y-13779500D02*
X13004000Y-13779500D01*
X13031000Y-16206000D02*
X13131000Y-16306000D01*
X13131000Y-16206000D02*
X13031000Y-16306000D01*
X13081000Y-16206000D02*
X13081000Y-16306000D01*
X13031000Y-16256000D02*
X13131000Y-16256000D01*
X13158000Y-13729500D02*
X13258000Y-13829500D01*
X13258000Y-13729500D02*
X13158000Y-13829500D01*
X13208000Y-13729500D02*
X13208000Y-13829500D01*
X13158000Y-13779500D02*
X13258000Y-13779500D01*
X13221500Y-6109500D02*
X13321500Y-6209500D01*
X13321500Y-6109500D02*
X13221500Y-6209500D01*
X13271500Y-6109500D02*
X13271500Y-6209500D01*
X13221500Y-6159500D02*
X13321500Y-6159500D01*
X13285000Y-16206000D02*
X13385000Y-16306000D01*
X13385000Y-16206000D02*
X13285000Y-16306000D01*
X13335000Y-16206000D02*
X13335000Y-16306000D01*
X13285000Y-16256000D02*
X13385000Y-16256000D01*
X13412000Y-13729500D02*
X13512000Y-13829500D01*
X13512000Y-13729500D02*
X13412000Y-13829500D01*
X13462000Y-13729500D02*
X13462000Y-13829500D01*
X13412000Y-13779500D02*
X13512000Y-13779500D01*
X13475500Y-6109500D02*
X13575500Y-6209500D01*
X13575500Y-6109500D02*
X13475500Y-6209500D01*
X13525500Y-6109500D02*
X13525500Y-6209500D01*
X13475500Y-6159500D02*
X13575500Y-6159500D01*
X13539000Y-16206000D02*
X13639000Y-16306000D01*
X13639000Y-16206000D02*
X13539000Y-16306000D01*
X13589000Y-16206000D02*
X13589000Y-16306000D01*
X13539000Y-16256000D02*
X13639000Y-16256000D01*
X13729500Y-6109500D02*
X13829500Y-6209500D01*
X13829500Y-6109500D02*
X13729500Y-6209500D01*
X13779500Y-6109500D02*
X13779500Y-6209500D01*
X13729500Y-6159500D02*
X13829500Y-6159500D01*
X13983500Y-6109500D02*
X14083500Y-6209500D01*
X14083500Y-6109500D02*
X13983500Y-6209500D01*
X14033500Y-6109500D02*
X14033500Y-6209500D01*
X13983500Y-6159500D02*
X14083500Y-6159500D01*
X14237500Y-6109500D02*
X14337500Y-6209500D01*
X14337500Y-6109500D02*
X14237500Y-6209500D01*
X14287500Y-6109500D02*
X14287500Y-6209500D01*
X14237500Y-6159500D02*
X14337500Y-6159500D01*
X14301000Y-10876000D02*
X14401000Y-10976000D01*
X14401000Y-10876000D02*
X14301000Y-10976000D01*
X14351000Y-10876000D02*
X14351000Y-10976000D01*
X14301000Y-10926000D02*
X14401000Y-10926000D01*
X14301000Y-11126000D02*
X14401000Y-11226000D01*
X14401000Y-11126000D02*
X14301000Y-11226000D01*
X14351000Y-11126000D02*
X14351000Y-11226000D01*
X14301000Y-11176000D02*
X14401000Y-11176000D01*
X14301000Y-17861000D02*
X14401000Y-17961000D01*
X14401000Y-17861000D02*
X14301000Y-17961000D01*
X14351000Y-17861000D02*
X14351000Y-17961000D01*
X14301000Y-17911000D02*
X14401000Y-17911000D01*
X14301000Y-18111000D02*
X14401000Y-18211000D01*
X14401000Y-18111000D02*
X14301000Y-18211000D01*
X14351000Y-18111000D02*
X14351000Y-18211000D01*
X14301000Y-18161000D02*
X14401000Y-18161000D01*
X14312000Y-13543000D02*
X14412000Y-13643000D01*
X14412000Y-13543000D02*
X14312000Y-13643000D01*
X14362000Y-13543000D02*
X14362000Y-13643000D01*
X14312000Y-13593000D02*
X14412000Y-13593000D01*
X14312000Y-13793000D02*
X14412000Y-13893000D01*
X14412000Y-13793000D02*
X14312000Y-13893000D01*
X14362000Y-13793000D02*
X14362000Y-13893000D01*
X14312000Y-13843000D02*
X14412000Y-13843000D01*
X14428000Y-11697500D02*
X14528000Y-11797500D01*
X14528000Y-11697500D02*
X14428000Y-11797500D01*
X14478000Y-11697500D02*
X14478000Y-11797500D01*
X14428000Y-11747500D02*
X14528000Y-11747500D01*
X14428000Y-11951500D02*
X14528000Y-12051500D01*
X14528000Y-11951500D02*
X14428000Y-12051500D01*
X14478000Y-11951500D02*
X14478000Y-12051500D01*
X14428000Y-12001500D02*
X14528000Y-12001500D01*
X14428000Y-12205500D02*
X14528000Y-12305500D01*
X14528000Y-12205500D02*
X14428000Y-12305500D01*
X14478000Y-12205500D02*
X14478000Y-12305500D01*
X14428000Y-12255500D02*
X14528000Y-12255500D01*
X14428000Y-12459500D02*
X14528000Y-12559500D01*
X14528000Y-12459500D02*
X14428000Y-12559500D01*
X14478000Y-12459500D02*
X14478000Y-12559500D01*
X14428000Y-12509500D02*
X14528000Y-12509500D01*
X14428000Y-12713500D02*
X14528000Y-12813500D01*
X14528000Y-12713500D02*
X14428000Y-12813500D01*
X14478000Y-12713500D02*
X14478000Y-12813500D01*
X14428000Y-12763500D02*
X14528000Y-12763500D01*
X14428000Y-12967500D02*
X14528000Y-13067500D01*
X14528000Y-12967500D02*
X14428000Y-13067500D01*
X14478000Y-12967500D02*
X14478000Y-13067500D01*
X14428000Y-13017500D02*
X14528000Y-13017500D01*
X14489000Y-8647000D02*
X14589000Y-8747000D01*
X14589000Y-8647000D02*
X14489000Y-8747000D01*
X14539000Y-8647000D02*
X14539000Y-8747000D01*
X14489000Y-8697000D02*
X14589000Y-8697000D01*
X14489000Y-8901000D02*
X14589000Y-9001000D01*
X14589000Y-8901000D02*
X14489000Y-9001000D01*
X14539000Y-8901000D02*
X14539000Y-9001000D01*
X14489000Y-8951000D02*
X14589000Y-8951000D01*
X14489000Y-9155000D02*
X14589000Y-9255000D01*
X14589000Y-9155000D02*
X14489000Y-9255000D01*
X14539000Y-9155000D02*
X14539000Y-9255000D01*
X14489000Y-9205000D02*
X14589000Y-9205000D01*
X14489000Y-9409000D02*
X14589000Y-9509000D01*
X14589000Y-9409000D02*
X14489000Y-9509000D01*
X14539000Y-9409000D02*
X14539000Y-9509000D01*
X14489000Y-9459000D02*
X14589000Y-9459000D01*
X14489000Y-9663000D02*
X14589000Y-9763000D01*
X14589000Y-9663000D02*
X14489000Y-9763000D01*
X14539000Y-9663000D02*
X14539000Y-9763000D01*
X14489000Y-9713000D02*
X14589000Y-9713000D01*
X14489000Y-9917000D02*
X14589000Y-10017000D01*
X14589000Y-9917000D02*
X14489000Y-10017000D01*
X14539000Y-9917000D02*
X14539000Y-10017000D01*
X14489000Y-9967000D02*
X14589000Y-9967000D01*
X14491500Y-6109500D02*
X14591500Y-6209500D01*
X14591500Y-6109500D02*
X14491500Y-6209500D01*
X14541500Y-6109500D02*
X14541500Y-6209500D01*
X14491500Y-6159500D02*
X14591500Y-6159500D01*
X14491500Y-6681000D02*
X14591500Y-6781000D01*
X14591500Y-6681000D02*
X14491500Y-6781000D01*
X14541500Y-6681000D02*
X14541500Y-6781000D01*
X14491500Y-6731000D02*
X14591500Y-6731000D01*
X14491500Y-6935000D02*
X14591500Y-7035000D01*
X14591500Y-6935000D02*
X14491500Y-7035000D01*
X14541500Y-6935000D02*
X14541500Y-7035000D01*
X14491500Y-6985000D02*
X14591500Y-6985000D01*
X14491500Y-7189000D02*
X14591500Y-7289000D01*
X14591500Y-7189000D02*
X14491500Y-7289000D01*
X14541500Y-7189000D02*
X14541500Y-7289000D01*
X14491500Y-7239000D02*
X14591500Y-7239000D01*
X14491500Y-7443000D02*
X14591500Y-7543000D01*
X14591500Y-7443000D02*
X14491500Y-7543000D01*
X14541500Y-7443000D02*
X14541500Y-7543000D01*
X14491500Y-7493000D02*
X14591500Y-7493000D01*
X14491500Y-7697000D02*
X14591500Y-7797000D01*
X14591500Y-7697000D02*
X14491500Y-7797000D01*
X14541500Y-7697000D02*
X14541500Y-7797000D01*
X14491500Y-7747000D02*
X14591500Y-7747000D01*
X14491500Y-7951000D02*
X14591500Y-8051000D01*
X14591500Y-7951000D02*
X14491500Y-8051000D01*
X14541500Y-7951000D02*
X14541500Y-8051000D01*
X14491500Y-8001000D02*
X14591500Y-8001000D01*
X14491500Y-14428000D02*
X14591500Y-14528000D01*
X14591500Y-14428000D02*
X14491500Y-14528000D01*
X14541500Y-14428000D02*
X14541500Y-14528000D01*
X14491500Y-14478000D02*
X14591500Y-14478000D01*
X14491500Y-14682000D02*
X14591500Y-14782000D01*
X14591500Y-14682000D02*
X14491500Y-14782000D01*
X14541500Y-14682000D02*
X14541500Y-14782000D01*
X14491500Y-14732000D02*
X14591500Y-14732000D01*
X14491500Y-14936000D02*
X14591500Y-15036000D01*
X14591500Y-14936000D02*
X14491500Y-15036000D01*
X14541500Y-14936000D02*
X14541500Y-15036000D01*
X14491500Y-14986000D02*
X14591500Y-14986000D01*
X14491500Y-15190000D02*
X14591500Y-15290000D01*
X14591500Y-15190000D02*
X14491500Y-15290000D01*
X14541500Y-15190000D02*
X14541500Y-15290000D01*
X14491500Y-15240000D02*
X14591500Y-15240000D01*
X14491500Y-15444000D02*
X14591500Y-15544000D01*
X14591500Y-15444000D02*
X14491500Y-15544000D01*
X14541500Y-15444000D02*
X14541500Y-15544000D01*
X14491500Y-15494000D02*
X14591500Y-15494000D01*
X14491500Y-15698000D02*
X14591500Y-15798000D01*
X14591500Y-15698000D02*
X14491500Y-15798000D01*
X14541500Y-15698000D02*
X14541500Y-15798000D01*
X14491500Y-15748000D02*
X14591500Y-15748000D01*
D13*
X4412000Y-12349500D02*
X4732000Y-12669500D01*
X4732000Y-12349500D02*
X4412000Y-12669500D01*
X4685138Y-12622638D02*
X4685138Y-12396362D01*
X4458862Y-12396362D01*
X4458862Y-12622638D01*
X4685138Y-12622638D01*
X5301000Y-3586500D02*
X5621000Y-3906500D01*
X5621000Y-3586500D02*
X5301000Y-3906500D01*
X5574138Y-3859638D02*
X5574138Y-3633362D01*
X5347862Y-3633362D01*
X5347862Y-3859638D01*
X5574138Y-3859638D01*
X8191520Y-9062740D02*
X8511520Y-9382740D01*
X8511520Y-9062740D02*
X8191520Y-9382740D01*
X8464658Y-9335878D02*
X8464658Y-9109602D01*
X8238382Y-9109602D01*
X8238382Y-9335878D01*
X8464658Y-9335878D01*
X10203200Y-18686800D02*
X10523200Y-19006800D01*
X10523200Y-18686800D02*
X10203200Y-19006800D01*
X10476338Y-18959938D02*
X10476338Y-18733662D01*
X10250062Y-18733662D01*
X10250062Y-18959938D01*
X10476338Y-18959938D01*
X13365500Y-10762000D02*
X13685500Y-11082000D01*
X13685500Y-10762000D02*
X13365500Y-11082000D01*
X13638638Y-11035138D02*
X13638638Y-10808862D01*
X13412362Y-10808862D01*
X13412362Y-11035138D01*
X13638638Y-11035138D01*
X13365500Y-16921500D02*
X13685500Y-17241500D01*
X13685500Y-16921500D02*
X13365500Y-17241500D01*
X13638638Y-17194638D02*
X13638638Y-16968362D01*
X13412362Y-16968362D01*
X13412362Y-17194638D01*
X13638638Y-17194638D01*
X14211320Y-5295920D02*
X14531320Y-5615920D01*
X14531320Y-5295920D02*
X14211320Y-5615920D01*
X14484458Y-5569058D02*
X14484458Y-5342782D01*
X14258182Y-5342782D01*
X14258182Y-5569058D01*
X14484458Y-5569058D01*
D11*
X3513230Y-19598984D02*
X3513230Y-19398984D01*
X3513230Y-19398984D02*
X3560849Y-19398984D01*
X3560849Y-19398984D02*
X3589420Y-19408508D01*
X3589420Y-19408508D02*
X3608468Y-19427555D01*
X3608468Y-19427555D02*
X3617992Y-19446603D01*
X3617992Y-19446603D02*
X3627516Y-19484698D01*
X3627516Y-19484698D02*
X3627516Y-19513270D01*
X3627516Y-19513270D02*
X3617992Y-19551365D01*
X3617992Y-19551365D02*
X3608468Y-19570412D01*
X3608468Y-19570412D02*
X3589420Y-19589460D01*
X3589420Y-19589460D02*
X3560849Y-19598984D01*
X3560849Y-19598984D02*
X3513230Y-19598984D01*
X3713230Y-19598984D02*
X3713230Y-19465650D01*
X3713230Y-19503746D02*
X3722754Y-19484698D01*
X3722754Y-19484698D02*
X3732277Y-19475174D01*
X3732277Y-19475174D02*
X3751325Y-19465650D01*
X3751325Y-19465650D02*
X3770373Y-19465650D01*
X3837039Y-19598984D02*
X3837039Y-19465650D01*
X3837039Y-19398984D02*
X3827516Y-19408508D01*
X3827516Y-19408508D02*
X3837039Y-19418031D01*
X3837039Y-19418031D02*
X3846563Y-19408508D01*
X3846563Y-19408508D02*
X3837039Y-19398984D01*
X3837039Y-19398984D02*
X3837039Y-19418031D01*
X3960849Y-19598984D02*
X3941801Y-19589460D01*
X3941801Y-19589460D02*
X3932277Y-19570412D01*
X3932277Y-19570412D02*
X3932277Y-19398984D01*
X4065611Y-19598984D02*
X4046563Y-19589460D01*
X4046563Y-19589460D02*
X4037039Y-19570412D01*
X4037039Y-19570412D02*
X4037039Y-19398984D01*
X4294182Y-19598984D02*
X4294182Y-19398984D01*
X4294182Y-19398984D02*
X4360849Y-19541841D01*
X4360849Y-19541841D02*
X4427516Y-19398984D01*
X4427516Y-19398984D02*
X4427516Y-19598984D01*
X4608468Y-19598984D02*
X4608468Y-19494222D01*
X4608468Y-19494222D02*
X4598944Y-19475174D01*
X4598944Y-19475174D02*
X4579897Y-19465650D01*
X4579897Y-19465650D02*
X4541801Y-19465650D01*
X4541801Y-19465650D02*
X4522754Y-19475174D01*
X4608468Y-19589460D02*
X4589420Y-19598984D01*
X4589420Y-19598984D02*
X4541801Y-19598984D01*
X4541801Y-19598984D02*
X4522754Y-19589460D01*
X4522754Y-19589460D02*
X4513230Y-19570412D01*
X4513230Y-19570412D02*
X4513230Y-19551365D01*
X4513230Y-19551365D02*
X4522754Y-19532317D01*
X4522754Y-19532317D02*
X4541801Y-19522793D01*
X4541801Y-19522793D02*
X4589420Y-19522793D01*
X4589420Y-19522793D02*
X4608468Y-19513270D01*
X4703706Y-19465650D02*
X4703706Y-19665650D01*
X4703706Y-19475174D02*
X4722754Y-19465650D01*
X4722754Y-19465650D02*
X4760849Y-19465650D01*
X4760849Y-19465650D02*
X4779897Y-19475174D01*
X4779897Y-19475174D02*
X4789420Y-19484698D01*
X4789420Y-19484698D02*
X4798944Y-19503746D01*
X4798944Y-19503746D02*
X4798944Y-19560889D01*
X4798944Y-19560889D02*
X4789420Y-19579936D01*
X4789420Y-19579936D02*
X4779897Y-19589460D01*
X4779897Y-19589460D02*
X4760849Y-19598984D01*
X4760849Y-19598984D02*
X4722754Y-19598984D01*
X4722754Y-19598984D02*
X4703706Y-19589460D01*
X4884659Y-19579936D02*
X4894182Y-19589460D01*
X4894182Y-19589460D02*
X4884659Y-19598984D01*
X4884659Y-19598984D02*
X4875135Y-19589460D01*
X4875135Y-19589460D02*
X4884659Y-19579936D01*
X4884659Y-19579936D02*
X4884659Y-19598984D01*
X4884659Y-19475174D02*
X4894182Y-19484698D01*
X4894182Y-19484698D02*
X4884659Y-19494222D01*
X4884659Y-19494222D02*
X4875135Y-19484698D01*
X4875135Y-19484698D02*
X4884659Y-19475174D01*
X4884659Y-19475174D02*
X4884659Y-19494222D01*
D12*
X3217453Y-19910000D02*
X3252453Y-19945000D01*
X3252453Y-19910000D02*
X3217453Y-19945000D01*
D11*
X3551325Y-19818984D02*
X3570373Y-19818984D01*
X3570373Y-19818984D02*
X3589420Y-19828508D01*
X3589420Y-19828508D02*
X3598944Y-19838031D01*
X3598944Y-19838031D02*
X3608468Y-19857079D01*
X3608468Y-19857079D02*
X3617992Y-19895174D01*
X3617992Y-19895174D02*
X3617992Y-19942793D01*
X3617992Y-19942793D02*
X3608468Y-19980889D01*
X3608468Y-19980889D02*
X3598944Y-19999936D01*
X3598944Y-19999936D02*
X3589420Y-20009460D01*
X3589420Y-20009460D02*
X3570373Y-20018984D01*
X3570373Y-20018984D02*
X3551325Y-20018984D01*
X3551325Y-20018984D02*
X3532277Y-20009460D01*
X3532277Y-20009460D02*
X3522754Y-19999936D01*
X3522754Y-19999936D02*
X3513230Y-19980889D01*
X3513230Y-19980889D02*
X3503706Y-19942793D01*
X3503706Y-19942793D02*
X3503706Y-19895174D01*
X3503706Y-19895174D02*
X3513230Y-19857079D01*
X3513230Y-19857079D02*
X3522754Y-19838031D01*
X3522754Y-19838031D02*
X3532277Y-19828508D01*
X3532277Y-19828508D02*
X3551325Y-19818984D01*
X3703706Y-19999936D02*
X3713230Y-20009460D01*
X3713230Y-20009460D02*
X3703706Y-20018984D01*
X3703706Y-20018984D02*
X3694182Y-20009460D01*
X3694182Y-20009460D02*
X3703706Y-19999936D01*
X3703706Y-19999936D02*
X3703706Y-20018984D01*
X3779897Y-19818984D02*
X3903706Y-19818984D01*
X3903706Y-19818984D02*
X3837039Y-19895174D01*
X3837039Y-19895174D02*
X3865611Y-19895174D01*
X3865611Y-19895174D02*
X3884658Y-19904698D01*
X3884658Y-19904698D02*
X3894182Y-19914222D01*
X3894182Y-19914222D02*
X3903706Y-19933270D01*
X3903706Y-19933270D02*
X3903706Y-19980889D01*
X3903706Y-19980889D02*
X3894182Y-19999936D01*
X3894182Y-19999936D02*
X3884658Y-20009460D01*
X3884658Y-20009460D02*
X3865611Y-20018984D01*
X3865611Y-20018984D02*
X3808468Y-20018984D01*
X3808468Y-20018984D02*
X3789420Y-20009460D01*
X3789420Y-20009460D02*
X3779897Y-19999936D01*
X4084658Y-19818984D02*
X3989420Y-19818984D01*
X3989420Y-19818984D02*
X3979897Y-19914222D01*
X3979897Y-19914222D02*
X3989420Y-19904698D01*
X3989420Y-19904698D02*
X4008468Y-19895174D01*
X4008468Y-19895174D02*
X4056087Y-19895174D01*
X4056087Y-19895174D02*
X4075135Y-19904698D01*
X4075135Y-19904698D02*
X4084658Y-19914222D01*
X4084658Y-19914222D02*
X4094182Y-19933270D01*
X4094182Y-19933270D02*
X4094182Y-19980889D01*
X4094182Y-19980889D02*
X4084658Y-19999936D01*
X4084658Y-19999936D02*
X4075135Y-20009460D01*
X4075135Y-20009460D02*
X4056087Y-20018984D01*
X4056087Y-20018984D02*
X4008468Y-20018984D01*
X4008468Y-20018984D02*
X3989420Y-20009460D01*
X3989420Y-20009460D02*
X3979897Y-19999936D01*
X4217992Y-19818984D02*
X4237040Y-19818984D01*
X4237040Y-19818984D02*
X4256087Y-19828508D01*
X4256087Y-19828508D02*
X4265611Y-19838031D01*
X4265611Y-19838031D02*
X4275135Y-19857079D01*
X4275135Y-19857079D02*
X4284659Y-19895174D01*
X4284659Y-19895174D02*
X4284659Y-19942793D01*
X4284659Y-19942793D02*
X4275135Y-19980889D01*
X4275135Y-19980889D02*
X4265611Y-19999936D01*
X4265611Y-19999936D02*
X4256087Y-20009460D01*
X4256087Y-20009460D02*
X4237040Y-20018984D01*
X4237040Y-20018984D02*
X4217992Y-20018984D01*
X4217992Y-20018984D02*
X4198944Y-20009460D01*
X4198944Y-20009460D02*
X4189420Y-19999936D01*
X4189420Y-19999936D02*
X4179897Y-19980889D01*
X4179897Y-19980889D02*
X4170373Y-19942793D01*
X4170373Y-19942793D02*
X4170373Y-19895174D01*
X4170373Y-19895174D02*
X4179897Y-19857079D01*
X4179897Y-19857079D02*
X4189420Y-19838031D01*
X4189420Y-19838031D02*
X4198944Y-19828508D01*
X4198944Y-19828508D02*
X4217992Y-19818984D01*
X4370373Y-20018984D02*
X4370373Y-19885650D01*
X4370373Y-19904698D02*
X4379897Y-19895174D01*
X4379897Y-19895174D02*
X4398944Y-19885650D01*
X4398944Y-19885650D02*
X4427516Y-19885650D01*
X4427516Y-19885650D02*
X4446563Y-19895174D01*
X4446563Y-19895174D02*
X4456087Y-19914222D01*
X4456087Y-19914222D02*
X4456087Y-20018984D01*
X4456087Y-19914222D02*
X4465611Y-19895174D01*
X4465611Y-19895174D02*
X4484659Y-19885650D01*
X4484659Y-19885650D02*
X4513230Y-19885650D01*
X4513230Y-19885650D02*
X4532278Y-19895174D01*
X4532278Y-19895174D02*
X4541801Y-19914222D01*
X4541801Y-19914222D02*
X4541801Y-20018984D01*
X4637040Y-20018984D02*
X4637040Y-19885650D01*
X4637040Y-19904698D02*
X4646563Y-19895174D01*
X4646563Y-19895174D02*
X4665611Y-19885650D01*
X4665611Y-19885650D02*
X4694182Y-19885650D01*
X4694182Y-19885650D02*
X4713230Y-19895174D01*
X4713230Y-19895174D02*
X4722754Y-19914222D01*
X4722754Y-19914222D02*
X4722754Y-20018984D01*
X4722754Y-19914222D02*
X4732278Y-19895174D01*
X4732278Y-19895174D02*
X4751325Y-19885650D01*
X4751325Y-19885650D02*
X4779897Y-19885650D01*
X4779897Y-19885650D02*
X4798944Y-19895174D01*
X4798944Y-19895174D02*
X4808468Y-19914222D01*
X4808468Y-19914222D02*
X4808468Y-20018984D01*
X5198944Y-19809460D02*
X5027516Y-20066603D01*
X5456087Y-19818984D02*
X5475135Y-19818984D01*
X5475135Y-19818984D02*
X5494183Y-19828508D01*
X5494183Y-19828508D02*
X5503706Y-19838031D01*
X5503706Y-19838031D02*
X5513230Y-19857079D01*
X5513230Y-19857079D02*
X5522754Y-19895174D01*
X5522754Y-19895174D02*
X5522754Y-19942793D01*
X5522754Y-19942793D02*
X5513230Y-19980889D01*
X5513230Y-19980889D02*
X5503706Y-19999936D01*
X5503706Y-19999936D02*
X5494183Y-20009460D01*
X5494183Y-20009460D02*
X5475135Y-20018984D01*
X5475135Y-20018984D02*
X5456087Y-20018984D01*
X5456087Y-20018984D02*
X5437040Y-20009460D01*
X5437040Y-20009460D02*
X5427516Y-19999936D01*
X5427516Y-19999936D02*
X5417992Y-19980889D01*
X5417992Y-19980889D02*
X5408468Y-19942793D01*
X5408468Y-19942793D02*
X5408468Y-19895174D01*
X5408468Y-19895174D02*
X5417992Y-19857079D01*
X5417992Y-19857079D02*
X5427516Y-19838031D01*
X5427516Y-19838031D02*
X5437040Y-19828508D01*
X5437040Y-19828508D02*
X5456087Y-19818984D01*
X5608468Y-19999936D02*
X5617992Y-20009460D01*
X5617992Y-20009460D02*
X5608468Y-20018984D01*
X5608468Y-20018984D02*
X5598944Y-20009460D01*
X5598944Y-20009460D02*
X5608468Y-19999936D01*
X5608468Y-19999936D02*
X5608468Y-20018984D01*
X5741801Y-19818984D02*
X5760849Y-19818984D01*
X5760849Y-19818984D02*
X5779897Y-19828508D01*
X5779897Y-19828508D02*
X5789421Y-19838031D01*
X5789421Y-19838031D02*
X5798944Y-19857079D01*
X5798944Y-19857079D02*
X5808468Y-19895174D01*
X5808468Y-19895174D02*
X5808468Y-19942793D01*
X5808468Y-19942793D02*
X5798944Y-19980889D01*
X5798944Y-19980889D02*
X5789421Y-19999936D01*
X5789421Y-19999936D02*
X5779897Y-20009460D01*
X5779897Y-20009460D02*
X5760849Y-20018984D01*
X5760849Y-20018984D02*
X5741801Y-20018984D01*
X5741801Y-20018984D02*
X5722754Y-20009460D01*
X5722754Y-20009460D02*
X5713230Y-19999936D01*
X5713230Y-19999936D02*
X5703706Y-19980889D01*
X5703706Y-19980889D02*
X5694182Y-19942793D01*
X5694182Y-19942793D02*
X5694182Y-19895174D01*
X5694182Y-19895174D02*
X5703706Y-19857079D01*
X5703706Y-19857079D02*
X5713230Y-19838031D01*
X5713230Y-19838031D02*
X5722754Y-19828508D01*
X5722754Y-19828508D02*
X5741801Y-19818984D01*
X5998944Y-20018984D02*
X5884659Y-20018984D01*
X5941801Y-20018984D02*
X5941801Y-19818984D01*
X5941801Y-19818984D02*
X5922754Y-19847555D01*
X5922754Y-19847555D02*
X5903706Y-19866603D01*
X5903706Y-19866603D02*
X5884659Y-19876127D01*
X6065611Y-19818984D02*
X6189421Y-19818984D01*
X6189421Y-19818984D02*
X6122754Y-19895174D01*
X6122754Y-19895174D02*
X6151325Y-19895174D01*
X6151325Y-19895174D02*
X6170373Y-19904698D01*
X6170373Y-19904698D02*
X6179897Y-19914222D01*
X6179897Y-19914222D02*
X6189421Y-19933270D01*
X6189421Y-19933270D02*
X6189421Y-19980889D01*
X6189421Y-19980889D02*
X6179897Y-19999936D01*
X6179897Y-19999936D02*
X6170373Y-20009460D01*
X6170373Y-20009460D02*
X6151325Y-20018984D01*
X6151325Y-20018984D02*
X6094182Y-20018984D01*
X6094182Y-20018984D02*
X6075135Y-20009460D01*
X6075135Y-20009460D02*
X6065611Y-19999936D01*
X6303706Y-19904698D02*
X6284659Y-19895174D01*
X6284659Y-19895174D02*
X6275135Y-19885650D01*
X6275135Y-19885650D02*
X6265611Y-19866603D01*
X6265611Y-19866603D02*
X6265611Y-19857079D01*
X6265611Y-19857079D02*
X6275135Y-19838031D01*
X6275135Y-19838031D02*
X6284659Y-19828508D01*
X6284659Y-19828508D02*
X6303706Y-19818984D01*
X6303706Y-19818984D02*
X6341802Y-19818984D01*
X6341802Y-19818984D02*
X6360849Y-19828508D01*
X6360849Y-19828508D02*
X6370373Y-19838031D01*
X6370373Y-19838031D02*
X6379897Y-19857079D01*
X6379897Y-19857079D02*
X6379897Y-19866603D01*
X6379897Y-19866603D02*
X6370373Y-19885650D01*
X6370373Y-19885650D02*
X6360849Y-19895174D01*
X6360849Y-19895174D02*
X6341802Y-19904698D01*
X6341802Y-19904698D02*
X6303706Y-19904698D01*
X6303706Y-19904698D02*
X6284659Y-19914222D01*
X6284659Y-19914222D02*
X6275135Y-19923746D01*
X6275135Y-19923746D02*
X6265611Y-19942793D01*
X6265611Y-19942793D02*
X6265611Y-19980889D01*
X6265611Y-19980889D02*
X6275135Y-19999936D01*
X6275135Y-19999936D02*
X6284659Y-20009460D01*
X6284659Y-20009460D02*
X6303706Y-20018984D01*
X6303706Y-20018984D02*
X6341802Y-20018984D01*
X6341802Y-20018984D02*
X6360849Y-20009460D01*
X6360849Y-20009460D02*
X6370373Y-19999936D01*
X6370373Y-19999936D02*
X6379897Y-19980889D01*
X6379897Y-19980889D02*
X6379897Y-19942793D01*
X6379897Y-19942793D02*
X6370373Y-19923746D01*
X6370373Y-19923746D02*
X6360849Y-19914222D01*
X6360849Y-19914222D02*
X6341802Y-19904698D01*
X6456087Y-19818984D02*
X6456087Y-19857079D01*
X6532278Y-19818984D02*
X6532278Y-19857079D01*
X6827516Y-20095174D02*
X6817992Y-20085650D01*
X6817992Y-20085650D02*
X6798944Y-20057079D01*
X6798944Y-20057079D02*
X6789421Y-20038031D01*
X6789421Y-20038031D02*
X6779897Y-20009460D01*
X6779897Y-20009460D02*
X6770373Y-19961841D01*
X6770373Y-19961841D02*
X6770373Y-19923746D01*
X6770373Y-19923746D02*
X6779897Y-19876127D01*
X6779897Y-19876127D02*
X6789421Y-19847555D01*
X6789421Y-19847555D02*
X6798944Y-19828508D01*
X6798944Y-19828508D02*
X6817992Y-19799936D01*
X6817992Y-19799936D02*
X6827516Y-19790412D01*
X7008468Y-20018984D02*
X6894183Y-20018984D01*
X6951325Y-20018984D02*
X6951325Y-19818984D01*
X6951325Y-19818984D02*
X6932278Y-19847555D01*
X6932278Y-19847555D02*
X6913230Y-19866603D01*
X6913230Y-19866603D02*
X6894183Y-19876127D01*
X7198944Y-20018984D02*
X7084659Y-20018984D01*
X7141802Y-20018984D02*
X7141802Y-19818984D01*
X7141802Y-19818984D02*
X7122754Y-19847555D01*
X7122754Y-19847555D02*
X7103706Y-19866603D01*
X7103706Y-19866603D02*
X7084659Y-19876127D01*
X7437040Y-20018984D02*
X7437040Y-19818984D01*
X7522754Y-20018984D02*
X7522754Y-19914222D01*
X7522754Y-19914222D02*
X7513230Y-19895174D01*
X7513230Y-19895174D02*
X7494183Y-19885650D01*
X7494183Y-19885650D02*
X7465611Y-19885650D01*
X7465611Y-19885650D02*
X7446564Y-19895174D01*
X7446564Y-19895174D02*
X7437040Y-19904698D01*
X7646564Y-20018984D02*
X7627516Y-20009460D01*
X7627516Y-20009460D02*
X7617992Y-19999936D01*
X7617992Y-19999936D02*
X7608468Y-19980889D01*
X7608468Y-19980889D02*
X7608468Y-19923746D01*
X7608468Y-19923746D02*
X7617992Y-19904698D01*
X7617992Y-19904698D02*
X7627516Y-19895174D01*
X7627516Y-19895174D02*
X7646564Y-19885650D01*
X7646564Y-19885650D02*
X7675135Y-19885650D01*
X7675135Y-19885650D02*
X7694183Y-19895174D01*
X7694183Y-19895174D02*
X7703706Y-19904698D01*
X7703706Y-19904698D02*
X7713230Y-19923746D01*
X7713230Y-19923746D02*
X7713230Y-19980889D01*
X7713230Y-19980889D02*
X7703706Y-19999936D01*
X7703706Y-19999936D02*
X7694183Y-20009460D01*
X7694183Y-20009460D02*
X7675135Y-20018984D01*
X7675135Y-20018984D02*
X7646564Y-20018984D01*
X7827516Y-20018984D02*
X7808468Y-20009460D01*
X7808468Y-20009460D02*
X7798945Y-19990412D01*
X7798945Y-19990412D02*
X7798945Y-19818984D01*
X7979897Y-20009460D02*
X7960849Y-20018984D01*
X7960849Y-20018984D02*
X7922754Y-20018984D01*
X7922754Y-20018984D02*
X7903706Y-20009460D01*
X7903706Y-20009460D02*
X7894183Y-19990412D01*
X7894183Y-19990412D02*
X7894183Y-19914222D01*
X7894183Y-19914222D02*
X7903706Y-19895174D01*
X7903706Y-19895174D02*
X7922754Y-19885650D01*
X7922754Y-19885650D02*
X7960849Y-19885650D01*
X7960849Y-19885650D02*
X7979897Y-19895174D01*
X7979897Y-19895174D02*
X7989421Y-19914222D01*
X7989421Y-19914222D02*
X7989421Y-19933270D01*
X7989421Y-19933270D02*
X7894183Y-19952317D01*
X8065611Y-20009460D02*
X8084659Y-20018984D01*
X8084659Y-20018984D02*
X8122754Y-20018984D01*
X8122754Y-20018984D02*
X8141802Y-20009460D01*
X8141802Y-20009460D02*
X8151326Y-19990412D01*
X8151326Y-19990412D02*
X8151326Y-19980889D01*
X8151326Y-19980889D02*
X8141802Y-19961841D01*
X8141802Y-19961841D02*
X8122754Y-19952317D01*
X8122754Y-19952317D02*
X8094183Y-19952317D01*
X8094183Y-19952317D02*
X8075135Y-19942793D01*
X8075135Y-19942793D02*
X8065611Y-19923746D01*
X8065611Y-19923746D02*
X8065611Y-19914222D01*
X8065611Y-19914222D02*
X8075135Y-19895174D01*
X8075135Y-19895174D02*
X8094183Y-19885650D01*
X8094183Y-19885650D02*
X8122754Y-19885650D01*
X8122754Y-19885650D02*
X8141802Y-19895174D01*
X8217992Y-20095174D02*
X8227516Y-20085650D01*
X8227516Y-20085650D02*
X8246564Y-20057079D01*
X8246564Y-20057079D02*
X8256087Y-20038031D01*
X8256087Y-20038031D02*
X8265611Y-20009460D01*
X8265611Y-20009460D02*
X8275135Y-19961841D01*
X8275135Y-19961841D02*
X8275135Y-19923746D01*
X8275135Y-19923746D02*
X8265611Y-19876127D01*
X8265611Y-19876127D02*
X8256087Y-19847555D01*
X8256087Y-19847555D02*
X8246564Y-19828508D01*
X8246564Y-19828508D02*
X8227516Y-19799936D01*
X8227516Y-19799936D02*
X8217992Y-19790412D01*
D12*
X3252453Y-20191500D02*
G75*
G03*
X3252453Y-20191500I-20000J0D01*
G01*
D11*
X3551325Y-20082984D02*
X3570373Y-20082984D01*
X3570373Y-20082984D02*
X3589420Y-20092508D01*
X3589420Y-20092508D02*
X3598944Y-20102031D01*
X3598944Y-20102031D02*
X3608468Y-20121079D01*
X3608468Y-20121079D02*
X3617992Y-20159174D01*
X3617992Y-20159174D02*
X3617992Y-20206793D01*
X3617992Y-20206793D02*
X3608468Y-20244889D01*
X3608468Y-20244889D02*
X3598944Y-20263936D01*
X3598944Y-20263936D02*
X3589420Y-20273460D01*
X3589420Y-20273460D02*
X3570373Y-20282984D01*
X3570373Y-20282984D02*
X3551325Y-20282984D01*
X3551325Y-20282984D02*
X3532277Y-20273460D01*
X3532277Y-20273460D02*
X3522754Y-20263936D01*
X3522754Y-20263936D02*
X3513230Y-20244889D01*
X3513230Y-20244889D02*
X3503706Y-20206793D01*
X3503706Y-20206793D02*
X3503706Y-20159174D01*
X3503706Y-20159174D02*
X3513230Y-20121079D01*
X3513230Y-20121079D02*
X3522754Y-20102031D01*
X3522754Y-20102031D02*
X3532277Y-20092508D01*
X3532277Y-20092508D02*
X3551325Y-20082984D01*
X3703706Y-20263936D02*
X3713230Y-20273460D01*
X3713230Y-20273460D02*
X3703706Y-20282984D01*
X3703706Y-20282984D02*
X3694182Y-20273460D01*
X3694182Y-20273460D02*
X3703706Y-20263936D01*
X3703706Y-20263936D02*
X3703706Y-20282984D01*
X3884658Y-20149650D02*
X3884658Y-20282984D01*
X3837039Y-20073460D02*
X3789420Y-20216317D01*
X3789420Y-20216317D02*
X3913230Y-20216317D01*
X4027516Y-20082984D02*
X4046563Y-20082984D01*
X4046563Y-20082984D02*
X4065611Y-20092508D01*
X4065611Y-20092508D02*
X4075135Y-20102031D01*
X4075135Y-20102031D02*
X4084658Y-20121079D01*
X4084658Y-20121079D02*
X4094182Y-20159174D01*
X4094182Y-20159174D02*
X4094182Y-20206793D01*
X4094182Y-20206793D02*
X4084658Y-20244889D01*
X4084658Y-20244889D02*
X4075135Y-20263936D01*
X4075135Y-20263936D02*
X4065611Y-20273460D01*
X4065611Y-20273460D02*
X4046563Y-20282984D01*
X4046563Y-20282984D02*
X4027516Y-20282984D01*
X4027516Y-20282984D02*
X4008468Y-20273460D01*
X4008468Y-20273460D02*
X3998944Y-20263936D01*
X3998944Y-20263936D02*
X3989420Y-20244889D01*
X3989420Y-20244889D02*
X3979897Y-20206793D01*
X3979897Y-20206793D02*
X3979897Y-20159174D01*
X3979897Y-20159174D02*
X3989420Y-20121079D01*
X3989420Y-20121079D02*
X3998944Y-20102031D01*
X3998944Y-20102031D02*
X4008468Y-20092508D01*
X4008468Y-20092508D02*
X4027516Y-20082984D01*
X4217992Y-20082984D02*
X4237040Y-20082984D01*
X4237040Y-20082984D02*
X4256087Y-20092508D01*
X4256087Y-20092508D02*
X4265611Y-20102031D01*
X4265611Y-20102031D02*
X4275135Y-20121079D01*
X4275135Y-20121079D02*
X4284659Y-20159174D01*
X4284659Y-20159174D02*
X4284659Y-20206793D01*
X4284659Y-20206793D02*
X4275135Y-20244889D01*
X4275135Y-20244889D02*
X4265611Y-20263936D01*
X4265611Y-20263936D02*
X4256087Y-20273460D01*
X4256087Y-20273460D02*
X4237040Y-20282984D01*
X4237040Y-20282984D02*
X4217992Y-20282984D01*
X4217992Y-20282984D02*
X4198944Y-20273460D01*
X4198944Y-20273460D02*
X4189420Y-20263936D01*
X4189420Y-20263936D02*
X4179897Y-20244889D01*
X4179897Y-20244889D02*
X4170373Y-20206793D01*
X4170373Y-20206793D02*
X4170373Y-20159174D01*
X4170373Y-20159174D02*
X4179897Y-20121079D01*
X4179897Y-20121079D02*
X4189420Y-20102031D01*
X4189420Y-20102031D02*
X4198944Y-20092508D01*
X4198944Y-20092508D02*
X4217992Y-20082984D01*
X4370373Y-20282984D02*
X4370373Y-20149650D01*
X4370373Y-20168698D02*
X4379897Y-20159174D01*
X4379897Y-20159174D02*
X4398944Y-20149650D01*
X4398944Y-20149650D02*
X4427516Y-20149650D01*
X4427516Y-20149650D02*
X4446563Y-20159174D01*
X4446563Y-20159174D02*
X4456087Y-20178222D01*
X4456087Y-20178222D02*
X4456087Y-20282984D01*
X4456087Y-20178222D02*
X4465611Y-20159174D01*
X4465611Y-20159174D02*
X4484659Y-20149650D01*
X4484659Y-20149650D02*
X4513230Y-20149650D01*
X4513230Y-20149650D02*
X4532278Y-20159174D01*
X4532278Y-20159174D02*
X4541801Y-20178222D01*
X4541801Y-20178222D02*
X4541801Y-20282984D01*
X4637040Y-20282984D02*
X4637040Y-20149650D01*
X4637040Y-20168698D02*
X4646563Y-20159174D01*
X4646563Y-20159174D02*
X4665611Y-20149650D01*
X4665611Y-20149650D02*
X4694182Y-20149650D01*
X4694182Y-20149650D02*
X4713230Y-20159174D01*
X4713230Y-20159174D02*
X4722754Y-20178222D01*
X4722754Y-20178222D02*
X4722754Y-20282984D01*
X4722754Y-20178222D02*
X4732278Y-20159174D01*
X4732278Y-20159174D02*
X4751325Y-20149650D01*
X4751325Y-20149650D02*
X4779897Y-20149650D01*
X4779897Y-20149650D02*
X4798944Y-20159174D01*
X4798944Y-20159174D02*
X4808468Y-20178222D01*
X4808468Y-20178222D02*
X4808468Y-20282984D01*
X5198944Y-20073460D02*
X5027516Y-20330603D01*
X5456087Y-20082984D02*
X5475135Y-20082984D01*
X5475135Y-20082984D02*
X5494183Y-20092508D01*
X5494183Y-20092508D02*
X5503706Y-20102031D01*
X5503706Y-20102031D02*
X5513230Y-20121079D01*
X5513230Y-20121079D02*
X5522754Y-20159174D01*
X5522754Y-20159174D02*
X5522754Y-20206793D01*
X5522754Y-20206793D02*
X5513230Y-20244889D01*
X5513230Y-20244889D02*
X5503706Y-20263936D01*
X5503706Y-20263936D02*
X5494183Y-20273460D01*
X5494183Y-20273460D02*
X5475135Y-20282984D01*
X5475135Y-20282984D02*
X5456087Y-20282984D01*
X5456087Y-20282984D02*
X5437040Y-20273460D01*
X5437040Y-20273460D02*
X5427516Y-20263936D01*
X5427516Y-20263936D02*
X5417992Y-20244889D01*
X5417992Y-20244889D02*
X5408468Y-20206793D01*
X5408468Y-20206793D02*
X5408468Y-20159174D01*
X5408468Y-20159174D02*
X5417992Y-20121079D01*
X5417992Y-20121079D02*
X5427516Y-20102031D01*
X5427516Y-20102031D02*
X5437040Y-20092508D01*
X5437040Y-20092508D02*
X5456087Y-20082984D01*
X5608468Y-20263936D02*
X5617992Y-20273460D01*
X5617992Y-20273460D02*
X5608468Y-20282984D01*
X5608468Y-20282984D02*
X5598944Y-20273460D01*
X5598944Y-20273460D02*
X5608468Y-20263936D01*
X5608468Y-20263936D02*
X5608468Y-20282984D01*
X5741801Y-20082984D02*
X5760849Y-20082984D01*
X5760849Y-20082984D02*
X5779897Y-20092508D01*
X5779897Y-20092508D02*
X5789421Y-20102031D01*
X5789421Y-20102031D02*
X5798944Y-20121079D01*
X5798944Y-20121079D02*
X5808468Y-20159174D01*
X5808468Y-20159174D02*
X5808468Y-20206793D01*
X5808468Y-20206793D02*
X5798944Y-20244889D01*
X5798944Y-20244889D02*
X5789421Y-20263936D01*
X5789421Y-20263936D02*
X5779897Y-20273460D01*
X5779897Y-20273460D02*
X5760849Y-20282984D01*
X5760849Y-20282984D02*
X5741801Y-20282984D01*
X5741801Y-20282984D02*
X5722754Y-20273460D01*
X5722754Y-20273460D02*
X5713230Y-20263936D01*
X5713230Y-20263936D02*
X5703706Y-20244889D01*
X5703706Y-20244889D02*
X5694182Y-20206793D01*
X5694182Y-20206793D02*
X5694182Y-20159174D01*
X5694182Y-20159174D02*
X5703706Y-20121079D01*
X5703706Y-20121079D02*
X5713230Y-20102031D01*
X5713230Y-20102031D02*
X5722754Y-20092508D01*
X5722754Y-20092508D02*
X5741801Y-20082984D01*
X5998944Y-20282984D02*
X5884659Y-20282984D01*
X5941801Y-20282984D02*
X5941801Y-20082984D01*
X5941801Y-20082984D02*
X5922754Y-20111555D01*
X5922754Y-20111555D02*
X5903706Y-20130603D01*
X5903706Y-20130603D02*
X5884659Y-20140127D01*
X6179897Y-20082984D02*
X6084659Y-20082984D01*
X6084659Y-20082984D02*
X6075135Y-20178222D01*
X6075135Y-20178222D02*
X6084659Y-20168698D01*
X6084659Y-20168698D02*
X6103706Y-20159174D01*
X6103706Y-20159174D02*
X6151325Y-20159174D01*
X6151325Y-20159174D02*
X6170373Y-20168698D01*
X6170373Y-20168698D02*
X6179897Y-20178222D01*
X6179897Y-20178222D02*
X6189421Y-20197270D01*
X6189421Y-20197270D02*
X6189421Y-20244889D01*
X6189421Y-20244889D02*
X6179897Y-20263936D01*
X6179897Y-20263936D02*
X6170373Y-20273460D01*
X6170373Y-20273460D02*
X6151325Y-20282984D01*
X6151325Y-20282984D02*
X6103706Y-20282984D01*
X6103706Y-20282984D02*
X6084659Y-20273460D01*
X6084659Y-20273460D02*
X6075135Y-20263936D01*
X6256087Y-20082984D02*
X6389421Y-20082984D01*
X6389421Y-20082984D02*
X6303706Y-20282984D01*
X6456087Y-20082984D02*
X6456087Y-20121079D01*
X6532278Y-20082984D02*
X6532278Y-20121079D01*
X6827516Y-20359174D02*
X6817992Y-20349650D01*
X6817992Y-20349650D02*
X6798944Y-20321079D01*
X6798944Y-20321079D02*
X6789421Y-20302031D01*
X6789421Y-20302031D02*
X6779897Y-20273460D01*
X6779897Y-20273460D02*
X6770373Y-20225841D01*
X6770373Y-20225841D02*
X6770373Y-20187746D01*
X6770373Y-20187746D02*
X6779897Y-20140127D01*
X6779897Y-20140127D02*
X6789421Y-20111555D01*
X6789421Y-20111555D02*
X6798944Y-20092508D01*
X6798944Y-20092508D02*
X6817992Y-20063936D01*
X6817992Y-20063936D02*
X6827516Y-20054412D01*
X7008468Y-20282984D02*
X6894183Y-20282984D01*
X6951325Y-20282984D02*
X6951325Y-20082984D01*
X6951325Y-20082984D02*
X6932278Y-20111555D01*
X6932278Y-20111555D02*
X6913230Y-20130603D01*
X6913230Y-20130603D02*
X6894183Y-20140127D01*
X7122754Y-20168698D02*
X7103706Y-20159174D01*
X7103706Y-20159174D02*
X7094183Y-20149650D01*
X7094183Y-20149650D02*
X7084659Y-20130603D01*
X7084659Y-20130603D02*
X7084659Y-20121079D01*
X7084659Y-20121079D02*
X7094183Y-20102031D01*
X7094183Y-20102031D02*
X7103706Y-20092508D01*
X7103706Y-20092508D02*
X7122754Y-20082984D01*
X7122754Y-20082984D02*
X7160849Y-20082984D01*
X7160849Y-20082984D02*
X7179897Y-20092508D01*
X7179897Y-20092508D02*
X7189421Y-20102031D01*
X7189421Y-20102031D02*
X7198944Y-20121079D01*
X7198944Y-20121079D02*
X7198944Y-20130603D01*
X7198944Y-20130603D02*
X7189421Y-20149650D01*
X7189421Y-20149650D02*
X7179897Y-20159174D01*
X7179897Y-20159174D02*
X7160849Y-20168698D01*
X7160849Y-20168698D02*
X7122754Y-20168698D01*
X7122754Y-20168698D02*
X7103706Y-20178222D01*
X7103706Y-20178222D02*
X7094183Y-20187746D01*
X7094183Y-20187746D02*
X7084659Y-20206793D01*
X7084659Y-20206793D02*
X7084659Y-20244889D01*
X7084659Y-20244889D02*
X7094183Y-20263936D01*
X7094183Y-20263936D02*
X7103706Y-20273460D01*
X7103706Y-20273460D02*
X7122754Y-20282984D01*
X7122754Y-20282984D02*
X7160849Y-20282984D01*
X7160849Y-20282984D02*
X7179897Y-20273460D01*
X7179897Y-20273460D02*
X7189421Y-20263936D01*
X7189421Y-20263936D02*
X7198944Y-20244889D01*
X7198944Y-20244889D02*
X7198944Y-20206793D01*
X7198944Y-20206793D02*
X7189421Y-20187746D01*
X7189421Y-20187746D02*
X7179897Y-20178222D01*
X7179897Y-20178222D02*
X7160849Y-20168698D01*
X7313230Y-20168698D02*
X7294183Y-20159174D01*
X7294183Y-20159174D02*
X7284659Y-20149650D01*
X7284659Y-20149650D02*
X7275135Y-20130603D01*
X7275135Y-20130603D02*
X7275135Y-20121079D01*
X7275135Y-20121079D02*
X7284659Y-20102031D01*
X7284659Y-20102031D02*
X7294183Y-20092508D01*
X7294183Y-20092508D02*
X7313230Y-20082984D01*
X7313230Y-20082984D02*
X7351325Y-20082984D01*
X7351325Y-20082984D02*
X7370373Y-20092508D01*
X7370373Y-20092508D02*
X7379897Y-20102031D01*
X7379897Y-20102031D02*
X7389421Y-20121079D01*
X7389421Y-20121079D02*
X7389421Y-20130603D01*
X7389421Y-20130603D02*
X7379897Y-20149650D01*
X7379897Y-20149650D02*
X7370373Y-20159174D01*
X7370373Y-20159174D02*
X7351325Y-20168698D01*
X7351325Y-20168698D02*
X7313230Y-20168698D01*
X7313230Y-20168698D02*
X7294183Y-20178222D01*
X7294183Y-20178222D02*
X7284659Y-20187746D01*
X7284659Y-20187746D02*
X7275135Y-20206793D01*
X7275135Y-20206793D02*
X7275135Y-20244889D01*
X7275135Y-20244889D02*
X7284659Y-20263936D01*
X7284659Y-20263936D02*
X7294183Y-20273460D01*
X7294183Y-20273460D02*
X7313230Y-20282984D01*
X7313230Y-20282984D02*
X7351325Y-20282984D01*
X7351325Y-20282984D02*
X7370373Y-20273460D01*
X7370373Y-20273460D02*
X7379897Y-20263936D01*
X7379897Y-20263936D02*
X7389421Y-20244889D01*
X7389421Y-20244889D02*
X7389421Y-20206793D01*
X7389421Y-20206793D02*
X7379897Y-20187746D01*
X7379897Y-20187746D02*
X7370373Y-20178222D01*
X7370373Y-20178222D02*
X7351325Y-20168698D01*
X7627516Y-20282984D02*
X7627516Y-20082984D01*
X7713230Y-20282984D02*
X7713230Y-20178222D01*
X7713230Y-20178222D02*
X7703706Y-20159174D01*
X7703706Y-20159174D02*
X7684659Y-20149650D01*
X7684659Y-20149650D02*
X7656087Y-20149650D01*
X7656087Y-20149650D02*
X7637040Y-20159174D01*
X7637040Y-20159174D02*
X7627516Y-20168698D01*
X7837040Y-20282984D02*
X7817992Y-20273460D01*
X7817992Y-20273460D02*
X7808468Y-20263936D01*
X7808468Y-20263936D02*
X7798945Y-20244889D01*
X7798945Y-20244889D02*
X7798945Y-20187746D01*
X7798945Y-20187746D02*
X7808468Y-20168698D01*
X7808468Y-20168698D02*
X7817992Y-20159174D01*
X7817992Y-20159174D02*
X7837040Y-20149650D01*
X7837040Y-20149650D02*
X7865611Y-20149650D01*
X7865611Y-20149650D02*
X7884659Y-20159174D01*
X7884659Y-20159174D02*
X7894183Y-20168698D01*
X7894183Y-20168698D02*
X7903706Y-20187746D01*
X7903706Y-20187746D02*
X7903706Y-20244889D01*
X7903706Y-20244889D02*
X7894183Y-20263936D01*
X7894183Y-20263936D02*
X7884659Y-20273460D01*
X7884659Y-20273460D02*
X7865611Y-20282984D01*
X7865611Y-20282984D02*
X7837040Y-20282984D01*
X8017992Y-20282984D02*
X7998945Y-20273460D01*
X7998945Y-20273460D02*
X7989421Y-20254412D01*
X7989421Y-20254412D02*
X7989421Y-20082984D01*
X8170373Y-20273460D02*
X8151326Y-20282984D01*
X8151326Y-20282984D02*
X8113230Y-20282984D01*
X8113230Y-20282984D02*
X8094183Y-20273460D01*
X8094183Y-20273460D02*
X8084659Y-20254412D01*
X8084659Y-20254412D02*
X8084659Y-20178222D01*
X8084659Y-20178222D02*
X8094183Y-20159174D01*
X8094183Y-20159174D02*
X8113230Y-20149650D01*
X8113230Y-20149650D02*
X8151326Y-20149650D01*
X8151326Y-20149650D02*
X8170373Y-20159174D01*
X8170373Y-20159174D02*
X8179897Y-20178222D01*
X8179897Y-20178222D02*
X8179897Y-20197270D01*
X8179897Y-20197270D02*
X8084659Y-20216317D01*
X8256087Y-20273460D02*
X8275135Y-20282984D01*
X8275135Y-20282984D02*
X8313230Y-20282984D01*
X8313230Y-20282984D02*
X8332278Y-20273460D01*
X8332278Y-20273460D02*
X8341802Y-20254412D01*
X8341802Y-20254412D02*
X8341802Y-20244889D01*
X8341802Y-20244889D02*
X8332278Y-20225841D01*
X8332278Y-20225841D02*
X8313230Y-20216317D01*
X8313230Y-20216317D02*
X8284659Y-20216317D01*
X8284659Y-20216317D02*
X8265611Y-20206793D01*
X8265611Y-20206793D02*
X8256087Y-20187746D01*
X8256087Y-20187746D02*
X8256087Y-20178222D01*
X8256087Y-20178222D02*
X8265611Y-20159174D01*
X8265611Y-20159174D02*
X8284659Y-20149650D01*
X8284659Y-20149650D02*
X8313230Y-20149650D01*
X8313230Y-20149650D02*
X8332278Y-20159174D01*
X8408469Y-20359174D02*
X8417992Y-20349650D01*
X8417992Y-20349650D02*
X8437040Y-20321079D01*
X8437040Y-20321079D02*
X8446564Y-20302031D01*
X8446564Y-20302031D02*
X8456088Y-20273460D01*
X8456088Y-20273460D02*
X8465611Y-20225841D01*
X8465611Y-20225841D02*
X8465611Y-20187746D01*
X8465611Y-20187746D02*
X8456088Y-20140127D01*
X8456088Y-20140127D02*
X8446564Y-20111555D01*
X8446564Y-20111555D02*
X8437040Y-20092508D01*
X8437040Y-20092508D02*
X8417992Y-20063936D01*
X8417992Y-20063936D02*
X8408469Y-20054412D01*
D12*
X3227453Y-20430500D02*
X3227453Y-20480500D01*
X3202453Y-20455500D02*
X3252453Y-20455500D01*
D11*
X3551325Y-20346984D02*
X3570373Y-20346984D01*
X3570373Y-20346984D02*
X3589420Y-20356508D01*
X3589420Y-20356508D02*
X3598944Y-20366031D01*
X3598944Y-20366031D02*
X3608468Y-20385079D01*
X3608468Y-20385079D02*
X3617992Y-20423174D01*
X3617992Y-20423174D02*
X3617992Y-20470793D01*
X3617992Y-20470793D02*
X3608468Y-20508889D01*
X3608468Y-20508889D02*
X3598944Y-20527936D01*
X3598944Y-20527936D02*
X3589420Y-20537460D01*
X3589420Y-20537460D02*
X3570373Y-20546984D01*
X3570373Y-20546984D02*
X3551325Y-20546984D01*
X3551325Y-20546984D02*
X3532277Y-20537460D01*
X3532277Y-20537460D02*
X3522754Y-20527936D01*
X3522754Y-20527936D02*
X3513230Y-20508889D01*
X3513230Y-20508889D02*
X3503706Y-20470793D01*
X3503706Y-20470793D02*
X3503706Y-20423174D01*
X3503706Y-20423174D02*
X3513230Y-20385079D01*
X3513230Y-20385079D02*
X3522754Y-20366031D01*
X3522754Y-20366031D02*
X3532277Y-20356508D01*
X3532277Y-20356508D02*
X3551325Y-20346984D01*
X3703706Y-20527936D02*
X3713230Y-20537460D01*
X3713230Y-20537460D02*
X3703706Y-20546984D01*
X3703706Y-20546984D02*
X3694182Y-20537460D01*
X3694182Y-20537460D02*
X3703706Y-20527936D01*
X3703706Y-20527936D02*
X3703706Y-20546984D01*
X3894182Y-20346984D02*
X3798944Y-20346984D01*
X3798944Y-20346984D02*
X3789420Y-20442222D01*
X3789420Y-20442222D02*
X3798944Y-20432698D01*
X3798944Y-20432698D02*
X3817992Y-20423174D01*
X3817992Y-20423174D02*
X3865611Y-20423174D01*
X3865611Y-20423174D02*
X3884658Y-20432698D01*
X3884658Y-20432698D02*
X3894182Y-20442222D01*
X3894182Y-20442222D02*
X3903706Y-20461270D01*
X3903706Y-20461270D02*
X3903706Y-20508889D01*
X3903706Y-20508889D02*
X3894182Y-20527936D01*
X3894182Y-20527936D02*
X3884658Y-20537460D01*
X3884658Y-20537460D02*
X3865611Y-20546984D01*
X3865611Y-20546984D02*
X3817992Y-20546984D01*
X3817992Y-20546984D02*
X3798944Y-20537460D01*
X3798944Y-20537460D02*
X3789420Y-20527936D01*
X4027516Y-20346984D02*
X4046563Y-20346984D01*
X4046563Y-20346984D02*
X4065611Y-20356508D01*
X4065611Y-20356508D02*
X4075135Y-20366031D01*
X4075135Y-20366031D02*
X4084658Y-20385079D01*
X4084658Y-20385079D02*
X4094182Y-20423174D01*
X4094182Y-20423174D02*
X4094182Y-20470793D01*
X4094182Y-20470793D02*
X4084658Y-20508889D01*
X4084658Y-20508889D02*
X4075135Y-20527936D01*
X4075135Y-20527936D02*
X4065611Y-20537460D01*
X4065611Y-20537460D02*
X4046563Y-20546984D01*
X4046563Y-20546984D02*
X4027516Y-20546984D01*
X4027516Y-20546984D02*
X4008468Y-20537460D01*
X4008468Y-20537460D02*
X3998944Y-20527936D01*
X3998944Y-20527936D02*
X3989420Y-20508889D01*
X3989420Y-20508889D02*
X3979897Y-20470793D01*
X3979897Y-20470793D02*
X3979897Y-20423174D01*
X3979897Y-20423174D02*
X3989420Y-20385079D01*
X3989420Y-20385079D02*
X3998944Y-20366031D01*
X3998944Y-20366031D02*
X4008468Y-20356508D01*
X4008468Y-20356508D02*
X4027516Y-20346984D01*
X4217992Y-20346984D02*
X4237040Y-20346984D01*
X4237040Y-20346984D02*
X4256087Y-20356508D01*
X4256087Y-20356508D02*
X4265611Y-20366031D01*
X4265611Y-20366031D02*
X4275135Y-20385079D01*
X4275135Y-20385079D02*
X4284659Y-20423174D01*
X4284659Y-20423174D02*
X4284659Y-20470793D01*
X4284659Y-20470793D02*
X4275135Y-20508889D01*
X4275135Y-20508889D02*
X4265611Y-20527936D01*
X4265611Y-20527936D02*
X4256087Y-20537460D01*
X4256087Y-20537460D02*
X4237040Y-20546984D01*
X4237040Y-20546984D02*
X4217992Y-20546984D01*
X4217992Y-20546984D02*
X4198944Y-20537460D01*
X4198944Y-20537460D02*
X4189420Y-20527936D01*
X4189420Y-20527936D02*
X4179897Y-20508889D01*
X4179897Y-20508889D02*
X4170373Y-20470793D01*
X4170373Y-20470793D02*
X4170373Y-20423174D01*
X4170373Y-20423174D02*
X4179897Y-20385079D01*
X4179897Y-20385079D02*
X4189420Y-20366031D01*
X4189420Y-20366031D02*
X4198944Y-20356508D01*
X4198944Y-20356508D02*
X4217992Y-20346984D01*
X4370373Y-20546984D02*
X4370373Y-20413650D01*
X4370373Y-20432698D02*
X4379897Y-20423174D01*
X4379897Y-20423174D02*
X4398944Y-20413650D01*
X4398944Y-20413650D02*
X4427516Y-20413650D01*
X4427516Y-20413650D02*
X4446563Y-20423174D01*
X4446563Y-20423174D02*
X4456087Y-20442222D01*
X4456087Y-20442222D02*
X4456087Y-20546984D01*
X4456087Y-20442222D02*
X4465611Y-20423174D01*
X4465611Y-20423174D02*
X4484659Y-20413650D01*
X4484659Y-20413650D02*
X4513230Y-20413650D01*
X4513230Y-20413650D02*
X4532278Y-20423174D01*
X4532278Y-20423174D02*
X4541801Y-20442222D01*
X4541801Y-20442222D02*
X4541801Y-20546984D01*
X4637040Y-20546984D02*
X4637040Y-20413650D01*
X4637040Y-20432698D02*
X4646563Y-20423174D01*
X4646563Y-20423174D02*
X4665611Y-20413650D01*
X4665611Y-20413650D02*
X4694182Y-20413650D01*
X4694182Y-20413650D02*
X4713230Y-20423174D01*
X4713230Y-20423174D02*
X4722754Y-20442222D01*
X4722754Y-20442222D02*
X4722754Y-20546984D01*
X4722754Y-20442222D02*
X4732278Y-20423174D01*
X4732278Y-20423174D02*
X4751325Y-20413650D01*
X4751325Y-20413650D02*
X4779897Y-20413650D01*
X4779897Y-20413650D02*
X4798944Y-20423174D01*
X4798944Y-20423174D02*
X4808468Y-20442222D01*
X4808468Y-20442222D02*
X4808468Y-20546984D01*
X5198944Y-20337460D02*
X5027516Y-20594603D01*
X5456087Y-20346984D02*
X5475135Y-20346984D01*
X5475135Y-20346984D02*
X5494183Y-20356508D01*
X5494183Y-20356508D02*
X5503706Y-20366031D01*
X5503706Y-20366031D02*
X5513230Y-20385079D01*
X5513230Y-20385079D02*
X5522754Y-20423174D01*
X5522754Y-20423174D02*
X5522754Y-20470793D01*
X5522754Y-20470793D02*
X5513230Y-20508889D01*
X5513230Y-20508889D02*
X5503706Y-20527936D01*
X5503706Y-20527936D02*
X5494183Y-20537460D01*
X5494183Y-20537460D02*
X5475135Y-20546984D01*
X5475135Y-20546984D02*
X5456087Y-20546984D01*
X5456087Y-20546984D02*
X5437040Y-20537460D01*
X5437040Y-20537460D02*
X5427516Y-20527936D01*
X5427516Y-20527936D02*
X5417992Y-20508889D01*
X5417992Y-20508889D02*
X5408468Y-20470793D01*
X5408468Y-20470793D02*
X5408468Y-20423174D01*
X5408468Y-20423174D02*
X5417992Y-20385079D01*
X5417992Y-20385079D02*
X5427516Y-20366031D01*
X5427516Y-20366031D02*
X5437040Y-20356508D01*
X5437040Y-20356508D02*
X5456087Y-20346984D01*
X5608468Y-20527936D02*
X5617992Y-20537460D01*
X5617992Y-20537460D02*
X5608468Y-20546984D01*
X5608468Y-20546984D02*
X5598944Y-20537460D01*
X5598944Y-20537460D02*
X5608468Y-20527936D01*
X5608468Y-20527936D02*
X5608468Y-20546984D01*
X5741801Y-20346984D02*
X5760849Y-20346984D01*
X5760849Y-20346984D02*
X5779897Y-20356508D01*
X5779897Y-20356508D02*
X5789421Y-20366031D01*
X5789421Y-20366031D02*
X5798944Y-20385079D01*
X5798944Y-20385079D02*
X5808468Y-20423174D01*
X5808468Y-20423174D02*
X5808468Y-20470793D01*
X5808468Y-20470793D02*
X5798944Y-20508889D01*
X5798944Y-20508889D02*
X5789421Y-20527936D01*
X5789421Y-20527936D02*
X5779897Y-20537460D01*
X5779897Y-20537460D02*
X5760849Y-20546984D01*
X5760849Y-20546984D02*
X5741801Y-20546984D01*
X5741801Y-20546984D02*
X5722754Y-20537460D01*
X5722754Y-20537460D02*
X5713230Y-20527936D01*
X5713230Y-20527936D02*
X5703706Y-20508889D01*
X5703706Y-20508889D02*
X5694182Y-20470793D01*
X5694182Y-20470793D02*
X5694182Y-20423174D01*
X5694182Y-20423174D02*
X5703706Y-20385079D01*
X5703706Y-20385079D02*
X5713230Y-20366031D01*
X5713230Y-20366031D02*
X5722754Y-20356508D01*
X5722754Y-20356508D02*
X5741801Y-20346984D01*
X5998944Y-20546984D02*
X5884659Y-20546984D01*
X5941801Y-20546984D02*
X5941801Y-20346984D01*
X5941801Y-20346984D02*
X5922754Y-20375555D01*
X5922754Y-20375555D02*
X5903706Y-20394603D01*
X5903706Y-20394603D02*
X5884659Y-20404127D01*
X6094182Y-20546984D02*
X6132278Y-20546984D01*
X6132278Y-20546984D02*
X6151325Y-20537460D01*
X6151325Y-20537460D02*
X6160849Y-20527936D01*
X6160849Y-20527936D02*
X6179897Y-20499365D01*
X6179897Y-20499365D02*
X6189421Y-20461270D01*
X6189421Y-20461270D02*
X6189421Y-20385079D01*
X6189421Y-20385079D02*
X6179897Y-20366031D01*
X6179897Y-20366031D02*
X6170373Y-20356508D01*
X6170373Y-20356508D02*
X6151325Y-20346984D01*
X6151325Y-20346984D02*
X6113230Y-20346984D01*
X6113230Y-20346984D02*
X6094182Y-20356508D01*
X6094182Y-20356508D02*
X6084659Y-20366031D01*
X6084659Y-20366031D02*
X6075135Y-20385079D01*
X6075135Y-20385079D02*
X6075135Y-20432698D01*
X6075135Y-20432698D02*
X6084659Y-20451746D01*
X6084659Y-20451746D02*
X6094182Y-20461270D01*
X6094182Y-20461270D02*
X6113230Y-20470793D01*
X6113230Y-20470793D02*
X6151325Y-20470793D01*
X6151325Y-20470793D02*
X6170373Y-20461270D01*
X6170373Y-20461270D02*
X6179897Y-20451746D01*
X6179897Y-20451746D02*
X6189421Y-20432698D01*
X6256087Y-20346984D02*
X6389421Y-20346984D01*
X6389421Y-20346984D02*
X6303706Y-20546984D01*
X6456087Y-20346984D02*
X6456087Y-20385079D01*
X6532278Y-20346984D02*
X6532278Y-20385079D01*
X6827516Y-20623174D02*
X6817992Y-20613650D01*
X6817992Y-20613650D02*
X6798944Y-20585079D01*
X6798944Y-20585079D02*
X6789421Y-20566031D01*
X6789421Y-20566031D02*
X6779897Y-20537460D01*
X6779897Y-20537460D02*
X6770373Y-20489841D01*
X6770373Y-20489841D02*
X6770373Y-20451746D01*
X6770373Y-20451746D02*
X6779897Y-20404127D01*
X6779897Y-20404127D02*
X6789421Y-20375555D01*
X6789421Y-20375555D02*
X6798944Y-20356508D01*
X6798944Y-20356508D02*
X6817992Y-20327936D01*
X6817992Y-20327936D02*
X6827516Y-20318412D01*
X7008468Y-20546984D02*
X6894183Y-20546984D01*
X6951325Y-20546984D02*
X6951325Y-20346984D01*
X6951325Y-20346984D02*
X6932278Y-20375555D01*
X6932278Y-20375555D02*
X6913230Y-20394603D01*
X6913230Y-20394603D02*
X6894183Y-20404127D01*
X7246564Y-20546984D02*
X7246564Y-20346984D01*
X7332278Y-20546984D02*
X7332278Y-20442222D01*
X7332278Y-20442222D02*
X7322754Y-20423174D01*
X7322754Y-20423174D02*
X7303706Y-20413650D01*
X7303706Y-20413650D02*
X7275135Y-20413650D01*
X7275135Y-20413650D02*
X7256087Y-20423174D01*
X7256087Y-20423174D02*
X7246564Y-20432698D01*
X7456087Y-20546984D02*
X7437040Y-20537460D01*
X7437040Y-20537460D02*
X7427516Y-20527936D01*
X7427516Y-20527936D02*
X7417992Y-20508889D01*
X7417992Y-20508889D02*
X7417992Y-20451746D01*
X7417992Y-20451746D02*
X7427516Y-20432698D01*
X7427516Y-20432698D02*
X7437040Y-20423174D01*
X7437040Y-20423174D02*
X7456087Y-20413650D01*
X7456087Y-20413650D02*
X7484659Y-20413650D01*
X7484659Y-20413650D02*
X7503706Y-20423174D01*
X7503706Y-20423174D02*
X7513230Y-20432698D01*
X7513230Y-20432698D02*
X7522754Y-20451746D01*
X7522754Y-20451746D02*
X7522754Y-20508889D01*
X7522754Y-20508889D02*
X7513230Y-20527936D01*
X7513230Y-20527936D02*
X7503706Y-20537460D01*
X7503706Y-20537460D02*
X7484659Y-20546984D01*
X7484659Y-20546984D02*
X7456087Y-20546984D01*
X7637040Y-20546984D02*
X7617992Y-20537460D01*
X7617992Y-20537460D02*
X7608468Y-20518412D01*
X7608468Y-20518412D02*
X7608468Y-20346984D01*
X7789421Y-20537460D02*
X7770373Y-20546984D01*
X7770373Y-20546984D02*
X7732278Y-20546984D01*
X7732278Y-20546984D02*
X7713230Y-20537460D01*
X7713230Y-20537460D02*
X7703706Y-20518412D01*
X7703706Y-20518412D02*
X7703706Y-20442222D01*
X7703706Y-20442222D02*
X7713230Y-20423174D01*
X7713230Y-20423174D02*
X7732278Y-20413650D01*
X7732278Y-20413650D02*
X7770373Y-20413650D01*
X7770373Y-20413650D02*
X7789421Y-20423174D01*
X7789421Y-20423174D02*
X7798945Y-20442222D01*
X7798945Y-20442222D02*
X7798945Y-20461270D01*
X7798945Y-20461270D02*
X7703706Y-20480317D01*
X7865611Y-20623174D02*
X7875135Y-20613650D01*
X7875135Y-20613650D02*
X7894183Y-20585079D01*
X7894183Y-20585079D02*
X7903706Y-20566031D01*
X7903706Y-20566031D02*
X7913230Y-20537460D01*
X7913230Y-20537460D02*
X7922754Y-20489841D01*
X7922754Y-20489841D02*
X7922754Y-20451746D01*
X7922754Y-20451746D02*
X7913230Y-20404127D01*
X7913230Y-20404127D02*
X7903706Y-20375555D01*
X7903706Y-20375555D02*
X7894183Y-20356508D01*
X7894183Y-20356508D02*
X7875135Y-20327936D01*
X7875135Y-20327936D02*
X7865611Y-20318412D01*
D12*
X3241294Y-20746441D02*
X3241294Y-20692559D01*
X3187412Y-20692559D01*
X3187412Y-20746441D01*
X3241294Y-20746441D01*
D11*
X3551325Y-20610984D02*
X3570373Y-20610984D01*
X3570373Y-20610984D02*
X3589420Y-20620508D01*
X3589420Y-20620508D02*
X3598944Y-20630031D01*
X3598944Y-20630031D02*
X3608468Y-20649079D01*
X3608468Y-20649079D02*
X3617992Y-20687174D01*
X3617992Y-20687174D02*
X3617992Y-20734793D01*
X3617992Y-20734793D02*
X3608468Y-20772889D01*
X3608468Y-20772889D02*
X3598944Y-20791936D01*
X3598944Y-20791936D02*
X3589420Y-20801460D01*
X3589420Y-20801460D02*
X3570373Y-20810984D01*
X3570373Y-20810984D02*
X3551325Y-20810984D01*
X3551325Y-20810984D02*
X3532277Y-20801460D01*
X3532277Y-20801460D02*
X3522754Y-20791936D01*
X3522754Y-20791936D02*
X3513230Y-20772889D01*
X3513230Y-20772889D02*
X3503706Y-20734793D01*
X3503706Y-20734793D02*
X3503706Y-20687174D01*
X3503706Y-20687174D02*
X3513230Y-20649079D01*
X3513230Y-20649079D02*
X3522754Y-20630031D01*
X3522754Y-20630031D02*
X3532277Y-20620508D01*
X3532277Y-20620508D02*
X3551325Y-20610984D01*
X3703706Y-20791936D02*
X3713230Y-20801460D01*
X3713230Y-20801460D02*
X3703706Y-20810984D01*
X3703706Y-20810984D02*
X3694182Y-20801460D01*
X3694182Y-20801460D02*
X3703706Y-20791936D01*
X3703706Y-20791936D02*
X3703706Y-20810984D01*
X3779897Y-20610984D02*
X3913230Y-20610984D01*
X3913230Y-20610984D02*
X3827516Y-20810984D01*
X4075135Y-20610984D02*
X4037039Y-20610984D01*
X4037039Y-20610984D02*
X4017992Y-20620508D01*
X4017992Y-20620508D02*
X4008468Y-20630031D01*
X4008468Y-20630031D02*
X3989420Y-20658603D01*
X3989420Y-20658603D02*
X3979897Y-20696698D01*
X3979897Y-20696698D02*
X3979897Y-20772889D01*
X3979897Y-20772889D02*
X3989420Y-20791936D01*
X3989420Y-20791936D02*
X3998944Y-20801460D01*
X3998944Y-20801460D02*
X4017992Y-20810984D01*
X4017992Y-20810984D02*
X4056087Y-20810984D01*
X4056087Y-20810984D02*
X4075135Y-20801460D01*
X4075135Y-20801460D02*
X4084658Y-20791936D01*
X4084658Y-20791936D02*
X4094182Y-20772889D01*
X4094182Y-20772889D02*
X4094182Y-20725270D01*
X4094182Y-20725270D02*
X4084658Y-20706222D01*
X4084658Y-20706222D02*
X4075135Y-20696698D01*
X4075135Y-20696698D02*
X4056087Y-20687174D01*
X4056087Y-20687174D02*
X4017992Y-20687174D01*
X4017992Y-20687174D02*
X3998944Y-20696698D01*
X3998944Y-20696698D02*
X3989420Y-20706222D01*
X3989420Y-20706222D02*
X3979897Y-20725270D01*
X4170373Y-20630031D02*
X4179897Y-20620508D01*
X4179897Y-20620508D02*
X4198944Y-20610984D01*
X4198944Y-20610984D02*
X4246563Y-20610984D01*
X4246563Y-20610984D02*
X4265611Y-20620508D01*
X4265611Y-20620508D02*
X4275135Y-20630031D01*
X4275135Y-20630031D02*
X4284659Y-20649079D01*
X4284659Y-20649079D02*
X4284659Y-20668127D01*
X4284659Y-20668127D02*
X4275135Y-20696698D01*
X4275135Y-20696698D02*
X4160849Y-20810984D01*
X4160849Y-20810984D02*
X4284659Y-20810984D01*
X4370373Y-20810984D02*
X4370373Y-20677650D01*
X4370373Y-20696698D02*
X4379897Y-20687174D01*
X4379897Y-20687174D02*
X4398944Y-20677650D01*
X4398944Y-20677650D02*
X4427516Y-20677650D01*
X4427516Y-20677650D02*
X4446563Y-20687174D01*
X4446563Y-20687174D02*
X4456087Y-20706222D01*
X4456087Y-20706222D02*
X4456087Y-20810984D01*
X4456087Y-20706222D02*
X4465611Y-20687174D01*
X4465611Y-20687174D02*
X4484659Y-20677650D01*
X4484659Y-20677650D02*
X4513230Y-20677650D01*
X4513230Y-20677650D02*
X4532278Y-20687174D01*
X4532278Y-20687174D02*
X4541801Y-20706222D01*
X4541801Y-20706222D02*
X4541801Y-20810984D01*
X4637040Y-20810984D02*
X4637040Y-20677650D01*
X4637040Y-20696698D02*
X4646563Y-20687174D01*
X4646563Y-20687174D02*
X4665611Y-20677650D01*
X4665611Y-20677650D02*
X4694182Y-20677650D01*
X4694182Y-20677650D02*
X4713230Y-20687174D01*
X4713230Y-20687174D02*
X4722754Y-20706222D01*
X4722754Y-20706222D02*
X4722754Y-20810984D01*
X4722754Y-20706222D02*
X4732278Y-20687174D01*
X4732278Y-20687174D02*
X4751325Y-20677650D01*
X4751325Y-20677650D02*
X4779897Y-20677650D01*
X4779897Y-20677650D02*
X4798944Y-20687174D01*
X4798944Y-20687174D02*
X4808468Y-20706222D01*
X4808468Y-20706222D02*
X4808468Y-20810984D01*
X5198944Y-20601460D02*
X5027516Y-20858603D01*
X5456087Y-20610984D02*
X5475135Y-20610984D01*
X5475135Y-20610984D02*
X5494183Y-20620508D01*
X5494183Y-20620508D02*
X5503706Y-20630031D01*
X5503706Y-20630031D02*
X5513230Y-20649079D01*
X5513230Y-20649079D02*
X5522754Y-20687174D01*
X5522754Y-20687174D02*
X5522754Y-20734793D01*
X5522754Y-20734793D02*
X5513230Y-20772889D01*
X5513230Y-20772889D02*
X5503706Y-20791936D01*
X5503706Y-20791936D02*
X5494183Y-20801460D01*
X5494183Y-20801460D02*
X5475135Y-20810984D01*
X5475135Y-20810984D02*
X5456087Y-20810984D01*
X5456087Y-20810984D02*
X5437040Y-20801460D01*
X5437040Y-20801460D02*
X5427516Y-20791936D01*
X5427516Y-20791936D02*
X5417992Y-20772889D01*
X5417992Y-20772889D02*
X5408468Y-20734793D01*
X5408468Y-20734793D02*
X5408468Y-20687174D01*
X5408468Y-20687174D02*
X5417992Y-20649079D01*
X5417992Y-20649079D02*
X5427516Y-20630031D01*
X5427516Y-20630031D02*
X5437040Y-20620508D01*
X5437040Y-20620508D02*
X5456087Y-20610984D01*
X5608468Y-20791936D02*
X5617992Y-20801460D01*
X5617992Y-20801460D02*
X5608468Y-20810984D01*
X5608468Y-20810984D02*
X5598944Y-20801460D01*
X5598944Y-20801460D02*
X5608468Y-20791936D01*
X5608468Y-20791936D02*
X5608468Y-20810984D01*
X5741801Y-20610984D02*
X5760849Y-20610984D01*
X5760849Y-20610984D02*
X5779897Y-20620508D01*
X5779897Y-20620508D02*
X5789421Y-20630031D01*
X5789421Y-20630031D02*
X5798944Y-20649079D01*
X5798944Y-20649079D02*
X5808468Y-20687174D01*
X5808468Y-20687174D02*
X5808468Y-20734793D01*
X5808468Y-20734793D02*
X5798944Y-20772889D01*
X5798944Y-20772889D02*
X5789421Y-20791936D01*
X5789421Y-20791936D02*
X5779897Y-20801460D01*
X5779897Y-20801460D02*
X5760849Y-20810984D01*
X5760849Y-20810984D02*
X5741801Y-20810984D01*
X5741801Y-20810984D02*
X5722754Y-20801460D01*
X5722754Y-20801460D02*
X5713230Y-20791936D01*
X5713230Y-20791936D02*
X5703706Y-20772889D01*
X5703706Y-20772889D02*
X5694182Y-20734793D01*
X5694182Y-20734793D02*
X5694182Y-20687174D01*
X5694182Y-20687174D02*
X5703706Y-20649079D01*
X5703706Y-20649079D02*
X5713230Y-20630031D01*
X5713230Y-20630031D02*
X5722754Y-20620508D01*
X5722754Y-20620508D02*
X5741801Y-20610984D01*
X5875135Y-20610984D02*
X5998944Y-20610984D01*
X5998944Y-20610984D02*
X5932278Y-20687174D01*
X5932278Y-20687174D02*
X5960849Y-20687174D01*
X5960849Y-20687174D02*
X5979897Y-20696698D01*
X5979897Y-20696698D02*
X5989421Y-20706222D01*
X5989421Y-20706222D02*
X5998944Y-20725270D01*
X5998944Y-20725270D02*
X5998944Y-20772889D01*
X5998944Y-20772889D02*
X5989421Y-20791936D01*
X5989421Y-20791936D02*
X5979897Y-20801460D01*
X5979897Y-20801460D02*
X5960849Y-20810984D01*
X5960849Y-20810984D02*
X5903706Y-20810984D01*
X5903706Y-20810984D02*
X5884659Y-20801460D01*
X5884659Y-20801460D02*
X5875135Y-20791936D01*
X6122754Y-20610984D02*
X6141802Y-20610984D01*
X6141802Y-20610984D02*
X6160849Y-20620508D01*
X6160849Y-20620508D02*
X6170373Y-20630031D01*
X6170373Y-20630031D02*
X6179897Y-20649079D01*
X6179897Y-20649079D02*
X6189421Y-20687174D01*
X6189421Y-20687174D02*
X6189421Y-20734793D01*
X6189421Y-20734793D02*
X6179897Y-20772889D01*
X6179897Y-20772889D02*
X6170373Y-20791936D01*
X6170373Y-20791936D02*
X6160849Y-20801460D01*
X6160849Y-20801460D02*
X6141802Y-20810984D01*
X6141802Y-20810984D02*
X6122754Y-20810984D01*
X6122754Y-20810984D02*
X6103706Y-20801460D01*
X6103706Y-20801460D02*
X6094182Y-20791936D01*
X6094182Y-20791936D02*
X6084659Y-20772889D01*
X6084659Y-20772889D02*
X6075135Y-20734793D01*
X6075135Y-20734793D02*
X6075135Y-20687174D01*
X6075135Y-20687174D02*
X6084659Y-20649079D01*
X6084659Y-20649079D02*
X6094182Y-20630031D01*
X6094182Y-20630031D02*
X6103706Y-20620508D01*
X6103706Y-20620508D02*
X6122754Y-20610984D01*
X6313230Y-20610984D02*
X6332278Y-20610984D01*
X6332278Y-20610984D02*
X6351325Y-20620508D01*
X6351325Y-20620508D02*
X6360849Y-20630031D01*
X6360849Y-20630031D02*
X6370373Y-20649079D01*
X6370373Y-20649079D02*
X6379897Y-20687174D01*
X6379897Y-20687174D02*
X6379897Y-20734793D01*
X6379897Y-20734793D02*
X6370373Y-20772889D01*
X6370373Y-20772889D02*
X6360849Y-20791936D01*
X6360849Y-20791936D02*
X6351325Y-20801460D01*
X6351325Y-20801460D02*
X6332278Y-20810984D01*
X6332278Y-20810984D02*
X6313230Y-20810984D01*
X6313230Y-20810984D02*
X6294182Y-20801460D01*
X6294182Y-20801460D02*
X6284659Y-20791936D01*
X6284659Y-20791936D02*
X6275135Y-20772889D01*
X6275135Y-20772889D02*
X6265611Y-20734793D01*
X6265611Y-20734793D02*
X6265611Y-20687174D01*
X6265611Y-20687174D02*
X6275135Y-20649079D01*
X6275135Y-20649079D02*
X6284659Y-20630031D01*
X6284659Y-20630031D02*
X6294182Y-20620508D01*
X6294182Y-20620508D02*
X6313230Y-20610984D01*
X6456087Y-20610984D02*
X6456087Y-20649079D01*
X6532278Y-20610984D02*
X6532278Y-20649079D01*
X6827516Y-20887174D02*
X6817992Y-20877650D01*
X6817992Y-20877650D02*
X6798944Y-20849079D01*
X6798944Y-20849079D02*
X6789421Y-20830031D01*
X6789421Y-20830031D02*
X6779897Y-20801460D01*
X6779897Y-20801460D02*
X6770373Y-20753841D01*
X6770373Y-20753841D02*
X6770373Y-20715746D01*
X6770373Y-20715746D02*
X6779897Y-20668127D01*
X6779897Y-20668127D02*
X6789421Y-20639555D01*
X6789421Y-20639555D02*
X6798944Y-20620508D01*
X6798944Y-20620508D02*
X6817992Y-20591936D01*
X6817992Y-20591936D02*
X6827516Y-20582412D01*
X7008468Y-20810984D02*
X6894183Y-20810984D01*
X6951325Y-20810984D02*
X6951325Y-20610984D01*
X6951325Y-20610984D02*
X6932278Y-20639555D01*
X6932278Y-20639555D02*
X6913230Y-20658603D01*
X6913230Y-20658603D02*
X6894183Y-20668127D01*
X7179897Y-20610984D02*
X7141802Y-20610984D01*
X7141802Y-20610984D02*
X7122754Y-20620508D01*
X7122754Y-20620508D02*
X7113230Y-20630031D01*
X7113230Y-20630031D02*
X7094183Y-20658603D01*
X7094183Y-20658603D02*
X7084659Y-20696698D01*
X7084659Y-20696698D02*
X7084659Y-20772889D01*
X7084659Y-20772889D02*
X7094183Y-20791936D01*
X7094183Y-20791936D02*
X7103706Y-20801460D01*
X7103706Y-20801460D02*
X7122754Y-20810984D01*
X7122754Y-20810984D02*
X7160849Y-20810984D01*
X7160849Y-20810984D02*
X7179897Y-20801460D01*
X7179897Y-20801460D02*
X7189421Y-20791936D01*
X7189421Y-20791936D02*
X7198944Y-20772889D01*
X7198944Y-20772889D02*
X7198944Y-20725270D01*
X7198944Y-20725270D02*
X7189421Y-20706222D01*
X7189421Y-20706222D02*
X7179897Y-20696698D01*
X7179897Y-20696698D02*
X7160849Y-20687174D01*
X7160849Y-20687174D02*
X7122754Y-20687174D01*
X7122754Y-20687174D02*
X7103706Y-20696698D01*
X7103706Y-20696698D02*
X7094183Y-20706222D01*
X7094183Y-20706222D02*
X7084659Y-20725270D01*
X7275135Y-20630031D02*
X7284659Y-20620508D01*
X7284659Y-20620508D02*
X7303706Y-20610984D01*
X7303706Y-20610984D02*
X7351325Y-20610984D01*
X7351325Y-20610984D02*
X7370373Y-20620508D01*
X7370373Y-20620508D02*
X7379897Y-20630031D01*
X7379897Y-20630031D02*
X7389421Y-20649079D01*
X7389421Y-20649079D02*
X7389421Y-20668127D01*
X7389421Y-20668127D02*
X7379897Y-20696698D01*
X7379897Y-20696698D02*
X7265611Y-20810984D01*
X7265611Y-20810984D02*
X7389421Y-20810984D01*
X7627516Y-20810984D02*
X7627516Y-20610984D01*
X7713230Y-20810984D02*
X7713230Y-20706222D01*
X7713230Y-20706222D02*
X7703706Y-20687174D01*
X7703706Y-20687174D02*
X7684659Y-20677650D01*
X7684659Y-20677650D02*
X7656087Y-20677650D01*
X7656087Y-20677650D02*
X7637040Y-20687174D01*
X7637040Y-20687174D02*
X7627516Y-20696698D01*
X7837040Y-20810984D02*
X7817992Y-20801460D01*
X7817992Y-20801460D02*
X7808468Y-20791936D01*
X7808468Y-20791936D02*
X7798945Y-20772889D01*
X7798945Y-20772889D02*
X7798945Y-20715746D01*
X7798945Y-20715746D02*
X7808468Y-20696698D01*
X7808468Y-20696698D02*
X7817992Y-20687174D01*
X7817992Y-20687174D02*
X7837040Y-20677650D01*
X7837040Y-20677650D02*
X7865611Y-20677650D01*
X7865611Y-20677650D02*
X7884659Y-20687174D01*
X7884659Y-20687174D02*
X7894183Y-20696698D01*
X7894183Y-20696698D02*
X7903706Y-20715746D01*
X7903706Y-20715746D02*
X7903706Y-20772889D01*
X7903706Y-20772889D02*
X7894183Y-20791936D01*
X7894183Y-20791936D02*
X7884659Y-20801460D01*
X7884659Y-20801460D02*
X7865611Y-20810984D01*
X7865611Y-20810984D02*
X7837040Y-20810984D01*
X8017992Y-20810984D02*
X7998945Y-20801460D01*
X7998945Y-20801460D02*
X7989421Y-20782412D01*
X7989421Y-20782412D02*
X7989421Y-20610984D01*
X8170373Y-20801460D02*
X8151326Y-20810984D01*
X8151326Y-20810984D02*
X8113230Y-20810984D01*
X8113230Y-20810984D02*
X8094183Y-20801460D01*
X8094183Y-20801460D02*
X8084659Y-20782412D01*
X8084659Y-20782412D02*
X8084659Y-20706222D01*
X8084659Y-20706222D02*
X8094183Y-20687174D01*
X8094183Y-20687174D02*
X8113230Y-20677650D01*
X8113230Y-20677650D02*
X8151326Y-20677650D01*
X8151326Y-20677650D02*
X8170373Y-20687174D01*
X8170373Y-20687174D02*
X8179897Y-20706222D01*
X8179897Y-20706222D02*
X8179897Y-20725270D01*
X8179897Y-20725270D02*
X8084659Y-20744317D01*
X8256087Y-20801460D02*
X8275135Y-20810984D01*
X8275135Y-20810984D02*
X8313230Y-20810984D01*
X8313230Y-20810984D02*
X8332278Y-20801460D01*
X8332278Y-20801460D02*
X8341802Y-20782412D01*
X8341802Y-20782412D02*
X8341802Y-20772889D01*
X8341802Y-20772889D02*
X8332278Y-20753841D01*
X8332278Y-20753841D02*
X8313230Y-20744317D01*
X8313230Y-20744317D02*
X8284659Y-20744317D01*
X8284659Y-20744317D02*
X8265611Y-20734793D01*
X8265611Y-20734793D02*
X8256087Y-20715746D01*
X8256087Y-20715746D02*
X8256087Y-20706222D01*
X8256087Y-20706222D02*
X8265611Y-20687174D01*
X8265611Y-20687174D02*
X8284659Y-20677650D01*
X8284659Y-20677650D02*
X8313230Y-20677650D01*
X8313230Y-20677650D02*
X8332278Y-20687174D01*
X8408469Y-20887174D02*
X8417992Y-20877650D01*
X8417992Y-20877650D02*
X8437040Y-20849079D01*
X8437040Y-20849079D02*
X8446564Y-20830031D01*
X8446564Y-20830031D02*
X8456088Y-20801460D01*
X8456088Y-20801460D02*
X8465611Y-20753841D01*
X8465611Y-20753841D02*
X8465611Y-20715746D01*
X8465611Y-20715746D02*
X8456088Y-20668127D01*
X8456088Y-20668127D02*
X8446564Y-20639555D01*
X8446564Y-20639555D02*
X8437040Y-20620508D01*
X8437040Y-20620508D02*
X8417992Y-20591936D01*
X8417992Y-20591936D02*
X8408469Y-20582412D01*
D12*
X3212453Y-21023500D02*
X3252453Y-20983500D01*
X3212453Y-20943500D01*
X3172453Y-20983500D01*
X3212453Y-21023500D01*
D11*
X3551325Y-20874984D02*
X3570373Y-20874984D01*
X3570373Y-20874984D02*
X3589420Y-20884508D01*
X3589420Y-20884508D02*
X3598944Y-20894031D01*
X3598944Y-20894031D02*
X3608468Y-20913079D01*
X3608468Y-20913079D02*
X3617992Y-20951174D01*
X3617992Y-20951174D02*
X3617992Y-20998793D01*
X3617992Y-20998793D02*
X3608468Y-21036889D01*
X3608468Y-21036889D02*
X3598944Y-21055936D01*
X3598944Y-21055936D02*
X3589420Y-21065460D01*
X3589420Y-21065460D02*
X3570373Y-21074984D01*
X3570373Y-21074984D02*
X3551325Y-21074984D01*
X3551325Y-21074984D02*
X3532277Y-21065460D01*
X3532277Y-21065460D02*
X3522754Y-21055936D01*
X3522754Y-21055936D02*
X3513230Y-21036889D01*
X3513230Y-21036889D02*
X3503706Y-20998793D01*
X3503706Y-20998793D02*
X3503706Y-20951174D01*
X3503706Y-20951174D02*
X3513230Y-20913079D01*
X3513230Y-20913079D02*
X3522754Y-20894031D01*
X3522754Y-20894031D02*
X3532277Y-20884508D01*
X3532277Y-20884508D02*
X3551325Y-20874984D01*
X3703706Y-21055936D02*
X3713230Y-21065460D01*
X3713230Y-21065460D02*
X3703706Y-21074984D01*
X3703706Y-21074984D02*
X3694182Y-21065460D01*
X3694182Y-21065460D02*
X3703706Y-21055936D01*
X3703706Y-21055936D02*
X3703706Y-21074984D01*
X3827516Y-20960698D02*
X3808468Y-20951174D01*
X3808468Y-20951174D02*
X3798944Y-20941650D01*
X3798944Y-20941650D02*
X3789420Y-20922603D01*
X3789420Y-20922603D02*
X3789420Y-20913079D01*
X3789420Y-20913079D02*
X3798944Y-20894031D01*
X3798944Y-20894031D02*
X3808468Y-20884508D01*
X3808468Y-20884508D02*
X3827516Y-20874984D01*
X3827516Y-20874984D02*
X3865611Y-20874984D01*
X3865611Y-20874984D02*
X3884658Y-20884508D01*
X3884658Y-20884508D02*
X3894182Y-20894031D01*
X3894182Y-20894031D02*
X3903706Y-20913079D01*
X3903706Y-20913079D02*
X3903706Y-20922603D01*
X3903706Y-20922603D02*
X3894182Y-20941650D01*
X3894182Y-20941650D02*
X3884658Y-20951174D01*
X3884658Y-20951174D02*
X3865611Y-20960698D01*
X3865611Y-20960698D02*
X3827516Y-20960698D01*
X3827516Y-20960698D02*
X3808468Y-20970222D01*
X3808468Y-20970222D02*
X3798944Y-20979746D01*
X3798944Y-20979746D02*
X3789420Y-20998793D01*
X3789420Y-20998793D02*
X3789420Y-21036889D01*
X3789420Y-21036889D02*
X3798944Y-21055936D01*
X3798944Y-21055936D02*
X3808468Y-21065460D01*
X3808468Y-21065460D02*
X3827516Y-21074984D01*
X3827516Y-21074984D02*
X3865611Y-21074984D01*
X3865611Y-21074984D02*
X3884658Y-21065460D01*
X3884658Y-21065460D02*
X3894182Y-21055936D01*
X3894182Y-21055936D02*
X3903706Y-21036889D01*
X3903706Y-21036889D02*
X3903706Y-20998793D01*
X3903706Y-20998793D02*
X3894182Y-20979746D01*
X3894182Y-20979746D02*
X3884658Y-20970222D01*
X3884658Y-20970222D02*
X3865611Y-20960698D01*
X4027516Y-20874984D02*
X4046563Y-20874984D01*
X4046563Y-20874984D02*
X4065611Y-20884508D01*
X4065611Y-20884508D02*
X4075135Y-20894031D01*
X4075135Y-20894031D02*
X4084658Y-20913079D01*
X4084658Y-20913079D02*
X4094182Y-20951174D01*
X4094182Y-20951174D02*
X4094182Y-20998793D01*
X4094182Y-20998793D02*
X4084658Y-21036889D01*
X4084658Y-21036889D02*
X4075135Y-21055936D01*
X4075135Y-21055936D02*
X4065611Y-21065460D01*
X4065611Y-21065460D02*
X4046563Y-21074984D01*
X4046563Y-21074984D02*
X4027516Y-21074984D01*
X4027516Y-21074984D02*
X4008468Y-21065460D01*
X4008468Y-21065460D02*
X3998944Y-21055936D01*
X3998944Y-21055936D02*
X3989420Y-21036889D01*
X3989420Y-21036889D02*
X3979897Y-20998793D01*
X3979897Y-20998793D02*
X3979897Y-20951174D01*
X3979897Y-20951174D02*
X3989420Y-20913079D01*
X3989420Y-20913079D02*
X3998944Y-20894031D01*
X3998944Y-20894031D02*
X4008468Y-20884508D01*
X4008468Y-20884508D02*
X4027516Y-20874984D01*
X4217992Y-20874984D02*
X4237040Y-20874984D01*
X4237040Y-20874984D02*
X4256087Y-20884508D01*
X4256087Y-20884508D02*
X4265611Y-20894031D01*
X4265611Y-20894031D02*
X4275135Y-20913079D01*
X4275135Y-20913079D02*
X4284659Y-20951174D01*
X4284659Y-20951174D02*
X4284659Y-20998793D01*
X4284659Y-20998793D02*
X4275135Y-21036889D01*
X4275135Y-21036889D02*
X4265611Y-21055936D01*
X4265611Y-21055936D02*
X4256087Y-21065460D01*
X4256087Y-21065460D02*
X4237040Y-21074984D01*
X4237040Y-21074984D02*
X4217992Y-21074984D01*
X4217992Y-21074984D02*
X4198944Y-21065460D01*
X4198944Y-21065460D02*
X4189420Y-21055936D01*
X4189420Y-21055936D02*
X4179897Y-21036889D01*
X4179897Y-21036889D02*
X4170373Y-20998793D01*
X4170373Y-20998793D02*
X4170373Y-20951174D01*
X4170373Y-20951174D02*
X4179897Y-20913079D01*
X4179897Y-20913079D02*
X4189420Y-20894031D01*
X4189420Y-20894031D02*
X4198944Y-20884508D01*
X4198944Y-20884508D02*
X4217992Y-20874984D01*
X4370373Y-21074984D02*
X4370373Y-20941650D01*
X4370373Y-20960698D02*
X4379897Y-20951174D01*
X4379897Y-20951174D02*
X4398944Y-20941650D01*
X4398944Y-20941650D02*
X4427516Y-20941650D01*
X4427516Y-20941650D02*
X4446563Y-20951174D01*
X4446563Y-20951174D02*
X4456087Y-20970222D01*
X4456087Y-20970222D02*
X4456087Y-21074984D01*
X4456087Y-20970222D02*
X4465611Y-20951174D01*
X4465611Y-20951174D02*
X4484659Y-20941650D01*
X4484659Y-20941650D02*
X4513230Y-20941650D01*
X4513230Y-20941650D02*
X4532278Y-20951174D01*
X4532278Y-20951174D02*
X4541801Y-20970222D01*
X4541801Y-20970222D02*
X4541801Y-21074984D01*
X4637040Y-21074984D02*
X4637040Y-20941650D01*
X4637040Y-20960698D02*
X4646563Y-20951174D01*
X4646563Y-20951174D02*
X4665611Y-20941650D01*
X4665611Y-20941650D02*
X4694182Y-20941650D01*
X4694182Y-20941650D02*
X4713230Y-20951174D01*
X4713230Y-20951174D02*
X4722754Y-20970222D01*
X4722754Y-20970222D02*
X4722754Y-21074984D01*
X4722754Y-20970222D02*
X4732278Y-20951174D01*
X4732278Y-20951174D02*
X4751325Y-20941650D01*
X4751325Y-20941650D02*
X4779897Y-20941650D01*
X4779897Y-20941650D02*
X4798944Y-20951174D01*
X4798944Y-20951174D02*
X4808468Y-20970222D01*
X4808468Y-20970222D02*
X4808468Y-21074984D01*
X5198944Y-20865460D02*
X5027516Y-21122603D01*
X5456087Y-20874984D02*
X5475135Y-20874984D01*
X5475135Y-20874984D02*
X5494183Y-20884508D01*
X5494183Y-20884508D02*
X5503706Y-20894031D01*
X5503706Y-20894031D02*
X5513230Y-20913079D01*
X5513230Y-20913079D02*
X5522754Y-20951174D01*
X5522754Y-20951174D02*
X5522754Y-20998793D01*
X5522754Y-20998793D02*
X5513230Y-21036889D01*
X5513230Y-21036889D02*
X5503706Y-21055936D01*
X5503706Y-21055936D02*
X5494183Y-21065460D01*
X5494183Y-21065460D02*
X5475135Y-21074984D01*
X5475135Y-21074984D02*
X5456087Y-21074984D01*
X5456087Y-21074984D02*
X5437040Y-21065460D01*
X5437040Y-21065460D02*
X5427516Y-21055936D01*
X5427516Y-21055936D02*
X5417992Y-21036889D01*
X5417992Y-21036889D02*
X5408468Y-20998793D01*
X5408468Y-20998793D02*
X5408468Y-20951174D01*
X5408468Y-20951174D02*
X5417992Y-20913079D01*
X5417992Y-20913079D02*
X5427516Y-20894031D01*
X5427516Y-20894031D02*
X5437040Y-20884508D01*
X5437040Y-20884508D02*
X5456087Y-20874984D01*
X5608468Y-21055936D02*
X5617992Y-21065460D01*
X5617992Y-21065460D02*
X5608468Y-21074984D01*
X5608468Y-21074984D02*
X5598944Y-21065460D01*
X5598944Y-21065460D02*
X5608468Y-21055936D01*
X5608468Y-21055936D02*
X5608468Y-21074984D01*
X5741801Y-20874984D02*
X5760849Y-20874984D01*
X5760849Y-20874984D02*
X5779897Y-20884508D01*
X5779897Y-20884508D02*
X5789421Y-20894031D01*
X5789421Y-20894031D02*
X5798944Y-20913079D01*
X5798944Y-20913079D02*
X5808468Y-20951174D01*
X5808468Y-20951174D02*
X5808468Y-20998793D01*
X5808468Y-20998793D02*
X5798944Y-21036889D01*
X5798944Y-21036889D02*
X5789421Y-21055936D01*
X5789421Y-21055936D02*
X5779897Y-21065460D01*
X5779897Y-21065460D02*
X5760849Y-21074984D01*
X5760849Y-21074984D02*
X5741801Y-21074984D01*
X5741801Y-21074984D02*
X5722754Y-21065460D01*
X5722754Y-21065460D02*
X5713230Y-21055936D01*
X5713230Y-21055936D02*
X5703706Y-21036889D01*
X5703706Y-21036889D02*
X5694182Y-20998793D01*
X5694182Y-20998793D02*
X5694182Y-20951174D01*
X5694182Y-20951174D02*
X5703706Y-20913079D01*
X5703706Y-20913079D02*
X5713230Y-20894031D01*
X5713230Y-20894031D02*
X5722754Y-20884508D01*
X5722754Y-20884508D02*
X5741801Y-20874984D01*
X5875135Y-20874984D02*
X5998944Y-20874984D01*
X5998944Y-20874984D02*
X5932278Y-20951174D01*
X5932278Y-20951174D02*
X5960849Y-20951174D01*
X5960849Y-20951174D02*
X5979897Y-20960698D01*
X5979897Y-20960698D02*
X5989421Y-20970222D01*
X5989421Y-20970222D02*
X5998944Y-20989270D01*
X5998944Y-20989270D02*
X5998944Y-21036889D01*
X5998944Y-21036889D02*
X5989421Y-21055936D01*
X5989421Y-21055936D02*
X5979897Y-21065460D01*
X5979897Y-21065460D02*
X5960849Y-21074984D01*
X5960849Y-21074984D02*
X5903706Y-21074984D01*
X5903706Y-21074984D02*
X5884659Y-21065460D01*
X5884659Y-21065460D02*
X5875135Y-21055936D01*
X6189421Y-21074984D02*
X6075135Y-21074984D01*
X6132278Y-21074984D02*
X6132278Y-20874984D01*
X6132278Y-20874984D02*
X6113230Y-20903555D01*
X6113230Y-20903555D02*
X6094182Y-20922603D01*
X6094182Y-20922603D02*
X6075135Y-20932127D01*
X6370373Y-20874984D02*
X6275135Y-20874984D01*
X6275135Y-20874984D02*
X6265611Y-20970222D01*
X6265611Y-20970222D02*
X6275135Y-20960698D01*
X6275135Y-20960698D02*
X6294182Y-20951174D01*
X6294182Y-20951174D02*
X6341802Y-20951174D01*
X6341802Y-20951174D02*
X6360849Y-20960698D01*
X6360849Y-20960698D02*
X6370373Y-20970222D01*
X6370373Y-20970222D02*
X6379897Y-20989270D01*
X6379897Y-20989270D02*
X6379897Y-21036889D01*
X6379897Y-21036889D02*
X6370373Y-21055936D01*
X6370373Y-21055936D02*
X6360849Y-21065460D01*
X6360849Y-21065460D02*
X6341802Y-21074984D01*
X6341802Y-21074984D02*
X6294182Y-21074984D01*
X6294182Y-21074984D02*
X6275135Y-21065460D01*
X6275135Y-21065460D02*
X6265611Y-21055936D01*
X6456087Y-20874984D02*
X6456087Y-20913079D01*
X6532278Y-20874984D02*
X6532278Y-20913079D01*
X6827516Y-21151174D02*
X6817992Y-21141650D01*
X6817992Y-21141650D02*
X6798944Y-21113079D01*
X6798944Y-21113079D02*
X6789421Y-21094031D01*
X6789421Y-21094031D02*
X6779897Y-21065460D01*
X6779897Y-21065460D02*
X6770373Y-21017841D01*
X6770373Y-21017841D02*
X6770373Y-20979746D01*
X6770373Y-20979746D02*
X6779897Y-20932127D01*
X6779897Y-20932127D02*
X6789421Y-20903555D01*
X6789421Y-20903555D02*
X6798944Y-20884508D01*
X6798944Y-20884508D02*
X6817992Y-20855936D01*
X6817992Y-20855936D02*
X6827516Y-20846412D01*
X6894183Y-20894031D02*
X6903706Y-20884508D01*
X6903706Y-20884508D02*
X6922754Y-20874984D01*
X6922754Y-20874984D02*
X6970373Y-20874984D01*
X6970373Y-20874984D02*
X6989421Y-20884508D01*
X6989421Y-20884508D02*
X6998944Y-20894031D01*
X6998944Y-20894031D02*
X7008468Y-20913079D01*
X7008468Y-20913079D02*
X7008468Y-20932127D01*
X7008468Y-20932127D02*
X6998944Y-20960698D01*
X6998944Y-20960698D02*
X6884659Y-21074984D01*
X6884659Y-21074984D02*
X7008468Y-21074984D01*
X7132278Y-20874984D02*
X7151325Y-20874984D01*
X7151325Y-20874984D02*
X7170373Y-20884508D01*
X7170373Y-20884508D02*
X7179897Y-20894031D01*
X7179897Y-20894031D02*
X7189421Y-20913079D01*
X7189421Y-20913079D02*
X7198944Y-20951174D01*
X7198944Y-20951174D02*
X7198944Y-20998793D01*
X7198944Y-20998793D02*
X7189421Y-21036889D01*
X7189421Y-21036889D02*
X7179897Y-21055936D01*
X7179897Y-21055936D02*
X7170373Y-21065460D01*
X7170373Y-21065460D02*
X7151325Y-21074984D01*
X7151325Y-21074984D02*
X7132278Y-21074984D01*
X7132278Y-21074984D02*
X7113230Y-21065460D01*
X7113230Y-21065460D02*
X7103706Y-21055936D01*
X7103706Y-21055936D02*
X7094183Y-21036889D01*
X7094183Y-21036889D02*
X7084659Y-20998793D01*
X7084659Y-20998793D02*
X7084659Y-20951174D01*
X7084659Y-20951174D02*
X7094183Y-20913079D01*
X7094183Y-20913079D02*
X7103706Y-20894031D01*
X7103706Y-20894031D02*
X7113230Y-20884508D01*
X7113230Y-20884508D02*
X7132278Y-20874984D01*
X7437040Y-21074984D02*
X7437040Y-20874984D01*
X7522754Y-21074984D02*
X7522754Y-20970222D01*
X7522754Y-20970222D02*
X7513230Y-20951174D01*
X7513230Y-20951174D02*
X7494183Y-20941650D01*
X7494183Y-20941650D02*
X7465611Y-20941650D01*
X7465611Y-20941650D02*
X7446564Y-20951174D01*
X7446564Y-20951174D02*
X7437040Y-20960698D01*
X7646564Y-21074984D02*
X7627516Y-21065460D01*
X7627516Y-21065460D02*
X7617992Y-21055936D01*
X7617992Y-21055936D02*
X7608468Y-21036889D01*
X7608468Y-21036889D02*
X7608468Y-20979746D01*
X7608468Y-20979746D02*
X7617992Y-20960698D01*
X7617992Y-20960698D02*
X7627516Y-20951174D01*
X7627516Y-20951174D02*
X7646564Y-20941650D01*
X7646564Y-20941650D02*
X7675135Y-20941650D01*
X7675135Y-20941650D02*
X7694183Y-20951174D01*
X7694183Y-20951174D02*
X7703706Y-20960698D01*
X7703706Y-20960698D02*
X7713230Y-20979746D01*
X7713230Y-20979746D02*
X7713230Y-21036889D01*
X7713230Y-21036889D02*
X7703706Y-21055936D01*
X7703706Y-21055936D02*
X7694183Y-21065460D01*
X7694183Y-21065460D02*
X7675135Y-21074984D01*
X7675135Y-21074984D02*
X7646564Y-21074984D01*
X7827516Y-21074984D02*
X7808468Y-21065460D01*
X7808468Y-21065460D02*
X7798945Y-21046412D01*
X7798945Y-21046412D02*
X7798945Y-20874984D01*
X7979897Y-21065460D02*
X7960849Y-21074984D01*
X7960849Y-21074984D02*
X7922754Y-21074984D01*
X7922754Y-21074984D02*
X7903706Y-21065460D01*
X7903706Y-21065460D02*
X7894183Y-21046412D01*
X7894183Y-21046412D02*
X7894183Y-20970222D01*
X7894183Y-20970222D02*
X7903706Y-20951174D01*
X7903706Y-20951174D02*
X7922754Y-20941650D01*
X7922754Y-20941650D02*
X7960849Y-20941650D01*
X7960849Y-20941650D02*
X7979897Y-20951174D01*
X7979897Y-20951174D02*
X7989421Y-20970222D01*
X7989421Y-20970222D02*
X7989421Y-20989270D01*
X7989421Y-20989270D02*
X7894183Y-21008317D01*
X8065611Y-21065460D02*
X8084659Y-21074984D01*
X8084659Y-21074984D02*
X8122754Y-21074984D01*
X8122754Y-21074984D02*
X8141802Y-21065460D01*
X8141802Y-21065460D02*
X8151326Y-21046412D01*
X8151326Y-21046412D02*
X8151326Y-21036889D01*
X8151326Y-21036889D02*
X8141802Y-21017841D01*
X8141802Y-21017841D02*
X8122754Y-21008317D01*
X8122754Y-21008317D02*
X8094183Y-21008317D01*
X8094183Y-21008317D02*
X8075135Y-20998793D01*
X8075135Y-20998793D02*
X8065611Y-20979746D01*
X8065611Y-20979746D02*
X8065611Y-20970222D01*
X8065611Y-20970222D02*
X8075135Y-20951174D01*
X8075135Y-20951174D02*
X8094183Y-20941650D01*
X8094183Y-20941650D02*
X8122754Y-20941650D01*
X8122754Y-20941650D02*
X8141802Y-20951174D01*
X8217992Y-21151174D02*
X8227516Y-21141650D01*
X8227516Y-21141650D02*
X8246564Y-21113079D01*
X8246564Y-21113079D02*
X8256087Y-21094031D01*
X8256087Y-21094031D02*
X8265611Y-21065460D01*
X8265611Y-21065460D02*
X8275135Y-21017841D01*
X8275135Y-21017841D02*
X8275135Y-20979746D01*
X8275135Y-20979746D02*
X8265611Y-20932127D01*
X8265611Y-20932127D02*
X8256087Y-20903555D01*
X8256087Y-20903555D02*
X8246564Y-20884508D01*
X8246564Y-20884508D02*
X8227516Y-20855936D01*
X8227516Y-20855936D02*
X8217992Y-20846412D01*
D12*
X3157453Y-21200000D02*
X3252453Y-21295000D01*
X3252453Y-21200000D02*
X3157453Y-21295000D01*
X3252453Y-21247500D02*
G75*
G03*
X3252453Y-21247500I-47500J0D01*
G01*
D11*
X3551325Y-21138984D02*
X3570373Y-21138984D01*
X3570373Y-21138984D02*
X3589420Y-21148508D01*
X3589420Y-21148508D02*
X3598944Y-21158031D01*
X3598944Y-21158031D02*
X3608468Y-21177079D01*
X3608468Y-21177079D02*
X3617992Y-21215174D01*
X3617992Y-21215174D02*
X3617992Y-21262793D01*
X3617992Y-21262793D02*
X3608468Y-21300889D01*
X3608468Y-21300889D02*
X3598944Y-21319936D01*
X3598944Y-21319936D02*
X3589420Y-21329460D01*
X3589420Y-21329460D02*
X3570373Y-21338984D01*
X3570373Y-21338984D02*
X3551325Y-21338984D01*
X3551325Y-21338984D02*
X3532277Y-21329460D01*
X3532277Y-21329460D02*
X3522754Y-21319936D01*
X3522754Y-21319936D02*
X3513230Y-21300889D01*
X3513230Y-21300889D02*
X3503706Y-21262793D01*
X3503706Y-21262793D02*
X3503706Y-21215174D01*
X3503706Y-21215174D02*
X3513230Y-21177079D01*
X3513230Y-21177079D02*
X3522754Y-21158031D01*
X3522754Y-21158031D02*
X3532277Y-21148508D01*
X3532277Y-21148508D02*
X3551325Y-21138984D01*
X3703706Y-21319936D02*
X3713230Y-21329460D01*
X3713230Y-21329460D02*
X3703706Y-21338984D01*
X3703706Y-21338984D02*
X3694182Y-21329460D01*
X3694182Y-21329460D02*
X3703706Y-21319936D01*
X3703706Y-21319936D02*
X3703706Y-21338984D01*
X3808468Y-21338984D02*
X3846563Y-21338984D01*
X3846563Y-21338984D02*
X3865611Y-21329460D01*
X3865611Y-21329460D02*
X3875135Y-21319936D01*
X3875135Y-21319936D02*
X3894182Y-21291365D01*
X3894182Y-21291365D02*
X3903706Y-21253270D01*
X3903706Y-21253270D02*
X3903706Y-21177079D01*
X3903706Y-21177079D02*
X3894182Y-21158031D01*
X3894182Y-21158031D02*
X3884658Y-21148508D01*
X3884658Y-21148508D02*
X3865611Y-21138984D01*
X3865611Y-21138984D02*
X3827516Y-21138984D01*
X3827516Y-21138984D02*
X3808468Y-21148508D01*
X3808468Y-21148508D02*
X3798944Y-21158031D01*
X3798944Y-21158031D02*
X3789420Y-21177079D01*
X3789420Y-21177079D02*
X3789420Y-21224698D01*
X3789420Y-21224698D02*
X3798944Y-21243746D01*
X3798944Y-21243746D02*
X3808468Y-21253270D01*
X3808468Y-21253270D02*
X3827516Y-21262793D01*
X3827516Y-21262793D02*
X3865611Y-21262793D01*
X3865611Y-21262793D02*
X3884658Y-21253270D01*
X3884658Y-21253270D02*
X3894182Y-21243746D01*
X3894182Y-21243746D02*
X3903706Y-21224698D01*
X4084658Y-21138984D02*
X3989420Y-21138984D01*
X3989420Y-21138984D02*
X3979897Y-21234222D01*
X3979897Y-21234222D02*
X3989420Y-21224698D01*
X3989420Y-21224698D02*
X4008468Y-21215174D01*
X4008468Y-21215174D02*
X4056087Y-21215174D01*
X4056087Y-21215174D02*
X4075135Y-21224698D01*
X4075135Y-21224698D02*
X4084658Y-21234222D01*
X4084658Y-21234222D02*
X4094182Y-21253270D01*
X4094182Y-21253270D02*
X4094182Y-21300889D01*
X4094182Y-21300889D02*
X4084658Y-21319936D01*
X4084658Y-21319936D02*
X4075135Y-21329460D01*
X4075135Y-21329460D02*
X4056087Y-21338984D01*
X4056087Y-21338984D02*
X4008468Y-21338984D01*
X4008468Y-21338984D02*
X3989420Y-21329460D01*
X3989420Y-21329460D02*
X3979897Y-21319936D01*
X4217992Y-21138984D02*
X4237040Y-21138984D01*
X4237040Y-21138984D02*
X4256087Y-21148508D01*
X4256087Y-21148508D02*
X4265611Y-21158031D01*
X4265611Y-21158031D02*
X4275135Y-21177079D01*
X4275135Y-21177079D02*
X4284659Y-21215174D01*
X4284659Y-21215174D02*
X4284659Y-21262793D01*
X4284659Y-21262793D02*
X4275135Y-21300889D01*
X4275135Y-21300889D02*
X4265611Y-21319936D01*
X4265611Y-21319936D02*
X4256087Y-21329460D01*
X4256087Y-21329460D02*
X4237040Y-21338984D01*
X4237040Y-21338984D02*
X4217992Y-21338984D01*
X4217992Y-21338984D02*
X4198944Y-21329460D01*
X4198944Y-21329460D02*
X4189420Y-21319936D01*
X4189420Y-21319936D02*
X4179897Y-21300889D01*
X4179897Y-21300889D02*
X4170373Y-21262793D01*
X4170373Y-21262793D02*
X4170373Y-21215174D01*
X4170373Y-21215174D02*
X4179897Y-21177079D01*
X4179897Y-21177079D02*
X4189420Y-21158031D01*
X4189420Y-21158031D02*
X4198944Y-21148508D01*
X4198944Y-21148508D02*
X4217992Y-21138984D01*
X4370373Y-21338984D02*
X4370373Y-21205650D01*
X4370373Y-21224698D02*
X4379897Y-21215174D01*
X4379897Y-21215174D02*
X4398944Y-21205650D01*
X4398944Y-21205650D02*
X4427516Y-21205650D01*
X4427516Y-21205650D02*
X4446563Y-21215174D01*
X4446563Y-21215174D02*
X4456087Y-21234222D01*
X4456087Y-21234222D02*
X4456087Y-21338984D01*
X4456087Y-21234222D02*
X4465611Y-21215174D01*
X4465611Y-21215174D02*
X4484659Y-21205650D01*
X4484659Y-21205650D02*
X4513230Y-21205650D01*
X4513230Y-21205650D02*
X4532278Y-21215174D01*
X4532278Y-21215174D02*
X4541801Y-21234222D01*
X4541801Y-21234222D02*
X4541801Y-21338984D01*
X4637040Y-21338984D02*
X4637040Y-21205650D01*
X4637040Y-21224698D02*
X4646563Y-21215174D01*
X4646563Y-21215174D02*
X4665611Y-21205650D01*
X4665611Y-21205650D02*
X4694182Y-21205650D01*
X4694182Y-21205650D02*
X4713230Y-21215174D01*
X4713230Y-21215174D02*
X4722754Y-21234222D01*
X4722754Y-21234222D02*
X4722754Y-21338984D01*
X4722754Y-21234222D02*
X4732278Y-21215174D01*
X4732278Y-21215174D02*
X4751325Y-21205650D01*
X4751325Y-21205650D02*
X4779897Y-21205650D01*
X4779897Y-21205650D02*
X4798944Y-21215174D01*
X4798944Y-21215174D02*
X4808468Y-21234222D01*
X4808468Y-21234222D02*
X4808468Y-21338984D01*
X5198944Y-21129460D02*
X5027516Y-21386603D01*
X5456087Y-21138984D02*
X5475135Y-21138984D01*
X5475135Y-21138984D02*
X5494183Y-21148508D01*
X5494183Y-21148508D02*
X5503706Y-21158031D01*
X5503706Y-21158031D02*
X5513230Y-21177079D01*
X5513230Y-21177079D02*
X5522754Y-21215174D01*
X5522754Y-21215174D02*
X5522754Y-21262793D01*
X5522754Y-21262793D02*
X5513230Y-21300889D01*
X5513230Y-21300889D02*
X5503706Y-21319936D01*
X5503706Y-21319936D02*
X5494183Y-21329460D01*
X5494183Y-21329460D02*
X5475135Y-21338984D01*
X5475135Y-21338984D02*
X5456087Y-21338984D01*
X5456087Y-21338984D02*
X5437040Y-21329460D01*
X5437040Y-21329460D02*
X5427516Y-21319936D01*
X5427516Y-21319936D02*
X5417992Y-21300889D01*
X5417992Y-21300889D02*
X5408468Y-21262793D01*
X5408468Y-21262793D02*
X5408468Y-21215174D01*
X5408468Y-21215174D02*
X5417992Y-21177079D01*
X5417992Y-21177079D02*
X5427516Y-21158031D01*
X5427516Y-21158031D02*
X5437040Y-21148508D01*
X5437040Y-21148508D02*
X5456087Y-21138984D01*
X5608468Y-21319936D02*
X5617992Y-21329460D01*
X5617992Y-21329460D02*
X5608468Y-21338984D01*
X5608468Y-21338984D02*
X5598944Y-21329460D01*
X5598944Y-21329460D02*
X5608468Y-21319936D01*
X5608468Y-21319936D02*
X5608468Y-21338984D01*
X5741801Y-21138984D02*
X5760849Y-21138984D01*
X5760849Y-21138984D02*
X5779897Y-21148508D01*
X5779897Y-21148508D02*
X5789421Y-21158031D01*
X5789421Y-21158031D02*
X5798944Y-21177079D01*
X5798944Y-21177079D02*
X5808468Y-21215174D01*
X5808468Y-21215174D02*
X5808468Y-21262793D01*
X5808468Y-21262793D02*
X5798944Y-21300889D01*
X5798944Y-21300889D02*
X5789421Y-21319936D01*
X5789421Y-21319936D02*
X5779897Y-21329460D01*
X5779897Y-21329460D02*
X5760849Y-21338984D01*
X5760849Y-21338984D02*
X5741801Y-21338984D01*
X5741801Y-21338984D02*
X5722754Y-21329460D01*
X5722754Y-21329460D02*
X5713230Y-21319936D01*
X5713230Y-21319936D02*
X5703706Y-21300889D01*
X5703706Y-21300889D02*
X5694182Y-21262793D01*
X5694182Y-21262793D02*
X5694182Y-21215174D01*
X5694182Y-21215174D02*
X5703706Y-21177079D01*
X5703706Y-21177079D02*
X5713230Y-21158031D01*
X5713230Y-21158031D02*
X5722754Y-21148508D01*
X5722754Y-21148508D02*
X5741801Y-21138984D01*
X5875135Y-21138984D02*
X5998944Y-21138984D01*
X5998944Y-21138984D02*
X5932278Y-21215174D01*
X5932278Y-21215174D02*
X5960849Y-21215174D01*
X5960849Y-21215174D02*
X5979897Y-21224698D01*
X5979897Y-21224698D02*
X5989421Y-21234222D01*
X5989421Y-21234222D02*
X5998944Y-21253270D01*
X5998944Y-21253270D02*
X5998944Y-21300889D01*
X5998944Y-21300889D02*
X5989421Y-21319936D01*
X5989421Y-21319936D02*
X5979897Y-21329460D01*
X5979897Y-21329460D02*
X5960849Y-21338984D01*
X5960849Y-21338984D02*
X5903706Y-21338984D01*
X5903706Y-21338984D02*
X5884659Y-21329460D01*
X5884659Y-21329460D02*
X5875135Y-21319936D01*
X6065611Y-21138984D02*
X6198944Y-21138984D01*
X6198944Y-21138984D02*
X6113230Y-21338984D01*
X6360849Y-21205650D02*
X6360849Y-21338984D01*
X6313230Y-21129460D02*
X6265611Y-21272317D01*
X6265611Y-21272317D02*
X6389421Y-21272317D01*
X6456087Y-21138984D02*
X6456087Y-21177079D01*
X6532278Y-21138984D02*
X6532278Y-21177079D01*
X6827516Y-21415174D02*
X6817992Y-21405650D01*
X6817992Y-21405650D02*
X6798944Y-21377079D01*
X6798944Y-21377079D02*
X6789421Y-21358031D01*
X6789421Y-21358031D02*
X6779897Y-21329460D01*
X6779897Y-21329460D02*
X6770373Y-21281841D01*
X6770373Y-21281841D02*
X6770373Y-21243746D01*
X6770373Y-21243746D02*
X6779897Y-21196127D01*
X6779897Y-21196127D02*
X6789421Y-21167555D01*
X6789421Y-21167555D02*
X6798944Y-21148508D01*
X6798944Y-21148508D02*
X6817992Y-21119936D01*
X6817992Y-21119936D02*
X6827516Y-21110412D01*
X6884659Y-21138984D02*
X7017992Y-21138984D01*
X7017992Y-21138984D02*
X6932278Y-21338984D01*
X7103706Y-21338984D02*
X7141802Y-21338984D01*
X7141802Y-21338984D02*
X7160849Y-21329460D01*
X7160849Y-21329460D02*
X7170373Y-21319936D01*
X7170373Y-21319936D02*
X7189421Y-21291365D01*
X7189421Y-21291365D02*
X7198944Y-21253270D01*
X7198944Y-21253270D02*
X7198944Y-21177079D01*
X7198944Y-21177079D02*
X7189421Y-21158031D01*
X7189421Y-21158031D02*
X7179897Y-21148508D01*
X7179897Y-21148508D02*
X7160849Y-21138984D01*
X7160849Y-21138984D02*
X7122754Y-21138984D01*
X7122754Y-21138984D02*
X7103706Y-21148508D01*
X7103706Y-21148508D02*
X7094183Y-21158031D01*
X7094183Y-21158031D02*
X7084659Y-21177079D01*
X7084659Y-21177079D02*
X7084659Y-21224698D01*
X7084659Y-21224698D02*
X7094183Y-21243746D01*
X7094183Y-21243746D02*
X7103706Y-21253270D01*
X7103706Y-21253270D02*
X7122754Y-21262793D01*
X7122754Y-21262793D02*
X7160849Y-21262793D01*
X7160849Y-21262793D02*
X7179897Y-21253270D01*
X7179897Y-21253270D02*
X7189421Y-21243746D01*
X7189421Y-21243746D02*
X7198944Y-21224698D01*
X7437040Y-21338984D02*
X7437040Y-21138984D01*
X7522754Y-21338984D02*
X7522754Y-21234222D01*
X7522754Y-21234222D02*
X7513230Y-21215174D01*
X7513230Y-21215174D02*
X7494183Y-21205650D01*
X7494183Y-21205650D02*
X7465611Y-21205650D01*
X7465611Y-21205650D02*
X7446564Y-21215174D01*
X7446564Y-21215174D02*
X7437040Y-21224698D01*
X7646564Y-21338984D02*
X7627516Y-21329460D01*
X7627516Y-21329460D02*
X7617992Y-21319936D01*
X7617992Y-21319936D02*
X7608468Y-21300889D01*
X7608468Y-21300889D02*
X7608468Y-21243746D01*
X7608468Y-21243746D02*
X7617992Y-21224698D01*
X7617992Y-21224698D02*
X7627516Y-21215174D01*
X7627516Y-21215174D02*
X7646564Y-21205650D01*
X7646564Y-21205650D02*
X7675135Y-21205650D01*
X7675135Y-21205650D02*
X7694183Y-21215174D01*
X7694183Y-21215174D02*
X7703706Y-21224698D01*
X7703706Y-21224698D02*
X7713230Y-21243746D01*
X7713230Y-21243746D02*
X7713230Y-21300889D01*
X7713230Y-21300889D02*
X7703706Y-21319936D01*
X7703706Y-21319936D02*
X7694183Y-21329460D01*
X7694183Y-21329460D02*
X7675135Y-21338984D01*
X7675135Y-21338984D02*
X7646564Y-21338984D01*
X7827516Y-21338984D02*
X7808468Y-21329460D01*
X7808468Y-21329460D02*
X7798945Y-21310412D01*
X7798945Y-21310412D02*
X7798945Y-21138984D01*
X7979897Y-21329460D02*
X7960849Y-21338984D01*
X7960849Y-21338984D02*
X7922754Y-21338984D01*
X7922754Y-21338984D02*
X7903706Y-21329460D01*
X7903706Y-21329460D02*
X7894183Y-21310412D01*
X7894183Y-21310412D02*
X7894183Y-21234222D01*
X7894183Y-21234222D02*
X7903706Y-21215174D01*
X7903706Y-21215174D02*
X7922754Y-21205650D01*
X7922754Y-21205650D02*
X7960849Y-21205650D01*
X7960849Y-21205650D02*
X7979897Y-21215174D01*
X7979897Y-21215174D02*
X7989421Y-21234222D01*
X7989421Y-21234222D02*
X7989421Y-21253270D01*
X7989421Y-21253270D02*
X7894183Y-21272317D01*
X8065611Y-21329460D02*
X8084659Y-21338984D01*
X8084659Y-21338984D02*
X8122754Y-21338984D01*
X8122754Y-21338984D02*
X8141802Y-21329460D01*
X8141802Y-21329460D02*
X8151326Y-21310412D01*
X8151326Y-21310412D02*
X8151326Y-21300889D01*
X8151326Y-21300889D02*
X8141802Y-21281841D01*
X8141802Y-21281841D02*
X8122754Y-21272317D01*
X8122754Y-21272317D02*
X8094183Y-21272317D01*
X8094183Y-21272317D02*
X8075135Y-21262793D01*
X8075135Y-21262793D02*
X8065611Y-21243746D01*
X8065611Y-21243746D02*
X8065611Y-21234222D01*
X8065611Y-21234222D02*
X8075135Y-21215174D01*
X8075135Y-21215174D02*
X8094183Y-21205650D01*
X8094183Y-21205650D02*
X8122754Y-21205650D01*
X8122754Y-21205650D02*
X8141802Y-21215174D01*
X8217992Y-21415174D02*
X8227516Y-21405650D01*
X8227516Y-21405650D02*
X8246564Y-21377079D01*
X8246564Y-21377079D02*
X8256087Y-21358031D01*
X8256087Y-21358031D02*
X8265611Y-21329460D01*
X8265611Y-21329460D02*
X8275135Y-21281841D01*
X8275135Y-21281841D02*
X8275135Y-21243746D01*
X8275135Y-21243746D02*
X8265611Y-21196127D01*
X8265611Y-21196127D02*
X8256087Y-21167555D01*
X8256087Y-21167555D02*
X8246564Y-21148508D01*
X8246564Y-21148508D02*
X8227516Y-21119936D01*
X8227516Y-21119936D02*
X8217992Y-21110412D01*
D12*
X3152453Y-21461500D02*
X3252453Y-21561500D01*
X3252453Y-21461500D02*
X3152453Y-21561500D01*
X3202453Y-21461500D02*
X3202453Y-21561500D01*
X3152453Y-21511500D02*
X3252453Y-21511500D01*
D11*
X3617992Y-21602984D02*
X3503706Y-21602984D01*
X3560849Y-21602984D02*
X3560849Y-21402984D01*
X3560849Y-21402984D02*
X3541801Y-21431555D01*
X3541801Y-21431555D02*
X3522754Y-21450603D01*
X3522754Y-21450603D02*
X3503706Y-21460127D01*
X3703706Y-21583936D02*
X3713230Y-21593460D01*
X3713230Y-21593460D02*
X3703706Y-21602984D01*
X3703706Y-21602984D02*
X3694182Y-21593460D01*
X3694182Y-21593460D02*
X3703706Y-21583936D01*
X3703706Y-21583936D02*
X3703706Y-21602984D01*
X3837039Y-21402984D02*
X3856087Y-21402984D01*
X3856087Y-21402984D02*
X3875135Y-21412508D01*
X3875135Y-21412508D02*
X3884658Y-21422031D01*
X3884658Y-21422031D02*
X3894182Y-21441079D01*
X3894182Y-21441079D02*
X3903706Y-21479174D01*
X3903706Y-21479174D02*
X3903706Y-21526793D01*
X3903706Y-21526793D02*
X3894182Y-21564889D01*
X3894182Y-21564889D02*
X3884658Y-21583936D01*
X3884658Y-21583936D02*
X3875135Y-21593460D01*
X3875135Y-21593460D02*
X3856087Y-21602984D01*
X3856087Y-21602984D02*
X3837039Y-21602984D01*
X3837039Y-21602984D02*
X3817992Y-21593460D01*
X3817992Y-21593460D02*
X3808468Y-21583936D01*
X3808468Y-21583936D02*
X3798944Y-21564889D01*
X3798944Y-21564889D02*
X3789420Y-21526793D01*
X3789420Y-21526793D02*
X3789420Y-21479174D01*
X3789420Y-21479174D02*
X3798944Y-21441079D01*
X3798944Y-21441079D02*
X3808468Y-21422031D01*
X3808468Y-21422031D02*
X3817992Y-21412508D01*
X3817992Y-21412508D02*
X3837039Y-21402984D01*
X4027516Y-21402984D02*
X4046563Y-21402984D01*
X4046563Y-21402984D02*
X4065611Y-21412508D01*
X4065611Y-21412508D02*
X4075135Y-21422031D01*
X4075135Y-21422031D02*
X4084658Y-21441079D01*
X4084658Y-21441079D02*
X4094182Y-21479174D01*
X4094182Y-21479174D02*
X4094182Y-21526793D01*
X4094182Y-21526793D02*
X4084658Y-21564889D01*
X4084658Y-21564889D02*
X4075135Y-21583936D01*
X4075135Y-21583936D02*
X4065611Y-21593460D01*
X4065611Y-21593460D02*
X4046563Y-21602984D01*
X4046563Y-21602984D02*
X4027516Y-21602984D01*
X4027516Y-21602984D02*
X4008468Y-21593460D01*
X4008468Y-21593460D02*
X3998944Y-21583936D01*
X3998944Y-21583936D02*
X3989420Y-21564889D01*
X3989420Y-21564889D02*
X3979897Y-21526793D01*
X3979897Y-21526793D02*
X3979897Y-21479174D01*
X3979897Y-21479174D02*
X3989420Y-21441079D01*
X3989420Y-21441079D02*
X3998944Y-21422031D01*
X3998944Y-21422031D02*
X4008468Y-21412508D01*
X4008468Y-21412508D02*
X4027516Y-21402984D01*
X4217992Y-21402984D02*
X4237040Y-21402984D01*
X4237040Y-21402984D02*
X4256087Y-21412508D01*
X4256087Y-21412508D02*
X4265611Y-21422031D01*
X4265611Y-21422031D02*
X4275135Y-21441079D01*
X4275135Y-21441079D02*
X4284659Y-21479174D01*
X4284659Y-21479174D02*
X4284659Y-21526793D01*
X4284659Y-21526793D02*
X4275135Y-21564889D01*
X4275135Y-21564889D02*
X4265611Y-21583936D01*
X4265611Y-21583936D02*
X4256087Y-21593460D01*
X4256087Y-21593460D02*
X4237040Y-21602984D01*
X4237040Y-21602984D02*
X4217992Y-21602984D01*
X4217992Y-21602984D02*
X4198944Y-21593460D01*
X4198944Y-21593460D02*
X4189420Y-21583936D01*
X4189420Y-21583936D02*
X4179897Y-21564889D01*
X4179897Y-21564889D02*
X4170373Y-21526793D01*
X4170373Y-21526793D02*
X4170373Y-21479174D01*
X4170373Y-21479174D02*
X4179897Y-21441079D01*
X4179897Y-21441079D02*
X4189420Y-21422031D01*
X4189420Y-21422031D02*
X4198944Y-21412508D01*
X4198944Y-21412508D02*
X4217992Y-21402984D01*
X4370373Y-21602984D02*
X4370373Y-21469650D01*
X4370373Y-21488698D02*
X4379897Y-21479174D01*
X4379897Y-21479174D02*
X4398944Y-21469650D01*
X4398944Y-21469650D02*
X4427516Y-21469650D01*
X4427516Y-21469650D02*
X4446563Y-21479174D01*
X4446563Y-21479174D02*
X4456087Y-21498222D01*
X4456087Y-21498222D02*
X4456087Y-21602984D01*
X4456087Y-21498222D02*
X4465611Y-21479174D01*
X4465611Y-21479174D02*
X4484659Y-21469650D01*
X4484659Y-21469650D02*
X4513230Y-21469650D01*
X4513230Y-21469650D02*
X4532278Y-21479174D01*
X4532278Y-21479174D02*
X4541801Y-21498222D01*
X4541801Y-21498222D02*
X4541801Y-21602984D01*
X4637040Y-21602984D02*
X4637040Y-21469650D01*
X4637040Y-21488698D02*
X4646563Y-21479174D01*
X4646563Y-21479174D02*
X4665611Y-21469650D01*
X4665611Y-21469650D02*
X4694182Y-21469650D01*
X4694182Y-21469650D02*
X4713230Y-21479174D01*
X4713230Y-21479174D02*
X4722754Y-21498222D01*
X4722754Y-21498222D02*
X4722754Y-21602984D01*
X4722754Y-21498222D02*
X4732278Y-21479174D01*
X4732278Y-21479174D02*
X4751325Y-21469650D01*
X4751325Y-21469650D02*
X4779897Y-21469650D01*
X4779897Y-21469650D02*
X4798944Y-21479174D01*
X4798944Y-21479174D02*
X4808468Y-21498222D01*
X4808468Y-21498222D02*
X4808468Y-21602984D01*
X5198944Y-21393460D02*
X5027516Y-21650603D01*
X5456087Y-21402984D02*
X5475135Y-21402984D01*
X5475135Y-21402984D02*
X5494183Y-21412508D01*
X5494183Y-21412508D02*
X5503706Y-21422031D01*
X5503706Y-21422031D02*
X5513230Y-21441079D01*
X5513230Y-21441079D02*
X5522754Y-21479174D01*
X5522754Y-21479174D02*
X5522754Y-21526793D01*
X5522754Y-21526793D02*
X5513230Y-21564889D01*
X5513230Y-21564889D02*
X5503706Y-21583936D01*
X5503706Y-21583936D02*
X5494183Y-21593460D01*
X5494183Y-21593460D02*
X5475135Y-21602984D01*
X5475135Y-21602984D02*
X5456087Y-21602984D01*
X5456087Y-21602984D02*
X5437040Y-21593460D01*
X5437040Y-21593460D02*
X5427516Y-21583936D01*
X5427516Y-21583936D02*
X5417992Y-21564889D01*
X5417992Y-21564889D02*
X5408468Y-21526793D01*
X5408468Y-21526793D02*
X5408468Y-21479174D01*
X5408468Y-21479174D02*
X5417992Y-21441079D01*
X5417992Y-21441079D02*
X5427516Y-21422031D01*
X5427516Y-21422031D02*
X5437040Y-21412508D01*
X5437040Y-21412508D02*
X5456087Y-21402984D01*
X5608468Y-21583936D02*
X5617992Y-21593460D01*
X5617992Y-21593460D02*
X5608468Y-21602984D01*
X5608468Y-21602984D02*
X5598944Y-21593460D01*
X5598944Y-21593460D02*
X5608468Y-21583936D01*
X5608468Y-21583936D02*
X5608468Y-21602984D01*
X5741801Y-21402984D02*
X5760849Y-21402984D01*
X5760849Y-21402984D02*
X5779897Y-21412508D01*
X5779897Y-21412508D02*
X5789421Y-21422031D01*
X5789421Y-21422031D02*
X5798944Y-21441079D01*
X5798944Y-21441079D02*
X5808468Y-21479174D01*
X5808468Y-21479174D02*
X5808468Y-21526793D01*
X5808468Y-21526793D02*
X5798944Y-21564889D01*
X5798944Y-21564889D02*
X5789421Y-21583936D01*
X5789421Y-21583936D02*
X5779897Y-21593460D01*
X5779897Y-21593460D02*
X5760849Y-21602984D01*
X5760849Y-21602984D02*
X5741801Y-21602984D01*
X5741801Y-21602984D02*
X5722754Y-21593460D01*
X5722754Y-21593460D02*
X5713230Y-21583936D01*
X5713230Y-21583936D02*
X5703706Y-21564889D01*
X5703706Y-21564889D02*
X5694182Y-21526793D01*
X5694182Y-21526793D02*
X5694182Y-21479174D01*
X5694182Y-21479174D02*
X5703706Y-21441079D01*
X5703706Y-21441079D02*
X5713230Y-21422031D01*
X5713230Y-21422031D02*
X5722754Y-21412508D01*
X5722754Y-21412508D02*
X5741801Y-21402984D01*
X5875135Y-21402984D02*
X5998944Y-21402984D01*
X5998944Y-21402984D02*
X5932278Y-21479174D01*
X5932278Y-21479174D02*
X5960849Y-21479174D01*
X5960849Y-21479174D02*
X5979897Y-21488698D01*
X5979897Y-21488698D02*
X5989421Y-21498222D01*
X5989421Y-21498222D02*
X5998944Y-21517270D01*
X5998944Y-21517270D02*
X5998944Y-21564889D01*
X5998944Y-21564889D02*
X5989421Y-21583936D01*
X5989421Y-21583936D02*
X5979897Y-21593460D01*
X5979897Y-21593460D02*
X5960849Y-21602984D01*
X5960849Y-21602984D02*
X5903706Y-21602984D01*
X5903706Y-21602984D02*
X5884659Y-21593460D01*
X5884659Y-21593460D02*
X5875135Y-21583936D01*
X6094182Y-21602984D02*
X6132278Y-21602984D01*
X6132278Y-21602984D02*
X6151325Y-21593460D01*
X6151325Y-21593460D02*
X6160849Y-21583936D01*
X6160849Y-21583936D02*
X6179897Y-21555365D01*
X6179897Y-21555365D02*
X6189421Y-21517270D01*
X6189421Y-21517270D02*
X6189421Y-21441079D01*
X6189421Y-21441079D02*
X6179897Y-21422031D01*
X6179897Y-21422031D02*
X6170373Y-21412508D01*
X6170373Y-21412508D02*
X6151325Y-21402984D01*
X6151325Y-21402984D02*
X6113230Y-21402984D01*
X6113230Y-21402984D02*
X6094182Y-21412508D01*
X6094182Y-21412508D02*
X6084659Y-21422031D01*
X6084659Y-21422031D02*
X6075135Y-21441079D01*
X6075135Y-21441079D02*
X6075135Y-21488698D01*
X6075135Y-21488698D02*
X6084659Y-21507746D01*
X6084659Y-21507746D02*
X6094182Y-21517270D01*
X6094182Y-21517270D02*
X6113230Y-21526793D01*
X6113230Y-21526793D02*
X6151325Y-21526793D01*
X6151325Y-21526793D02*
X6170373Y-21517270D01*
X6170373Y-21517270D02*
X6179897Y-21507746D01*
X6179897Y-21507746D02*
X6189421Y-21488698D01*
X6360849Y-21469650D02*
X6360849Y-21602984D01*
X6313230Y-21393460D02*
X6265611Y-21536317D01*
X6265611Y-21536317D02*
X6389421Y-21536317D01*
X6456087Y-21402984D02*
X6456087Y-21441079D01*
X6532278Y-21402984D02*
X6532278Y-21441079D01*
X6827516Y-21679174D02*
X6817992Y-21669650D01*
X6817992Y-21669650D02*
X6798944Y-21641079D01*
X6798944Y-21641079D02*
X6789421Y-21622031D01*
X6789421Y-21622031D02*
X6779897Y-21593460D01*
X6779897Y-21593460D02*
X6770373Y-21545841D01*
X6770373Y-21545841D02*
X6770373Y-21507746D01*
X6770373Y-21507746D02*
X6779897Y-21460127D01*
X6779897Y-21460127D02*
X6789421Y-21431555D01*
X6789421Y-21431555D02*
X6798944Y-21412508D01*
X6798944Y-21412508D02*
X6817992Y-21383936D01*
X6817992Y-21383936D02*
X6827516Y-21374412D01*
X7008468Y-21602984D02*
X6894183Y-21602984D01*
X6951325Y-21602984D02*
X6951325Y-21402984D01*
X6951325Y-21402984D02*
X6932278Y-21431555D01*
X6932278Y-21431555D02*
X6913230Y-21450603D01*
X6913230Y-21450603D02*
X6894183Y-21460127D01*
X7189421Y-21402984D02*
X7094183Y-21402984D01*
X7094183Y-21402984D02*
X7084659Y-21498222D01*
X7084659Y-21498222D02*
X7094183Y-21488698D01*
X7094183Y-21488698D02*
X7113230Y-21479174D01*
X7113230Y-21479174D02*
X7160849Y-21479174D01*
X7160849Y-21479174D02*
X7179897Y-21488698D01*
X7179897Y-21488698D02*
X7189421Y-21498222D01*
X7189421Y-21498222D02*
X7198944Y-21517270D01*
X7198944Y-21517270D02*
X7198944Y-21564889D01*
X7198944Y-21564889D02*
X7189421Y-21583936D01*
X7189421Y-21583936D02*
X7179897Y-21593460D01*
X7179897Y-21593460D02*
X7160849Y-21602984D01*
X7160849Y-21602984D02*
X7113230Y-21602984D01*
X7113230Y-21602984D02*
X7094183Y-21593460D01*
X7094183Y-21593460D02*
X7084659Y-21583936D01*
X7370373Y-21469650D02*
X7370373Y-21602984D01*
X7322754Y-21393460D02*
X7275135Y-21536317D01*
X7275135Y-21536317D02*
X7398944Y-21536317D01*
X7627516Y-21602984D02*
X7627516Y-21402984D01*
X7713230Y-21602984D02*
X7713230Y-21498222D01*
X7713230Y-21498222D02*
X7703706Y-21479174D01*
X7703706Y-21479174D02*
X7684659Y-21469650D01*
X7684659Y-21469650D02*
X7656087Y-21469650D01*
X7656087Y-21469650D02*
X7637040Y-21479174D01*
X7637040Y-21479174D02*
X7627516Y-21488698D01*
X7837040Y-21602984D02*
X7817992Y-21593460D01*
X7817992Y-21593460D02*
X7808468Y-21583936D01*
X7808468Y-21583936D02*
X7798945Y-21564889D01*
X7798945Y-21564889D02*
X7798945Y-21507746D01*
X7798945Y-21507746D02*
X7808468Y-21488698D01*
X7808468Y-21488698D02*
X7817992Y-21479174D01*
X7817992Y-21479174D02*
X7837040Y-21469650D01*
X7837040Y-21469650D02*
X7865611Y-21469650D01*
X7865611Y-21469650D02*
X7884659Y-21479174D01*
X7884659Y-21479174D02*
X7894183Y-21488698D01*
X7894183Y-21488698D02*
X7903706Y-21507746D01*
X7903706Y-21507746D02*
X7903706Y-21564889D01*
X7903706Y-21564889D02*
X7894183Y-21583936D01*
X7894183Y-21583936D02*
X7884659Y-21593460D01*
X7884659Y-21593460D02*
X7865611Y-21602984D01*
X7865611Y-21602984D02*
X7837040Y-21602984D01*
X8017992Y-21602984D02*
X7998945Y-21593460D01*
X7998945Y-21593460D02*
X7989421Y-21574412D01*
X7989421Y-21574412D02*
X7989421Y-21402984D01*
X8170373Y-21593460D02*
X8151326Y-21602984D01*
X8151326Y-21602984D02*
X8113230Y-21602984D01*
X8113230Y-21602984D02*
X8094183Y-21593460D01*
X8094183Y-21593460D02*
X8084659Y-21574412D01*
X8084659Y-21574412D02*
X8084659Y-21498222D01*
X8084659Y-21498222D02*
X8094183Y-21479174D01*
X8094183Y-21479174D02*
X8113230Y-21469650D01*
X8113230Y-21469650D02*
X8151326Y-21469650D01*
X8151326Y-21469650D02*
X8170373Y-21479174D01*
X8170373Y-21479174D02*
X8179897Y-21498222D01*
X8179897Y-21498222D02*
X8179897Y-21517270D01*
X8179897Y-21517270D02*
X8084659Y-21536317D01*
X8256087Y-21593460D02*
X8275135Y-21602984D01*
X8275135Y-21602984D02*
X8313230Y-21602984D01*
X8313230Y-21602984D02*
X8332278Y-21593460D01*
X8332278Y-21593460D02*
X8341802Y-21574412D01*
X8341802Y-21574412D02*
X8341802Y-21564889D01*
X8341802Y-21564889D02*
X8332278Y-21545841D01*
X8332278Y-21545841D02*
X8313230Y-21536317D01*
X8313230Y-21536317D02*
X8284659Y-21536317D01*
X8284659Y-21536317D02*
X8265611Y-21526793D01*
X8265611Y-21526793D02*
X8256087Y-21507746D01*
X8256087Y-21507746D02*
X8256087Y-21498222D01*
X8256087Y-21498222D02*
X8265611Y-21479174D01*
X8265611Y-21479174D02*
X8284659Y-21469650D01*
X8284659Y-21469650D02*
X8313230Y-21469650D01*
X8313230Y-21469650D02*
X8332278Y-21479174D01*
X8408469Y-21679174D02*
X8417992Y-21669650D01*
X8417992Y-21669650D02*
X8437040Y-21641079D01*
X8437040Y-21641079D02*
X8446564Y-21622031D01*
X8446564Y-21622031D02*
X8456088Y-21593460D01*
X8456088Y-21593460D02*
X8465611Y-21545841D01*
X8465611Y-21545841D02*
X8465611Y-21507746D01*
X8465611Y-21507746D02*
X8456088Y-21460127D01*
X8456088Y-21460127D02*
X8446564Y-21431555D01*
X8446564Y-21431555D02*
X8437040Y-21412508D01*
X8437040Y-21412508D02*
X8417992Y-21383936D01*
X8417992Y-21383936D02*
X8408469Y-21374412D01*
X3052453Y-21675500D02*
X3252453Y-21875500D01*
X3252453Y-21675500D02*
X3052453Y-21875500D01*
X3223164Y-21846211D02*
X3223164Y-21704789D01*
X3081742Y-21704789D01*
X3081742Y-21846211D01*
X3223164Y-21846211D01*
X3494182Y-21666984D02*
X3617992Y-21666984D01*
X3617992Y-21666984D02*
X3551325Y-21743174D01*
X3551325Y-21743174D02*
X3579897Y-21743174D01*
X3579897Y-21743174D02*
X3598944Y-21752698D01*
X3598944Y-21752698D02*
X3608468Y-21762222D01*
X3608468Y-21762222D02*
X3617992Y-21781270D01*
X3617992Y-21781270D02*
X3617992Y-21828889D01*
X3617992Y-21828889D02*
X3608468Y-21847936D01*
X3608468Y-21847936D02*
X3598944Y-21857460D01*
X3598944Y-21857460D02*
X3579897Y-21866984D01*
X3579897Y-21866984D02*
X3522754Y-21866984D01*
X3522754Y-21866984D02*
X3503706Y-21857460D01*
X3503706Y-21857460D02*
X3494182Y-21847936D01*
X3703706Y-21847936D02*
X3713230Y-21857460D01*
X3713230Y-21857460D02*
X3703706Y-21866984D01*
X3703706Y-21866984D02*
X3694182Y-21857460D01*
X3694182Y-21857460D02*
X3703706Y-21847936D01*
X3703706Y-21847936D02*
X3703706Y-21866984D01*
X3789420Y-21686031D02*
X3798944Y-21676508D01*
X3798944Y-21676508D02*
X3817992Y-21666984D01*
X3817992Y-21666984D02*
X3865611Y-21666984D01*
X3865611Y-21666984D02*
X3884658Y-21676508D01*
X3884658Y-21676508D02*
X3894182Y-21686031D01*
X3894182Y-21686031D02*
X3903706Y-21705079D01*
X3903706Y-21705079D02*
X3903706Y-21724127D01*
X3903706Y-21724127D02*
X3894182Y-21752698D01*
X3894182Y-21752698D02*
X3779897Y-21866984D01*
X3779897Y-21866984D02*
X3903706Y-21866984D01*
X4027516Y-21666984D02*
X4046563Y-21666984D01*
X4046563Y-21666984D02*
X4065611Y-21676508D01*
X4065611Y-21676508D02*
X4075135Y-21686031D01*
X4075135Y-21686031D02*
X4084658Y-21705079D01*
X4084658Y-21705079D02*
X4094182Y-21743174D01*
X4094182Y-21743174D02*
X4094182Y-21790793D01*
X4094182Y-21790793D02*
X4084658Y-21828889D01*
X4084658Y-21828889D02*
X4075135Y-21847936D01*
X4075135Y-21847936D02*
X4065611Y-21857460D01*
X4065611Y-21857460D02*
X4046563Y-21866984D01*
X4046563Y-21866984D02*
X4027516Y-21866984D01*
X4027516Y-21866984D02*
X4008468Y-21857460D01*
X4008468Y-21857460D02*
X3998944Y-21847936D01*
X3998944Y-21847936D02*
X3989420Y-21828889D01*
X3989420Y-21828889D02*
X3979897Y-21790793D01*
X3979897Y-21790793D02*
X3979897Y-21743174D01*
X3979897Y-21743174D02*
X3989420Y-21705079D01*
X3989420Y-21705079D02*
X3998944Y-21686031D01*
X3998944Y-21686031D02*
X4008468Y-21676508D01*
X4008468Y-21676508D02*
X4027516Y-21666984D01*
X4217992Y-21666984D02*
X4237040Y-21666984D01*
X4237040Y-21666984D02*
X4256087Y-21676508D01*
X4256087Y-21676508D02*
X4265611Y-21686031D01*
X4265611Y-21686031D02*
X4275135Y-21705079D01*
X4275135Y-21705079D02*
X4284659Y-21743174D01*
X4284659Y-21743174D02*
X4284659Y-21790793D01*
X4284659Y-21790793D02*
X4275135Y-21828889D01*
X4275135Y-21828889D02*
X4265611Y-21847936D01*
X4265611Y-21847936D02*
X4256087Y-21857460D01*
X4256087Y-21857460D02*
X4237040Y-21866984D01*
X4237040Y-21866984D02*
X4217992Y-21866984D01*
X4217992Y-21866984D02*
X4198944Y-21857460D01*
X4198944Y-21857460D02*
X4189420Y-21847936D01*
X4189420Y-21847936D02*
X4179897Y-21828889D01*
X4179897Y-21828889D02*
X4170373Y-21790793D01*
X4170373Y-21790793D02*
X4170373Y-21743174D01*
X4170373Y-21743174D02*
X4179897Y-21705079D01*
X4179897Y-21705079D02*
X4189420Y-21686031D01*
X4189420Y-21686031D02*
X4198944Y-21676508D01*
X4198944Y-21676508D02*
X4217992Y-21666984D01*
X4370373Y-21866984D02*
X4370373Y-21733650D01*
X4370373Y-21752698D02*
X4379897Y-21743174D01*
X4379897Y-21743174D02*
X4398944Y-21733650D01*
X4398944Y-21733650D02*
X4427516Y-21733650D01*
X4427516Y-21733650D02*
X4446563Y-21743174D01*
X4446563Y-21743174D02*
X4456087Y-21762222D01*
X4456087Y-21762222D02*
X4456087Y-21866984D01*
X4456087Y-21762222D02*
X4465611Y-21743174D01*
X4465611Y-21743174D02*
X4484659Y-21733650D01*
X4484659Y-21733650D02*
X4513230Y-21733650D01*
X4513230Y-21733650D02*
X4532278Y-21743174D01*
X4532278Y-21743174D02*
X4541801Y-21762222D01*
X4541801Y-21762222D02*
X4541801Y-21866984D01*
X4637040Y-21866984D02*
X4637040Y-21733650D01*
X4637040Y-21752698D02*
X4646563Y-21743174D01*
X4646563Y-21743174D02*
X4665611Y-21733650D01*
X4665611Y-21733650D02*
X4694182Y-21733650D01*
X4694182Y-21733650D02*
X4713230Y-21743174D01*
X4713230Y-21743174D02*
X4722754Y-21762222D01*
X4722754Y-21762222D02*
X4722754Y-21866984D01*
X4722754Y-21762222D02*
X4732278Y-21743174D01*
X4732278Y-21743174D02*
X4751325Y-21733650D01*
X4751325Y-21733650D02*
X4779897Y-21733650D01*
X4779897Y-21733650D02*
X4798944Y-21743174D01*
X4798944Y-21743174D02*
X4808468Y-21762222D01*
X4808468Y-21762222D02*
X4808468Y-21866984D01*
X5198944Y-21657460D02*
X5027516Y-21914603D01*
X5456087Y-21666984D02*
X5475135Y-21666984D01*
X5475135Y-21666984D02*
X5494183Y-21676508D01*
X5494183Y-21676508D02*
X5503706Y-21686031D01*
X5503706Y-21686031D02*
X5513230Y-21705079D01*
X5513230Y-21705079D02*
X5522754Y-21743174D01*
X5522754Y-21743174D02*
X5522754Y-21790793D01*
X5522754Y-21790793D02*
X5513230Y-21828889D01*
X5513230Y-21828889D02*
X5503706Y-21847936D01*
X5503706Y-21847936D02*
X5494183Y-21857460D01*
X5494183Y-21857460D02*
X5475135Y-21866984D01*
X5475135Y-21866984D02*
X5456087Y-21866984D01*
X5456087Y-21866984D02*
X5437040Y-21857460D01*
X5437040Y-21857460D02*
X5427516Y-21847936D01*
X5427516Y-21847936D02*
X5417992Y-21828889D01*
X5417992Y-21828889D02*
X5408468Y-21790793D01*
X5408468Y-21790793D02*
X5408468Y-21743174D01*
X5408468Y-21743174D02*
X5417992Y-21705079D01*
X5417992Y-21705079D02*
X5427516Y-21686031D01*
X5427516Y-21686031D02*
X5437040Y-21676508D01*
X5437040Y-21676508D02*
X5456087Y-21666984D01*
X5608468Y-21847936D02*
X5617992Y-21857460D01*
X5617992Y-21857460D02*
X5608468Y-21866984D01*
X5608468Y-21866984D02*
X5598944Y-21857460D01*
X5598944Y-21857460D02*
X5608468Y-21847936D01*
X5608468Y-21847936D02*
X5608468Y-21866984D01*
X5808468Y-21866984D02*
X5694182Y-21866984D01*
X5751325Y-21866984D02*
X5751325Y-21666984D01*
X5751325Y-21666984D02*
X5732278Y-21695555D01*
X5732278Y-21695555D02*
X5713230Y-21714603D01*
X5713230Y-21714603D02*
X5694182Y-21724127D01*
X5884659Y-21686031D02*
X5894182Y-21676508D01*
X5894182Y-21676508D02*
X5913230Y-21666984D01*
X5913230Y-21666984D02*
X5960849Y-21666984D01*
X5960849Y-21666984D02*
X5979897Y-21676508D01*
X5979897Y-21676508D02*
X5989421Y-21686031D01*
X5989421Y-21686031D02*
X5998944Y-21705079D01*
X5998944Y-21705079D02*
X5998944Y-21724127D01*
X5998944Y-21724127D02*
X5989421Y-21752698D01*
X5989421Y-21752698D02*
X5875135Y-21866984D01*
X5875135Y-21866984D02*
X5998944Y-21866984D01*
X6170373Y-21666984D02*
X6132278Y-21666984D01*
X6132278Y-21666984D02*
X6113230Y-21676508D01*
X6113230Y-21676508D02*
X6103706Y-21686031D01*
X6103706Y-21686031D02*
X6084659Y-21714603D01*
X6084659Y-21714603D02*
X6075135Y-21752698D01*
X6075135Y-21752698D02*
X6075135Y-21828889D01*
X6075135Y-21828889D02*
X6084659Y-21847936D01*
X6084659Y-21847936D02*
X6094182Y-21857460D01*
X6094182Y-21857460D02*
X6113230Y-21866984D01*
X6113230Y-21866984D02*
X6151325Y-21866984D01*
X6151325Y-21866984D02*
X6170373Y-21857460D01*
X6170373Y-21857460D02*
X6179897Y-21847936D01*
X6179897Y-21847936D02*
X6189421Y-21828889D01*
X6189421Y-21828889D02*
X6189421Y-21781270D01*
X6189421Y-21781270D02*
X6179897Y-21762222D01*
X6179897Y-21762222D02*
X6170373Y-21752698D01*
X6170373Y-21752698D02*
X6151325Y-21743174D01*
X6151325Y-21743174D02*
X6113230Y-21743174D01*
X6113230Y-21743174D02*
X6094182Y-21752698D01*
X6094182Y-21752698D02*
X6084659Y-21762222D01*
X6084659Y-21762222D02*
X6075135Y-21781270D01*
X6313230Y-21666984D02*
X6332278Y-21666984D01*
X6332278Y-21666984D02*
X6351325Y-21676508D01*
X6351325Y-21676508D02*
X6360849Y-21686031D01*
X6360849Y-21686031D02*
X6370373Y-21705079D01*
X6370373Y-21705079D02*
X6379897Y-21743174D01*
X6379897Y-21743174D02*
X6379897Y-21790793D01*
X6379897Y-21790793D02*
X6370373Y-21828889D01*
X6370373Y-21828889D02*
X6360849Y-21847936D01*
X6360849Y-21847936D02*
X6351325Y-21857460D01*
X6351325Y-21857460D02*
X6332278Y-21866984D01*
X6332278Y-21866984D02*
X6313230Y-21866984D01*
X6313230Y-21866984D02*
X6294182Y-21857460D01*
X6294182Y-21857460D02*
X6284659Y-21847936D01*
X6284659Y-21847936D02*
X6275135Y-21828889D01*
X6275135Y-21828889D02*
X6265611Y-21790793D01*
X6265611Y-21790793D02*
X6265611Y-21743174D01*
X6265611Y-21743174D02*
X6275135Y-21705079D01*
X6275135Y-21705079D02*
X6284659Y-21686031D01*
X6284659Y-21686031D02*
X6294182Y-21676508D01*
X6294182Y-21676508D02*
X6313230Y-21666984D01*
X6456087Y-21666984D02*
X6456087Y-21705079D01*
X6532278Y-21666984D02*
X6532278Y-21705079D01*
X6827516Y-21943174D02*
X6817992Y-21933650D01*
X6817992Y-21933650D02*
X6798944Y-21905079D01*
X6798944Y-21905079D02*
X6789421Y-21886031D01*
X6789421Y-21886031D02*
X6779897Y-21857460D01*
X6779897Y-21857460D02*
X6770373Y-21809841D01*
X6770373Y-21809841D02*
X6770373Y-21771746D01*
X6770373Y-21771746D02*
X6779897Y-21724127D01*
X6779897Y-21724127D02*
X6789421Y-21695555D01*
X6789421Y-21695555D02*
X6798944Y-21676508D01*
X6798944Y-21676508D02*
X6817992Y-21647936D01*
X6817992Y-21647936D02*
X6827516Y-21638412D01*
X6884659Y-21666984D02*
X7017992Y-21666984D01*
X7017992Y-21666984D02*
X6932278Y-21866984D01*
X7246564Y-21866984D02*
X7246564Y-21666984D01*
X7332278Y-21866984D02*
X7332278Y-21762222D01*
X7332278Y-21762222D02*
X7322754Y-21743174D01*
X7322754Y-21743174D02*
X7303706Y-21733650D01*
X7303706Y-21733650D02*
X7275135Y-21733650D01*
X7275135Y-21733650D02*
X7256087Y-21743174D01*
X7256087Y-21743174D02*
X7246564Y-21752698D01*
X7456087Y-21866984D02*
X7437040Y-21857460D01*
X7437040Y-21857460D02*
X7427516Y-21847936D01*
X7427516Y-21847936D02*
X7417992Y-21828889D01*
X7417992Y-21828889D02*
X7417992Y-21771746D01*
X7417992Y-21771746D02*
X7427516Y-21752698D01*
X7427516Y-21752698D02*
X7437040Y-21743174D01*
X7437040Y-21743174D02*
X7456087Y-21733650D01*
X7456087Y-21733650D02*
X7484659Y-21733650D01*
X7484659Y-21733650D02*
X7503706Y-21743174D01*
X7503706Y-21743174D02*
X7513230Y-21752698D01*
X7513230Y-21752698D02*
X7522754Y-21771746D01*
X7522754Y-21771746D02*
X7522754Y-21828889D01*
X7522754Y-21828889D02*
X7513230Y-21847936D01*
X7513230Y-21847936D02*
X7503706Y-21857460D01*
X7503706Y-21857460D02*
X7484659Y-21866984D01*
X7484659Y-21866984D02*
X7456087Y-21866984D01*
X7637040Y-21866984D02*
X7617992Y-21857460D01*
X7617992Y-21857460D02*
X7608468Y-21838412D01*
X7608468Y-21838412D02*
X7608468Y-21666984D01*
X7789421Y-21857460D02*
X7770373Y-21866984D01*
X7770373Y-21866984D02*
X7732278Y-21866984D01*
X7732278Y-21866984D02*
X7713230Y-21857460D01*
X7713230Y-21857460D02*
X7703706Y-21838412D01*
X7703706Y-21838412D02*
X7703706Y-21762222D01*
X7703706Y-21762222D02*
X7713230Y-21743174D01*
X7713230Y-21743174D02*
X7732278Y-21733650D01*
X7732278Y-21733650D02*
X7770373Y-21733650D01*
X7770373Y-21733650D02*
X7789421Y-21743174D01*
X7789421Y-21743174D02*
X7798945Y-21762222D01*
X7798945Y-21762222D02*
X7798945Y-21781270D01*
X7798945Y-21781270D02*
X7703706Y-21800317D01*
X7875135Y-21857460D02*
X7894183Y-21866984D01*
X7894183Y-21866984D02*
X7932278Y-21866984D01*
X7932278Y-21866984D02*
X7951326Y-21857460D01*
X7951326Y-21857460D02*
X7960849Y-21838412D01*
X7960849Y-21838412D02*
X7960849Y-21828889D01*
X7960849Y-21828889D02*
X7951326Y-21809841D01*
X7951326Y-21809841D02*
X7932278Y-21800317D01*
X7932278Y-21800317D02*
X7903706Y-21800317D01*
X7903706Y-21800317D02*
X7884659Y-21790793D01*
X7884659Y-21790793D02*
X7875135Y-21771746D01*
X7875135Y-21771746D02*
X7875135Y-21762222D01*
X7875135Y-21762222D02*
X7884659Y-21743174D01*
X7884659Y-21743174D02*
X7903706Y-21733650D01*
X7903706Y-21733650D02*
X7932278Y-21733650D01*
X7932278Y-21733650D02*
X7951326Y-21743174D01*
X8027516Y-21943174D02*
X8037040Y-21933650D01*
X8037040Y-21933650D02*
X8056087Y-21905079D01*
X8056087Y-21905079D02*
X8065611Y-21886031D01*
X8065611Y-21886031D02*
X8075135Y-21857460D01*
X8075135Y-21857460D02*
X8084659Y-21809841D01*
X8084659Y-21809841D02*
X8084659Y-21771746D01*
X8084659Y-21771746D02*
X8075135Y-21724127D01*
X8075135Y-21724127D02*
X8065611Y-21695555D01*
X8065611Y-21695555D02*
X8056087Y-21676508D01*
X8056087Y-21676508D02*
X8037040Y-21647936D01*
X8037040Y-21647936D02*
X8027516Y-21638412D01*
X8389421Y-21943174D02*
X8379897Y-21933650D01*
X8379897Y-21933650D02*
X8360849Y-21905079D01*
X8360849Y-21905079D02*
X8351326Y-21886031D01*
X8351326Y-21886031D02*
X8341802Y-21857460D01*
X8341802Y-21857460D02*
X8332278Y-21809841D01*
X8332278Y-21809841D02*
X8332278Y-21771746D01*
X8332278Y-21771746D02*
X8341802Y-21724127D01*
X8341802Y-21724127D02*
X8351326Y-21695555D01*
X8351326Y-21695555D02*
X8360849Y-21676508D01*
X8360849Y-21676508D02*
X8379897Y-21647936D01*
X8379897Y-21647936D02*
X8389421Y-21638412D01*
X8465611Y-21733650D02*
X8465611Y-21866984D01*
X8465611Y-21752698D02*
X8475135Y-21743174D01*
X8475135Y-21743174D02*
X8494183Y-21733650D01*
X8494183Y-21733650D02*
X8522754Y-21733650D01*
X8522754Y-21733650D02*
X8541802Y-21743174D01*
X8541802Y-21743174D02*
X8551326Y-21762222D01*
X8551326Y-21762222D02*
X8551326Y-21866984D01*
X8675135Y-21866984D02*
X8656088Y-21857460D01*
X8656088Y-21857460D02*
X8646564Y-21847936D01*
X8646564Y-21847936D02*
X8637040Y-21828889D01*
X8637040Y-21828889D02*
X8637040Y-21771746D01*
X8637040Y-21771746D02*
X8646564Y-21752698D01*
X8646564Y-21752698D02*
X8656088Y-21743174D01*
X8656088Y-21743174D02*
X8675135Y-21733650D01*
X8675135Y-21733650D02*
X8703707Y-21733650D01*
X8703707Y-21733650D02*
X8722754Y-21743174D01*
X8722754Y-21743174D02*
X8732278Y-21752698D01*
X8732278Y-21752698D02*
X8741802Y-21771746D01*
X8741802Y-21771746D02*
X8741802Y-21828889D01*
X8741802Y-21828889D02*
X8732278Y-21847936D01*
X8732278Y-21847936D02*
X8722754Y-21857460D01*
X8722754Y-21857460D02*
X8703707Y-21866984D01*
X8703707Y-21866984D02*
X8675135Y-21866984D01*
X8798945Y-21733650D02*
X8875135Y-21733650D01*
X8827516Y-21666984D02*
X8827516Y-21838412D01*
X8827516Y-21838412D02*
X8837040Y-21857460D01*
X8837040Y-21857460D02*
X8856088Y-21866984D01*
X8856088Y-21866984D02*
X8875135Y-21866984D01*
X9094183Y-21733650D02*
X9094183Y-21933650D01*
X9094183Y-21743174D02*
X9113230Y-21733650D01*
X9113230Y-21733650D02*
X9151326Y-21733650D01*
X9151326Y-21733650D02*
X9170373Y-21743174D01*
X9170373Y-21743174D02*
X9179897Y-21752698D01*
X9179897Y-21752698D02*
X9189421Y-21771746D01*
X9189421Y-21771746D02*
X9189421Y-21828889D01*
X9189421Y-21828889D02*
X9179897Y-21847936D01*
X9179897Y-21847936D02*
X9170373Y-21857460D01*
X9170373Y-21857460D02*
X9151326Y-21866984D01*
X9151326Y-21866984D02*
X9113230Y-21866984D01*
X9113230Y-21866984D02*
X9094183Y-21857460D01*
X9303707Y-21866984D02*
X9284659Y-21857460D01*
X9284659Y-21857460D02*
X9275135Y-21838412D01*
X9275135Y-21838412D02*
X9275135Y-21666984D01*
X9465611Y-21866984D02*
X9465611Y-21762222D01*
X9465611Y-21762222D02*
X9456088Y-21743174D01*
X9456088Y-21743174D02*
X9437040Y-21733650D01*
X9437040Y-21733650D02*
X9398945Y-21733650D01*
X9398945Y-21733650D02*
X9379897Y-21743174D01*
X9465611Y-21857460D02*
X9446564Y-21866984D01*
X9446564Y-21866984D02*
X9398945Y-21866984D01*
X9398945Y-21866984D02*
X9379897Y-21857460D01*
X9379897Y-21857460D02*
X9370373Y-21838412D01*
X9370373Y-21838412D02*
X9370373Y-21819365D01*
X9370373Y-21819365D02*
X9379897Y-21800317D01*
X9379897Y-21800317D02*
X9398945Y-21790793D01*
X9398945Y-21790793D02*
X9446564Y-21790793D01*
X9446564Y-21790793D02*
X9465611Y-21781270D01*
X9532278Y-21733650D02*
X9608469Y-21733650D01*
X9560850Y-21666984D02*
X9560850Y-21838412D01*
X9560850Y-21838412D02*
X9570373Y-21857460D01*
X9570373Y-21857460D02*
X9589421Y-21866984D01*
X9589421Y-21866984D02*
X9608469Y-21866984D01*
X9751326Y-21857460D02*
X9732278Y-21866984D01*
X9732278Y-21866984D02*
X9694183Y-21866984D01*
X9694183Y-21866984D02*
X9675135Y-21857460D01*
X9675135Y-21857460D02*
X9665611Y-21838412D01*
X9665611Y-21838412D02*
X9665611Y-21762222D01*
X9665611Y-21762222D02*
X9675135Y-21743174D01*
X9675135Y-21743174D02*
X9694183Y-21733650D01*
X9694183Y-21733650D02*
X9732278Y-21733650D01*
X9732278Y-21733650D02*
X9751326Y-21743174D01*
X9751326Y-21743174D02*
X9760850Y-21762222D01*
X9760850Y-21762222D02*
X9760850Y-21781270D01*
X9760850Y-21781270D02*
X9665611Y-21800317D01*
X9932278Y-21866984D02*
X9932278Y-21666984D01*
X9932278Y-21857460D02*
X9913231Y-21866984D01*
X9913231Y-21866984D02*
X9875135Y-21866984D01*
X9875135Y-21866984D02*
X9856088Y-21857460D01*
X9856088Y-21857460D02*
X9846564Y-21847936D01*
X9846564Y-21847936D02*
X9837040Y-21828889D01*
X9837040Y-21828889D02*
X9837040Y-21771746D01*
X9837040Y-21771746D02*
X9846564Y-21752698D01*
X9846564Y-21752698D02*
X9856088Y-21743174D01*
X9856088Y-21743174D02*
X9875135Y-21733650D01*
X9875135Y-21733650D02*
X9913231Y-21733650D01*
X9913231Y-21733650D02*
X9932278Y-21743174D01*
X10008469Y-21943174D02*
X10017992Y-21933650D01*
X10017992Y-21933650D02*
X10037040Y-21905079D01*
X10037040Y-21905079D02*
X10046564Y-21886031D01*
X10046564Y-21886031D02*
X10056088Y-21857460D01*
X10056088Y-21857460D02*
X10065611Y-21809841D01*
X10065611Y-21809841D02*
X10065611Y-21771746D01*
X10065611Y-21771746D02*
X10056088Y-21724127D01*
X10056088Y-21724127D02*
X10046564Y-21695555D01*
X10046564Y-21695555D02*
X10037040Y-21676508D01*
X10037040Y-21676508D02*
X10017992Y-21647936D01*
X10017992Y-21647936D02*
X10008469Y-21638412D01*
M02*
