%TF.GenerationSoftware,KiCad,Pcbnew,7.0.9*%
%TF.CreationDate,2023-12-07T23:58:00+01:00*%
%TF.ProjectId,kicad_RCJ,6b696361-645f-4524-934a-2e6b69636164,rev?*%
%TF.SameCoordinates,Original*%
%TF.FileFunction,Copper,L1,Top*%
%TF.FilePolarity,Positive*%
%FSLAX46Y46*%
G04 Gerber Fmt 4.6, Leading zero omitted, Abs format (unit mm)*
G04 Created by KiCad (PCBNEW 7.0.9) date 2023-12-07 23:58:00*
%MOMM*%
%LPD*%
G01*
G04 APERTURE LIST*
G04 Aperture macros list*
%AMRoundRect*
0 Rectangle with rounded corners*
0 $1 Rounding radius*
0 $2 $3 $4 $5 $6 $7 $8 $9 X,Y pos of 4 corners*
0 Add a 4 corners polygon primitive as box body*
4,1,4,$2,$3,$4,$5,$6,$7,$8,$9,$2,$3,0*
0 Add four circle primitives for the rounded corners*
1,1,$1+$1,$2,$3*
1,1,$1+$1,$4,$5*
1,1,$1+$1,$6,$7*
1,1,$1+$1,$8,$9*
0 Add four rect primitives between the rounded corners*
20,1,$1+$1,$2,$3,$4,$5,0*
20,1,$1+$1,$4,$5,$6,$7,0*
20,1,$1+$1,$6,$7,$8,$9,0*
20,1,$1+$1,$8,$9,$2,$3,0*%
G04 Aperture macros list end*
%TA.AperFunction,ComponentPad*%
%ADD10RoundRect,0.250000X-0.725000X0.600000X-0.725000X-0.600000X0.725000X-0.600000X0.725000X0.600000X0*%
%TD*%
%TA.AperFunction,ComponentPad*%
%ADD11O,1.950000X1.700000*%
%TD*%
%TA.AperFunction,ComponentPad*%
%ADD12RoundRect,0.250000X-0.600000X-0.725000X0.600000X-0.725000X0.600000X0.725000X-0.600000X0.725000X0*%
%TD*%
%TA.AperFunction,ComponentPad*%
%ADD13O,1.700000X1.950000*%
%TD*%
%TA.AperFunction,ComponentPad*%
%ADD14C,1.524000*%
%TD*%
%TA.AperFunction,ComponentPad*%
%ADD15R,1.700000X1.700000*%
%TD*%
%TA.AperFunction,ComponentPad*%
%ADD16O,1.700000X1.700000*%
%TD*%
%TA.AperFunction,ComponentPad*%
%ADD17C,1.600000*%
%TD*%
%TA.AperFunction,ComponentPad*%
%ADD18O,1.600000X1.600000*%
%TD*%
%TA.AperFunction,ComponentPad*%
%ADD19RoundRect,0.250000X0.750000X-0.600000X0.750000X0.600000X-0.750000X0.600000X-0.750000X-0.600000X0*%
%TD*%
%TA.AperFunction,ComponentPad*%
%ADD20O,2.000000X1.700000*%
%TD*%
%TA.AperFunction,ComponentPad*%
%ADD21RoundRect,0.250000X0.725000X-0.600000X0.725000X0.600000X-0.725000X0.600000X-0.725000X-0.600000X0*%
%TD*%
%TA.AperFunction,ComponentPad*%
%ADD22RoundRect,0.250000X-0.750000X0.600000X-0.750000X-0.600000X0.750000X-0.600000X0.750000X0.600000X0*%
%TD*%
%TA.AperFunction,ComponentPad*%
%ADD23RoundRect,0.250000X-0.600000X-0.750000X0.600000X-0.750000X0.600000X0.750000X-0.600000X0.750000X0*%
%TD*%
%TA.AperFunction,ComponentPad*%
%ADD24O,1.700000X2.000000*%
%TD*%
%TA.AperFunction,ComponentPad*%
%ADD25RoundRect,0.250000X0.600000X0.725000X-0.600000X0.725000X-0.600000X-0.725000X0.600000X-0.725000X0*%
%TD*%
%TA.AperFunction,ViaPad*%
%ADD26C,0.800000*%
%TD*%
%TA.AperFunction,ViaPad*%
%ADD27C,1.000000*%
%TD*%
%TA.AperFunction,Conductor*%
%ADD28C,0.500000*%
%TD*%
%TA.AperFunction,Conductor*%
%ADD29C,0.300000*%
%TD*%
%TA.AperFunction,Conductor*%
%ADD30C,1.000000*%
%TD*%
G04 APERTURE END LIST*
D10*
%TO.P,S5,1,P1*%
%TO.N,Net-(J7-Pin_1)*%
X66040000Y-103585000D03*
D11*
%TO.P,S5,2,COM*%
%TO.N,GND*%
X66040000Y-106085000D03*
%TO.P,S5,3,P2*%
%TO.N,unconnected-(S5-P2-Pad3)*%
X66040000Y-108585000D03*
%TD*%
D12*
%TO.P,J29,1,Pin_1*%
%TO.N,GND*%
X88960000Y-144890000D03*
D13*
%TO.P,J29,2,Pin_2*%
X91460000Y-144890000D03*
%TO.P,J29,3,Pin_3*%
%TO.N,+3.3V*%
X93960000Y-144890000D03*
%TO.P,J29,4,Pin_4*%
X96460000Y-144890000D03*
%TD*%
D12*
%TO.P,J28,1,Pin_1*%
%TO.N,GND*%
X95945000Y-153670000D03*
D13*
%TO.P,J28,2,Pin_2*%
X98445000Y-153670000D03*
%TO.P,J28,3,Pin_3*%
%TO.N,+5V*%
X100945000Y-153670000D03*
%TO.P,J28,4,Pin_4*%
X103445000Y-153670000D03*
%TD*%
D14*
%TO.P,U4,1,VM*%
%TO.N,unconnected-(U4-VM-Pad1)*%
X125730000Y-118110000D03*
%TO.P,U4,2,GND*%
%TO.N,GND*%
X125730000Y-120650000D03*
%TO.P,U4,3,EN/IN1*%
%TO.N,/M4_IN1*%
X125730000Y-123190000D03*
%TO.P,U4,4,PH/IN2*%
%TO.N,/M4_IN2*%
X125730000Y-125730000D03*
%TO.P,U4,5,PMODE*%
%TO.N,GND*%
X125730000Y-128270000D03*
%TO.P,U4,6,SLEEP*%
%TO.N,+3.3V*%
X125730000Y-130810000D03*
%TO.P,U4,7,VREF*%
%TO.N,Net-(J13-Pin_4)*%
X125730000Y-133350000D03*
%TO.P,U4,8,VIN*%
%TO.N,/+6V_4*%
X138430000Y-118110000D03*
%TO.P,U4,9,GND*%
%TO.N,GND*%
X138430000Y-120650000D03*
%TO.P,U4,10,OUT1*%
%TO.N,Net-(U4-OUT1)*%
X138430000Y-123190000D03*
%TO.P,U4,11,OUT2*%
%TO.N,Net-(U4-OUT2)*%
X138430000Y-125730000D03*
%TO.P,U4,12,IMODE*%
%TO.N,Net-(J13-Pin_1)*%
X138430000Y-128270000D03*
%TO.P,U4,13,FAULT*%
%TO.N,Net-(J13-Pin_2)*%
X138430000Y-130810000D03*
%TO.P,U4,14,CS*%
%TO.N,Net-(J13-Pin_3)*%
X138430000Y-133350000D03*
%TD*%
%TO.P,U3,1,VM*%
%TO.N,unconnected-(U3-VM-Pad1)*%
X125730000Y-142240000D03*
%TO.P,U3,2,GND*%
%TO.N,GND*%
X125730000Y-144780000D03*
%TO.P,U3,3,EN/IN1*%
%TO.N,/M3_IN1*%
X125730000Y-147320000D03*
%TO.P,U3,4,PH/IN2*%
%TO.N,/M3_IN2*%
X125730000Y-149860000D03*
%TO.P,U3,5,PMODE*%
%TO.N,GND*%
X125730000Y-152400000D03*
%TO.P,U3,6,SLEEP*%
%TO.N,+3.3V*%
X125730000Y-154940000D03*
%TO.P,U3,7,VREF*%
%TO.N,Net-(J12-Pin_4)*%
X125730000Y-157480000D03*
%TO.P,U3,8,VIN*%
%TO.N,/+6V_3*%
X138430000Y-142240000D03*
%TO.P,U3,9,GND*%
%TO.N,GND*%
X138430000Y-144780000D03*
%TO.P,U3,10,OUT1*%
%TO.N,Net-(U3-OUT1)*%
X138430000Y-147320000D03*
%TO.P,U3,11,OUT2*%
%TO.N,Net-(U3-OUT2)*%
X138430000Y-149860000D03*
%TO.P,U3,12,IMODE*%
%TO.N,Net-(J12-Pin_1)*%
X138430000Y-152400000D03*
%TO.P,U3,13,FAULT*%
%TO.N,Net-(J12-Pin_2)*%
X138430000Y-154940000D03*
%TO.P,U3,14,CS*%
%TO.N,Net-(J12-Pin_3)*%
X138430000Y-157480000D03*
%TD*%
%TO.P,U2,1,VM*%
%TO.N,unconnected-(U2-VM-Pad1)*%
X55880000Y-100305000D03*
%TO.P,U2,2,GND*%
%TO.N,GND*%
X55880000Y-97765000D03*
%TO.P,U2,3,EN/IN1*%
%TO.N,/M2_IN1*%
X55880000Y-95225000D03*
%TO.P,U2,4,PH/IN2*%
%TO.N,/M2_IN2*%
X55880000Y-92685000D03*
%TO.P,U2,5,PMODE*%
%TO.N,GND*%
X55880000Y-90145000D03*
%TO.P,U2,6,SLEEP*%
%TO.N,+3.3V*%
X55880000Y-87605000D03*
%TO.P,U2,7,VREF*%
%TO.N,Net-(J11-Pin_4)*%
X55880000Y-85065000D03*
%TO.P,U2,8,VIN*%
%TO.N,/+6V_2*%
X43180000Y-100305000D03*
%TO.P,U2,9,GND*%
%TO.N,GND*%
X43180000Y-97765000D03*
%TO.P,U2,10,OUT1*%
%TO.N,Net-(U2-OUT1)*%
X43180000Y-95225000D03*
%TO.P,U2,11,OUT2*%
%TO.N,Net-(U2-OUT2)*%
X43180000Y-92685000D03*
%TO.P,U2,12,IMODE*%
%TO.N,Net-(J11-Pin_1)*%
X43180000Y-90145000D03*
%TO.P,U2,13,FAULT*%
%TO.N,Net-(J11-Pin_2)*%
X43180000Y-87605000D03*
%TO.P,U2,14,CS*%
%TO.N,Net-(J11-Pin_3)*%
X43180000Y-85065000D03*
%TD*%
%TO.P,U1,1,VM*%
%TO.N,unconnected-(U1-VM-Pad1)*%
X55880000Y-73660000D03*
%TO.P,U1,2,GND*%
%TO.N,GND*%
X55880000Y-71120000D03*
%TO.P,U1,3,EN/IN1*%
%TO.N,/M1_IN1*%
X55880000Y-68580000D03*
%TO.P,U1,4,PH/IN2*%
%TO.N,/M1_IN2*%
X55880000Y-66040000D03*
%TO.P,U1,5,PMODE*%
%TO.N,GND*%
X55880000Y-63500000D03*
%TO.P,U1,6,SLEEP*%
%TO.N,+3.3V*%
X55880000Y-60960000D03*
%TO.P,U1,7,VREF*%
%TO.N,Net-(J10-Pin_4)*%
X55880000Y-58420000D03*
%TO.P,U1,8,VIN*%
%TO.N,/+6V_1*%
X43180000Y-73660000D03*
%TO.P,U1,9,GND*%
%TO.N,GND*%
X43180000Y-71120000D03*
%TO.P,U1,10,OUT1*%
%TO.N,Net-(U1-OUT1)*%
X43180000Y-68580000D03*
%TO.P,U1,11,OUT2*%
%TO.N,Net-(U1-OUT2)*%
X43180000Y-66040000D03*
%TO.P,U1,12,IMODE*%
%TO.N,Net-(J10-Pin_1)*%
X43180000Y-63500000D03*
%TO.P,U1,13,FAULT*%
%TO.N,Net-(J10-Pin_2)*%
X43180000Y-60960000D03*
%TO.P,U1,14,CS*%
%TO.N,Net-(J10-Pin_3)*%
X43180000Y-58420000D03*
%TD*%
%TO.P,U6,0,0/RX1/CS1*%
%TO.N,/M1_ENCB*%
X96520000Y-40640000D03*
%TO.P,U6,1,1/TX1/MISO1*%
%TO.N,/M1_ENCA*%
X96520000Y-43180000D03*
%TO.P,U6,2,2*%
%TO.N,/M2_ENCB*%
X96520000Y-45720000D03*
%TO.P,U6,3,3*%
%TO.N,/M2_ENCA*%
X96520000Y-48260000D03*
%TO.P,U6,4,4*%
%TO.N,/M1_IN2*%
X96520000Y-50800000D03*
%TO.P,U6,5,5*%
%TO.N,/M1_IN1*%
X96520000Y-53340000D03*
%TO.P,U6,6,6*%
%TO.N,/M2_IN2*%
X96520000Y-55880000D03*
%TO.P,U6,7,7/RX2*%
%TO.N,/M2_IN1*%
X96520000Y-58420000D03*
%TO.P,U6,8,8/TX2*%
%TO.N,Net-(J14-Pin_5)*%
X96520000Y-60960000D03*
%TO.P,U6,9,9*%
%TO.N,Net-(J14-Pin_4)*%
X96520000Y-63500000D03*
%TO.P,U6,10,10/CS*%
%TO.N,Net-(J14-Pin_3)*%
X96520000Y-66040000D03*
%TO.P,U6,11,11/MOSI*%
%TO.N,Net-(J14-Pin_2)*%
X96520000Y-68580000D03*
%TO.P,U6,12,12/MISO*%
%TO.N,Net-(J14-Pin_1)*%
X96520000Y-71120000D03*
%TO.P,U6,13,13/SCK/(LED)*%
%TO.N,unconnected-(U6-13{slash}SCK{slash}(LED)-Pad13)*%
X111760000Y-71120000D03*
%TO.P,U6,14,14/A0/TX3*%
%TO.N,/PR3*%
X111760000Y-68580000D03*
%TO.P,U6,15,15/A1/RX3*%
%TO.N,/PR4*%
X111760000Y-66040000D03*
%TO.P,U6,16,16/A2/RX4/SCL1*%
%TO.N,SCL1*%
X111760000Y-63500000D03*
%TO.P,U6,17,17/A3/TX4/SDA1*%
%TO.N,SDA1*%
X111760000Y-60960000D03*
%TO.P,U6,18,18/A4/SDA*%
%TO.N,SDA*%
X111760000Y-58420000D03*
%TO.P,U6,19,19/A5/SCL*%
%TO.N,SCL*%
X111760000Y-55880000D03*
%TO.P,U6,20,20/A6/TX5*%
%TO.N,/VBAT_MEAS*%
X111760000Y-53340000D03*
%TO.P,U6,21,21/A7/RX5*%
%TO.N,/21_extra*%
X111760000Y-50800000D03*
%TO.P,U6,22,22/A8*%
%TO.N,/M4_ENCB*%
X111760000Y-48260000D03*
%TO.P,U6,23,23/A9*%
%TO.N,/M4_ENCA*%
X111760000Y-45720000D03*
%TO.P,U6,24,24/A10/TX6/SCL2*%
%TO.N,/M5_SIG*%
X96520000Y-76200000D03*
%TO.P,U6,25,25/A11/RX6/SDA2*%
%TO.N,/M6_SIG*%
X96520000Y-78740000D03*
%TO.P,U6,26,26/A12/MOSI1*%
%TO.N,Net-(J15-Pin_3)*%
X96520000Y-81280000D03*
%TO.P,U6,27,27/A13/SCK1*%
%TO.N,Net-(J15-Pin_2)*%
X96520000Y-83820000D03*
%TO.P,U6,28,28/RX7*%
%TO.N,/M3_IN1*%
X96520000Y-86360000D03*
%TO.P,U6,29,29/TX7*%
%TO.N,/M3_IN2*%
X96520000Y-88900000D03*
%TO.P,U6,30,30*%
%TO.N,Net-(J15-Pin_1)*%
X96520000Y-91440000D03*
%TO.P,U6,31,31*%
%TO.N,/BMP2*%
X96520000Y-93980000D03*
%TO.P,U6,32,32*%
%TO.N,/BMP1*%
X96520000Y-96520000D03*
%TO.P,U6,33,33*%
%TO.N,/BMP4*%
X111760000Y-96520000D03*
%TO.P,U6,34,34/RX8*%
%TO.N,/BMP3*%
X111760000Y-93980000D03*
%TO.P,U6,35,35/TX8*%
%TO.N,unconnected-(U6-35{slash}TX8-Pad35)*%
X111760000Y-91440000D03*
%TO.P,U6,36,36/CS*%
%TO.N,/M4_IN2*%
X111760000Y-88900000D03*
%TO.P,U6,37,37/CS*%
%TO.N,/M4_IN1*%
X111760000Y-86360000D03*
%TO.P,U6,38,38/A14/(CS1)*%
%TO.N,/M3_ENCB*%
X111760000Y-83820000D03*
%TO.P,U6,39,39/A15/(MISO1)*%
%TO.N,/M3_ENCA*%
X111760000Y-81280000D03*
%TO.P,U6,40,40/A16*%
%TO.N,/PR1*%
X111760000Y-78740000D03*
%TO.P,U6,41,41/A17*%
%TO.N,/PR2*%
X111760000Y-76200000D03*
%TO.P,U6,42,GND*%
%TO.N,GND*%
X96520000Y-38100000D03*
%TO.P,U6,44,GND*%
%TO.N,unconnected-(U6-GND-Pad44)*%
X111760000Y-73660000D03*
%TO.P,U6,45,3.3V*%
%TO.N,unconnected-(U6-3.3V-Pad45)*%
X111760000Y-43180000D03*
%TO.P,U6,46,GND*%
%TO.N,unconnected-(U6-GND-Pad46)*%
X111760000Y-40640000D03*
%TO.P,U6,47,Vin(3.6-5.5V)*%
%TO.N,+5V*%
X111760000Y-38100000D03*
%TO.P,U6,48,3.3V*%
%TO.N,unconnected-(U6-3.3V-Pad48)*%
X96520000Y-73660000D03*
%TD*%
D15*
%TO.P,J14,1,Pin_1*%
%TO.N,Net-(J14-Pin_1)*%
X101600000Y-51028600D03*
D16*
%TO.P,J14,2,Pin_2*%
%TO.N,Net-(J14-Pin_2)*%
X101600000Y-48488600D03*
%TO.P,J14,3,Pin_3*%
%TO.N,Net-(J14-Pin_3)*%
X101600000Y-45948600D03*
%TO.P,J14,4,Pin_4*%
%TO.N,Net-(J14-Pin_4)*%
X101600000Y-43408600D03*
%TO.P,J14,5,Pin_5*%
%TO.N,Net-(J14-Pin_5)*%
X101600000Y-40868600D03*
%TO.P,J14,6,Pin_6*%
%TO.N,/21_extra*%
X101600000Y-38328600D03*
%TD*%
D15*
%TO.P,J15,1,Pin_1*%
%TO.N,Net-(J15-Pin_1)*%
X91998800Y-92684600D03*
D16*
%TO.P,J15,2,Pin_2*%
%TO.N,Net-(J15-Pin_2)*%
X91998800Y-90144600D03*
%TO.P,J15,3,Pin_3*%
%TO.N,Net-(J15-Pin_3)*%
X91998800Y-87604600D03*
%TD*%
D17*
%TO.P,R14,1*%
%TO.N,Net-(J23-Pin_2)*%
X139065000Y-178435000D03*
D18*
%TO.P,R14,2*%
%TO.N,/VBAT_MEAS*%
X128905000Y-178435000D03*
%TD*%
D17*
%TO.P,R12,1*%
%TO.N,/PR4*%
X120650000Y-173355000D03*
D18*
%TO.P,R12,2*%
%TO.N,GND*%
X110490000Y-173355000D03*
%TD*%
D19*
%TO.P,J27,1,Pin_1*%
%TO.N,GND*%
X143510000Y-111760000D03*
D20*
%TO.P,J27,2,Pin_2*%
%TO.N,/+6V_4*%
X143510000Y-109260000D03*
%TD*%
D15*
%TO.P,J9,1,Pin_1*%
%TO.N,Net-(D4-SIGNAL)*%
X67310000Y-131445000D03*
D16*
%TO.P,J9,2,Pin_2*%
%TO.N,Net-(D3-SIGNAL)*%
X64770000Y-131445000D03*
%TO.P,J9,3,Pin_3*%
%TO.N,Net-(D5-SIGNAL)*%
X62230000Y-131445000D03*
%TO.P,J9,4,Pin_4*%
%TO.N,Net-(D6-SIGNAL)*%
X59690000Y-131445000D03*
%TO.P,J9,5,Pin_5*%
%TO.N,Net-(D7-SIGNAL)*%
X57150000Y-131445000D03*
%TO.P,J9,6,Pin_6*%
%TO.N,Net-(D8-SIGNAL)*%
X54610000Y-131445000D03*
%TD*%
D18*
%TO.P,R8,2*%
%TO.N,GND*%
X110490000Y-179705000D03*
D17*
%TO.P,R8,1*%
%TO.N,/PR2*%
X120650000Y-179705000D03*
%TD*%
D15*
%TO.P,M4,1,M_PWR*%
%TO.N,Net-(U4-OUT1)*%
X144780000Y-117475000D03*
D16*
%TO.P,M4,2,M_PWR*%
%TO.N,Net-(U4-OUT2)*%
X144780000Y-120015000D03*
%TO.P,M4,3,GND_ENC*%
%TO.N,GND*%
X144780000Y-122555000D03*
%TO.P,M4,4,VCC_ENC*%
%TO.N,+3.3V*%
X144780000Y-125095000D03*
%TO.P,M4,5,ENC_A_OUT*%
%TO.N,/M4_ENCA*%
X144780000Y-127635000D03*
%TO.P,M4,6,ENC_B_OUTPUT*%
%TO.N,/M4_ENCB*%
X144780000Y-130175000D03*
%TD*%
D21*
%TO.P,U16,1,VIN*%
%TO.N,+3.3V*%
X111870000Y-166330000D03*
D11*
%TO.P,U16,2,GND*%
%TO.N,GND*%
X111870000Y-163830000D03*
%TO.P,U16,3,SDA*%
%TO.N,SDA*%
X111870000Y-161330000D03*
%TO.P,U16,4,SCL*%
%TO.N,SCL*%
X111870000Y-158830000D03*
%TO.P,U16,5,XSHUT*%
%TO.N,/U16_XSHUT*%
X111870000Y-156330000D03*
%TD*%
D15*
%TO.P,J13,1,Pin_1*%
%TO.N,Net-(J13-Pin_1)*%
X127000000Y-137795000D03*
D16*
%TO.P,J13,2,Pin_2*%
%TO.N,Net-(J13-Pin_2)*%
X129540000Y-137795000D03*
%TO.P,J13,3,Pin_3*%
%TO.N,Net-(J13-Pin_3)*%
X132080000Y-137795000D03*
%TO.P,J13,4,Pin_4*%
%TO.N,Net-(J13-Pin_4)*%
X134620000Y-137795000D03*
%TD*%
D15*
%TO.P,D8,1,GND*%
%TO.N,GND*%
X52070000Y-116190000D03*
D16*
%TO.P,D8,2,SIGNAL*%
%TO.N,Net-(D8-SIGNAL)*%
X52070000Y-113650000D03*
%TO.P,D8,3,VIN*%
%TO.N,+5V*%
X52070000Y-111110000D03*
%TD*%
D22*
%TO.P,J24,1,Pin_1*%
%TO.N,GND*%
X37355000Y-71120000D03*
D20*
%TO.P,J24,2,Pin_2*%
%TO.N,/+6V_1*%
X37355000Y-73620000D03*
%TD*%
D17*
%TO.P,R4,1*%
%TO.N,+3.3V*%
X62230000Y-85090000D03*
D18*
%TO.P,R4,2*%
%TO.N,SCL1*%
X62230000Y-95250000D03*
%TD*%
D23*
%TO.P,J5,1,Pin_1*%
%TO.N,GND*%
X36235000Y-124570000D03*
D24*
%TO.P,J5,2,Pin_2*%
%TO.N,+5V*%
X38735000Y-124570000D03*
%TD*%
D14*
%TO.P,U19,1,PA0*%
%TO.N,Net-(J16-Pin_7)*%
X66040000Y-66130000D03*
%TO.P,U19,2,PA1*%
%TO.N,Net-(J16-Pin_6)*%
X66040000Y-63590000D03*
%TO.P,U19,3,PA2*%
%TO.N,Net-(J16-Pin_5)*%
X66040000Y-61050000D03*
%TO.P,U19,4,PA3*%
%TO.N,Net-(J16-Pin_4)*%
X66040000Y-58510000D03*
%TO.P,U19,5,PA4*%
%TO.N,Net-(J16-Pin_3)*%
X66040000Y-55970000D03*
%TO.P,U19,6,PA5*%
%TO.N,Net-(J16-Pin_2)*%
X66040000Y-53430000D03*
%TO.P,U19,7,PA6*%
%TO.N,Net-(J16-Pin_1)*%
X66040000Y-50890000D03*
%TO.P,U19,8,PA7*%
%TO.N,/U14_XSHUT*%
X66040000Y-48350000D03*
%TO.P,U19,9,PB0*%
%TO.N,/U12_XSHUT*%
X85090000Y-48350000D03*
%TO.P,U19,10,PB1*%
%TO.N,/U13_XSHUT*%
X85090000Y-50890000D03*
%TO.P,U19,11,PB2*%
%TO.N,/U15_XSHUT*%
X85090000Y-53430000D03*
%TO.P,U19,12,PB3*%
%TO.N,/U25_XSHUT*%
X85090000Y-55970000D03*
%TO.P,U19,13,PB4*%
%TO.N,/U16_XSHUT*%
X85090000Y-58510000D03*
%TO.P,U19,14,PB5*%
%TO.N,/U17_XSHUT*%
X85090000Y-61050000D03*
%TO.P,U19,15,PB6*%
%TO.N,/U18_XSHUT*%
X85090000Y-63590000D03*
%TO.P,U19,16,PB7*%
%TO.N,/TCS34725_LED*%
X85090000Y-66130000D03*
%TO.P,U19,17,D/SDA*%
%TO.N,SDA*%
X71755000Y-76290000D03*
%TO.P,U19,18,C/SCL*%
%TO.N,SCL*%
X74295000Y-76290000D03*
%TO.P,U19,19,IB*%
%TO.N,Net-(J8-Pin_3)*%
X73010000Y-72140000D03*
%TO.P,U19,20,RST*%
%TO.N,Net-(J8-Pin_2)*%
X75550000Y-72140000D03*
%TO.P,U19,21,IA*%
%TO.N,Net-(J8-Pin_1)*%
X78090000Y-72140000D03*
%TO.P,U19,22,GND*%
%TO.N,GND*%
X76835000Y-76290000D03*
%TO.P,U19,23,VCC*%
%TO.N,+3.3V*%
X79375000Y-76290000D03*
%TD*%
D15*
%TO.P,J19,1,Pin_1*%
%TO.N,GND*%
X112395000Y-147955000D03*
D16*
%TO.P,J19,2,Pin_2*%
%TO.N,+5V*%
X112395000Y-145415000D03*
%TO.P,J19,3,Pin_3*%
%TO.N,GND*%
X109855000Y-147955000D03*
%TO.P,J19,4,Pin_4*%
%TO.N,+5V*%
X109855000Y-145415000D03*
%TO.P,J19,5,Pin_5*%
%TO.N,GND*%
X107315000Y-147955000D03*
%TO.P,J19,6,Pin_6*%
%TO.N,+5V*%
X107315000Y-145415000D03*
%TO.P,J19,7,Pin_7*%
%TO.N,GND*%
X104775000Y-147955000D03*
%TO.P,J19,8,Pin_8*%
%TO.N,+5V*%
X104775000Y-145415000D03*
%TO.P,J19,9,Pin_9*%
%TO.N,GND*%
X102235000Y-147955000D03*
%TO.P,J19,10,Pin_10*%
%TO.N,+5V*%
X102235000Y-145415000D03*
%TD*%
D15*
%TO.P,J3,1,Pin_1*%
%TO.N,Net-(J3-Pin_1)*%
X51435000Y-124475000D03*
D16*
%TO.P,J3,2,Pin_2*%
%TO.N,Net-(J3-Pin_2)*%
X51435000Y-121935000D03*
%TD*%
D15*
%TO.P,M1,1,M_PWR*%
%TO.N,Net-(U1-OUT1)*%
X35560000Y-65405000D03*
D16*
%TO.P,M1,2,M_PWR*%
%TO.N,Net-(U1-OUT2)*%
X35560000Y-62865000D03*
%TO.P,M1,3,GND_ENC*%
%TO.N,GND*%
X35560000Y-60325000D03*
%TO.P,M1,4,VCC_ENC*%
%TO.N,+3.3V*%
X35560000Y-57785000D03*
%TO.P,M1,5,ENC_A_OUT*%
%TO.N,/M1_ENCA*%
X35560000Y-55245000D03*
%TO.P,M1,6,ENC_B_OUTPUT*%
%TO.N,/M1_ENCB*%
X35560000Y-52705000D03*
%TD*%
D10*
%TO.P,S2,1,C*%
%TO.N,GND*%
X88045000Y-167045000D03*
D11*
%TO.P,S2,2,NO*%
%TO.N,/BMP2*%
X88045000Y-169545000D03*
%TO.P,S2,3,NC*%
%TO.N,unconnected-(S2-NC-Pad3)*%
X88045000Y-172045000D03*
%TD*%
D14*
%TO.P,U21,12,CS*%
%TO.N,Net-(J21-Pin_6)*%
X123190000Y-80010000D03*
%TO.P,U21,11,SDO*%
%TO.N,Net-(J21-Pin_5)*%
X125730000Y-80010000D03*
%TO.P,U21,10,G?*%
%TO.N,Net-(J21-Pin_4)*%
X128270000Y-80010000D03*
%TO.P,U21,9,AC*%
%TO.N,Net-(J21-Pin_3)*%
X130810000Y-80010000D03*
%TO.P,U21,8,AD*%
%TO.N,Net-(J21-Pin_2)*%
X133350000Y-80010000D03*
%TO.P,U21,7,FS*%
%TO.N,Net-(J21-Pin_1)*%
X135890000Y-80010000D03*
%TO.P,U21,6,INT*%
%TO.N,Net-(J2-Pin_5)*%
X123190000Y-67310000D03*
%TO.P,U21,5,SDA*%
%TO.N,SDA*%
X125730000Y-67310000D03*
%TO.P,U21,4,SCL*%
%TO.N,SCL*%
X128270000Y-67310000D03*
%TO.P,U21,3,GND*%
%TO.N,GND*%
X130810000Y-67310000D03*
%TO.P,U21,2,1V8*%
%TO.N,unconnected-(U21-1V8-Pad2)*%
X133350000Y-67310000D03*
%TO.P,U21,1,VIN*%
%TO.N,+3.3V*%
X135890000Y-67310000D03*
%TD*%
D15*
%TO.P,D7,1,GND*%
%TO.N,GND*%
X56490000Y-116175000D03*
D16*
%TO.P,D7,2,SIGNAL*%
%TO.N,Net-(D7-SIGNAL)*%
X56490000Y-113635000D03*
%TO.P,D7,3,VIN*%
%TO.N,+5V*%
X56490000Y-111095000D03*
%TD*%
D21*
%TO.P,U12,1,VIN*%
%TO.N,+3.3V*%
X143510000Y-46275000D03*
D11*
%TO.P,U12,2,GND*%
%TO.N,GND*%
X143510000Y-43775000D03*
%TO.P,U12,3,SDA*%
%TO.N,SDA*%
X143510000Y-41275000D03*
%TO.P,U12,4,SCL*%
%TO.N,SCL*%
X143510000Y-38775000D03*
%TO.P,U12,5,XSHUT*%
%TO.N,/U12_XSHUT*%
X143510000Y-36275000D03*
%TD*%
D15*
%TO.P,M2,1,M_PWR*%
%TO.N,Net-(U2-OUT1)*%
X35560000Y-92075000D03*
D16*
%TO.P,M2,2,M_PWR*%
%TO.N,Net-(U2-OUT2)*%
X35560000Y-89535000D03*
%TO.P,M2,3,GND_ENC*%
%TO.N,GND*%
X35560000Y-86995000D03*
%TO.P,M2,4,VCC_ENC*%
%TO.N,+3.3V*%
X35560000Y-84455000D03*
%TO.P,M2,5,ENC_A_OUT*%
%TO.N,/M2_ENCA*%
X35560000Y-81915000D03*
%TO.P,M2,6,ENC_B_OUTPUT*%
%TO.N,/M2_ENCB*%
X35560000Y-79375000D03*
%TD*%
D23*
%TO.P,J4,1,Pin_1*%
%TO.N,GND*%
X36830000Y-132715000D03*
D24*
%TO.P,J4,2,Pin_2*%
%TO.N,+3.3V*%
X39330000Y-132715000D03*
%TD*%
D17*
%TO.P,R2,1*%
%TO.N,+3.3V*%
X69850000Y-85090000D03*
D18*
%TO.P,R2,2*%
%TO.N,SCL*%
X69850000Y-95250000D03*
%TD*%
D12*
%TO.P,S3,1,C*%
%TO.N,GND*%
X127715000Y-187960000D03*
D13*
%TO.P,S3,2,NO*%
%TO.N,/BMP3*%
X130215000Y-187960000D03*
%TO.P,S3,3,NC*%
%TO.N,unconnected-(S3-NC-Pad3)*%
X132715000Y-187960000D03*
%TD*%
D10*
%TO.P,U14,1,VIN*%
%TO.N,+3.3V*%
X37465000Y-36275000D03*
D11*
%TO.P,U14,2,GND*%
%TO.N,GND*%
X37465000Y-38775000D03*
%TO.P,U14,3,SDA*%
%TO.N,SDA*%
X37465000Y-41275000D03*
%TO.P,U14,4,SCL*%
%TO.N,SCL*%
X37465000Y-43775000D03*
%TO.P,U14,5,XSHUT*%
%TO.N,/U14_XSHUT*%
X37465000Y-46275000D03*
%TD*%
D16*
%TO.P,J18,10,Pin_10*%
%TO.N,+3.3V*%
X111760000Y-137795000D03*
%TO.P,J18,9,Pin_9*%
%TO.N,GND*%
X114300000Y-137795000D03*
%TO.P,J18,8,Pin_8*%
%TO.N,+3.3V*%
X111760000Y-135255000D03*
%TO.P,J18,7,Pin_7*%
%TO.N,GND*%
X114300000Y-135255000D03*
%TO.P,J18,6,Pin_6*%
%TO.N,+3.3V*%
X111760000Y-132715000D03*
%TO.P,J18,5,Pin_5*%
%TO.N,GND*%
X114300000Y-132715000D03*
%TO.P,J18,4,Pin_4*%
%TO.N,+3.3V*%
X111760000Y-130175000D03*
%TO.P,J18,3,Pin_3*%
%TO.N,GND*%
X114300000Y-130175000D03*
%TO.P,J18,2,Pin_2*%
%TO.N,+3.3V*%
X111760000Y-127635000D03*
D15*
%TO.P,J18,1,Pin_1*%
%TO.N,GND*%
X114300000Y-127635000D03*
%TD*%
D21*
%TO.P,U17,1,VIN*%
%TO.N,+3.3V*%
X103505000Y-171290000D03*
D11*
%TO.P,U17,2,GND*%
%TO.N,GND*%
X103505000Y-168790000D03*
%TO.P,U17,3,SDA*%
%TO.N,SDA*%
X103505000Y-166290000D03*
%TO.P,U17,4,SCL*%
%TO.N,SCL*%
X103505000Y-163790000D03*
%TO.P,U17,5,XSHUT*%
%TO.N,/U17_XSHUT*%
X103505000Y-161290000D03*
%TD*%
D15*
%TO.P,J12,1,Pin_1*%
%TO.N,Net-(J12-Pin_1)*%
X128270000Y-162560000D03*
D16*
%TO.P,J12,2,Pin_2*%
%TO.N,Net-(J12-Pin_2)*%
X130810000Y-162560000D03*
%TO.P,J12,3,Pin_3*%
%TO.N,Net-(J12-Pin_3)*%
X133350000Y-162560000D03*
%TO.P,J12,4,Pin_4*%
%TO.N,Net-(J12-Pin_4)*%
X135890000Y-162560000D03*
%TD*%
D18*
%TO.P,R6,2*%
%TO.N,GND*%
X110490000Y-182880000D03*
D17*
%TO.P,R6,1*%
%TO.N,/PR1*%
X120650000Y-182880000D03*
%TD*%
D15*
%TO.P,J21,1,Pin_1*%
%TO.N,Net-(J21-Pin_1)*%
X145415000Y-80010000D03*
D16*
%TO.P,J21,2,Pin_2*%
%TO.N,Net-(J21-Pin_2)*%
X145415000Y-77470000D03*
%TO.P,J21,3,Pin_3*%
%TO.N,Net-(J21-Pin_3)*%
X145415000Y-74930000D03*
%TO.P,J21,4,Pin_4*%
%TO.N,Net-(J21-Pin_4)*%
X145415000Y-72390000D03*
%TO.P,J21,5,Pin_5*%
%TO.N,Net-(J21-Pin_5)*%
X145415000Y-69850000D03*
%TO.P,J21,6,Pin_6*%
%TO.N,Net-(J21-Pin_6)*%
X145415000Y-67310000D03*
%TD*%
D15*
%TO.P,J7,1,Pin_1*%
%TO.N,Net-(J7-Pin_1)*%
X67310000Y-114935000D03*
%TD*%
%TO.P,J16,1,Pin_1*%
%TO.N,Net-(J16-Pin_1)*%
X75565000Y-80645000D03*
D16*
%TO.P,J16,2,Pin_2*%
%TO.N,Net-(J16-Pin_2)*%
X73025000Y-80645000D03*
%TO.P,J16,3,Pin_3*%
%TO.N,Net-(J16-Pin_3)*%
X70485000Y-80645000D03*
%TO.P,J16,4,Pin_4*%
%TO.N,Net-(J16-Pin_4)*%
X67945000Y-80645000D03*
%TO.P,J16,5,Pin_5*%
%TO.N,Net-(J16-Pin_5)*%
X65405000Y-80645000D03*
%TO.P,J16,6,Pin_6*%
%TO.N,Net-(J16-Pin_6)*%
X62865000Y-80645000D03*
%TO.P,J16,7,Pin_7*%
%TO.N,Net-(J16-Pin_7)*%
X60325000Y-80645000D03*
%TD*%
D17*
%TO.P,R10,1*%
%TO.N,/PR3*%
X120650000Y-176530000D03*
D18*
%TO.P,R10,2*%
%TO.N,GND*%
X110490000Y-176530000D03*
%TD*%
D21*
%TO.P,U18,1,VIN*%
%TO.N,+3.3V*%
X143510000Y-172680000D03*
D11*
%TO.P,U18,2,GND*%
%TO.N,GND*%
X143510000Y-170180000D03*
%TO.P,U18,3,SDA*%
%TO.N,SDA*%
X143510000Y-167680000D03*
%TO.P,U18,4,SCL*%
%TO.N,SCL*%
X143510000Y-165180000D03*
%TO.P,U18,5,XSHUT*%
%TO.N,/U18_XSHUT*%
X143510000Y-162680000D03*
%TD*%
D15*
%TO.P,M6,1,VIN*%
%TO.N,+5V*%
X90600000Y-158432500D03*
D16*
%TO.P,M6,2,GND*%
%TO.N,GND*%
X90600000Y-155892500D03*
%TO.P,M6,3,SIGNAL*%
%TO.N,/M6_SIG*%
X90600000Y-153352500D03*
%TD*%
D15*
%TO.P,M5,1,VIN*%
%TO.N,+5V*%
X86360000Y-158432500D03*
D16*
%TO.P,M5,2,GND*%
%TO.N,GND*%
X86360000Y-155892500D03*
%TO.P,M5,3,SIGNAL*%
%TO.N,/M5_SIG*%
X86360000Y-153352500D03*
%TD*%
D15*
%TO.P,J8,1,Pin_1*%
%TO.N,Net-(J8-Pin_1)*%
X87630000Y-80645000D03*
D16*
%TO.P,J8,2,Pin_2*%
%TO.N,Net-(J8-Pin_2)*%
X85090000Y-80645000D03*
%TO.P,J8,3,Pin_3*%
%TO.N,Net-(J8-Pin_3)*%
X82550000Y-80645000D03*
%TD*%
D15*
%TO.P,D3,1,GND*%
%TO.N,GND*%
X63525000Y-121935000D03*
D16*
%TO.P,D3,2,VIN*%
%TO.N,+5V*%
X63525000Y-124475000D03*
%TO.P,D3,3,SIGNAL*%
%TO.N,Net-(D3-SIGNAL)*%
X63525000Y-127015000D03*
%TD*%
D23*
%TO.P,J6,1,Pin_1*%
%TO.N,SDA1*%
X45720000Y-132715000D03*
D24*
%TO.P,J6,2,Pin_2*%
%TO.N,SCL1*%
X48220000Y-132715000D03*
%TD*%
D15*
%TO.P,D4,1,GND*%
%TO.N,GND*%
X67310000Y-121935000D03*
D16*
%TO.P,D4,2,VIN*%
%TO.N,+5V*%
X67310000Y-124475000D03*
%TO.P,D4,3,SIGNAL*%
%TO.N,Net-(D4-SIGNAL)*%
X67310000Y-127015000D03*
%TD*%
D19*
%TO.P,J26,1,Pin_1*%
%TO.N,GND*%
X143620000Y-138430000D03*
D20*
%TO.P,J26,2,Pin_2*%
%TO.N,/+6V_3*%
X143620000Y-135930000D03*
%TD*%
D13*
%TO.P,J30,5,Pin_5*%
%TO.N,/PR1*%
X121165000Y-187960000D03*
%TO.P,J30,4,Pin_4*%
%TO.N,/PR2*%
X118665000Y-187960000D03*
%TO.P,J30,3,Pin_3*%
%TO.N,/PR3*%
X116165000Y-187960000D03*
%TO.P,J30,2,Pin_2*%
%TO.N,/PR4*%
X113665000Y-187960000D03*
D12*
%TO.P,J30,1,Pin_1*%
%TO.N,+3.3V*%
X111165000Y-187960000D03*
%TD*%
D15*
%TO.P,J17,1,Pin_1*%
%TO.N,SCL*%
X107315000Y-177800000D03*
D16*
%TO.P,J17,2,Pin_2*%
%TO.N,SDA*%
X104775000Y-177800000D03*
%TO.P,J17,3,Pin_3*%
%TO.N,SCL*%
X107315000Y-180340000D03*
%TO.P,J17,4,Pin_4*%
%TO.N,SDA*%
X104775000Y-180340000D03*
%TO.P,J17,5,Pin_5*%
%TO.N,SCL*%
X107315000Y-182880000D03*
%TO.P,J17,6,Pin_6*%
%TO.N,SDA*%
X104775000Y-182880000D03*
%TD*%
D25*
%TO.P,U23,1,LED*%
%TO.N,/TCS34725_LED*%
X99020000Y-180230000D03*
D13*
%TO.P,U23,2,INT*%
%TO.N,Net-(J3-Pin_2)*%
X96520000Y-180230000D03*
%TO.P,U23,3,SDA*%
%TO.N,SDA*%
X94020000Y-180230000D03*
%TO.P,U23,4,SCL*%
%TO.N,SCL*%
X91520000Y-180230000D03*
%TO.P,U23,5,GND*%
%TO.N,GND*%
X89020000Y-180230000D03*
%TO.P,U23,6,VIN*%
%TO.N,+3.3V*%
X86520000Y-180230000D03*
%TD*%
D15*
%TO.P,J11,1,Pin_1*%
%TO.N,Net-(J11-Pin_1)*%
X50800000Y-80645000D03*
D16*
%TO.P,J11,2,Pin_2*%
%TO.N,Net-(J11-Pin_2)*%
X48260000Y-80645000D03*
%TO.P,J11,3,Pin_3*%
%TO.N,Net-(J11-Pin_3)*%
X45720000Y-80645000D03*
%TO.P,J11,4,Pin_4*%
%TO.N,Net-(J11-Pin_4)*%
X43180000Y-80645000D03*
%TD*%
D19*
%TO.P,J23,1,Pin_1*%
%TO.N,GND*%
X143510000Y-181610000D03*
D20*
%TO.P,J23,2,Pin_2*%
%TO.N,Net-(J23-Pin_2)*%
X143510000Y-179110000D03*
%TD*%
D15*
%TO.P,J10,1,Pin_1*%
%TO.N,Net-(J10-Pin_1)*%
X50800000Y-53975000D03*
D16*
%TO.P,J10,2,Pin_2*%
%TO.N,Net-(J10-Pin_2)*%
X48260000Y-53975000D03*
%TO.P,J10,3,Pin_3*%
%TO.N,Net-(J10-Pin_3)*%
X45720000Y-53975000D03*
%TO.P,J10,4,Pin_4*%
%TO.N,Net-(J10-Pin_4)*%
X43180000Y-53975000D03*
%TD*%
D15*
%TO.P,D5,1,GND*%
%TO.N,GND*%
X59715000Y-121935000D03*
D16*
%TO.P,D5,2,VIN*%
%TO.N,+5V*%
X59715000Y-124475000D03*
%TO.P,D5,3,SIGNAL*%
%TO.N,Net-(D5-SIGNAL)*%
X59715000Y-127015000D03*
%TD*%
D22*
%TO.P,J25,1,Pin_1*%
%TO.N,GND*%
X37355000Y-97790000D03*
D20*
%TO.P,J25,2,Pin_2*%
%TO.N,/+6V_2*%
X37355000Y-100290000D03*
%TD*%
D21*
%TO.P,U25,1,VIN*%
%TO.N,+3.3V*%
X45195000Y-117355000D03*
D11*
%TO.P,U25,2,GND*%
%TO.N,GND*%
X45195000Y-114855000D03*
%TO.P,U25,3,SDA*%
%TO.N,SDA*%
X45195000Y-112355000D03*
%TO.P,U25,4,SCL*%
%TO.N,SCL*%
X45195000Y-109855000D03*
%TO.P,U25,5,XSHUT*%
%TO.N,/U25_XSHUT*%
X45195000Y-107355000D03*
%TD*%
D18*
%TO.P,R3,2*%
%TO.N,SDA1*%
X66040000Y-95250000D03*
D17*
%TO.P,R3,1*%
%TO.N,+3.3V*%
X66040000Y-85090000D03*
%TD*%
D12*
%TO.P,U24,1,VIN*%
%TO.N,+3.3V*%
X86400000Y-187960000D03*
D13*
%TO.P,U24,2,GND*%
%TO.N,GND*%
X88900000Y-187960000D03*
%TO.P,U24,3,SCL*%
%TO.N,SCL*%
X91400000Y-187960000D03*
%TO.P,U24,4,SDA*%
%TO.N,SDA*%
X93900000Y-187960000D03*
%TO.P,U24,5,INT*%
%TO.N,Net-(J3-Pin_1)*%
X96400000Y-187960000D03*
%TD*%
D17*
%TO.P,R13,1*%
%TO.N,/VBAT_MEAS*%
X128905000Y-182245000D03*
D18*
%TO.P,R13,2*%
%TO.N,GND*%
X139065000Y-182245000D03*
%TD*%
D14*
%TO.P,U20,12,CS*%
%TO.N,Net-(J20-Pin_6)*%
X135255000Y-52705000D03*
%TO.P,U20,11,DI*%
%TO.N,Net-(J20-Pin_5)*%
X135255000Y-50165000D03*
%TO.P,U20,10,RST*%
%TO.N,Net-(J20-Pin_4)*%
X135255000Y-47625000D03*
%TO.P,U20,9,P1*%
%TO.N,Net-(J20-Pin_3)*%
X135255000Y-45085000D03*
%TO.P,U20,8,P0*%
%TO.N,Net-(J20-Pin_2)*%
X135255000Y-42545000D03*
%TO.P,U20,7,BT*%
%TO.N,Net-(J20-Pin_1)*%
X135255000Y-40005000D03*
%TO.P,U20,6,INT*%
%TO.N,Net-(J2-Pin_6)*%
X117475000Y-52705000D03*
%TO.P,U20,5,SDA*%
%TO.N,SDA*%
X117475000Y-50165000D03*
%TO.P,U20,4,SCL*%
%TO.N,SCL*%
X117475000Y-47625000D03*
%TO.P,U20,3,GND*%
%TO.N,GND*%
X117475000Y-45085000D03*
%TO.P,U20,2,3Vo*%
%TO.N,unconnected-(U20-3Vo-Pad2)*%
X117475000Y-42545000D03*
%TO.P,U20,1,VIN*%
%TO.N,+3.3V*%
X117475000Y-40005000D03*
%TD*%
D15*
%TO.P,D6,1,GND*%
%TO.N,GND*%
X55905000Y-121935000D03*
D16*
%TO.P,D6,2,VIN*%
%TO.N,+5V*%
X55905000Y-124475000D03*
%TO.P,D6,3,SIGNAL*%
%TO.N,Net-(D6-SIGNAL)*%
X55905000Y-127015000D03*
%TD*%
D10*
%TO.P,U13,1,VIN*%
%TO.N,+3.3V*%
X46355000Y-36275000D03*
D11*
%TO.P,U13,2,GND*%
%TO.N,GND*%
X46355000Y-38775000D03*
%TO.P,U13,3,SDA*%
%TO.N,SDA*%
X46355000Y-41275000D03*
%TO.P,U13,4,SCL*%
%TO.N,SCL*%
X46355000Y-43775000D03*
%TO.P,U13,5,XSHUT*%
%TO.N,/U13_XSHUT*%
X46355000Y-46275000D03*
%TD*%
D15*
%TO.P,J2,1,Pin_1*%
%TO.N,Net-(J2-Pin_1)*%
X145390000Y-99670000D03*
D16*
%TO.P,J2,2,Pin_2*%
%TO.N,Net-(J2-Pin_2)*%
X145390000Y-97130000D03*
%TO.P,J2,3,Pin_3*%
%TO.N,Net-(J2-Pin_3)*%
X145390000Y-94590000D03*
%TO.P,J2,4,Pin_4*%
%TO.N,Net-(J2-Pin_4)*%
X145390000Y-92050000D03*
%TO.P,J2,5,Pin_5*%
%TO.N,Net-(J2-Pin_5)*%
X145390000Y-89510000D03*
%TO.P,J2,6,Pin_6*%
%TO.N,Net-(J2-Pin_6)*%
X145390000Y-86970000D03*
%TD*%
D15*
%TO.P,J20,1,Pin_1*%
%TO.N,Net-(J20-Pin_1)*%
X145415000Y-61595000D03*
D16*
%TO.P,J20,2,Pin_2*%
%TO.N,Net-(J20-Pin_2)*%
X142875000Y-61595000D03*
%TO.P,J20,3,Pin_3*%
%TO.N,Net-(J20-Pin_3)*%
X140335000Y-61595000D03*
%TO.P,J20,4,Pin_4*%
%TO.N,Net-(J20-Pin_4)*%
X137795000Y-61595000D03*
%TO.P,J20,5,Pin_5*%
%TO.N,Net-(J20-Pin_5)*%
X135255000Y-61595000D03*
%TO.P,J20,6,Pin_6*%
%TO.N,Net-(J20-Pin_6)*%
X132715000Y-61595000D03*
%TD*%
D14*
%TO.P,U22,1,VIN*%
%TO.N,+3.3V*%
X135890000Y-86995000D03*
%TO.P,U22,2,3Vo*%
%TO.N,unconnected-(U22-3Vo-Pad2)*%
X133350000Y-86995000D03*
%TO.P,U22,3,GND*%
%TO.N,GND*%
X130810000Y-86995000D03*
%TO.P,U22,4,SCL*%
%TO.N,SCL*%
X128270000Y-86995000D03*
%TO.P,U22,5,SDA*%
%TO.N,SDA*%
X125730000Y-86995000D03*
%TO.P,U22,6,INT2*%
%TO.N,Net-(J2-Pin_4)*%
X123190000Y-86995000D03*
%TO.P,U22,7,ADAG*%
%TO.N,Net-(J22-Pin_1)*%
X135890000Y-99695000D03*
%TO.P,U22,8,ADM*%
%TO.N,Net-(J22-Pin_2)*%
X133350000Y-99695000D03*
%TO.P,U22,9,DRDY*%
%TO.N,Net-(J2-Pin_1)*%
X130810000Y-99695000D03*
%TO.P,U22,10,INTM*%
%TO.N,Net-(J2-Pin_2)*%
X128270000Y-99695000D03*
%TO.P,U22,11,INT1*%
%TO.N,Net-(J2-Pin_3)*%
X125730000Y-99695000D03*
%TD*%
D15*
%TO.P,J22,1,Pin_1*%
%TO.N,Net-(J22-Pin_1)*%
X128885000Y-106705000D03*
D16*
%TO.P,J22,2,Pin_2*%
%TO.N,Net-(J22-Pin_2)*%
X126345000Y-106705000D03*
%TD*%
D21*
%TO.P,U15,1,VIN*%
%TO.N,+3.3V*%
X36195000Y-117435000D03*
D11*
%TO.P,U15,2,GND*%
%TO.N,GND*%
X36195000Y-114935000D03*
%TO.P,U15,3,SDA*%
%TO.N,SDA*%
X36195000Y-112435000D03*
%TO.P,U15,4,SCL*%
%TO.N,SCL*%
X36195000Y-109935000D03*
%TO.P,U15,5,XSHUT*%
%TO.N,/U15_XSHUT*%
X36195000Y-107435000D03*
%TD*%
D18*
%TO.P,R1,2*%
%TO.N,SDA*%
X73660000Y-95250000D03*
D17*
%TO.P,R1,1*%
%TO.N,+3.3V*%
X73660000Y-85090000D03*
%TD*%
D15*
%TO.P,M3,1,M_PWR*%
%TO.N,Net-(U3-OUT1)*%
X145415000Y-144780000D03*
D16*
%TO.P,M3,2,M_PWR*%
%TO.N,Net-(U3-OUT2)*%
X145415000Y-147320000D03*
%TO.P,M3,3,GND_ENC*%
%TO.N,GND*%
X145415000Y-149860000D03*
%TO.P,M3,4,VCC_ENC*%
%TO.N,+3.3V*%
X145415000Y-152400000D03*
%TO.P,M3,5,ENC_A_OUT*%
%TO.N,/M3_ENCA*%
X145415000Y-154940000D03*
%TO.P,M3,6,ENC_B_OUTPUT*%
%TO.N,/M3_ENCB*%
X145415000Y-157480000D03*
%TD*%
D12*
%TO.P,S4,1,C*%
%TO.N,GND*%
X139105000Y-187960000D03*
D13*
%TO.P,S4,2,NO*%
%TO.N,/BMP4*%
X141605000Y-187960000D03*
%TO.P,S4,3,NC*%
%TO.N,unconnected-(S4-NC-Pad3)*%
X144105000Y-187960000D03*
%TD*%
D10*
%TO.P,S1,1,C*%
%TO.N,GND*%
X96410000Y-167045000D03*
D11*
%TO.P,S1,2,NO*%
%TO.N,/BMP1*%
X96410000Y-169545000D03*
%TO.P,S1,3,NC*%
%TO.N,unconnected-(S1-NC-Pad3)*%
X96410000Y-172045000D03*
%TD*%
D26*
%TO.N,/21_extra*%
X107569000Y-41529000D03*
%TO.N,+5V*%
X61595000Y-116205000D03*
D27*
X100152200Y-124485400D03*
D26*
X71755000Y-124460000D03*
X78232000Y-124460000D03*
X48895000Y-128270000D03*
%TO.N,Net-(D7-SIGNAL)*%
X53975000Y-124460000D03*
X53975000Y-119380000D03*
%TO.N,Net-(J2-Pin_6)*%
X116840000Y-78740000D03*
X123825000Y-82550000D03*
%TO.N,Net-(J3-Pin_1)*%
X84328000Y-183337200D03*
X70866000Y-119380000D03*
X95250000Y-183515000D03*
X80264000Y-133858000D03*
%TO.N,Net-(J3-Pin_2)*%
X76454000Y-120650000D03*
X78994000Y-130048000D03*
X52070000Y-118745000D03*
X71120000Y-118110000D03*
X84646100Y-149402800D03*
X81788000Y-132842000D03*
X95250000Y-178435000D03*
X92075000Y-175260000D03*
X87630000Y-161290000D03*
X59055000Y-118110000D03*
%TO.N,+3.3V*%
X135255000Y-135255000D03*
X123444000Y-141528800D03*
X130810000Y-155575000D03*
X135255000Y-160020000D03*
X142240000Y-102235000D03*
X48895000Y-59055000D03*
X48895000Y-86360000D03*
X130810000Y-130810000D03*
X100330000Y-175895000D03*
X43180000Y-83185000D03*
X54102000Y-78232000D03*
X43180000Y-56515000D03*
X123354500Y-150622000D03*
X134620000Y-175260000D03*
%TO.N,SDA1*%
X81026000Y-101346000D03*
X74295000Y-102870000D03*
X101854000Y-101346000D03*
X119380000Y-98552000D03*
%TO.N,SCL1*%
X118110000Y-97282000D03*
X73025000Y-105410000D03*
X100838000Y-102362000D03*
X81026000Y-103124000D03*
%TO.N,SDA*%
X51435000Y-107950000D03*
X80518000Y-48006000D03*
X91440000Y-127000000D03*
X104648000Y-139192000D03*
X91440000Y-121285000D03*
X126365000Y-73660000D03*
X50800000Y-41275000D03*
X73152000Y-89408000D03*
X140335000Y-43815000D03*
X130175000Y-52705000D03*
X115316000Y-45974000D03*
X129540000Y-167640000D03*
X89027000Y-36195000D03*
X83058000Y-35814000D03*
X64135000Y-100965000D03*
X106934000Y-142494000D03*
%TO.N,SCL*%
X124460000Y-41910000D03*
X83185000Y-47625000D03*
X102108000Y-139192000D03*
X84455000Y-34290000D03*
X104140000Y-142240000D03*
X87630000Y-34925000D03*
X128270000Y-38100000D03*
X120650000Y-48895000D03*
X50165000Y-106680000D03*
X127635000Y-165735000D03*
X104140000Y-175260000D03*
X128270000Y-71755000D03*
X74168000Y-88392000D03*
X127000000Y-62230000D03*
X124460000Y-59690000D03*
X120650000Y-51435000D03*
X88900000Y-122174000D03*
X102022523Y-176107477D03*
X88900000Y-127000000D03*
X62230000Y-99695000D03*
X76200000Y-83312000D03*
%TO.N,Net-(J20-Pin_2)*%
X128905000Y-58420000D03*
X128270000Y-52705000D03*
X133350000Y-44450000D03*
%TO.N,/M1_ENCA*%
X81788000Y-39370000D03*
X87757000Y-39370000D03*
%TO.N,/M1_ENCB*%
X87757000Y-37465000D03*
X81915000Y-37592000D03*
%TO.N,/M2_ENCA*%
X75869800Y-49504600D03*
X50546000Y-76962000D03*
X74676000Y-54610000D03*
X87630000Y-45974000D03*
%TO.N,/M2_ENCB*%
X87630000Y-44450000D03*
X48895000Y-75565000D03*
X73025000Y-55245000D03*
X74422000Y-47625000D03*
%TO.N,/M3_ENCA*%
X133985000Y-151130000D03*
X129540000Y-128905000D03*
X132080000Y-140970000D03*
%TO.N,/M3_ENCB*%
X131445000Y-151130000D03*
X128270000Y-127635000D03*
X129540000Y-140970000D03*
%TO.N,/M4_ENCA*%
X118618000Y-55626000D03*
X135890000Y-126365000D03*
%TO.N,/M4_ENCB*%
X118110000Y-57912000D03*
X133985000Y-127635000D03*
%TO.N,/M1_IN1*%
X92456000Y-48006000D03*
X64643000Y-42672000D03*
X61722000Y-48260000D03*
X81534000Y-42672000D03*
%TO.N,/M1_IN2*%
X64516000Y-40894000D03*
X93980000Y-48006000D03*
X59182000Y-48260000D03*
X81788000Y-40894000D03*
%TO.N,/M2_IN1*%
X75895200Y-91998800D03*
X86868000Y-84074000D03*
X61468000Y-92456000D03*
X67945000Y-92456000D03*
X92456000Y-83312000D03*
X81026000Y-88392000D03*
X77978000Y-89916000D03*
%TO.N,/M2_IN2*%
X80772000Y-86868000D03*
X77978000Y-88392000D03*
X75717400Y-90398600D03*
X88138000Y-82804000D03*
X67945000Y-90932000D03*
X61468000Y-90932000D03*
X92456000Y-81788000D03*
%TO.N,/M3_IN1*%
X99822000Y-99822000D03*
X114808000Y-121412000D03*
X100838000Y-104140000D03*
X105664000Y-117348000D03*
X101854000Y-113538000D03*
%TO.N,/M3_IN2*%
X98552000Y-99822000D03*
X105664000Y-118872000D03*
X99314000Y-104648000D03*
X114808000Y-123190000D03*
X101600000Y-115062000D03*
%TO.N,/U13_XSHUT*%
X60198000Y-43180000D03*
X53340000Y-43180000D03*
%TO.N,/U14_XSHUT*%
X41910000Y-46990000D03*
X46355000Y-50800000D03*
%TO.N,/U15_XSHUT*%
X61595000Y-69215000D03*
X57785000Y-83820000D03*
X45720000Y-102870000D03*
X58420000Y-88900000D03*
X50165000Y-102870000D03*
X72898000Y-62230000D03*
%TO.N,/U16_XSHUT*%
X90170000Y-104648000D03*
X90170000Y-99568000D03*
X104648000Y-122682000D03*
X108204000Y-137414000D03*
X101854000Y-119888000D03*
%TO.N,/U17_XSHUT*%
X88646000Y-99441000D03*
X88646000Y-104648000D03*
X100584000Y-121158000D03*
X103378000Y-123952000D03*
X107315000Y-139065000D03*
%TO.N,/U18_XSHUT*%
X128905000Y-151130000D03*
X127508000Y-140970000D03*
X128016000Y-125730000D03*
X101600000Y-118618000D03*
X127000000Y-116332000D03*
X91694000Y-109982000D03*
X87122000Y-99314000D03*
%TO.N,/U25_XSHUT*%
X81280000Y-76962000D03*
X49949100Y-104355900D03*
X81280000Y-70612000D03*
%TO.N,/TCS34725_LED*%
X92710000Y-160020000D03*
X85090000Y-70612000D03*
X86614000Y-118364000D03*
X98425000Y-178435000D03*
X81026000Y-84582000D03*
X95250000Y-175260000D03*
X93345000Y-156210000D03*
X97536000Y-146939000D03*
X86614000Y-126492000D03*
X96520000Y-142240000D03*
%TO.N,/M5_SIG*%
X93980000Y-100330000D03*
X89535000Y-137160000D03*
X93980000Y-115062000D03*
X92456000Y-104648000D03*
%TO.N,/M6_SIG*%
X99949000Y-84963000D03*
X95504000Y-99949000D03*
X90932000Y-137922000D03*
X95504000Y-116840000D03*
X99949000Y-90551000D03*
X93980000Y-104648000D03*
%TO.N,/BMP1*%
X98082100Y-148297900D03*
X97155000Y-135255000D03*
X93980000Y-160020000D03*
X95250000Y-156845000D03*
X97790000Y-141605000D03*
%TO.N,/BMP2*%
X85090000Y-104648000D03*
X85979000Y-132969000D03*
X84963000Y-116840000D03*
%TO.N,/VBAT_MEAS*%
X120015000Y-125222000D03*
X115824000Y-120142000D03*
%TD*%
D28*
%TO.N,+3.3V*%
X123354500Y-150622000D02*
X123647200Y-150329300D01*
X123647200Y-150329300D02*
X123647200Y-141732000D01*
X123647200Y-141732000D02*
X123444000Y-141528800D01*
D29*
%TO.N,SCL*%
X88011000Y-121285000D02*
X81788000Y-121285000D01*
X88900000Y-122174000D02*
X88011000Y-121285000D01*
X81788000Y-121285000D02*
X76200000Y-115697000D01*
X76200000Y-115697000D02*
X76200000Y-101600000D01*
X76200000Y-101600000D02*
X69850000Y-95250000D01*
%TO.N,/21_extra*%
X107569000Y-41529000D02*
X109220000Y-43180000D01*
X109220000Y-43180000D02*
X109220000Y-48260000D01*
X109220000Y-48260000D02*
X111760000Y-50800000D01*
D30*
%TO.N,+5V*%
X100152200Y-124485400D02*
X103886000Y-120751600D01*
X103886000Y-120751600D02*
X103886000Y-64764000D01*
X103886000Y-64764000D02*
X105750000Y-62900000D01*
X105750000Y-62900000D02*
X105750000Y-39665000D01*
X105750000Y-39665000D02*
X107315000Y-38100000D01*
X107315000Y-38100000D02*
X111760000Y-38100000D01*
D29*
%TO.N,/M2_IN1*%
X75895200Y-91998800D02*
X75895200Y-91744800D01*
X75895200Y-91744800D02*
X77724000Y-89916000D01*
X77724000Y-89916000D02*
X77978000Y-89916000D01*
%TO.N,/M2_IN2*%
X77724000Y-88392000D02*
X77978000Y-88392000D01*
X75717400Y-90398600D02*
X77724000Y-88392000D01*
%TO.N,/M2_IN1*%
X61468000Y-92456000D02*
X67945000Y-92456000D01*
%TO.N,/M2_IN2*%
X61468000Y-90932000D02*
X67945000Y-90932000D01*
%TO.N,/U25_XSHUT*%
X49949100Y-104355900D02*
X50647600Y-103657400D01*
X50647600Y-103657400D02*
X58140600Y-103657400D01*
X58140600Y-103657400D02*
X59690000Y-102108000D01*
X59690000Y-102108000D02*
X59690000Y-88392000D01*
X59690000Y-88392000D02*
X60960000Y-87122000D01*
X80010000Y-78232000D02*
X81280000Y-76962000D01*
X60960000Y-87122000D02*
X76708000Y-87122000D01*
X76708000Y-87122000D02*
X80010000Y-83820000D01*
X80010000Y-83820000D02*
X80010000Y-78232000D01*
%TO.N,/BMP1*%
X98082100Y-148297900D02*
X93980000Y-152400000D01*
X93980000Y-152400000D02*
X93980000Y-154940000D01*
X93980000Y-154940000D02*
X94615000Y-155575000D01*
X94615000Y-155575000D02*
X94615000Y-156210000D01*
X94615000Y-156210000D02*
X95250000Y-156845000D01*
%TO.N,/TCS34725_LED*%
X92710000Y-155575000D02*
X93345000Y-156210000D01*
X97536000Y-147574000D02*
X92710000Y-152400000D01*
X97536000Y-146939000D02*
X97536000Y-147574000D01*
X92710000Y-152400000D02*
X92710000Y-155575000D01*
%TO.N,Net-(J3-Pin_1)*%
X84328000Y-183337200D02*
X83820000Y-182829200D01*
X83820000Y-182829200D02*
X83820000Y-137414000D01*
X83820000Y-137414000D02*
X80264000Y-133858000D01*
D30*
%TO.N,+5V*%
X100945000Y-153670000D02*
X100945000Y-155595000D01*
X100945000Y-155595000D02*
X98107500Y-158432500D01*
D29*
%TO.N,SDA*%
X143510000Y-167680000D02*
X142987400Y-167157400D01*
X142987400Y-167157400D02*
X130022600Y-167157400D01*
X130022600Y-167157400D02*
X129540000Y-167640000D01*
X93900000Y-187960000D02*
X95805000Y-189865000D01*
X95805000Y-189865000D02*
X98425000Y-189865000D01*
X104140000Y-184785000D02*
X104775000Y-184150000D01*
X98425000Y-189865000D02*
X99187000Y-189103000D01*
X99187000Y-189103000D02*
X99187000Y-186461400D01*
X99187000Y-186461400D02*
X100863400Y-184785000D01*
X100863400Y-184785000D02*
X104140000Y-184785000D01*
X104775000Y-184150000D02*
X104775000Y-182880000D01*
D28*
%TO.N,+3.3V*%
X39330000Y-132715000D02*
X39330000Y-134580000D01*
X39330000Y-134580000D02*
X40894000Y-136144000D01*
X40894000Y-136144000D02*
X75311000Y-136144000D01*
X75311000Y-136144000D02*
X80645000Y-130810000D01*
X93960000Y-139045000D02*
X93960000Y-144890000D01*
X80645000Y-130810000D02*
X85725000Y-130810000D01*
X85725000Y-130810000D02*
X93960000Y-139045000D01*
D29*
%TO.N,/M1_ENCB*%
X81915000Y-37592000D02*
X61849000Y-37592000D01*
X61849000Y-37592000D02*
X51181000Y-48260000D01*
X51181000Y-48260000D02*
X40005000Y-48260000D01*
X40005000Y-48260000D02*
X35560000Y-52705000D01*
%TO.N,SCL*%
X46355000Y-43775000D02*
X49530000Y-40600000D01*
X51816000Y-33909000D02*
X57404000Y-33909000D01*
X49530000Y-40600000D02*
X49530000Y-36195000D01*
X57785000Y-34290000D02*
X84455000Y-34290000D01*
X49530000Y-36195000D02*
X51816000Y-33909000D01*
X57404000Y-33909000D02*
X57785000Y-34290000D01*
%TO.N,SDA*%
X83058000Y-35814000D02*
X61468000Y-35814000D01*
X61468000Y-35814000D02*
X56007000Y-41275000D01*
X56007000Y-41275000D02*
X50800000Y-41275000D01*
%TO.N,Net-(J3-Pin_2)*%
X84646100Y-149402800D02*
X84646100Y-139585100D01*
X84646100Y-139585100D02*
X85344000Y-138887200D01*
X85344000Y-138887200D02*
X85344000Y-136398000D01*
X85344000Y-136398000D02*
X81788000Y-132842000D01*
%TO.N,/PR1*%
X109982000Y-93726000D02*
X109982000Y-79248000D01*
X109220000Y-94488000D02*
X109982000Y-93726000D01*
X109220000Y-112522000D02*
X109220000Y-94488000D01*
X119062500Y-164782500D02*
X119062500Y-124523500D01*
X109982000Y-113284000D02*
X109220000Y-112522000D01*
X120396000Y-123190000D02*
X120396000Y-116840000D01*
X116840000Y-113284000D02*
X109982000Y-113284000D01*
X120396000Y-116840000D02*
X116840000Y-113284000D01*
X119062500Y-124523500D02*
X120396000Y-123190000D01*
X127000000Y-181610000D02*
X127000000Y-172720000D01*
X120650000Y-182880000D02*
X125730000Y-182880000D01*
X127000000Y-172720000D02*
X119062500Y-164782500D01*
X125730000Y-182880000D02*
X127000000Y-181610000D01*
X109982000Y-79248000D02*
X110490000Y-78740000D01*
X110490000Y-78740000D02*
X111760000Y-78740000D01*
%TO.N,/M1_IN1*%
X61722000Y-48260000D02*
X59944000Y-50038000D01*
X59944000Y-50038000D02*
X59944000Y-64516000D01*
X59944000Y-64516000D02*
X55880000Y-68580000D01*
%TO.N,/M1_IN2*%
X57785000Y-49657000D02*
X57785000Y-64135000D01*
X59182000Y-48260000D02*
X57785000Y-49657000D01*
X57785000Y-64135000D02*
X55880000Y-66040000D01*
%TO.N,Net-(J14-Pin_5)*%
X101600000Y-40868600D02*
X98171000Y-44297600D01*
X98171000Y-44297600D02*
X98171000Y-59309000D01*
X98171000Y-59309000D02*
X96520000Y-60960000D01*
%TO.N,Net-(J14-Pin_4)*%
X96520000Y-63500000D02*
X97917000Y-63500000D01*
X97917000Y-63500000D02*
X99568000Y-61849000D01*
X99568000Y-61849000D02*
X99568000Y-53848000D01*
X99568000Y-53848000D02*
X98933000Y-53213000D01*
X98933000Y-53213000D02*
X98933000Y-46075600D01*
X98933000Y-46075600D02*
X101600000Y-43408600D01*
%TO.N,Net-(J14-Pin_3)*%
X101600000Y-45948600D02*
X99568000Y-47980600D01*
X99568000Y-47980600D02*
X99568000Y-52832000D01*
X99568000Y-52832000D02*
X100330000Y-53594000D01*
X100330000Y-53594000D02*
X100330000Y-63373000D01*
X100330000Y-63373000D02*
X97663000Y-66040000D01*
X97663000Y-66040000D02*
X96520000Y-66040000D01*
%TO.N,Net-(J14-Pin_2)*%
X96520000Y-68580000D02*
X98425000Y-68580000D01*
X98425000Y-68580000D02*
X100965000Y-66040000D01*
X100965000Y-66040000D02*
X100965000Y-53340000D01*
X100203000Y-52578000D02*
X100203000Y-49885600D01*
X100965000Y-53340000D02*
X100203000Y-52578000D01*
X100203000Y-49885600D02*
X101600000Y-48488600D01*
%TO.N,Net-(J14-Pin_1)*%
X101600000Y-51028600D02*
X101600000Y-68580000D01*
X101600000Y-68580000D02*
X99060000Y-71120000D01*
X99060000Y-71120000D02*
X96520000Y-71120000D01*
D30*
%TO.N,GND*%
X37380000Y-97765000D02*
X37355000Y-97790000D01*
D28*
%TO.N,+5V*%
X56490000Y-111095000D02*
X58390000Y-111095000D01*
D30*
X90600000Y-158432500D02*
X98107500Y-158432500D01*
X86360000Y-158432500D02*
X90600000Y-158432500D01*
D28*
X56515000Y-111125000D02*
X52070000Y-111125000D01*
D30*
X92862400Y-124485400D02*
X92837000Y-124460000D01*
X100945000Y-151745000D02*
X100330000Y-151130000D01*
X40750000Y-124570000D02*
X38735000Y-124570000D01*
X100965000Y-145415000D02*
X102235000Y-145415000D01*
X55905000Y-124475000D02*
X67310000Y-124475000D01*
X71755000Y-124460000D02*
X67325000Y-124460000D01*
D28*
X59690000Y-112395000D02*
X61595000Y-114300000D01*
D30*
X43815000Y-127635000D02*
X40750000Y-124570000D01*
X100152200Y-124485400D02*
X92862400Y-124485400D01*
X67325000Y-124460000D02*
X67310000Y-124475000D01*
D28*
X61595000Y-114300000D02*
X61595000Y-116205000D01*
D30*
X103445000Y-153670000D02*
X100945000Y-153670000D01*
X92837000Y-124460000D02*
X78232000Y-124460000D01*
X100945000Y-153670000D02*
X100945000Y-151745000D01*
X48895000Y-128270000D02*
X48260000Y-127635000D01*
X100330000Y-151130000D02*
X100330000Y-146050000D01*
X48260000Y-127635000D02*
X43815000Y-127635000D01*
D28*
X58390000Y-111095000D02*
X59690000Y-112395000D01*
D30*
X102235000Y-145415000D02*
X112395000Y-145415000D01*
X100330000Y-146050000D02*
X100965000Y-145415000D01*
D29*
%TO.N,Net-(D3-SIGNAL)*%
X64770000Y-128260000D02*
X64770000Y-131445000D01*
X63525000Y-127015000D02*
X64770000Y-128260000D01*
%TO.N,Net-(D4-SIGNAL)*%
X67310000Y-131445000D02*
X67310000Y-127015000D01*
%TO.N,Net-(D5-SIGNAL)*%
X62230000Y-129530000D02*
X62230000Y-131445000D01*
X59715000Y-127015000D02*
X62230000Y-129530000D01*
%TO.N,Net-(D6-SIGNAL)*%
X55905000Y-127015000D02*
X59690000Y-130800000D01*
X59690000Y-130800000D02*
X59690000Y-131445000D01*
%TO.N,Net-(D7-SIGNAL)*%
X53975000Y-119380000D02*
X53975000Y-116150000D01*
X57150000Y-130810000D02*
X57150000Y-131445000D01*
X53975000Y-127635000D02*
X57150000Y-130810000D01*
X53975000Y-124460000D02*
X53975000Y-127635000D01*
X53975000Y-116150000D02*
X56490000Y-113635000D01*
%TO.N,Net-(D8-SIGNAL)*%
X49530000Y-114935000D02*
X50815000Y-113650000D01*
X49530000Y-127000000D02*
X49530000Y-114935000D01*
X52705000Y-127635000D02*
X50165000Y-127635000D01*
X52705000Y-127635000D02*
X54610000Y-129540000D01*
X50165000Y-127635000D02*
X49530000Y-127000000D01*
X54610000Y-129540000D02*
X54610000Y-131445000D01*
X50815000Y-113650000D02*
X52070000Y-113650000D01*
%TO.N,Net-(J2-Pin_1)*%
X139725000Y-99670000D02*
X145390000Y-99670000D01*
X139700000Y-99695000D02*
X139725000Y-99670000D01*
X131445000Y-97790000D02*
X137795000Y-97790000D01*
X130810000Y-99695000D02*
X130810000Y-98425000D01*
X137795000Y-97790000D02*
X139700000Y-99695000D01*
X130810000Y-98425000D02*
X131445000Y-97790000D01*
%TO.N,Net-(J2-Pin_2)*%
X139725000Y-97130000D02*
X145390000Y-97130000D01*
X139065000Y-96520000D02*
X139700000Y-97155000D01*
X139700000Y-97155000D02*
X139725000Y-97130000D01*
X128270000Y-98425000D02*
X130175000Y-96520000D01*
X128270000Y-99695000D02*
X128270000Y-98425000D01*
X130175000Y-96520000D02*
X139065000Y-96520000D01*
%TO.N,Net-(J2-Pin_3)*%
X129540000Y-94615000D02*
X129565000Y-94590000D01*
X129565000Y-94590000D02*
X145390000Y-94590000D01*
X125730000Y-97155000D02*
X128270000Y-94615000D01*
X128270000Y-94615000D02*
X129540000Y-94615000D01*
X125730000Y-99695000D02*
X125730000Y-97155000D01*
%TO.N,Net-(J2-Pin_4)*%
X127025000Y-92050000D02*
X127000000Y-92075000D01*
X145390000Y-92050000D02*
X127025000Y-92050000D01*
X127000000Y-92075000D02*
X125730000Y-92075000D01*
X123190000Y-89535000D02*
X123190000Y-86995000D01*
X125730000Y-92075000D02*
X123190000Y-89535000D01*
%TO.N,Net-(J2-Pin_5)*%
X120650000Y-81915000D02*
X122555000Y-83820000D01*
X143535000Y-89510000D02*
X145390000Y-89510000D01*
X137795000Y-83820000D02*
X143510000Y-89535000D01*
X143510000Y-89535000D02*
X143535000Y-89510000D01*
X123190000Y-67310000D02*
X123190000Y-69215000D01*
X123190000Y-69215000D02*
X120650000Y-71755000D01*
X122555000Y-83820000D02*
X137795000Y-83820000D01*
X120650000Y-71755000D02*
X120650000Y-81915000D01*
%TO.N,Net-(J2-Pin_6)*%
X145390000Y-86970000D02*
X140970000Y-82550000D01*
X116840000Y-78740000D02*
X116840000Y-53340000D01*
X140970000Y-82550000D02*
X123825000Y-82550000D01*
X116840000Y-53340000D02*
X117475000Y-52705000D01*
%TO.N,Net-(J3-Pin_1)*%
X51435000Y-124475000D02*
X52690000Y-124475000D01*
X96400000Y-187960000D02*
X96400000Y-184665000D01*
X53975000Y-120650000D02*
X55245000Y-119380000D01*
X52690000Y-124475000D02*
X53975000Y-123190000D01*
X53975000Y-123190000D02*
X53975000Y-120650000D01*
X55245000Y-119380000D02*
X70866000Y-119380000D01*
X96400000Y-184665000D02*
X95250000Y-183515000D01*
X70866000Y-119380000D02*
X71120000Y-119380000D01*
%TO.N,Net-(J3-Pin_2)*%
X51435000Y-121935000D02*
X51435000Y-119380000D01*
X96520000Y-180230000D02*
X96520000Y-179705000D01*
X91440000Y-163195000D02*
X89535000Y-161290000D01*
X96520000Y-179705000D02*
X95250000Y-178435000D01*
X91440000Y-174625000D02*
X91440000Y-163195000D01*
X92075000Y-175260000D02*
X91440000Y-174625000D01*
X76454000Y-127508000D02*
X76454000Y-120650000D01*
X59055000Y-118110000D02*
X71120000Y-118110000D01*
X89535000Y-161290000D02*
X87630000Y-161290000D01*
X78994000Y-130048000D02*
X76454000Y-127508000D01*
X51435000Y-119380000D02*
X52070000Y-118745000D01*
D28*
%TO.N,+3.3V*%
X130810000Y-155575000D02*
X130175000Y-154940000D01*
X143510000Y-46275000D02*
X140890000Y-46275000D01*
X140335000Y-133985000D02*
X139065000Y-135255000D01*
X78740000Y-83185000D02*
X78740000Y-77470000D01*
X140375000Y-172680000D02*
X143510000Y-172680000D01*
X130810000Y-130810000D02*
X125730000Y-130810000D01*
X54102000Y-78232000D02*
X50800000Y-74930000D01*
X141605000Y-65405000D02*
X145923000Y-65405000D01*
X48895000Y-59055000D02*
X50800000Y-60960000D01*
X48260000Y-114290000D02*
X45195000Y-117355000D01*
X143510000Y-172680000D02*
X145455000Y-172680000D01*
X69850000Y-85090000D02*
X73660000Y-85090000D01*
X62000000Y-85090000D02*
X66040000Y-85090000D01*
X39330000Y-132715000D02*
X39330000Y-130770000D01*
X50800000Y-74930000D02*
X50800000Y-60960000D01*
X136525000Y-37465000D02*
X133350000Y-37465000D01*
X35560000Y-57785000D02*
X36830000Y-56515000D01*
X146812000Y-124460000D02*
X146177000Y-125095000D01*
X139065000Y-160655000D02*
X138430000Y-160020000D01*
X138430000Y-160020000D02*
X135255000Y-160020000D01*
X139065000Y-135255000D02*
X135255000Y-135255000D01*
X33670000Y-37450000D02*
X34925000Y-36195000D01*
X34925000Y-36195000D02*
X35005000Y-36275000D01*
X76835000Y-85090000D02*
X78740000Y-83185000D01*
X144780000Y-125095000D02*
X140335000Y-129540000D01*
X45115000Y-117435000D02*
X45195000Y-117355000D01*
X35560000Y-84455000D02*
X38100000Y-84455000D01*
X111870000Y-169020000D02*
X111870000Y-166330000D01*
D30*
X97680000Y-144890000D02*
X101854000Y-140716000D01*
D28*
X35005000Y-36275000D02*
X37465000Y-36275000D01*
X111165000Y-186015000D02*
X113030000Y-184150000D01*
X48260000Y-92710000D02*
X48260000Y-114290000D01*
X111165000Y-187960000D02*
X111165000Y-186015000D01*
X33670000Y-127015000D02*
X33670000Y-119960000D01*
X145335000Y-46275000D02*
X143510000Y-46275000D01*
X137795000Y-175260000D02*
X140375000Y-172680000D01*
X141605000Y-152400000D02*
X140970000Y-153035000D01*
X145415000Y-152400000D02*
X141605000Y-152400000D01*
D30*
X109795000Y-166370000D02*
X111620000Y-166370000D01*
D28*
X113030000Y-184150000D02*
X113030000Y-170180000D01*
D30*
X103475000Y-171330000D02*
X104835000Y-171330000D01*
D28*
X55880000Y-87605000D02*
X57175000Y-87605000D01*
X138430000Y-43815000D02*
X138430000Y-39370000D01*
X39370000Y-83185000D02*
X43180000Y-83185000D01*
X33670000Y-55895000D02*
X33670000Y-37450000D01*
X134620000Y-175260000D02*
X137795000Y-175260000D01*
X142240000Y-102235000D02*
X146812000Y-106807000D01*
D30*
X86520000Y-180230000D02*
X86520000Y-178910000D01*
X96460000Y-144890000D02*
X97680000Y-144890000D01*
D28*
X130175000Y-154940000D02*
X125730000Y-154940000D01*
X146177000Y-125095000D02*
X144780000Y-125095000D01*
X145923000Y-65405000D02*
X147142200Y-64185800D01*
D30*
X93960000Y-144890000D02*
X96460000Y-144890000D01*
D28*
X139700000Y-154305000D02*
X139700000Y-157480000D01*
X38100000Y-84455000D02*
X38735000Y-83820000D01*
D30*
X111760000Y-138430000D02*
X111760000Y-137795000D01*
D28*
X35560000Y-57785000D02*
X33670000Y-55895000D01*
X50140000Y-87605000D02*
X55880000Y-87605000D01*
X145415000Y-160655000D02*
X139065000Y-160655000D01*
X146685000Y-171450000D02*
X146685000Y-161925000D01*
D30*
X99060000Y-177165000D02*
X100330000Y-175895000D01*
D28*
X139700000Y-158750000D02*
X138430000Y-160020000D01*
X113030000Y-170180000D02*
X111870000Y-169020000D01*
X37465000Y-36275000D02*
X46355000Y-36275000D01*
D30*
X86520000Y-178910000D02*
X88265000Y-177165000D01*
D28*
X147142200Y-48082200D02*
X145335000Y-46275000D01*
X38100000Y-129540000D02*
X36195000Y-129540000D01*
X140890000Y-46275000D02*
X138430000Y-43815000D01*
X33670000Y-119960000D02*
X36195000Y-117435000D01*
X135890000Y-67310000D02*
X139700000Y-67310000D01*
X48895000Y-86360000D02*
X50140000Y-87605000D01*
D30*
X86520000Y-180230000D02*
X86520000Y-187840000D01*
D28*
X140970000Y-153035000D02*
X139700000Y-154305000D01*
X139700000Y-67310000D02*
X141605000Y-65405000D01*
X57175000Y-87605000D02*
X59690000Y-85090000D01*
X36830000Y-56515000D02*
X43180000Y-56515000D01*
X138430000Y-39370000D02*
X136525000Y-37465000D01*
X146685000Y-161925000D02*
X145415000Y-160655000D01*
X73660000Y-85090000D02*
X76835000Y-85090000D01*
D30*
X109474000Y-140716000D02*
X111760000Y-138430000D01*
X101854000Y-140716000D02*
X109474000Y-140716000D01*
D28*
X39330000Y-130770000D02*
X38100000Y-129540000D01*
X139700000Y-157480000D02*
X139700000Y-158750000D01*
X59690000Y-85090000D02*
X62000000Y-85090000D01*
X130810000Y-40005000D02*
X117475000Y-40005000D01*
X145455000Y-172680000D02*
X146685000Y-171450000D01*
X36195000Y-129540000D02*
X33670000Y-127015000D01*
X147142200Y-64185800D02*
X147142200Y-48082200D01*
X146812000Y-106807000D02*
X146812000Y-124460000D01*
X133350000Y-37465000D02*
X130810000Y-40005000D01*
D30*
X88265000Y-177165000D02*
X99060000Y-177165000D01*
D28*
X78740000Y-77470000D02*
X79375000Y-76835000D01*
D30*
X86520000Y-187840000D02*
X86400000Y-187960000D01*
X104835000Y-171330000D02*
X109795000Y-166370000D01*
D28*
X140335000Y-129540000D02*
X140335000Y-133985000D01*
X55880000Y-87605000D02*
X53365000Y-87605000D01*
X50800000Y-60960000D02*
X55880000Y-60960000D01*
X53365000Y-87605000D02*
X48260000Y-92710000D01*
X66040000Y-85090000D02*
X69850000Y-85090000D01*
D30*
X111760000Y-137795000D02*
X111760000Y-127635000D01*
D28*
X79375000Y-76835000D02*
X79375000Y-76290000D01*
X36195000Y-117435000D02*
X45115000Y-117435000D01*
X38735000Y-83820000D02*
X39370000Y-83185000D01*
D29*
%TO.N,SDA1*%
X69215000Y-97790000D02*
X67310000Y-97790000D01*
X45720000Y-133985000D02*
X46355000Y-134620000D01*
X111760000Y-60960000D02*
X115316000Y-64516000D01*
X67310000Y-97790000D02*
X66040000Y-96520000D01*
X101854000Y-101346000D02*
X81026000Y-101346000D01*
X119380000Y-86868000D02*
X119380000Y-98552000D01*
X117094000Y-80772000D02*
X117094000Y-84582000D01*
X115316000Y-78994000D02*
X117094000Y-80772000D01*
X71755000Y-134620000D02*
X74295000Y-132080000D01*
X46355000Y-134620000D02*
X71755000Y-134620000D01*
X66040000Y-96520000D02*
X66040000Y-95250000D01*
X74295000Y-102870000D02*
X69215000Y-97790000D01*
X115316000Y-64516000D02*
X115316000Y-78994000D01*
X45720000Y-132715000D02*
X45720000Y-133985000D01*
X117094000Y-84582000D02*
X119380000Y-86868000D01*
X74295000Y-132080000D02*
X74295000Y-102870000D01*
%TO.N,SCL1*%
X73025000Y-130175000D02*
X69850000Y-133350000D01*
X73025000Y-105410000D02*
X73025000Y-130175000D01*
X62865000Y-97155000D02*
X64770000Y-97155000D01*
X116078000Y-84836000D02*
X118110000Y-86868000D01*
X62230000Y-95250000D02*
X62230000Y-96520000D01*
X69850000Y-133350000D02*
X52705000Y-133350000D01*
X52705000Y-133350000D02*
X52070000Y-132715000D01*
X111760000Y-63500000D02*
X114046000Y-65786000D01*
X116078000Y-81534000D02*
X116078000Y-84836000D01*
X62230000Y-96520000D02*
X62865000Y-97155000D01*
X100076000Y-103124000D02*
X81026000Y-103124000D01*
X52070000Y-132715000D02*
X48220000Y-132715000D01*
X100838000Y-102362000D02*
X100076000Y-103124000D01*
X114046000Y-65786000D02*
X114046000Y-79502000D01*
X118110000Y-86868000D02*
X118110000Y-97282000D01*
X114046000Y-79502000D02*
X116078000Y-81534000D01*
X64770000Y-97155000D02*
X73025000Y-105410000D01*
%TO.N,Net-(J7-Pin_1)*%
X69215000Y-104775000D02*
X68025000Y-103585000D01*
X67310000Y-114935000D02*
X67310000Y-113030000D01*
X69215000Y-111125000D02*
X69215000Y-104775000D01*
X67310000Y-113030000D02*
X69215000Y-111125000D01*
X68025000Y-103585000D02*
X66040000Y-103585000D01*
%TO.N,Net-(J8-Pin_1)*%
X87630000Y-74930000D02*
X84840000Y-72140000D01*
X87630000Y-80645000D02*
X87630000Y-74930000D01*
X84840000Y-72140000D02*
X78090000Y-72140000D01*
%TO.N,Net-(J8-Pin_2)*%
X85090000Y-74930000D02*
X83820000Y-73660000D01*
X83820000Y-73660000D02*
X77070000Y-73660000D01*
X85090000Y-80645000D02*
X85090000Y-74930000D01*
X77070000Y-73660000D02*
X75550000Y-72140000D01*
%TO.N,Net-(J8-Pin_3)*%
X81280000Y-74295000D02*
X75165000Y-74295000D01*
X82550000Y-75565000D02*
X81280000Y-74295000D01*
X75165000Y-74295000D02*
X73010000Y-72140000D01*
X82550000Y-80645000D02*
X82550000Y-75565000D01*
%TO.N,Net-(J10-Pin_1)*%
X50800000Y-53975000D02*
X50800000Y-55880000D01*
X50800000Y-55880000D02*
X43180000Y-63500000D01*
%TO.N,Net-(J10-Pin_2)*%
X48260000Y-55880000D02*
X43180000Y-60960000D01*
X48260000Y-53975000D02*
X48260000Y-55880000D01*
%TO.N,Net-(J10-Pin_3)*%
X45720000Y-53975000D02*
X45720000Y-55880000D01*
X45720000Y-55880000D02*
X43180000Y-58420000D01*
%TO.N,Net-(J10-Pin_4)*%
X52070000Y-52070000D02*
X55880000Y-55880000D01*
X43180000Y-53975000D02*
X45085000Y-52070000D01*
X55880000Y-55880000D02*
X55880000Y-58420000D01*
X45085000Y-52070000D02*
X52070000Y-52070000D01*
%TO.N,Net-(J11-Pin_1)*%
X50800000Y-82525000D02*
X43180000Y-90145000D01*
X50800000Y-80645000D02*
X50800000Y-82525000D01*
%TO.N,Net-(J11-Pin_2)*%
X48260000Y-80645000D02*
X48260000Y-82525000D01*
X48260000Y-82525000D02*
X43180000Y-87605000D01*
%TO.N,Net-(J11-Pin_3)*%
X45720000Y-80645000D02*
X45720000Y-82525000D01*
X45720000Y-82525000D02*
X43180000Y-85065000D01*
%TO.N,Net-(J11-Pin_4)*%
X55880000Y-81915000D02*
X55880000Y-85065000D01*
X43180000Y-80645000D02*
X45085000Y-78740000D01*
X45085000Y-78740000D02*
X52705000Y-78740000D01*
X52705000Y-78740000D02*
X55880000Y-81915000D01*
%TO.N,Net-(J12-Pin_1)*%
X128270000Y-162560000D02*
X128270000Y-159385000D01*
X135255000Y-152400000D02*
X138430000Y-152400000D01*
X128270000Y-159385000D02*
X135255000Y-152400000D01*
%TO.N,Net-(J12-Pin_2)*%
X130810000Y-162560000D02*
X130810000Y-160020000D01*
X135890000Y-154940000D02*
X138430000Y-154940000D01*
X130810000Y-160020000D02*
X135890000Y-154940000D01*
%TO.N,Net-(J12-Pin_3)*%
X136525000Y-157480000D02*
X138430000Y-157480000D01*
X133350000Y-160655000D02*
X136525000Y-157480000D01*
X133350000Y-162560000D02*
X133350000Y-160655000D01*
%TO.N,Net-(J12-Pin_4)*%
X135890000Y-162560000D02*
X135890000Y-163830000D01*
X135255000Y-164465000D02*
X126365000Y-164465000D01*
X125095000Y-158115000D02*
X125730000Y-157480000D01*
X126365000Y-164465000D02*
X125095000Y-163195000D01*
X125095000Y-163195000D02*
X125095000Y-158115000D01*
X135890000Y-163830000D02*
X135255000Y-164465000D01*
%TO.N,Net-(J13-Pin_1)*%
X135255000Y-128270000D02*
X138430000Y-128270000D01*
X127000000Y-137795000D02*
X127000000Y-136525000D01*
X127000000Y-136525000D02*
X135255000Y-128270000D01*
%TO.N,Net-(J13-Pin_2)*%
X129540000Y-137795000D02*
X129540000Y-136525000D01*
X129540000Y-136525000D02*
X135255000Y-130810000D01*
X135255000Y-130810000D02*
X138430000Y-130810000D01*
%TO.N,Net-(J13-Pin_3)*%
X132080000Y-136525000D02*
X135255000Y-133350000D01*
X135255000Y-133350000D02*
X138430000Y-133350000D01*
X132080000Y-137795000D02*
X132080000Y-136525000D01*
%TO.N,Net-(J13-Pin_4)*%
X133350000Y-139700000D02*
X125095000Y-139700000D01*
X125095000Y-139700000D02*
X124460000Y-139065000D01*
X124460000Y-134620000D02*
X125730000Y-133350000D01*
X134620000Y-137795000D02*
X134620000Y-138430000D01*
X124460000Y-139065000D02*
X124460000Y-134620000D01*
X134620000Y-138430000D02*
X133350000Y-139700000D01*
%TO.N,Net-(J16-Pin_1)*%
X66040000Y-50890000D02*
X71755000Y-56605000D01*
X73025000Y-74549000D02*
X73025000Y-77724000D01*
X75565000Y-80264000D02*
X75565000Y-80645000D01*
X71374000Y-70358000D02*
X71374000Y-72898000D01*
X71755000Y-56605000D02*
X71755000Y-69977000D01*
X71755000Y-69977000D02*
X71374000Y-70358000D01*
X73025000Y-77724000D02*
X75565000Y-80264000D01*
X71374000Y-72898000D02*
X73025000Y-74549000D01*
%TO.N,Net-(J16-Pin_2)*%
X70104000Y-74168000D02*
X70104000Y-77724000D01*
X70612000Y-73660000D02*
X70104000Y-74168000D01*
X70104000Y-77724000D02*
X73025000Y-80645000D01*
X70612000Y-58002000D02*
X70612000Y-73660000D01*
X66040000Y-53430000D02*
X70612000Y-58002000D01*
%TO.N,Net-(J16-Pin_3)*%
X70485000Y-79375000D02*
X70485000Y-80645000D01*
X66040000Y-55970000D02*
X69850000Y-59780000D01*
X69215000Y-73025000D02*
X69215000Y-78105000D01*
X69850000Y-72390000D02*
X69215000Y-73025000D01*
X69215000Y-78105000D02*
X70485000Y-79375000D01*
X69850000Y-59780000D02*
X69850000Y-72390000D01*
%TO.N,Net-(J16-Pin_4)*%
X67945000Y-71755000D02*
X67945000Y-80645000D01*
X69088000Y-70612000D02*
X67945000Y-71755000D01*
X66040000Y-58510000D02*
X69088000Y-61558000D01*
X69088000Y-61558000D02*
X69088000Y-70612000D01*
%TO.N,Net-(J16-Pin_5)*%
X65405000Y-72390000D02*
X65405000Y-80645000D01*
X66040000Y-61050000D02*
X68326000Y-63336000D01*
X68326000Y-69469000D02*
X65405000Y-72390000D01*
X68326000Y-63336000D02*
X68326000Y-69469000D01*
%TO.N,Net-(J16-Pin_6)*%
X66765000Y-63590000D02*
X66040000Y-63590000D01*
X67564000Y-64389000D02*
X66765000Y-63590000D01*
X62865000Y-80645000D02*
X62865000Y-72390000D01*
X67564000Y-67691000D02*
X67564000Y-64389000D01*
X62865000Y-72390000D02*
X67564000Y-67691000D01*
%TO.N,Net-(J16-Pin_7)*%
X60325000Y-73025000D02*
X60325000Y-80645000D01*
X66040000Y-67310000D02*
X60325000Y-73025000D01*
X66040000Y-66130000D02*
X66040000Y-67310000D01*
%TO.N,SDA*%
X109715000Y-161370000D02*
X111620000Y-161370000D01*
X95885000Y-131445000D02*
X91440000Y-127000000D01*
X101600000Y-167005000D02*
X102315000Y-166290000D01*
X101600000Y-173990000D02*
X101600000Y-167005000D01*
X57150000Y-106680000D02*
X60325000Y-106680000D01*
X115214400Y-144475200D02*
X113233200Y-142494000D01*
X94020000Y-180230000D02*
X94020000Y-187840000D01*
X127635000Y-50165000D02*
X127000000Y-50165000D01*
X63500000Y-105410000D02*
X63500000Y-101600000D01*
X142875000Y-41275000D02*
X140335000Y-43815000D01*
X62230000Y-106680000D02*
X63500000Y-105410000D01*
X91440000Y-121285000D02*
X89916000Y-119761000D01*
X102743000Y-136525000D02*
X102235000Y-136525000D01*
X94020000Y-187840000D02*
X93900000Y-187960000D01*
X111760000Y-36195000D02*
X89027000Y-36195000D01*
X51435000Y-107950000D02*
X52705000Y-106680000D01*
X37465000Y-41275000D02*
X46355000Y-41275000D01*
X97155000Y-131445000D02*
X96520000Y-131445000D01*
X113233200Y-142494000D02*
X106934000Y-142494000D01*
X73152000Y-89408000D02*
X73660000Y-89916000D01*
X36195000Y-112435000D02*
X45115000Y-112435000D01*
X78105000Y-99695000D02*
X73660000Y-95250000D01*
X102235000Y-136525000D02*
X97155000Y-131445000D01*
X52705000Y-106680000D02*
X57150000Y-106680000D01*
X83185000Y-119761000D02*
X78105000Y-114681000D01*
X82931000Y-35941000D02*
X82931000Y-45593000D01*
X104648000Y-138430000D02*
X104140000Y-137922000D01*
X115214400Y-157985600D02*
X115214400Y-144475200D01*
X102315000Y-166290000D02*
X103505000Y-166290000D01*
X104648000Y-139192000D02*
X104648000Y-138430000D01*
X115570000Y-54610000D02*
X115570000Y-52070000D01*
X104775000Y-177165000D02*
X101600000Y-173990000D01*
X111870000Y-161330000D02*
X115214400Y-157985600D01*
X125730000Y-67310000D02*
X125730000Y-51435000D01*
X104140000Y-137922000D02*
X102743000Y-136525000D01*
X104775000Y-177800000D02*
X104775000Y-177165000D01*
X143510000Y-41275000D02*
X142875000Y-41275000D01*
X127000000Y-50165000D02*
X117475000Y-50165000D01*
X78105000Y-114681000D02*
X78105000Y-99695000D01*
X130175000Y-52705000D02*
X127635000Y-50165000D01*
X111760000Y-58420000D02*
X115570000Y-54610000D01*
X125730000Y-73025000D02*
X126365000Y-73660000D01*
X104775000Y-177800000D02*
X104775000Y-182880000D01*
X60325000Y-106680000D02*
X62230000Y-106680000D01*
X73660000Y-89916000D02*
X73660000Y-95250000D01*
X96520000Y-131445000D02*
X95885000Y-131445000D01*
X115316000Y-39751000D02*
X111760000Y-36195000D01*
X83058000Y-35814000D02*
X82931000Y-35941000D01*
X45115000Y-112435000D02*
X45195000Y-112355000D01*
X103475000Y-166330000D02*
X104755000Y-166330000D01*
X115570000Y-52070000D02*
X117475000Y-50165000D01*
X125730000Y-67310000D02*
X125730000Y-73025000D01*
X125730000Y-51435000D02*
X127000000Y-50165000D01*
X63500000Y-101600000D02*
X64135000Y-100965000D01*
X115316000Y-45974000D02*
X115316000Y-39751000D01*
X82931000Y-45593000D02*
X80518000Y-48006000D01*
X104755000Y-166330000D02*
X109715000Y-161370000D01*
X89916000Y-119761000D02*
X83185000Y-119761000D01*
%TO.N,SCL*%
X107315000Y-177800000D02*
X107315000Y-182880000D01*
X76708000Y-78703000D02*
X74295000Y-76290000D01*
X107315000Y-189865000D02*
X107315000Y-182880000D01*
X103505000Y-163790000D02*
X101640000Y-163790000D01*
X127000000Y-62230000D02*
X128270000Y-63500000D01*
X50165000Y-106680000D02*
X52070000Y-104775000D01*
X100330000Y-172085000D02*
X100330000Y-174414954D01*
X143510000Y-165180000D02*
X138350000Y-165180000D01*
X102108000Y-139192000D02*
X102108000Y-138430000D01*
X114935000Y-47625000D02*
X117475000Y-47625000D01*
X97028000Y-133350000D02*
X95250000Y-133350000D01*
X110998000Y-150876000D02*
X112776000Y-150876000D01*
X77470000Y-82042000D02*
X77470000Y-79502000D01*
X100330000Y-174414954D02*
X102022523Y-176107477D01*
X69850000Y-95250000D02*
X69850000Y-90678000D01*
X77470000Y-79502000D02*
X76708000Y-78740000D01*
X84328000Y-45339000D02*
X83185000Y-46482000D01*
X76200000Y-83312000D02*
X77470000Y-82042000D01*
X120650000Y-55880000D02*
X120650000Y-51435000D01*
X113665000Y-53975000D02*
X113665000Y-48895000D01*
X104140000Y-175260000D02*
X106045000Y-175260000D01*
X109728000Y-152146000D02*
X110998000Y-150876000D01*
X109675000Y-158870000D02*
X111620000Y-158870000D01*
X37465000Y-43775000D02*
X46355000Y-43775000D01*
X45115000Y-109935000D02*
X45195000Y-109855000D01*
X132715000Y-35560000D02*
X130810000Y-35560000D01*
X52070000Y-104775000D02*
X60960000Y-104775000D01*
X128270000Y-63500000D02*
X128270000Y-67310000D01*
X84328000Y-34417000D02*
X84328000Y-45339000D01*
X113665000Y-48895000D02*
X114935000Y-47625000D01*
X91400000Y-187960000D02*
X95210000Y-191770000D01*
X140375000Y-38775000D02*
X138430000Y-36830000D01*
X138430000Y-36830000D02*
X137160000Y-35560000D01*
X106045000Y-175260000D02*
X107315000Y-176530000D01*
X103475000Y-163830000D02*
X104715000Y-163830000D01*
X124460000Y-59690000D02*
X120650000Y-55880000D01*
X91520000Y-180230000D02*
X91520000Y-187840000D01*
X128270000Y-69850000D02*
X128270000Y-71755000D01*
X120650000Y-48895000D02*
X119380000Y-47625000D01*
X137795000Y-165735000D02*
X127635000Y-165735000D01*
X138350000Y-165180000D02*
X137795000Y-165735000D01*
X62230000Y-103505000D02*
X62230000Y-99695000D01*
X101640000Y-163790000D02*
X100330000Y-165100000D01*
X112826800Y-143510000D02*
X105410000Y-143510000D01*
X105410000Y-143510000D02*
X104140000Y-142240000D01*
X105410000Y-191770000D02*
X107315000Y-189865000D01*
X87630000Y-34925000D02*
X125095000Y-34925000D01*
X100330000Y-165100000D02*
X100330000Y-172085000D01*
X69850000Y-90678000D02*
X72136000Y-88392000D01*
X130810000Y-35560000D02*
X128270000Y-38100000D01*
X60960000Y-104775000D02*
X62230000Y-103505000D01*
X84455000Y-34290000D02*
X84328000Y-34417000D01*
X95250000Y-133350000D02*
X88900000Y-127000000D01*
X111760000Y-55880000D02*
X113665000Y-53975000D01*
X95210000Y-191770000D02*
X105410000Y-191770000D01*
X104715000Y-163830000D02*
X109675000Y-158870000D01*
X107315000Y-176530000D02*
X107315000Y-177800000D01*
X91520000Y-187840000D02*
X91400000Y-187960000D01*
X102108000Y-138430000D02*
X101854000Y-138176000D01*
X72136000Y-88392000D02*
X74168000Y-88392000D01*
X111870000Y-158830000D02*
X109728000Y-156688000D01*
X109728000Y-156688000D02*
X109728000Y-152146000D01*
X36195000Y-109935000D02*
X45115000Y-109935000D01*
X125095000Y-34925000D02*
X128270000Y-38100000D01*
X128270000Y-69850000D02*
X128270000Y-67310000D01*
X137160000Y-35560000D02*
X132715000Y-35560000D01*
X124460000Y-41910000D02*
X118745000Y-47625000D01*
X76708000Y-78740000D02*
X76708000Y-78703000D01*
X114249200Y-144932400D02*
X112826800Y-143510000D01*
X101854000Y-138176000D02*
X97028000Y-133350000D01*
X119380000Y-47625000D02*
X117475000Y-47625000D01*
X114249200Y-149402800D02*
X114249200Y-144932400D01*
X83185000Y-46482000D02*
X83185000Y-47625000D01*
X143510000Y-38775000D02*
X140375000Y-38775000D01*
X112776000Y-150876000D02*
X114249200Y-149402800D01*
X118745000Y-47625000D02*
X117475000Y-47625000D01*
%TO.N,Net-(J20-Pin_1)*%
X132080000Y-52705000D02*
X132080000Y-43180000D01*
X142875000Y-64135000D02*
X131445000Y-64135000D01*
X131445000Y-64135000D02*
X130175000Y-62865000D01*
X130175000Y-54610000D02*
X132080000Y-52705000D01*
X132080000Y-43180000D02*
X135255000Y-40005000D01*
X130175000Y-62865000D02*
X130175000Y-54610000D01*
X145415000Y-61595000D02*
X142875000Y-64135000D01*
%TO.N,Net-(J20-Pin_2)*%
X128270000Y-57785000D02*
X128270000Y-52705000D01*
X128905000Y-58420000D02*
X128270000Y-57785000D01*
X133350000Y-44450000D02*
X135255000Y-42545000D01*
%TO.N,Net-(J20-Pin_3)*%
X140335000Y-48895000D02*
X136525000Y-45085000D01*
X136525000Y-45085000D02*
X135255000Y-45085000D01*
X140335000Y-61595000D02*
X140335000Y-48895000D01*
%TO.N,Net-(J20-Pin_4)*%
X138430000Y-57150000D02*
X138430000Y-49530000D01*
X138430000Y-49530000D02*
X136525000Y-47625000D01*
X137795000Y-61595000D02*
X137795000Y-57785000D01*
X137795000Y-57785000D02*
X138430000Y-57150000D01*
X136525000Y-47625000D02*
X135255000Y-47625000D01*
%TO.N,Net-(J20-Pin_5)*%
X135255000Y-55245000D02*
X137160000Y-53340000D01*
X137160000Y-52070000D02*
X135255000Y-50165000D01*
X135255000Y-61595000D02*
X135255000Y-55245000D01*
X137160000Y-53340000D02*
X137160000Y-52070000D01*
%TO.N,Net-(J20-Pin_6)*%
X132715000Y-61595000D02*
X132715000Y-55245000D01*
X132715000Y-55245000D02*
X135255000Y-52705000D01*
%TO.N,Net-(J21-Pin_1)*%
X145415000Y-80010000D02*
X135890000Y-80010000D01*
%TO.N,Net-(J21-Pin_2)*%
X134620000Y-77470000D02*
X145415000Y-77470000D01*
X133350000Y-80010000D02*
X133350000Y-78740000D01*
X133350000Y-78740000D02*
X134620000Y-77470000D01*
%TO.N,Net-(J21-Pin_3)*%
X130810000Y-80010000D02*
X130810000Y-78740000D01*
X134620000Y-74930000D02*
X145415000Y-74930000D01*
X130810000Y-78740000D02*
X134620000Y-74930000D01*
%TO.N,Net-(J21-Pin_4)*%
X128270000Y-80010000D02*
X128270000Y-78740000D01*
X134620000Y-72390000D02*
X145415000Y-72390000D01*
X128270000Y-78740000D02*
X134620000Y-72390000D01*
%TO.N,Net-(J21-Pin_5)*%
X143510000Y-70485000D02*
X144145000Y-69850000D01*
X125730000Y-80010000D02*
X125730000Y-78740000D01*
X133985000Y-70485000D02*
X143510000Y-70485000D01*
X144145000Y-69850000D02*
X145415000Y-69850000D01*
X125730000Y-78740000D02*
X133985000Y-70485000D01*
%TO.N,Net-(J21-Pin_6)*%
X123190000Y-80010000D02*
X123190000Y-78740000D01*
X123190000Y-78740000D02*
X132715000Y-69215000D01*
X132715000Y-69215000D02*
X140335000Y-69215000D01*
X142240000Y-67310000D02*
X145415000Y-67310000D01*
X140335000Y-69215000D02*
X142240000Y-67310000D01*
%TO.N,Net-(J22-Pin_1)*%
X135890000Y-103505000D02*
X132690000Y-106705000D01*
X135890000Y-99695000D02*
X135890000Y-103505000D01*
X132690000Y-106705000D02*
X128885000Y-106705000D01*
%TO.N,Net-(J22-Pin_2)*%
X131445000Y-102870000D02*
X127635000Y-102870000D01*
X127635000Y-102870000D02*
X126345000Y-104160000D01*
X133350000Y-99695000D02*
X133350000Y-100965000D01*
X126345000Y-104160000D02*
X126345000Y-106705000D01*
X133350000Y-100965000D02*
X131445000Y-102870000D01*
%TO.N,Net-(U1-OUT1)*%
X43180000Y-68580000D02*
X41275000Y-68580000D01*
X41275000Y-68580000D02*
X38100000Y-65405000D01*
X38100000Y-65405000D02*
X35560000Y-65405000D01*
%TO.N,Net-(U1-OUT2)*%
X41275000Y-66040000D02*
X38100000Y-62865000D01*
X43180000Y-66040000D02*
X41275000Y-66040000D01*
X38100000Y-62865000D02*
X35560000Y-62865000D01*
%TO.N,/M1_ENCA*%
X62230000Y-39370000D02*
X52070000Y-49530000D01*
X87757000Y-39370000D02*
X90932000Y-39370000D01*
X52070000Y-49530000D02*
X41275000Y-49530000D01*
X94742000Y-43180000D02*
X96520000Y-43180000D01*
X41275000Y-49530000D02*
X35560000Y-55245000D01*
X90932000Y-39370000D02*
X94742000Y-43180000D01*
X81788000Y-39370000D02*
X62230000Y-39370000D01*
%TO.N,/M1_ENCB*%
X95377000Y-40640000D02*
X96520000Y-40640000D01*
X92202000Y-37465000D02*
X95377000Y-40640000D01*
X87757000Y-37465000D02*
X92202000Y-37465000D01*
%TO.N,Net-(U2-OUT1)*%
X41250000Y-95225000D02*
X38100000Y-92075000D01*
X38100000Y-92075000D02*
X35560000Y-92075000D01*
X43180000Y-95225000D02*
X41250000Y-95225000D01*
%TO.N,Net-(U2-OUT2)*%
X38735000Y-89535000D02*
X35560000Y-89535000D01*
X41885000Y-92685000D02*
X38735000Y-89535000D01*
X43180000Y-92685000D02*
X41885000Y-92685000D01*
%TO.N,/M2_ENCA*%
X75869800Y-49504600D02*
X75844400Y-49530000D01*
X48260000Y-77724000D02*
X49784000Y-77724000D01*
X35560000Y-81915000D02*
X39751000Y-77724000D01*
X39751000Y-77724000D02*
X48260000Y-77724000D01*
X75590400Y-49504600D02*
X74676000Y-50419000D01*
X49784000Y-77724000D02*
X50546000Y-76962000D01*
X94234000Y-45974000D02*
X96520000Y-48260000D01*
X74676000Y-50419000D02*
X74676000Y-54610000D01*
X75869800Y-49504600D02*
X75590400Y-49504600D01*
X87630000Y-45974000D02*
X94234000Y-45974000D01*
%TO.N,/M2_ENCB*%
X74422000Y-47625000D02*
X74295000Y-47625000D01*
X95250000Y-44450000D02*
X96520000Y-45720000D01*
X87630000Y-44450000D02*
X95250000Y-44450000D01*
X74295000Y-47625000D02*
X73025000Y-48895000D01*
X48895000Y-75565000D02*
X47625000Y-76835000D01*
X73025000Y-48895000D02*
X73025000Y-55245000D01*
X38100000Y-76835000D02*
X35560000Y-79375000D01*
X47625000Y-76835000D02*
X38100000Y-76835000D01*
%TO.N,Net-(U3-OUT1)*%
X145415000Y-144780000D02*
X142875000Y-144780000D01*
X142875000Y-144780000D02*
X140335000Y-147320000D01*
X140335000Y-147320000D02*
X138430000Y-147320000D01*
%TO.N,Net-(U3-OUT2)*%
X145415000Y-147320000D02*
X143510000Y-147320000D01*
X143510000Y-147320000D02*
X140970000Y-149860000D01*
X140970000Y-149860000D02*
X138430000Y-149860000D01*
%TO.N,/M3_ENCA*%
X129540000Y-128270000D02*
X132842000Y-124968000D01*
X128524000Y-111252000D02*
X123698000Y-111252000D01*
X129540000Y-128905000D02*
X129540000Y-128270000D01*
X133985000Y-142875000D02*
X132080000Y-140970000D01*
X115062000Y-85090000D02*
X115062000Y-83312000D01*
X133985000Y-151130000D02*
X133985000Y-142875000D01*
X132842000Y-124968000D02*
X132842000Y-115570000D01*
X123698000Y-111252000D02*
X119380000Y-106934000D01*
X113030000Y-81280000D02*
X111760000Y-81280000D01*
X115062000Y-83312000D02*
X113030000Y-81280000D01*
X119380000Y-106934000D02*
X119380000Y-100330000D01*
X116840000Y-97790000D02*
X116840000Y-86868000D01*
X116840000Y-86868000D02*
X115062000Y-85090000D01*
X132842000Y-115570000D02*
X128524000Y-111252000D01*
X119380000Y-100330000D02*
X116840000Y-97790000D01*
%TO.N,/M3_ENCB*%
X113030000Y-83820000D02*
X111760000Y-83820000D01*
X128270000Y-127635000D02*
X128270000Y-127508000D01*
X114046000Y-85598000D02*
X114046000Y-84836000D01*
X114046000Y-84836000D02*
X113030000Y-83820000D01*
X128270000Y-127508000D02*
X131826000Y-123952000D01*
X123444000Y-112522000D02*
X118364000Y-107442000D01*
X115824000Y-98552000D02*
X115824000Y-87376000D01*
X131445000Y-151130000D02*
X131445000Y-142875000D01*
X131826000Y-116332000D02*
X128016000Y-112522000D01*
X118364000Y-107442000D02*
X118364000Y-101092000D01*
X118364000Y-101092000D02*
X115824000Y-98552000D01*
X128016000Y-112522000D02*
X123444000Y-112522000D01*
X115824000Y-87376000D02*
X114046000Y-85598000D01*
X130175000Y-141605000D02*
X129540000Y-140970000D01*
X131826000Y-123952000D02*
X131826000Y-116332000D01*
X131445000Y-142875000D02*
X130175000Y-141605000D01*
%TO.N,Net-(U4-OUT1)*%
X139065000Y-123190000D02*
X138430000Y-123190000D01*
X144780000Y-117475000D02*
X139065000Y-123190000D01*
%TO.N,Net-(U4-OUT2)*%
X144780000Y-120015000D02*
X139065000Y-125730000D01*
X139065000Y-125730000D02*
X138430000Y-125730000D01*
%TO.N,/M4_ENCA*%
X119380000Y-56388000D02*
X118618000Y-55626000D01*
X121666000Y-105918000D02*
X121666000Y-86360000D01*
X135890000Y-115062000D02*
X129794000Y-108966000D01*
X119380000Y-84074000D02*
X119380000Y-56388000D01*
X124714000Y-108966000D02*
X121666000Y-105918000D01*
X129794000Y-108966000D02*
X124714000Y-108966000D01*
X135890000Y-126365000D02*
X135890000Y-115062000D01*
X121666000Y-86360000D02*
X119380000Y-84074000D01*
%TO.N,/M4_ENCB*%
X120650000Y-86614000D02*
X120650000Y-106680000D01*
X124206000Y-110236000D02*
X129032000Y-110236000D01*
X118110000Y-57912000D02*
X118110000Y-84074000D01*
X120650000Y-106680000D02*
X124206000Y-110236000D01*
X118110000Y-84074000D02*
X120650000Y-86614000D01*
X129032000Y-110236000D02*
X133985000Y-115189000D01*
X133985000Y-115189000D02*
X133985000Y-127635000D01*
%TO.N,/U12_XSHUT*%
X141050000Y-36275000D02*
X138430000Y-33655000D01*
X86995000Y-33655000D02*
X85902800Y-34747200D01*
X138430000Y-33655000D02*
X86995000Y-33655000D01*
X143510000Y-36275000D02*
X141050000Y-36275000D01*
X85902800Y-34747200D02*
X85902800Y-47537200D01*
X85902800Y-47537200D02*
X85090000Y-48350000D01*
%TO.N,/M1_IN1*%
X64643000Y-42672000D02*
X76708000Y-42672000D01*
X92456000Y-48006000D02*
X92456000Y-51054000D01*
X92456000Y-51054000D02*
X94742000Y-53340000D01*
X94742000Y-53340000D02*
X96520000Y-53340000D01*
X76708000Y-42672000D02*
X81534000Y-42672000D01*
%TO.N,/M1_IN2*%
X95250000Y-50800000D02*
X96520000Y-50800000D01*
X93980000Y-49530000D02*
X95250000Y-50800000D01*
X64516000Y-40894000D02*
X81788000Y-40894000D01*
X93980000Y-48006000D02*
X93980000Y-49530000D01*
%TO.N,/M2_IN1*%
X91186000Y-59436000D02*
X92202000Y-58420000D01*
X92202000Y-58420000D02*
X96520000Y-58420000D01*
X93472000Y-82296000D02*
X93472000Y-71882000D01*
X93472000Y-71882000D02*
X91186000Y-69596000D01*
X85344000Y-84074000D02*
X86868000Y-84074000D01*
X81026000Y-88392000D02*
X85344000Y-84074000D01*
X91186000Y-69596000D02*
X91186000Y-59436000D01*
X92456000Y-83312000D02*
X93472000Y-82296000D01*
%TO.N,/M2_IN2*%
X80772000Y-86868000D02*
X82842000Y-84798000D01*
X84836000Y-82804000D02*
X88138000Y-82804000D01*
X89916000Y-57658000D02*
X91694000Y-55880000D01*
X92456000Y-72898000D02*
X89916000Y-70358000D01*
X84074000Y-83566000D02*
X84836000Y-82804000D01*
X82842000Y-84798000D02*
X84074000Y-83566000D01*
X92456000Y-81788000D02*
X92456000Y-72898000D01*
X89916000Y-70358000D02*
X89916000Y-57658000D01*
X91694000Y-55880000D02*
X96520000Y-55880000D01*
%TO.N,/M3_IN1*%
X101854000Y-106172000D02*
X101854000Y-105156000D01*
X114046000Y-119126000D02*
X113538000Y-118618000D01*
X101854000Y-113538000D02*
X101854000Y-106172000D01*
X102108000Y-97536000D02*
X102108000Y-87884000D01*
X101854000Y-105156000D02*
X100838000Y-104140000D01*
X114046000Y-120142000D02*
X114046000Y-119126000D01*
X106934000Y-118618000D02*
X105664000Y-117348000D01*
X114808000Y-121412000D02*
X114046000Y-120650000D01*
X113538000Y-118618000D02*
X106934000Y-118618000D01*
X102108000Y-87884000D02*
X100584000Y-86360000D01*
X99822000Y-99822000D02*
X102108000Y-97536000D01*
X100584000Y-86360000D02*
X96520000Y-86360000D01*
X114046000Y-120650000D02*
X114046000Y-120142000D01*
%TO.N,/M3_IN2*%
X98552000Y-99822000D02*
X98552000Y-99314000D01*
X100584000Y-114046000D02*
X100584000Y-105918000D01*
X101600000Y-115062000D02*
X100584000Y-114046000D01*
X100076000Y-88900000D02*
X96520000Y-88900000D01*
X101092000Y-89916000D02*
X100076000Y-88900000D01*
X106426000Y-119634000D02*
X105664000Y-118872000D01*
X101092000Y-96774000D02*
X101092000Y-89916000D01*
X100584000Y-105918000D02*
X99314000Y-104648000D01*
X114808000Y-123190000D02*
X111252000Y-119634000D01*
X98552000Y-99314000D02*
X101092000Y-96774000D01*
X111252000Y-119634000D02*
X106426000Y-119634000D01*
%TO.N,/M4_IN1*%
X124206000Y-114554000D02*
X117348000Y-107696000D01*
X114808000Y-87630000D02*
X113538000Y-86360000D01*
X124206000Y-121666000D02*
X124206000Y-114554000D01*
X125730000Y-123190000D02*
X124206000Y-121666000D01*
X113538000Y-86360000D02*
X111760000Y-86360000D01*
X117348000Y-101600000D02*
X114808000Y-99060000D01*
X117348000Y-107696000D02*
X117348000Y-101600000D01*
X114808000Y-99060000D02*
X114808000Y-87630000D01*
%TO.N,/M4_IN2*%
X116332000Y-108204000D02*
X116332000Y-101854000D01*
X113792000Y-89408000D02*
X113284000Y-88900000D01*
X113792000Y-99314000D02*
X113792000Y-89408000D01*
X113284000Y-88900000D02*
X111760000Y-88900000D01*
X123190000Y-115062000D02*
X116332000Y-108204000D01*
X125730000Y-125730000D02*
X123190000Y-123190000D01*
X116332000Y-101854000D02*
X113792000Y-99314000D01*
X123190000Y-123190000D02*
X123190000Y-115062000D01*
%TO.N,Net-(J23-Pin_2)*%
X139065000Y-178435000D02*
X142835000Y-178435000D01*
X142835000Y-178435000D02*
X143510000Y-179110000D01*
%TO.N,/U13_XSHUT*%
X50245000Y-46275000D02*
X53340000Y-43180000D01*
X46355000Y-46275000D02*
X50245000Y-46275000D01*
X78740000Y-45720000D02*
X78740000Y-50165000D01*
X60198000Y-43180000D02*
X62230000Y-45212000D01*
X78740000Y-50165000D02*
X79465000Y-50890000D01*
X79465000Y-50890000D02*
X85090000Y-50890000D01*
X78232000Y-45212000D02*
X78740000Y-45720000D01*
X62230000Y-45212000D02*
X78232000Y-45212000D01*
%TO.N,/U14_XSHUT*%
X46355000Y-50800000D02*
X53975000Y-50800000D01*
X65532000Y-46482000D02*
X66040000Y-46990000D01*
X41195000Y-46275000D02*
X41910000Y-46990000D01*
X37465000Y-46275000D02*
X41195000Y-46275000D01*
X58293000Y-46482000D02*
X65532000Y-46482000D01*
X66040000Y-46990000D02*
X66040000Y-48350000D01*
X53975000Y-50800000D02*
X58293000Y-46482000D01*
%TO.N,/U15_XSHUT*%
X74840000Y-55970000D02*
X76110000Y-55970000D01*
X37980000Y-107435000D02*
X40640000Y-104775000D01*
X72898000Y-57912000D02*
X74840000Y-55970000D01*
X36195000Y-107435000D02*
X37980000Y-107435000D01*
X78650000Y-53430000D02*
X85090000Y-53430000D01*
X58420000Y-101600000D02*
X58420000Y-88900000D01*
X76110000Y-55970000D02*
X78650000Y-53430000D01*
X40640000Y-104775000D02*
X42545000Y-102870000D01*
X57785000Y-73025000D02*
X61595000Y-69215000D01*
X57785000Y-83820000D02*
X57785000Y-73025000D01*
X57150000Y-102870000D02*
X58420000Y-101600000D01*
X50165000Y-102870000D02*
X55880000Y-102870000D01*
X72898000Y-62230000D02*
X72898000Y-57912000D01*
X42545000Y-102870000D02*
X45720000Y-102870000D01*
X55880000Y-102870000D02*
X57150000Y-102870000D01*
%TO.N,/U16_XSHUT*%
X89662000Y-99060000D02*
X90170000Y-99568000D01*
X89662000Y-86360000D02*
X89662000Y-99060000D01*
X101854000Y-119888000D02*
X94488000Y-119888000D01*
X106680000Y-124714000D02*
X104648000Y-122682000D01*
X91440000Y-84582000D02*
X89662000Y-86360000D01*
X86450000Y-58510000D02*
X88646000Y-60706000D01*
X85090000Y-58510000D02*
X86450000Y-58510000D01*
X90932000Y-116332000D02*
X90170000Y-115570000D01*
X90170000Y-115570000D02*
X90170000Y-105918000D01*
X108204000Y-137414000D02*
X106680000Y-135890000D01*
X90170000Y-105918000D02*
X90170000Y-104648000D01*
X88646000Y-71120000D02*
X91440000Y-73914000D01*
X106680000Y-135890000D02*
X106680000Y-124714000D01*
X91440000Y-73914000D02*
X91440000Y-84582000D01*
X88646000Y-60706000D02*
X88646000Y-71120000D01*
X94488000Y-119888000D02*
X90932000Y-116332000D01*
%TO.N,/U17_XSHUT*%
X88646000Y-85852000D02*
X88646000Y-99441000D01*
X105410000Y-125984000D02*
X103378000Y-123952000D01*
X86196000Y-61050000D02*
X87630000Y-62484000D01*
X87630000Y-71628000D02*
X90424000Y-74422000D01*
X93980000Y-121158000D02*
X88646000Y-115824000D01*
X105410000Y-137160000D02*
X105410000Y-125984000D01*
X90424000Y-74422000D02*
X90424000Y-84074000D01*
X87630000Y-62484000D02*
X87630000Y-71628000D01*
X88646000Y-115824000D02*
X88646000Y-104648000D01*
X107315000Y-139065000D02*
X105410000Y-137160000D01*
X100584000Y-121158000D02*
X93980000Y-121158000D01*
X90424000Y-84074000D02*
X88646000Y-85852000D01*
X85090000Y-61050000D02*
X86196000Y-61050000D01*
%TO.N,/U18_XSHUT*%
X127635000Y-125349000D02*
X128016000Y-125730000D01*
X87122000Y-99314000D02*
X87833200Y-98602800D01*
X127508000Y-140970000D02*
X128905000Y-142367000D01*
X87833200Y-85013800D02*
X89408000Y-83439000D01*
X89408000Y-83439000D02*
X89408000Y-74930000D01*
X91948000Y-110236000D02*
X91694000Y-109982000D01*
X86196000Y-63590000D02*
X85090000Y-63590000D01*
X128905000Y-142367000D02*
X128905000Y-151130000D01*
X127000000Y-116332000D02*
X127635000Y-116967000D01*
X86614000Y-64008000D02*
X86196000Y-63590000D01*
X101600000Y-118618000D02*
X95250000Y-118618000D01*
X87833200Y-98602800D02*
X87833200Y-85013800D01*
X91948000Y-115316000D02*
X91948000Y-110236000D01*
X127635000Y-116967000D02*
X127635000Y-125349000D01*
X95250000Y-118618000D02*
X91948000Y-115316000D01*
X89408000Y-74930000D02*
X86614000Y-72136000D01*
X86614000Y-72136000D02*
X86614000Y-64008000D01*
%TO.N,/U25_XSHUT*%
X76835000Y-69215000D02*
X75565000Y-67945000D01*
X79883000Y-69215000D02*
X76835000Y-69215000D01*
X75565000Y-59055000D02*
X78650000Y-55970000D01*
X78650000Y-55970000D02*
X85090000Y-55970000D01*
X81280000Y-70612000D02*
X79883000Y-69215000D01*
X75565000Y-67945000D02*
X75565000Y-59055000D01*
D30*
%TO.N,/+6V_1*%
X43140000Y-73620000D02*
X43180000Y-73660000D01*
X37355000Y-73620000D02*
X43140000Y-73620000D01*
%TO.N,/+6V_2*%
X37355000Y-100290000D02*
X43165000Y-100290000D01*
X43165000Y-100290000D02*
X43180000Y-100305000D01*
%TO.N,/+6V_3*%
X142835000Y-135930000D02*
X138430000Y-140335000D01*
X138430000Y-140335000D02*
X138430000Y-142240000D01*
X143620000Y-135930000D02*
X142835000Y-135930000D01*
%TO.N,/+6V_4*%
X141510000Y-109260000D02*
X138430000Y-112340000D01*
X138430000Y-112340000D02*
X138430000Y-118110000D01*
X143510000Y-109260000D02*
X141510000Y-109260000D01*
D29*
%TO.N,/TCS34725_LED*%
X79502000Y-86106000D02*
X81026000Y-84582000D01*
X96520000Y-142240000D02*
X96520000Y-136652000D01*
X99020000Y-179030000D02*
X98425000Y-178435000D01*
X83820000Y-118364000D02*
X79502000Y-114046000D01*
X86614000Y-118364000D02*
X83820000Y-118364000D01*
X91948000Y-132080000D02*
X86614000Y-126746000D01*
X92710000Y-172720000D02*
X92710000Y-163195000D01*
X85090000Y-70612000D02*
X85090000Y-66130000D01*
X79502000Y-114046000D02*
X79502000Y-86106000D01*
X95250000Y-175260000D02*
X92710000Y-172720000D01*
X99020000Y-180230000D02*
X99020000Y-179030000D01*
X92710000Y-163195000D02*
X92710000Y-160020000D01*
X96520000Y-136652000D02*
X91948000Y-132080000D01*
X86614000Y-126746000D02*
X86614000Y-126492000D01*
%TO.N,/M5_SIG*%
X87210000Y-148805000D02*
X86156800Y-147751800D01*
X94488000Y-99822000D02*
X94488000Y-76708000D01*
X86156800Y-141808200D02*
X89535000Y-138430000D01*
X94996000Y-76200000D02*
X96520000Y-76200000D01*
X87210000Y-152502500D02*
X87210000Y-148805000D01*
X94488000Y-76708000D02*
X94996000Y-76200000D01*
X92456000Y-107950000D02*
X92456000Y-104648000D01*
X86360000Y-153352500D02*
X87210000Y-152502500D01*
X93980000Y-115062000D02*
X93980000Y-109474000D01*
X86156800Y-147751800D02*
X86156800Y-141808200D01*
X89535000Y-138430000D02*
X89535000Y-137160000D01*
X93980000Y-109474000D02*
X92456000Y-107950000D01*
X93980000Y-100330000D02*
X94488000Y-99822000D01*
%TO.N,/M6_SIG*%
X95504000Y-99949000D02*
X96139000Y-99314000D01*
X96139000Y-99314000D02*
X97155000Y-99314000D01*
X87249000Y-146304000D02*
X87249000Y-142621000D01*
X93980000Y-107950000D02*
X93980000Y-104648000D01*
X98806000Y-78740000D02*
X96520000Y-78740000D01*
X90600000Y-149655000D02*
X87249000Y-146304000D01*
X90805000Y-138049000D02*
X90932000Y-137922000D01*
X99949000Y-79883000D02*
X98806000Y-78740000D01*
X97155000Y-99314000D02*
X99949000Y-96520000D01*
X90805000Y-138430000D02*
X90805000Y-138049000D01*
X90805000Y-139065000D02*
X90805000Y-138430000D01*
X90600000Y-153352500D02*
X90600000Y-149655000D01*
X99949000Y-84963000D02*
X99949000Y-79883000D01*
X87249000Y-142621000D02*
X90805000Y-139065000D01*
X95504000Y-109474000D02*
X93980000Y-107950000D01*
X95504000Y-116840000D02*
X95504000Y-109474000D01*
X99949000Y-96520000D02*
X99949000Y-90551000D01*
%TO.N,/PR4*%
X116205000Y-122555000D02*
X117094000Y-121666000D01*
X117094000Y-121666000D02*
X117094000Y-118364000D01*
X116205000Y-168910000D02*
X116205000Y-122555000D01*
X109982000Y-66040000D02*
X111760000Y-66040000D01*
X113665000Y-186055000D02*
X115570000Y-184150000D01*
X108458000Y-74422000D02*
X108458000Y-67564000D01*
X113665000Y-187960000D02*
X113665000Y-186055000D01*
X115062000Y-116332000D02*
X108712000Y-116332000D01*
X106172000Y-113792000D02*
X106172000Y-92964000D01*
X117094000Y-118364000D02*
X115062000Y-116332000D01*
X120650000Y-173355000D02*
X116205000Y-168910000D01*
X115570000Y-184150000D02*
X115570000Y-176530000D01*
X108458000Y-67564000D02*
X109982000Y-66040000D01*
X106934000Y-92202000D02*
X106934000Y-75946000D01*
X106172000Y-92964000D02*
X106934000Y-92202000D01*
X106934000Y-75946000D02*
X108458000Y-74422000D01*
X108712000Y-116332000D02*
X106172000Y-113792000D01*
X118745000Y-173355000D02*
X120650000Y-173355000D01*
X115570000Y-176530000D02*
X118745000Y-173355000D01*
%TO.N,/PR3*%
X123825000Y-176530000D02*
X124460000Y-175895000D01*
X116165000Y-186095000D02*
X116840000Y-185420000D01*
X120650000Y-176530000D02*
X123825000Y-176530000D01*
X124460000Y-175895000D02*
X124460000Y-173990000D01*
X109474000Y-75184000D02*
X109474000Y-69088000D01*
X116840000Y-185420000D02*
X116840000Y-180340000D01*
X116165000Y-187960000D02*
X116165000Y-186095000D01*
X109220000Y-115316000D02*
X107188000Y-113284000D01*
X107950000Y-92710000D02*
X107950000Y-76708000D01*
X117157500Y-125133100D02*
X117144800Y-125120400D01*
X117144800Y-125120400D02*
X117144800Y-123139200D01*
X118110000Y-117602000D02*
X115824000Y-115316000D01*
X117157500Y-166687500D02*
X117157500Y-125133100D01*
X118110000Y-122174000D02*
X118110000Y-117602000D01*
X107188000Y-93472000D02*
X107950000Y-92710000D01*
X107188000Y-113284000D02*
X107188000Y-93472000D01*
X115824000Y-115316000D02*
X109220000Y-115316000D01*
X109982000Y-68580000D02*
X111760000Y-68580000D01*
X116840000Y-180340000D02*
X120650000Y-176530000D01*
X109474000Y-69088000D02*
X109982000Y-68580000D01*
X117144800Y-123139200D02*
X118110000Y-122174000D01*
X124460000Y-173990000D02*
X117157500Y-166687500D01*
X107950000Y-76708000D02*
X109474000Y-75184000D01*
%TO.N,/PR2*%
X118110000Y-123952000D02*
X119380000Y-122682000D01*
X119380000Y-122682000D02*
X119380000Y-117348000D01*
X119380000Y-117348000D02*
X116332000Y-114300000D01*
X118110000Y-165760400D02*
X118110000Y-123952000D01*
X116332000Y-114300000D02*
X109728000Y-114300000D01*
X109982000Y-76200000D02*
X111760000Y-76200000D01*
X118186200Y-165811200D02*
X118160800Y-165811200D01*
X120650000Y-179705000D02*
X125095000Y-179705000D01*
X118665000Y-187960000D02*
X118665000Y-181690000D01*
X118160800Y-165811200D02*
X118110000Y-165760400D01*
X118665000Y-181690000D02*
X120650000Y-179705000D01*
X108966000Y-93472000D02*
X108966000Y-77216000D01*
X125730000Y-173355000D02*
X118186200Y-165811200D01*
X109728000Y-114300000D02*
X108204000Y-112776000D01*
X125095000Y-179705000D02*
X125730000Y-179070000D01*
X108966000Y-77216000D02*
X109982000Y-76200000D01*
X108204000Y-94234000D02*
X108966000Y-93472000D01*
X108204000Y-112776000D02*
X108204000Y-94234000D01*
X125730000Y-179070000D02*
X125730000Y-173355000D01*
%TO.N,/PR1*%
X121165000Y-187960000D02*
X121165000Y-183395000D01*
X121165000Y-183395000D02*
X120650000Y-182880000D01*
%TO.N,/BMP1*%
X95885000Y-169545000D02*
X93980000Y-167640000D01*
X97790000Y-135890000D02*
X97155000Y-135255000D01*
X97790000Y-141605000D02*
X97790000Y-138430000D01*
X97790000Y-138430000D02*
X97790000Y-135890000D01*
X93980000Y-163195000D02*
X93980000Y-160020000D01*
X93980000Y-167640000D02*
X93980000Y-163195000D01*
X96410000Y-169545000D02*
X95885000Y-169545000D01*
%TO.N,/BMP2*%
X86766400Y-139293600D02*
X86766400Y-138023600D01*
X88900000Y-169545000D02*
X90170000Y-168275000D01*
X86766400Y-138023600D02*
X86766400Y-136753600D01*
X85445600Y-140614400D02*
X86766400Y-139293600D01*
X85115400Y-150495000D02*
X85445600Y-150164800D01*
X84455000Y-151130000D02*
X85090000Y-150495000D01*
X86766400Y-133756400D02*
X85979000Y-132969000D01*
X84455000Y-160020000D02*
X84455000Y-151130000D01*
X84963000Y-116840000D02*
X84963000Y-104775000D01*
X90170000Y-168275000D02*
X90170000Y-165735000D01*
X90170000Y-165735000D02*
X84455000Y-160020000D01*
X85445600Y-150164800D02*
X85445600Y-140614400D01*
X84963000Y-104775000D02*
X85090000Y-104648000D01*
X86766400Y-136753600D02*
X86766400Y-133756400D01*
X85090000Y-150495000D02*
X85115400Y-150495000D01*
X88045000Y-169545000D02*
X88900000Y-169545000D01*
%TO.N,/BMP3*%
X121285000Y-163195000D02*
X121285000Y-116205000D01*
X131445000Y-173355000D02*
X121285000Y-163195000D01*
X114554000Y-102870000D02*
X110236000Y-98552000D01*
X110236000Y-98552000D02*
X110236000Y-95504000D01*
X130215000Y-186015000D02*
X131445000Y-184785000D01*
X114554000Y-109474000D02*
X114554000Y-102870000D01*
X131445000Y-184785000D02*
X131445000Y-173355000D01*
X121285000Y-116205000D02*
X114554000Y-109474000D01*
X110236000Y-95504000D02*
X111760000Y-93980000D01*
X130215000Y-187960000D02*
X130215000Y-186015000D01*
%TO.N,/BMP4*%
X122555000Y-124079000D02*
X122174000Y-123698000D01*
X141605000Y-186055000D02*
X140335000Y-184785000D01*
X115316000Y-102362000D02*
X111760000Y-98806000D01*
X135255000Y-184785000D02*
X132715000Y-182245000D01*
X132715000Y-182245000D02*
X132715000Y-173355000D01*
X141605000Y-187960000D02*
X141605000Y-186055000D01*
X115316000Y-108966000D02*
X115316000Y-102362000D01*
X132715000Y-173355000D02*
X122555000Y-163195000D01*
X111760000Y-98806000D02*
X111760000Y-96520000D01*
X122174000Y-123698000D02*
X122174000Y-115824000D01*
X122555000Y-163195000D02*
X122555000Y-124079000D01*
X140335000Y-184785000D02*
X135255000Y-184785000D01*
X122174000Y-115824000D02*
X115316000Y-108966000D01*
%TO.N,/VBAT_MEAS*%
X110490000Y-53340000D02*
X111760000Y-53340000D01*
X105410000Y-114554000D02*
X105410000Y-92456000D01*
X107442000Y-66294000D02*
X109474000Y-64262000D01*
X128905000Y-182245000D02*
X128905000Y-178435000D01*
X128905000Y-178435000D02*
X128905000Y-172720000D01*
X109474000Y-54356000D02*
X110490000Y-53340000D01*
X105410000Y-92456000D02*
X106172000Y-91694000D01*
X106172000Y-91694000D02*
X106172000Y-74930000D01*
X109474000Y-64262000D02*
X109474000Y-54356000D01*
X128905000Y-172720000D02*
X120015000Y-163830000D01*
X115824000Y-118618000D02*
X114554000Y-117348000D01*
X115824000Y-120142000D02*
X115824000Y-118618000D01*
X106172000Y-74930000D02*
X107442000Y-73660000D01*
X114554000Y-117348000D02*
X108204000Y-117348000D01*
X108204000Y-117348000D02*
X105410000Y-114554000D01*
X107442000Y-73660000D02*
X107442000Y-66294000D01*
X120015000Y-163830000D02*
X120015000Y-125120400D01*
%TD*%
M02*
