%TF.GenerationSoftware,KiCad,Pcbnew,7.0.9*%
%TF.CreationDate,2023-12-07T23:58:00+01:00*%
%TF.ProjectId,kicad_RCJ,6b696361-645f-4524-934a-2e6b69636164,rev?*%
%TF.SameCoordinates,Original*%
%TF.FileFunction,Legend,Bot*%
%TF.FilePolarity,Positive*%
%FSLAX46Y46*%
G04 Gerber Fmt 4.6, Leading zero omitted, Abs format (unit mm)*
G04 Created by KiCad (PCBNEW 7.0.9) date 2023-12-07 23:58:00*
%MOMM*%
%LPD*%
G01*
G04 APERTURE LIST*
G04 Aperture macros list*
%AMRoundRect*
0 Rectangle with rounded corners*
0 $1 Rounding radius*
0 $2 $3 $4 $5 $6 $7 $8 $9 X,Y pos of 4 corners*
0 Add a 4 corners polygon primitive as box body*
4,1,4,$2,$3,$4,$5,$6,$7,$8,$9,$2,$3,0*
0 Add four circle primitives for the rounded corners*
1,1,$1+$1,$2,$3*
1,1,$1+$1,$4,$5*
1,1,$1+$1,$6,$7*
1,1,$1+$1,$8,$9*
0 Add four rect primitives between the rounded corners*
20,1,$1+$1,$2,$3,$4,$5,0*
20,1,$1+$1,$4,$5,$6,$7,0*
20,1,$1+$1,$6,$7,$8,$9,0*
20,1,$1+$1,$8,$9,$2,$3,0*%
G04 Aperture macros list end*
%ADD10C,0.210000*%
%ADD11RoundRect,0.250000X-0.725000X0.600000X-0.725000X-0.600000X0.725000X-0.600000X0.725000X0.600000X0*%
%ADD12O,1.950000X1.700000*%
%ADD13RoundRect,0.250000X-0.600000X-0.725000X0.600000X-0.725000X0.600000X0.725000X-0.600000X0.725000X0*%
%ADD14O,1.700000X1.950000*%
%ADD15C,1.524000*%
%ADD16R,1.700000X1.700000*%
%ADD17O,1.700000X1.700000*%
%ADD18C,1.600000*%
%ADD19O,1.600000X1.600000*%
%ADD20RoundRect,0.250000X0.750000X-0.600000X0.750000X0.600000X-0.750000X0.600000X-0.750000X-0.600000X0*%
%ADD21O,2.000000X1.700000*%
%ADD22RoundRect,0.250000X0.725000X-0.600000X0.725000X0.600000X-0.725000X0.600000X-0.725000X-0.600000X0*%
%ADD23C,3.200000*%
%ADD24RoundRect,0.250000X-0.750000X0.600000X-0.750000X-0.600000X0.750000X-0.600000X0.750000X0.600000X0*%
%ADD25RoundRect,0.250000X-0.600000X-0.750000X0.600000X-0.750000X0.600000X0.750000X-0.600000X0.750000X0*%
%ADD26O,1.700000X2.000000*%
%ADD27RoundRect,0.250000X0.600000X0.725000X-0.600000X0.725000X-0.600000X-0.725000X0.600000X-0.725000X0*%
G04 APERTURE END LIST*
D10*
X122220014Y-103523708D02*
X121934300Y-104523708D01*
X121934300Y-104523708D02*
X121648585Y-103523708D01*
X120962871Y-103023708D02*
X120848585Y-103023708D01*
X120848585Y-103023708D02*
X120734299Y-103095137D01*
X120734299Y-103095137D02*
X120677157Y-103166565D01*
X120677157Y-103166565D02*
X120620014Y-103309422D01*
X120620014Y-103309422D02*
X120562871Y-103595137D01*
X120562871Y-103595137D02*
X120562871Y-103952280D01*
X120562871Y-103952280D02*
X120620014Y-104237994D01*
X120620014Y-104237994D02*
X120677157Y-104380851D01*
X120677157Y-104380851D02*
X120734299Y-104452280D01*
X120734299Y-104452280D02*
X120848585Y-104523708D01*
X120848585Y-104523708D02*
X120962871Y-104523708D01*
X120962871Y-104523708D02*
X121077157Y-104452280D01*
X121077157Y-104452280D02*
X121134299Y-104380851D01*
X121134299Y-104380851D02*
X121191442Y-104237994D01*
X121191442Y-104237994D02*
X121248585Y-103952280D01*
X121248585Y-103952280D02*
X121248585Y-103595137D01*
X121248585Y-103595137D02*
X121191442Y-103309422D01*
X121191442Y-103309422D02*
X121134299Y-103166565D01*
X121134299Y-103166565D02*
X121077157Y-103095137D01*
X121077157Y-103095137D02*
X120962871Y-103023708D01*
X120048585Y-104380851D02*
X119991442Y-104452280D01*
X119991442Y-104452280D02*
X120048585Y-104523708D01*
X120048585Y-104523708D02*
X120105728Y-104452280D01*
X120105728Y-104452280D02*
X120048585Y-104380851D01*
X120048585Y-104380851D02*
X120048585Y-104523708D01*
X118848585Y-104523708D02*
X119534299Y-104523708D01*
X119191442Y-104523708D02*
X119191442Y-103023708D01*
X119191442Y-103023708D02*
X119305728Y-103237994D01*
X119305728Y-103237994D02*
X119420013Y-103380851D01*
X119420013Y-103380851D02*
X119534299Y-103452280D01*
X122162871Y-105581565D02*
X122105728Y-105510137D01*
X122105728Y-105510137D02*
X121991443Y-105438708D01*
X121991443Y-105438708D02*
X121705728Y-105438708D01*
X121705728Y-105438708D02*
X121591443Y-105510137D01*
X121591443Y-105510137D02*
X121534300Y-105581565D01*
X121534300Y-105581565D02*
X121477157Y-105724422D01*
X121477157Y-105724422D02*
X121477157Y-105867280D01*
X121477157Y-105867280D02*
X121534300Y-106081565D01*
X121534300Y-106081565D02*
X122220014Y-106938708D01*
X122220014Y-106938708D02*
X121477157Y-106938708D01*
X120734300Y-105438708D02*
X120620014Y-105438708D01*
X120620014Y-105438708D02*
X120505728Y-105510137D01*
X120505728Y-105510137D02*
X120448586Y-105581565D01*
X120448586Y-105581565D02*
X120391443Y-105724422D01*
X120391443Y-105724422D02*
X120334300Y-106010137D01*
X120334300Y-106010137D02*
X120334300Y-106367280D01*
X120334300Y-106367280D02*
X120391443Y-106652994D01*
X120391443Y-106652994D02*
X120448586Y-106795851D01*
X120448586Y-106795851D02*
X120505728Y-106867280D01*
X120505728Y-106867280D02*
X120620014Y-106938708D01*
X120620014Y-106938708D02*
X120734300Y-106938708D01*
X120734300Y-106938708D02*
X120848586Y-106867280D01*
X120848586Y-106867280D02*
X120905728Y-106795851D01*
X120905728Y-106795851D02*
X120962871Y-106652994D01*
X120962871Y-106652994D02*
X121020014Y-106367280D01*
X121020014Y-106367280D02*
X121020014Y-106010137D01*
X121020014Y-106010137D02*
X120962871Y-105724422D01*
X120962871Y-105724422D02*
X120905728Y-105581565D01*
X120905728Y-105581565D02*
X120848586Y-105510137D01*
X120848586Y-105510137D02*
X120734300Y-105438708D01*
X119877157Y-105581565D02*
X119820014Y-105510137D01*
X119820014Y-105510137D02*
X119705729Y-105438708D01*
X119705729Y-105438708D02*
X119420014Y-105438708D01*
X119420014Y-105438708D02*
X119305729Y-105510137D01*
X119305729Y-105510137D02*
X119248586Y-105581565D01*
X119248586Y-105581565D02*
X119191443Y-105724422D01*
X119191443Y-105724422D02*
X119191443Y-105867280D01*
X119191443Y-105867280D02*
X119248586Y-106081565D01*
X119248586Y-106081565D02*
X119934300Y-106938708D01*
X119934300Y-106938708D02*
X119191443Y-106938708D01*
X118791443Y-105438708D02*
X118048586Y-105438708D01*
X118048586Y-105438708D02*
X118448586Y-106010137D01*
X118448586Y-106010137D02*
X118277157Y-106010137D01*
X118277157Y-106010137D02*
X118162872Y-106081565D01*
X118162872Y-106081565D02*
X118105729Y-106152994D01*
X118105729Y-106152994D02*
X118048586Y-106295851D01*
X118048586Y-106295851D02*
X118048586Y-106652994D01*
X118048586Y-106652994D02*
X118105729Y-106795851D01*
X118105729Y-106795851D02*
X118162872Y-106867280D01*
X118162872Y-106867280D02*
X118277157Y-106938708D01*
X118277157Y-106938708D02*
X118620014Y-106938708D01*
X118620014Y-106938708D02*
X118734300Y-106867280D01*
X118734300Y-106867280D02*
X118791443Y-106795851D01*
X117534300Y-106367280D02*
X116620015Y-106367280D01*
X115420015Y-106938708D02*
X116105729Y-106938708D01*
X115762872Y-106938708D02*
X115762872Y-105438708D01*
X115762872Y-105438708D02*
X115877158Y-105652994D01*
X115877158Y-105652994D02*
X115991443Y-105795851D01*
X115991443Y-105795851D02*
X116105729Y-105867280D01*
X114962872Y-105581565D02*
X114905729Y-105510137D01*
X114905729Y-105510137D02*
X114791444Y-105438708D01*
X114791444Y-105438708D02*
X114505729Y-105438708D01*
X114505729Y-105438708D02*
X114391444Y-105510137D01*
X114391444Y-105510137D02*
X114334301Y-105581565D01*
X114334301Y-105581565D02*
X114277158Y-105724422D01*
X114277158Y-105724422D02*
X114277158Y-105867280D01*
X114277158Y-105867280D02*
X114334301Y-106081565D01*
X114334301Y-106081565D02*
X115020015Y-106938708D01*
X115020015Y-106938708D02*
X114277158Y-106938708D01*
X122105728Y-108567994D02*
X121705728Y-108567994D01*
X121534300Y-109353708D02*
X122105728Y-109353708D01*
X122105728Y-109353708D02*
X122105728Y-107853708D01*
X122105728Y-107853708D02*
X121534300Y-107853708D01*
X121020014Y-109353708D02*
X121020014Y-107853708D01*
X121020014Y-107853708D02*
X120734300Y-107853708D01*
X120734300Y-107853708D02*
X120562871Y-107925137D01*
X120562871Y-107925137D02*
X120448586Y-108067994D01*
X120448586Y-108067994D02*
X120391443Y-108210851D01*
X120391443Y-108210851D02*
X120334300Y-108496565D01*
X120334300Y-108496565D02*
X120334300Y-108710851D01*
X120334300Y-108710851D02*
X120391443Y-108996565D01*
X120391443Y-108996565D02*
X120448586Y-109139422D01*
X120448586Y-109139422D02*
X120562871Y-109282280D01*
X120562871Y-109282280D02*
X120734300Y-109353708D01*
X120734300Y-109353708D02*
X121020014Y-109353708D01*
X118220014Y-109353708D02*
X118620014Y-108639422D01*
X118905728Y-109353708D02*
X118905728Y-107853708D01*
X118905728Y-107853708D02*
X118448585Y-107853708D01*
X118448585Y-107853708D02*
X118334300Y-107925137D01*
X118334300Y-107925137D02*
X118277157Y-107996565D01*
X118277157Y-107996565D02*
X118220014Y-108139422D01*
X118220014Y-108139422D02*
X118220014Y-108353708D01*
X118220014Y-108353708D02*
X118277157Y-108496565D01*
X118277157Y-108496565D02*
X118334300Y-108567994D01*
X118334300Y-108567994D02*
X118448585Y-108639422D01*
X118448585Y-108639422D02*
X118905728Y-108639422D01*
X117534300Y-109353708D02*
X117648585Y-109282280D01*
X117648585Y-109282280D02*
X117705728Y-109210851D01*
X117705728Y-109210851D02*
X117762871Y-109067994D01*
X117762871Y-109067994D02*
X117762871Y-108639422D01*
X117762871Y-108639422D02*
X117705728Y-108496565D01*
X117705728Y-108496565D02*
X117648585Y-108425137D01*
X117648585Y-108425137D02*
X117534300Y-108353708D01*
X117534300Y-108353708D02*
X117362871Y-108353708D01*
X117362871Y-108353708D02*
X117248585Y-108425137D01*
X117248585Y-108425137D02*
X117191443Y-108496565D01*
X117191443Y-108496565D02*
X117134300Y-108639422D01*
X117134300Y-108639422D02*
X117134300Y-109067994D01*
X117134300Y-109067994D02*
X117191443Y-109210851D01*
X117191443Y-109210851D02*
X117248585Y-109282280D01*
X117248585Y-109282280D02*
X117362871Y-109353708D01*
X117362871Y-109353708D02*
X117534300Y-109353708D01*
X116620014Y-109353708D02*
X116620014Y-107853708D01*
X116620014Y-108425137D02*
X116505729Y-108353708D01*
X116505729Y-108353708D02*
X116277157Y-108353708D01*
X116277157Y-108353708D02*
X116162871Y-108425137D01*
X116162871Y-108425137D02*
X116105729Y-108496565D01*
X116105729Y-108496565D02*
X116048586Y-108639422D01*
X116048586Y-108639422D02*
X116048586Y-109067994D01*
X116048586Y-109067994D02*
X116105729Y-109210851D01*
X116105729Y-109210851D02*
X116162871Y-109282280D01*
X116162871Y-109282280D02*
X116277157Y-109353708D01*
X116277157Y-109353708D02*
X116505729Y-109353708D01*
X116505729Y-109353708D02*
X116620014Y-109282280D01*
X115362872Y-109353708D02*
X115477157Y-109282280D01*
X115477157Y-109282280D02*
X115534300Y-109210851D01*
X115534300Y-109210851D02*
X115591443Y-109067994D01*
X115591443Y-109067994D02*
X115591443Y-108639422D01*
X115591443Y-108639422D02*
X115534300Y-108496565D01*
X115534300Y-108496565D02*
X115477157Y-108425137D01*
X115477157Y-108425137D02*
X115362872Y-108353708D01*
X115362872Y-108353708D02*
X115191443Y-108353708D01*
X115191443Y-108353708D02*
X115077157Y-108425137D01*
X115077157Y-108425137D02*
X115020015Y-108496565D01*
X115020015Y-108496565D02*
X114962872Y-108639422D01*
X114962872Y-108639422D02*
X114962872Y-109067994D01*
X114962872Y-109067994D02*
X115020015Y-109210851D01*
X115020015Y-109210851D02*
X115077157Y-109282280D01*
X115077157Y-109282280D02*
X115191443Y-109353708D01*
X115191443Y-109353708D02*
X115362872Y-109353708D01*
X114620015Y-108353708D02*
X114162872Y-108353708D01*
X114448586Y-107853708D02*
X114448586Y-109139422D01*
X114448586Y-109139422D02*
X114391443Y-109282280D01*
X114391443Y-109282280D02*
X114277158Y-109353708D01*
X114277158Y-109353708D02*
X114162872Y-109353708D01*
X113762872Y-109353708D02*
X113762872Y-108353708D01*
X113762872Y-107853708D02*
X113820015Y-107925137D01*
X113820015Y-107925137D02*
X113762872Y-107996565D01*
X113762872Y-107996565D02*
X113705729Y-107925137D01*
X113705729Y-107925137D02*
X113762872Y-107853708D01*
X113762872Y-107853708D02*
X113762872Y-107996565D01*
X112677158Y-109282280D02*
X112791443Y-109353708D01*
X112791443Y-109353708D02*
X113020015Y-109353708D01*
X113020015Y-109353708D02*
X113134300Y-109282280D01*
X113134300Y-109282280D02*
X113191443Y-109210851D01*
X113191443Y-109210851D02*
X113248586Y-109067994D01*
X113248586Y-109067994D02*
X113248586Y-108639422D01*
X113248586Y-108639422D02*
X113191443Y-108496565D01*
X113191443Y-108496565D02*
X113134300Y-108425137D01*
X113134300Y-108425137D02*
X113020015Y-108353708D01*
X113020015Y-108353708D02*
X112791443Y-108353708D01*
X112791443Y-108353708D02*
X112677158Y-108425137D01*
X112220015Y-109282280D02*
X112105729Y-109353708D01*
X112105729Y-109353708D02*
X111877158Y-109353708D01*
X111877158Y-109353708D02*
X111762872Y-109282280D01*
X111762872Y-109282280D02*
X111705729Y-109139422D01*
X111705729Y-109139422D02*
X111705729Y-109067994D01*
X111705729Y-109067994D02*
X111762872Y-108925137D01*
X111762872Y-108925137D02*
X111877158Y-108853708D01*
X111877158Y-108853708D02*
X112048587Y-108853708D01*
X112048587Y-108853708D02*
X112162872Y-108782280D01*
X112162872Y-108782280D02*
X112220015Y-108639422D01*
X112220015Y-108639422D02*
X112220015Y-108567994D01*
X112220015Y-108567994D02*
X112162872Y-108425137D01*
X112162872Y-108425137D02*
X112048587Y-108353708D01*
X112048587Y-108353708D02*
X111877158Y-108353708D01*
X111877158Y-108353708D02*
X111762872Y-108425137D01*
X121534300Y-111768708D02*
X122105728Y-111768708D01*
X122105728Y-111768708D02*
X122105728Y-110268708D01*
X120677156Y-111697280D02*
X120791442Y-111768708D01*
X120791442Y-111768708D02*
X121020014Y-111768708D01*
X121020014Y-111768708D02*
X121134299Y-111697280D01*
X121134299Y-111697280D02*
X121191442Y-111554422D01*
X121191442Y-111554422D02*
X121191442Y-110982994D01*
X121191442Y-110982994D02*
X121134299Y-110840137D01*
X121134299Y-110840137D02*
X121020014Y-110768708D01*
X121020014Y-110768708D02*
X120791442Y-110768708D01*
X120791442Y-110768708D02*
X120677156Y-110840137D01*
X120677156Y-110840137D02*
X120620014Y-110982994D01*
X120620014Y-110982994D02*
X120620014Y-111125851D01*
X120620014Y-111125851D02*
X121191442Y-111268708D01*
X119934300Y-111768708D02*
X120048585Y-111697280D01*
X120048585Y-111697280D02*
X120105728Y-111625851D01*
X120105728Y-111625851D02*
X120162871Y-111482994D01*
X120162871Y-111482994D02*
X120162871Y-111054422D01*
X120162871Y-111054422D02*
X120105728Y-110911565D01*
X120105728Y-110911565D02*
X120048585Y-110840137D01*
X120048585Y-110840137D02*
X119934300Y-110768708D01*
X119934300Y-110768708D02*
X119762871Y-110768708D01*
X119762871Y-110768708D02*
X119648585Y-110840137D01*
X119648585Y-110840137D02*
X119591443Y-110911565D01*
X119591443Y-110911565D02*
X119534300Y-111054422D01*
X119534300Y-111054422D02*
X119534300Y-111482994D01*
X119534300Y-111482994D02*
X119591443Y-111625851D01*
X119591443Y-111625851D02*
X119648585Y-111697280D01*
X119648585Y-111697280D02*
X119762871Y-111768708D01*
X119762871Y-111768708D02*
X119934300Y-111768708D01*
X119020014Y-110768708D02*
X119020014Y-112268708D01*
X119020014Y-110840137D02*
X118905729Y-110768708D01*
X118905729Y-110768708D02*
X118677157Y-110768708D01*
X118677157Y-110768708D02*
X118562871Y-110840137D01*
X118562871Y-110840137D02*
X118505729Y-110911565D01*
X118505729Y-110911565D02*
X118448586Y-111054422D01*
X118448586Y-111054422D02*
X118448586Y-111482994D01*
X118448586Y-111482994D02*
X118505729Y-111625851D01*
X118505729Y-111625851D02*
X118562871Y-111697280D01*
X118562871Y-111697280D02*
X118677157Y-111768708D01*
X118677157Y-111768708D02*
X118905729Y-111768708D01*
X118905729Y-111768708D02*
X119020014Y-111697280D01*
X117762872Y-111768708D02*
X117877157Y-111697280D01*
X117877157Y-111697280D02*
X117934300Y-111625851D01*
X117934300Y-111625851D02*
X117991443Y-111482994D01*
X117991443Y-111482994D02*
X117991443Y-111054422D01*
X117991443Y-111054422D02*
X117934300Y-110911565D01*
X117934300Y-110911565D02*
X117877157Y-110840137D01*
X117877157Y-110840137D02*
X117762872Y-110768708D01*
X117762872Y-110768708D02*
X117591443Y-110768708D01*
X117591443Y-110768708D02*
X117477157Y-110840137D01*
X117477157Y-110840137D02*
X117420015Y-110911565D01*
X117420015Y-110911565D02*
X117362872Y-111054422D01*
X117362872Y-111054422D02*
X117362872Y-111482994D01*
X117362872Y-111482994D02*
X117420015Y-111625851D01*
X117420015Y-111625851D02*
X117477157Y-111697280D01*
X117477157Y-111697280D02*
X117591443Y-111768708D01*
X117591443Y-111768708D02*
X117762872Y-111768708D01*
X116677158Y-111768708D02*
X116791443Y-111697280D01*
X116791443Y-111697280D02*
X116848586Y-111554422D01*
X116848586Y-111554422D02*
X116848586Y-110268708D01*
X115705730Y-111768708D02*
X115705730Y-110268708D01*
X115705730Y-111697280D02*
X115820015Y-111768708D01*
X115820015Y-111768708D02*
X116048587Y-111768708D01*
X116048587Y-111768708D02*
X116162872Y-111697280D01*
X116162872Y-111697280D02*
X116220015Y-111625851D01*
X116220015Y-111625851D02*
X116277158Y-111482994D01*
X116277158Y-111482994D02*
X116277158Y-111054422D01*
X116277158Y-111054422D02*
X116220015Y-110911565D01*
X116220015Y-110911565D02*
X116162872Y-110840137D01*
X116162872Y-110840137D02*
X116048587Y-110768708D01*
X116048587Y-110768708D02*
X115820015Y-110768708D01*
X115820015Y-110768708D02*
X115705730Y-110840137D01*
X113591444Y-110340137D02*
X113705730Y-110268708D01*
X113705730Y-110268708D02*
X113877158Y-110268708D01*
X113877158Y-110268708D02*
X114048587Y-110340137D01*
X114048587Y-110340137D02*
X114162872Y-110482994D01*
X114162872Y-110482994D02*
X114220015Y-110625851D01*
X114220015Y-110625851D02*
X114277158Y-110911565D01*
X114277158Y-110911565D02*
X114277158Y-111125851D01*
X114277158Y-111125851D02*
X114220015Y-111411565D01*
X114220015Y-111411565D02*
X114162872Y-111554422D01*
X114162872Y-111554422D02*
X114048587Y-111697280D01*
X114048587Y-111697280D02*
X113877158Y-111768708D01*
X113877158Y-111768708D02*
X113762872Y-111768708D01*
X113762872Y-111768708D02*
X113591444Y-111697280D01*
X113591444Y-111697280D02*
X113534301Y-111625851D01*
X113534301Y-111625851D02*
X113534301Y-111125851D01*
X113534301Y-111125851D02*
X113762872Y-111125851D01*
X113020015Y-111768708D02*
X113020015Y-110768708D01*
X113020015Y-111054422D02*
X112962872Y-110911565D01*
X112962872Y-110911565D02*
X112905730Y-110840137D01*
X112905730Y-110840137D02*
X112791444Y-110768708D01*
X112791444Y-110768708D02*
X112677158Y-110768708D01*
X112277158Y-111768708D02*
X112277158Y-110768708D01*
X112277158Y-110268708D02*
X112334301Y-110340137D01*
X112334301Y-110340137D02*
X112277158Y-110411565D01*
X112277158Y-110411565D02*
X112220015Y-110340137D01*
X112220015Y-110340137D02*
X112277158Y-110268708D01*
X112277158Y-110268708D02*
X112277158Y-110411565D01*
X111705729Y-110768708D02*
X111705729Y-111768708D01*
X111705729Y-110911565D02*
X111648586Y-110840137D01*
X111648586Y-110840137D02*
X111534301Y-110768708D01*
X111534301Y-110768708D02*
X111362872Y-110768708D01*
X111362872Y-110768708D02*
X111248586Y-110840137D01*
X111248586Y-110840137D02*
X111191444Y-110982994D01*
X111191444Y-110982994D02*
X111191444Y-111768708D01*
X110620015Y-110768708D02*
X110620015Y-111768708D01*
X110620015Y-110911565D02*
X110562872Y-110840137D01*
X110562872Y-110840137D02*
X110448587Y-110768708D01*
X110448587Y-110768708D02*
X110277158Y-110768708D01*
X110277158Y-110768708D02*
X110162872Y-110840137D01*
X110162872Y-110840137D02*
X110105730Y-110982994D01*
X110105730Y-110982994D02*
X110105730Y-111768708D01*
X109077158Y-111697280D02*
X109191444Y-111768708D01*
X109191444Y-111768708D02*
X109420016Y-111768708D01*
X109420016Y-111768708D02*
X109534301Y-111697280D01*
X109534301Y-111697280D02*
X109591444Y-111554422D01*
X109591444Y-111554422D02*
X109591444Y-110982994D01*
X109591444Y-110982994D02*
X109534301Y-110840137D01*
X109534301Y-110840137D02*
X109420016Y-110768708D01*
X109420016Y-110768708D02*
X109191444Y-110768708D01*
X109191444Y-110768708D02*
X109077158Y-110840137D01*
X109077158Y-110840137D02*
X109020016Y-110982994D01*
X109020016Y-110982994D02*
X109020016Y-111125851D01*
X109020016Y-111125851D02*
X109591444Y-111268708D01*
X108505730Y-111768708D02*
X108505730Y-110768708D01*
X108505730Y-110911565D02*
X108448587Y-110840137D01*
X108448587Y-110840137D02*
X108334302Y-110768708D01*
X108334302Y-110768708D02*
X108162873Y-110768708D01*
X108162873Y-110768708D02*
X108048587Y-110840137D01*
X108048587Y-110840137D02*
X107991445Y-110982994D01*
X107991445Y-110982994D02*
X107991445Y-111768708D01*
X107991445Y-110982994D02*
X107934302Y-110840137D01*
X107934302Y-110840137D02*
X107820016Y-110768708D01*
X107820016Y-110768708D02*
X107648587Y-110768708D01*
X107648587Y-110768708D02*
X107534302Y-110840137D01*
X107534302Y-110840137D02*
X107477159Y-110982994D01*
X107477159Y-110982994D02*
X107477159Y-111768708D01*
X106734302Y-111768708D02*
X106848587Y-111697280D01*
X106848587Y-111697280D02*
X106905730Y-111625851D01*
X106905730Y-111625851D02*
X106962873Y-111482994D01*
X106962873Y-111482994D02*
X106962873Y-111054422D01*
X106962873Y-111054422D02*
X106905730Y-110911565D01*
X106905730Y-110911565D02*
X106848587Y-110840137D01*
X106848587Y-110840137D02*
X106734302Y-110768708D01*
X106734302Y-110768708D02*
X106562873Y-110768708D01*
X106562873Y-110768708D02*
X106448587Y-110840137D01*
X106448587Y-110840137D02*
X106391445Y-110911565D01*
X106391445Y-110911565D02*
X106334302Y-111054422D01*
X106334302Y-111054422D02*
X106334302Y-111482994D01*
X106334302Y-111482994D02*
X106391445Y-111625851D01*
X106391445Y-111625851D02*
X106448587Y-111697280D01*
X106448587Y-111697280D02*
X106562873Y-111768708D01*
X106562873Y-111768708D02*
X106734302Y-111768708D01*
%LPC*%
D11*
%TO.C,S5*%
X66040000Y-103585000D03*
D12*
X66040000Y-106085000D03*
X66040000Y-108585000D03*
%TD*%
D13*
%TO.C,J29*%
X88960000Y-144890000D03*
D14*
X91460000Y-144890000D03*
X93960000Y-144890000D03*
X96460000Y-144890000D03*
%TD*%
D13*
%TO.C,J28*%
X95945000Y-153670000D03*
D14*
X98445000Y-153670000D03*
X100945000Y-153670000D03*
X103445000Y-153670000D03*
%TD*%
D15*
%TO.C,U4*%
X125730000Y-118110000D03*
X125730000Y-120650000D03*
X125730000Y-123190000D03*
X125730000Y-125730000D03*
X125730000Y-128270000D03*
X125730000Y-130810000D03*
X125730000Y-133350000D03*
X138430000Y-118110000D03*
X138430000Y-120650000D03*
X138430000Y-123190000D03*
X138430000Y-125730000D03*
X138430000Y-128270000D03*
X138430000Y-130810000D03*
X138430000Y-133350000D03*
%TD*%
%TO.C,U3*%
X125730000Y-142240000D03*
X125730000Y-144780000D03*
X125730000Y-147320000D03*
X125730000Y-149860000D03*
X125730000Y-152400000D03*
X125730000Y-154940000D03*
X125730000Y-157480000D03*
X138430000Y-142240000D03*
X138430000Y-144780000D03*
X138430000Y-147320000D03*
X138430000Y-149860000D03*
X138430000Y-152400000D03*
X138430000Y-154940000D03*
X138430000Y-157480000D03*
%TD*%
%TO.C,U2*%
X55880000Y-100305000D03*
X55880000Y-97765000D03*
X55880000Y-95225000D03*
X55880000Y-92685000D03*
X55880000Y-90145000D03*
X55880000Y-87605000D03*
X55880000Y-85065000D03*
X43180000Y-100305000D03*
X43180000Y-97765000D03*
X43180000Y-95225000D03*
X43180000Y-92685000D03*
X43180000Y-90145000D03*
X43180000Y-87605000D03*
X43180000Y-85065000D03*
%TD*%
%TO.C,U1*%
X55880000Y-73660000D03*
X55880000Y-71120000D03*
X55880000Y-68580000D03*
X55880000Y-66040000D03*
X55880000Y-63500000D03*
X55880000Y-60960000D03*
X55880000Y-58420000D03*
X43180000Y-73660000D03*
X43180000Y-71120000D03*
X43180000Y-68580000D03*
X43180000Y-66040000D03*
X43180000Y-63500000D03*
X43180000Y-60960000D03*
X43180000Y-58420000D03*
%TD*%
%TO.C,U6*%
X96520000Y-40640000D03*
X96520000Y-43180000D03*
X96520000Y-45720000D03*
X96520000Y-48260000D03*
X96520000Y-50800000D03*
X96520000Y-53340000D03*
X96520000Y-55880000D03*
X96520000Y-58420000D03*
X96520000Y-60960000D03*
X96520000Y-63500000D03*
X96520000Y-66040000D03*
X96520000Y-68580000D03*
X96520000Y-71120000D03*
X111760000Y-71120000D03*
X111760000Y-68580000D03*
X111760000Y-66040000D03*
X111760000Y-63500000D03*
X111760000Y-60960000D03*
X111760000Y-58420000D03*
X111760000Y-55880000D03*
X111760000Y-53340000D03*
X111760000Y-50800000D03*
X111760000Y-48260000D03*
X111760000Y-45720000D03*
X96520000Y-76200000D03*
X96520000Y-78740000D03*
X96520000Y-81280000D03*
X96520000Y-83820000D03*
X96520000Y-86360000D03*
X96520000Y-88900000D03*
X96520000Y-91440000D03*
X96520000Y-93980000D03*
X96520000Y-96520000D03*
X111760000Y-96520000D03*
X111760000Y-93980000D03*
X111760000Y-91440000D03*
X111760000Y-88900000D03*
X111760000Y-86360000D03*
X111760000Y-83820000D03*
X111760000Y-81280000D03*
X111760000Y-78740000D03*
X111760000Y-76200000D03*
X96520000Y-38100000D03*
X111760000Y-73660000D03*
X111760000Y-43180000D03*
X111760000Y-40640000D03*
X111760000Y-38100000D03*
X96520000Y-73660000D03*
%TD*%
D16*
%TO.C,J14*%
X101600000Y-51028600D03*
D17*
X101600000Y-48488600D03*
X101600000Y-45948600D03*
X101600000Y-43408600D03*
X101600000Y-40868600D03*
X101600000Y-38328600D03*
%TD*%
D16*
%TO.C,J15*%
X91998800Y-92684600D03*
D17*
X91998800Y-90144600D03*
X91998800Y-87604600D03*
%TD*%
D18*
%TO.C,R14*%
X139065000Y-178435000D03*
D19*
X128905000Y-178435000D03*
%TD*%
D18*
%TO.C,R12*%
X120650000Y-173355000D03*
D19*
X110490000Y-173355000D03*
%TD*%
D20*
%TO.C,J27*%
X143510000Y-111760000D03*
D21*
X143510000Y-109260000D03*
%TD*%
D16*
%TO.C,J9*%
X67310000Y-131445000D03*
D17*
X64770000Y-131445000D03*
X62230000Y-131445000D03*
X59690000Y-131445000D03*
X57150000Y-131445000D03*
X54610000Y-131445000D03*
%TD*%
D19*
%TO.C,R8*%
X110490000Y-179705000D03*
D18*
X120650000Y-179705000D03*
%TD*%
D16*
%TO.C,M4*%
X144780000Y-117475000D03*
D17*
X144780000Y-120015000D03*
X144780000Y-122555000D03*
X144780000Y-125095000D03*
X144780000Y-127635000D03*
X144780000Y-130175000D03*
%TD*%
D22*
%TO.C,U16*%
X111870000Y-166330000D03*
D12*
X111870000Y-163830000D03*
X111870000Y-161330000D03*
X111870000Y-158830000D03*
X111870000Y-156330000D03*
%TD*%
D16*
%TO.C,J13*%
X127000000Y-137795000D03*
D17*
X129540000Y-137795000D03*
X132080000Y-137795000D03*
X134620000Y-137795000D03*
%TD*%
D23*
%TO.C,H1*%
X54610000Y-37465000D03*
%TD*%
D16*
%TO.C,D8*%
X52070000Y-116190000D03*
D17*
X52070000Y-113650000D03*
X52070000Y-111110000D03*
%TD*%
D24*
%TO.C,J24*%
X37355000Y-71120000D03*
D21*
X37355000Y-73620000D03*
%TD*%
D18*
%TO.C,R4*%
X62230000Y-85090000D03*
D19*
X62230000Y-95250000D03*
%TD*%
D25*
%TO.C,J5*%
X36235000Y-124570000D03*
D26*
X38735000Y-124570000D03*
%TD*%
D15*
%TO.C,U19*%
X66040000Y-66130000D03*
X66040000Y-63590000D03*
X66040000Y-61050000D03*
X66040000Y-58510000D03*
X66040000Y-55970000D03*
X66040000Y-53430000D03*
X66040000Y-50890000D03*
X66040000Y-48350000D03*
X85090000Y-48350000D03*
X85090000Y-50890000D03*
X85090000Y-53430000D03*
X85090000Y-55970000D03*
X85090000Y-58510000D03*
X85090000Y-61050000D03*
X85090000Y-63590000D03*
X85090000Y-66130000D03*
X71755000Y-76290000D03*
X74295000Y-76290000D03*
X73010000Y-72140000D03*
X75550000Y-72140000D03*
X78090000Y-72140000D03*
X76835000Y-76290000D03*
X79375000Y-76290000D03*
%TD*%
D16*
%TO.C,J19*%
X112395000Y-147955000D03*
D17*
X112395000Y-145415000D03*
X109855000Y-147955000D03*
X109855000Y-145415000D03*
X107315000Y-147955000D03*
X107315000Y-145415000D03*
X104775000Y-147955000D03*
X104775000Y-145415000D03*
X102235000Y-147955000D03*
X102235000Y-145415000D03*
%TD*%
D23*
%TO.C,H4*%
X135255000Y-170815000D03*
%TD*%
D16*
%TO.C,J3*%
X51435000Y-124475000D03*
D17*
X51435000Y-121935000D03*
%TD*%
D16*
%TO.C,M1*%
X35560000Y-65405000D03*
D17*
X35560000Y-62865000D03*
X35560000Y-60325000D03*
X35560000Y-57785000D03*
X35560000Y-55245000D03*
X35560000Y-52705000D03*
%TD*%
D11*
%TO.C,S2*%
X88045000Y-167045000D03*
D12*
X88045000Y-169545000D03*
X88045000Y-172045000D03*
%TD*%
D15*
%TO.C,U21*%
X123190000Y-80010000D03*
X125730000Y-80010000D03*
X128270000Y-80010000D03*
X130810000Y-80010000D03*
X133350000Y-80010000D03*
X135890000Y-80010000D03*
X123190000Y-67310000D03*
X125730000Y-67310000D03*
X128270000Y-67310000D03*
X130810000Y-67310000D03*
X133350000Y-67310000D03*
X135890000Y-67310000D03*
%TD*%
D16*
%TO.C,D7*%
X56490000Y-116175000D03*
D17*
X56490000Y-113635000D03*
X56490000Y-111095000D03*
%TD*%
D22*
%TO.C,U12*%
X143510000Y-46275000D03*
D12*
X143510000Y-43775000D03*
X143510000Y-41275000D03*
X143510000Y-38775000D03*
X143510000Y-36275000D03*
%TD*%
D16*
%TO.C,M2*%
X35560000Y-92075000D03*
D17*
X35560000Y-89535000D03*
X35560000Y-86995000D03*
X35560000Y-84455000D03*
X35560000Y-81915000D03*
X35560000Y-79375000D03*
%TD*%
D25*
%TO.C,J4*%
X36830000Y-132715000D03*
D26*
X39330000Y-132715000D03*
%TD*%
D18*
%TO.C,R2*%
X69850000Y-85090000D03*
D19*
X69850000Y-95250000D03*
%TD*%
D13*
%TO.C,S3*%
X127715000Y-187960000D03*
D14*
X130215000Y-187960000D03*
X132715000Y-187960000D03*
%TD*%
D11*
%TO.C,U14*%
X37465000Y-36275000D03*
D12*
X37465000Y-38775000D03*
X37465000Y-41275000D03*
X37465000Y-43775000D03*
X37465000Y-46275000D03*
%TD*%
D17*
%TO.C,J18*%
X111760000Y-137795000D03*
X114300000Y-137795000D03*
X111760000Y-135255000D03*
X114300000Y-135255000D03*
X111760000Y-132715000D03*
X114300000Y-132715000D03*
X111760000Y-130175000D03*
X114300000Y-130175000D03*
X111760000Y-127635000D03*
D16*
X114300000Y-127635000D03*
%TD*%
D22*
%TO.C,U17*%
X103505000Y-171290000D03*
D12*
X103505000Y-168790000D03*
X103505000Y-166290000D03*
X103505000Y-163790000D03*
X103505000Y-161290000D03*
%TD*%
D23*
%TO.C,H2*%
X143713200Y-54559200D03*
%TD*%
%TO.C,H7*%
X83515200Y-92227400D03*
%TD*%
D16*
%TO.C,J12*%
X128270000Y-162560000D03*
D17*
X130810000Y-162560000D03*
X133350000Y-162560000D03*
X135890000Y-162560000D03*
%TD*%
D19*
%TO.C,R6*%
X110490000Y-182880000D03*
D18*
X120650000Y-182880000D03*
%TD*%
D16*
%TO.C,J21*%
X145415000Y-80010000D03*
D17*
X145415000Y-77470000D03*
X145415000Y-74930000D03*
X145415000Y-72390000D03*
X145415000Y-69850000D03*
X145415000Y-67310000D03*
%TD*%
D16*
%TO.C,J7*%
X67310000Y-114935000D03*
%TD*%
%TO.C,J16*%
X75565000Y-80645000D03*
D17*
X73025000Y-80645000D03*
X70485000Y-80645000D03*
X67945000Y-80645000D03*
X65405000Y-80645000D03*
X62865000Y-80645000D03*
X60325000Y-80645000D03*
%TD*%
D18*
%TO.C,R10*%
X120650000Y-176530000D03*
D19*
X110490000Y-176530000D03*
%TD*%
D22*
%TO.C,U18*%
X143510000Y-172680000D03*
D12*
X143510000Y-170180000D03*
X143510000Y-167680000D03*
X143510000Y-165180000D03*
X143510000Y-162680000D03*
%TD*%
D16*
%TO.C,M6*%
X90600000Y-158432500D03*
D17*
X90600000Y-155892500D03*
X90600000Y-153352500D03*
%TD*%
D23*
%TO.C,H5*%
X103632000Y-188468000D03*
%TD*%
D16*
%TO.C,M5*%
X86360000Y-158432500D03*
D17*
X86360000Y-155892500D03*
X86360000Y-153352500D03*
%TD*%
D16*
%TO.C,J8*%
X87630000Y-80645000D03*
D17*
X85090000Y-80645000D03*
X82550000Y-80645000D03*
%TD*%
D16*
%TO.C,D3*%
X63525000Y-121935000D03*
D17*
X63525000Y-124475000D03*
X63525000Y-127015000D03*
%TD*%
D25*
%TO.C,J6*%
X45720000Y-132715000D03*
D26*
X48220000Y-132715000D03*
%TD*%
D16*
%TO.C,D4*%
X67310000Y-121935000D03*
D17*
X67310000Y-124475000D03*
X67310000Y-127015000D03*
%TD*%
D20*
%TO.C,J26*%
X143620000Y-138430000D03*
D21*
X143620000Y-135930000D03*
%TD*%
D14*
%TO.C,J30*%
X121165000Y-187960000D03*
X118665000Y-187960000D03*
X116165000Y-187960000D03*
X113665000Y-187960000D03*
D13*
X111165000Y-187960000D03*
%TD*%
D16*
%TO.C,J17*%
X107315000Y-177800000D03*
D17*
X104775000Y-177800000D03*
X107315000Y-180340000D03*
X104775000Y-180340000D03*
X107315000Y-182880000D03*
X104775000Y-182880000D03*
%TD*%
D27*
%TO.C,U23*%
X99020000Y-180230000D03*
D14*
X96520000Y-180230000D03*
X94020000Y-180230000D03*
X91520000Y-180230000D03*
X89020000Y-180230000D03*
X86520000Y-180230000D03*
%TD*%
D16*
%TO.C,J11*%
X50800000Y-80645000D03*
D17*
X48260000Y-80645000D03*
X45720000Y-80645000D03*
X43180000Y-80645000D03*
%TD*%
D20*
%TO.C,J23*%
X143510000Y-181610000D03*
D21*
X143510000Y-179110000D03*
%TD*%
D16*
%TO.C,J10*%
X50800000Y-53975000D03*
D17*
X48260000Y-53975000D03*
X45720000Y-53975000D03*
X43180000Y-53975000D03*
%TD*%
D16*
%TO.C,D5*%
X59715000Y-121935000D03*
D17*
X59715000Y-124475000D03*
X59715000Y-127015000D03*
%TD*%
D24*
%TO.C,J25*%
X37355000Y-97790000D03*
D21*
X37355000Y-100290000D03*
%TD*%
D22*
%TO.C,U25*%
X45195000Y-117355000D03*
D12*
X45195000Y-114855000D03*
X45195000Y-112355000D03*
X45195000Y-109855000D03*
X45195000Y-107355000D03*
%TD*%
D19*
%TO.C,R3*%
X66040000Y-95250000D03*
D18*
X66040000Y-85090000D03*
%TD*%
D13*
%TO.C,U24*%
X86400000Y-187960000D03*
D14*
X88900000Y-187960000D03*
X91400000Y-187960000D03*
X93900000Y-187960000D03*
X96400000Y-187960000D03*
%TD*%
D18*
%TO.C,R13*%
X128905000Y-182245000D03*
D19*
X139065000Y-182245000D03*
%TD*%
D15*
%TO.C,U20*%
X135255000Y-52705000D03*
X135255000Y-50165000D03*
X135255000Y-47625000D03*
X135255000Y-45085000D03*
X135255000Y-42545000D03*
X135255000Y-40005000D03*
X117475000Y-52705000D03*
X117475000Y-50165000D03*
X117475000Y-47625000D03*
X117475000Y-45085000D03*
X117475000Y-42545000D03*
X117475000Y-40005000D03*
%TD*%
D16*
%TO.C,D6*%
X55905000Y-121935000D03*
D17*
X55905000Y-124475000D03*
X55905000Y-127015000D03*
%TD*%
D11*
%TO.C,U13*%
X46355000Y-36275000D03*
D12*
X46355000Y-38775000D03*
X46355000Y-41275000D03*
X46355000Y-43775000D03*
X46355000Y-46275000D03*
%TD*%
D23*
%TO.C,H3*%
X135255000Y-109220000D03*
%TD*%
D16*
%TO.C,J2*%
X145390000Y-99670000D03*
D17*
X145390000Y-97130000D03*
X145390000Y-94590000D03*
X145390000Y-92050000D03*
X145390000Y-89510000D03*
X145390000Y-86970000D03*
%TD*%
D16*
%TO.C,J20*%
X145415000Y-61595000D03*
D17*
X142875000Y-61595000D03*
X140335000Y-61595000D03*
X137795000Y-61595000D03*
X135255000Y-61595000D03*
X132715000Y-61595000D03*
%TD*%
D15*
%TO.C,U22*%
X135890000Y-86995000D03*
X133350000Y-86995000D03*
X130810000Y-86995000D03*
X128270000Y-86995000D03*
X125730000Y-86995000D03*
X123190000Y-86995000D03*
X135890000Y-99695000D03*
X133350000Y-99695000D03*
X130810000Y-99695000D03*
X128270000Y-99695000D03*
X125730000Y-99695000D03*
%TD*%
D23*
%TO.C,H6*%
X45720000Y-125095000D03*
%TD*%
D16*
%TO.C,J22*%
X128885000Y-106705000D03*
D17*
X126345000Y-106705000D03*
%TD*%
D22*
%TO.C,U15*%
X36195000Y-117435000D03*
D12*
X36195000Y-114935000D03*
X36195000Y-112435000D03*
X36195000Y-109935000D03*
X36195000Y-107435000D03*
%TD*%
D19*
%TO.C,R1*%
X73660000Y-95250000D03*
D18*
X73660000Y-85090000D03*
%TD*%
D16*
%TO.C,M3*%
X145415000Y-144780000D03*
D17*
X145415000Y-147320000D03*
X145415000Y-149860000D03*
X145415000Y-152400000D03*
X145415000Y-154940000D03*
X145415000Y-157480000D03*
%TD*%
D13*
%TO.C,S4*%
X139105000Y-187960000D03*
D14*
X141605000Y-187960000D03*
X144105000Y-187960000D03*
%TD*%
D11*
%TO.C,S1*%
X96410000Y-167045000D03*
D12*
X96410000Y-169545000D03*
X96410000Y-172045000D03*
%TD*%
%LPD*%
M02*
