M48
; DRILL file {KiCad 7.0.9} date Thu 07 Dec 2023 23:59:56 CET
; FORMAT={-:-/ absolute / metric / decimal}
; #@! TF.CreationDate,2023-12-07T23:59:56+01:00
; #@! TF.GenerationSoftware,Kicad,Pcbnew,7.0.9
; #@! TF.FileFunction,MixedPlating,1,2
FMAT,2
METRIC
; #@! TA.AperFunction,Plated,PTH,ViaDrill
T1C0.350
; #@! TA.AperFunction,Plated,PTH,ViaDrill
T2C0.400
; #@! TA.AperFunction,Plated,PTH,ViaDrill
T3C0.500
; #@! TA.AperFunction,Plated,PTH,ComponentDrill
T4C0.762
; #@! TA.AperFunction,Plated,PTH,ComponentDrill
T5C0.800
; #@! TA.AperFunction,Plated,PTH,ComponentDrill
T6C0.950
; #@! TA.AperFunction,Plated,PTH,ComponentDrill
T7C1.000
; #@! TA.AperFunction,NonPlated,NPTH,ComponentDrill
T8C3.200
%
G90
G05
T1
X43.18Y-56.515
X43.18Y-83.185
X48.895Y-59.055
X48.895Y-86.36
X48.895Y-128.27
X54.102Y-78.232
X100.33Y-175.895
X130.81Y-130.81
X130.81Y-155.575
X135.255Y-135.255
X135.255Y-160.02
T2
X41.91Y-46.99
X45.72Y-102.87
X46.355Y-50.8
X48.895Y-75.565
X49.949Y-104.356
X50.165Y-102.87
X50.165Y-106.68
X50.546Y-76.962
X50.8Y-41.275
X51.435Y-107.95
X52.07Y-118.745
X53.34Y-43.18
X53.975Y-119.38
X53.975Y-124.46
X57.785Y-83.82
X58.42Y-88.9
X59.055Y-118.11
X59.182Y-48.26
X60.198Y-43.18
X61.468Y-90.932
X61.468Y-92.456
X61.595Y-69.215
X61.595Y-116.205
X61.722Y-48.26
X62.23Y-99.695
X64.135Y-100.965
X64.516Y-40.894
X64.643Y-42.672
X67.945Y-90.932
X67.945Y-92.456
X70.866Y-119.38
X71.12Y-118.11
X71.755Y-124.46
X72.898Y-62.23
X73.025Y-55.245
X73.025Y-105.41
X73.152Y-89.408
X74.168Y-88.392
X74.295Y-102.87
X74.422Y-47.625
X74.676Y-54.61
X75.717Y-90.399
X75.87Y-49.505
X75.895Y-91.999
X76.2Y-83.312
X76.454Y-120.65
X77.978Y-88.392
X77.978Y-89.916
X78.232Y-124.46
X78.994Y-130.048
X80.264Y-133.858
X80.518Y-48.006
X80.772Y-86.868
X81.026Y-84.582
X81.026Y-88.392
X81.026Y-101.346
X81.026Y-103.124
X81.28Y-70.612
X81.28Y-76.962
X81.534Y-42.672
X81.788Y-39.37
X81.788Y-40.894
X81.788Y-132.842
X81.915Y-37.592
X83.058Y-35.814
X83.185Y-47.625
X84.328Y-183.337
X84.455Y-34.29
X84.646Y-149.403
X84.963Y-116.84
X85.09Y-70.612
X85.09Y-104.648
X85.979Y-132.969
X86.614Y-118.364
X86.614Y-126.492
X86.868Y-84.074
X87.122Y-99.314
X87.63Y-34.925
X87.63Y-44.45
X87.63Y-45.974
X87.63Y-161.29
X87.757Y-37.465
X87.757Y-39.37
X88.138Y-82.804
X88.646Y-99.441
X88.646Y-104.648
X88.9Y-122.174
X88.9Y-127.0
X89.027Y-36.195
X89.535Y-137.16
X90.17Y-99.568
X90.17Y-104.648
X90.932Y-137.922
X91.44Y-121.285
X91.44Y-127.0
X91.694Y-109.982
X92.075Y-175.26
X92.456Y-48.006
X92.456Y-81.788
X92.456Y-83.312
X92.456Y-104.648
X92.71Y-160.02
X93.345Y-156.21
X93.98Y-48.006
X93.98Y-100.33
X93.98Y-104.648
X93.98Y-115.062
X93.98Y-160.02
X95.25Y-156.845
X95.25Y-175.26
X95.25Y-178.435
X95.25Y-183.515
X95.504Y-99.949
X95.504Y-116.84
X96.52Y-142.24
X97.155Y-135.255
X97.536Y-146.939
X97.79Y-141.605
X98.082Y-148.298
X98.425Y-178.435
X98.552Y-99.822
X99.314Y-104.648
X99.822Y-99.822
X99.949Y-84.963
X99.949Y-90.551
X100.584Y-121.158
X100.838Y-102.362
X100.838Y-104.14
X101.6Y-115.062
X101.6Y-118.618
X101.854Y-101.346
X101.854Y-113.538
X101.854Y-119.888
X102.023Y-176.107
X102.108Y-139.192
X103.378Y-123.952
X104.14Y-142.24
X104.14Y-175.26
X104.648Y-122.682
X104.648Y-139.192
X105.664Y-117.348
X105.664Y-118.872
X106.934Y-142.494
X107.315Y-139.065
X107.569Y-41.529
X108.204Y-137.414
X114.808Y-121.412
X114.808Y-123.19
X115.316Y-45.974
X115.824Y-120.142
X116.84Y-78.74
X118.11Y-57.912
X118.11Y-97.282
X118.618Y-55.626
X119.38Y-98.552
X120.015Y-125.222
X120.65Y-48.895
X120.65Y-51.435
X123.354Y-150.622
X123.444Y-141.529
X123.825Y-82.55
X124.46Y-41.91
X124.46Y-59.69
X126.365Y-73.66
X127.0Y-62.23
X127.0Y-116.332
X127.508Y-140.97
X127.635Y-165.735
X128.016Y-125.73
X128.27Y-38.1
X128.27Y-52.705
X128.27Y-71.755
X128.27Y-127.635
X128.905Y-58.42
X128.905Y-151.13
X129.54Y-128.905
X129.54Y-140.97
X129.54Y-167.64
X130.175Y-52.705
X131.445Y-151.13
X132.08Y-140.97
X133.35Y-44.45
X133.985Y-127.635
X133.985Y-151.13
X134.62Y-175.26
X135.89Y-126.365
X140.335Y-43.815
X142.24Y-102.235
T3
X100.152Y-124.485
T4
X43.18Y-58.42
X43.18Y-60.96
X43.18Y-63.5
X43.18Y-66.04
X43.18Y-68.58
X43.18Y-71.12
X43.18Y-73.66
X43.18Y-85.065
X43.18Y-87.605
X43.18Y-90.145
X43.18Y-92.685
X43.18Y-95.225
X43.18Y-97.765
X43.18Y-100.305
X55.88Y-58.42
X55.88Y-60.96
X55.88Y-63.5
X55.88Y-66.04
X55.88Y-68.58
X55.88Y-71.12
X55.88Y-73.66
X55.88Y-85.065
X55.88Y-87.605
X55.88Y-90.145
X55.88Y-92.685
X55.88Y-95.225
X55.88Y-97.765
X55.88Y-100.305
X66.04Y-48.35
X66.04Y-50.89
X66.04Y-53.43
X66.04Y-55.97
X66.04Y-58.51
X66.04Y-61.05
X66.04Y-63.59
X66.04Y-66.13
X71.755Y-76.29
X73.01Y-72.14
X74.295Y-76.29
X75.55Y-72.14
X76.835Y-76.29
X78.09Y-72.14
X79.375Y-76.29
X85.09Y-48.35
X85.09Y-50.89
X85.09Y-53.43
X85.09Y-55.97
X85.09Y-58.51
X85.09Y-61.05
X85.09Y-63.59
X85.09Y-66.13
X96.52Y-38.1
X96.52Y-40.64
X96.52Y-43.18
X96.52Y-45.72
X96.52Y-48.26
X96.52Y-50.8
X96.52Y-53.34
X96.52Y-55.88
X96.52Y-58.42
X96.52Y-60.96
X96.52Y-63.5
X96.52Y-66.04
X96.52Y-68.58
X96.52Y-71.12
X96.52Y-73.66
X96.52Y-76.2
X96.52Y-78.74
X96.52Y-81.28
X96.52Y-83.82
X96.52Y-86.36
X96.52Y-88.9
X96.52Y-91.44
X96.52Y-93.98
X96.52Y-96.52
X111.76Y-38.1
X111.76Y-40.64
X111.76Y-43.18
X111.76Y-45.72
X111.76Y-48.26
X111.76Y-50.8
X111.76Y-53.34
X111.76Y-55.88
X111.76Y-58.42
X111.76Y-60.96
X111.76Y-63.5
X111.76Y-66.04
X111.76Y-68.58
X111.76Y-71.12
X111.76Y-73.66
X111.76Y-76.2
X111.76Y-78.74
X111.76Y-81.28
X111.76Y-83.82
X111.76Y-86.36
X111.76Y-88.9
X111.76Y-91.44
X111.76Y-93.98
X111.76Y-96.52
X117.475Y-40.005
X117.475Y-42.545
X117.475Y-45.085
X117.475Y-47.625
X117.475Y-50.165
X117.475Y-52.705
X123.19Y-67.31
X123.19Y-80.01
X123.19Y-86.995
X125.73Y-67.31
X125.73Y-80.01
X125.73Y-86.995
X125.73Y-99.695
X125.73Y-118.11
X125.73Y-120.65
X125.73Y-123.19
X125.73Y-125.73
X125.73Y-128.27
X125.73Y-130.81
X125.73Y-133.35
X125.73Y-142.24
X125.73Y-144.78
X125.73Y-147.32
X125.73Y-149.86
X125.73Y-152.4
X125.73Y-154.94
X125.73Y-157.48
X128.27Y-67.31
X128.27Y-80.01
X128.27Y-86.995
X128.27Y-99.695
X130.81Y-67.31
X130.81Y-80.01
X130.81Y-86.995
X130.81Y-99.695
X133.35Y-67.31
X133.35Y-80.01
X133.35Y-86.995
X133.35Y-99.695
X135.255Y-40.005
X135.255Y-42.545
X135.255Y-45.085
X135.255Y-47.625
X135.255Y-50.165
X135.255Y-52.705
X135.89Y-67.31
X135.89Y-80.01
X135.89Y-86.995
X135.89Y-99.695
X138.43Y-118.11
X138.43Y-120.65
X138.43Y-123.19
X138.43Y-125.73
X138.43Y-128.27
X138.43Y-130.81
X138.43Y-133.35
X138.43Y-142.24
X138.43Y-144.78
X138.43Y-147.32
X138.43Y-149.86
X138.43Y-152.4
X138.43Y-154.94
X138.43Y-157.48
T5
X62.23Y-85.09
X62.23Y-95.25
X66.04Y-85.09
X66.04Y-95.25
X69.85Y-85.09
X69.85Y-95.25
X73.66Y-85.09
X73.66Y-95.25
X110.49Y-173.355
X110.49Y-176.53
X110.49Y-179.705
X110.49Y-182.88
X120.65Y-173.355
X120.65Y-176.53
X120.65Y-179.705
X120.65Y-182.88
X128.905Y-178.435
X128.905Y-182.245
X139.065Y-178.435
X139.065Y-182.245
T6
X36.195Y-107.435
X36.195Y-109.935
X36.195Y-112.435
X36.195Y-114.935
X36.195Y-117.435
X37.465Y-36.275
X37.465Y-38.775
X37.465Y-41.275
X37.465Y-43.775
X37.465Y-46.275
X45.195Y-107.355
X45.195Y-109.855
X45.195Y-112.355
X45.195Y-114.855
X45.195Y-117.355
X46.355Y-36.275
X46.355Y-38.775
X46.355Y-41.275
X46.355Y-43.775
X46.355Y-46.275
X66.04Y-103.585
X66.04Y-106.085
X66.04Y-108.585
X86.4Y-187.96
X86.52Y-180.23
X88.045Y-167.045
X88.045Y-169.545
X88.045Y-172.045
X88.9Y-187.96
X88.96Y-144.89
X89.02Y-180.23
X91.4Y-187.96
X91.46Y-144.89
X91.52Y-180.23
X93.9Y-187.96
X93.96Y-144.89
X94.02Y-180.23
X95.945Y-153.67
X96.4Y-187.96
X96.41Y-167.045
X96.41Y-169.545
X96.41Y-172.045
X96.46Y-144.89
X96.52Y-180.23
X98.445Y-153.67
X99.02Y-180.23
X100.945Y-153.67
X103.445Y-153.67
X103.505Y-161.29
X103.505Y-163.79
X103.505Y-166.29
X103.505Y-168.79
X103.505Y-171.29
X111.165Y-187.96
X111.87Y-156.33
X111.87Y-158.83
X111.87Y-161.33
X111.87Y-163.83
X111.87Y-166.33
X113.665Y-187.96
X116.165Y-187.96
X118.665Y-187.96
X121.165Y-187.96
X127.715Y-187.96
X130.215Y-187.96
X132.715Y-187.96
X139.105Y-187.96
X141.605Y-187.96
X143.51Y-36.275
X143.51Y-38.775
X143.51Y-41.275
X143.51Y-43.775
X143.51Y-46.275
X143.51Y-162.68
X143.51Y-165.18
X143.51Y-167.68
X143.51Y-170.18
X143.51Y-172.68
X144.105Y-187.96
T7
X35.56Y-52.705
X35.56Y-55.245
X35.56Y-57.785
X35.56Y-60.325
X35.56Y-62.865
X35.56Y-65.405
X35.56Y-79.375
X35.56Y-81.915
X35.56Y-84.455
X35.56Y-86.995
X35.56Y-89.535
X35.56Y-92.075
X36.235Y-124.57
X36.83Y-132.715
X37.355Y-71.12
X37.355Y-73.62
X37.355Y-97.79
X37.355Y-100.29
X38.735Y-124.57
X39.33Y-132.715
X43.18Y-53.975
X43.18Y-80.645
X45.72Y-53.975
X45.72Y-80.645
X45.72Y-132.715
X48.22Y-132.715
X48.26Y-53.975
X48.26Y-80.645
X50.8Y-53.975
X50.8Y-80.645
X51.435Y-121.935
X51.435Y-124.475
X52.07Y-111.11
X52.07Y-113.65
X52.07Y-116.19
X54.61Y-131.445
X55.905Y-121.935
X55.905Y-124.475
X55.905Y-127.015
X56.49Y-111.095
X56.49Y-113.635
X56.49Y-116.175
X57.15Y-131.445
X59.69Y-131.445
X59.715Y-121.935
X59.715Y-124.475
X59.715Y-127.015
X60.325Y-80.645
X62.23Y-131.445
X62.865Y-80.645
X63.525Y-121.935
X63.525Y-124.475
X63.525Y-127.015
X64.77Y-131.445
X65.405Y-80.645
X67.31Y-114.935
X67.31Y-121.935
X67.31Y-124.475
X67.31Y-127.015
X67.31Y-131.445
X67.945Y-80.645
X70.485Y-80.645
X73.025Y-80.645
X75.565Y-80.645
X82.55Y-80.645
X85.09Y-80.645
X86.36Y-153.352
X86.36Y-155.892
X86.36Y-158.433
X87.63Y-80.645
X90.6Y-153.352
X90.6Y-155.892
X90.6Y-158.433
X91.999Y-87.605
X91.999Y-90.145
X91.999Y-92.685
X101.6Y-38.329
X101.6Y-40.869
X101.6Y-43.409
X101.6Y-45.949
X101.6Y-48.489
X101.6Y-51.029
X102.235Y-145.415
X102.235Y-147.955
X104.775Y-145.415
X104.775Y-147.955
X104.775Y-177.8
X104.775Y-180.34
X104.775Y-182.88
X107.315Y-145.415
X107.315Y-147.955
X107.315Y-177.8
X107.315Y-180.34
X107.315Y-182.88
X109.855Y-145.415
X109.855Y-147.955
X111.76Y-127.635
X111.76Y-130.175
X111.76Y-132.715
X111.76Y-135.255
X111.76Y-137.795
X112.395Y-145.415
X112.395Y-147.955
X114.3Y-127.635
X114.3Y-130.175
X114.3Y-132.715
X114.3Y-135.255
X114.3Y-137.795
X126.345Y-106.705
X127.0Y-137.795
X128.27Y-162.56
X128.885Y-106.705
X129.54Y-137.795
X130.81Y-162.56
X132.08Y-137.795
X132.715Y-61.595
X133.35Y-162.56
X134.62Y-137.795
X135.255Y-61.595
X135.89Y-162.56
X137.795Y-61.595
X140.335Y-61.595
X142.875Y-61.595
X143.51Y-109.26
X143.51Y-111.76
X143.51Y-179.11
X143.51Y-181.61
X143.62Y-135.93
X143.62Y-138.43
X144.78Y-117.475
X144.78Y-120.015
X144.78Y-122.555
X144.78Y-125.095
X144.78Y-127.635
X144.78Y-130.175
X145.39Y-86.97
X145.39Y-89.51
X145.39Y-92.05
X145.39Y-94.59
X145.39Y-97.13
X145.39Y-99.67
X145.415Y-61.595
X145.415Y-67.31
X145.415Y-69.85
X145.415Y-72.39
X145.415Y-74.93
X145.415Y-77.47
X145.415Y-80.01
X145.415Y-144.78
X145.415Y-147.32
X145.415Y-149.86
X145.415Y-152.4
X145.415Y-154.94
X145.415Y-157.48
T8
X45.72Y-125.095
X54.61Y-37.465
X83.515Y-92.227
X103.632Y-188.468
X135.255Y-109.22
X135.255Y-170.815
X143.713Y-54.559
T0
M30
