%TF.GenerationSoftware,KiCad,Pcbnew,7.0.9*%
%TF.CreationDate,2023-12-07T23:58:00+01:00*%
%TF.ProjectId,kicad_RCJ,6b696361-645f-4524-934a-2e6b69636164,rev?*%
%TF.SameCoordinates,Original*%
%TF.FileFunction,Soldermask,Bot*%
%TF.FilePolarity,Negative*%
%FSLAX46Y46*%
G04 Gerber Fmt 4.6, Leading zero omitted, Abs format (unit mm)*
G04 Created by KiCad (PCBNEW 7.0.9) date 2023-12-07 23:58:00*
%MOMM*%
%LPD*%
G01*
G04 APERTURE LIST*
G04 Aperture macros list*
%AMRoundRect*
0 Rectangle with rounded corners*
0 $1 Rounding radius*
0 $2 $3 $4 $5 $6 $7 $8 $9 X,Y pos of 4 corners*
0 Add a 4 corners polygon primitive as box body*
4,1,4,$2,$3,$4,$5,$6,$7,$8,$9,$2,$3,0*
0 Add four circle primitives for the rounded corners*
1,1,$1+$1,$2,$3*
1,1,$1+$1,$4,$5*
1,1,$1+$1,$6,$7*
1,1,$1+$1,$8,$9*
0 Add four rect primitives between the rounded corners*
20,1,$1+$1,$2,$3,$4,$5,0*
20,1,$1+$1,$4,$5,$6,$7,0*
20,1,$1+$1,$6,$7,$8,$9,0*
20,1,$1+$1,$8,$9,$2,$3,0*%
G04 Aperture macros list end*
%ADD10RoundRect,0.250000X-0.725000X0.600000X-0.725000X-0.600000X0.725000X-0.600000X0.725000X0.600000X0*%
%ADD11O,1.950000X1.700000*%
%ADD12RoundRect,0.250000X-0.600000X-0.725000X0.600000X-0.725000X0.600000X0.725000X-0.600000X0.725000X0*%
%ADD13O,1.700000X1.950000*%
%ADD14C,1.524000*%
%ADD15R,1.700000X1.700000*%
%ADD16O,1.700000X1.700000*%
%ADD17C,1.600000*%
%ADD18O,1.600000X1.600000*%
%ADD19RoundRect,0.250000X0.750000X-0.600000X0.750000X0.600000X-0.750000X0.600000X-0.750000X-0.600000X0*%
%ADD20O,2.000000X1.700000*%
%ADD21RoundRect,0.250000X0.725000X-0.600000X0.725000X0.600000X-0.725000X0.600000X-0.725000X-0.600000X0*%
%ADD22C,3.200000*%
%ADD23RoundRect,0.250000X-0.750000X0.600000X-0.750000X-0.600000X0.750000X-0.600000X0.750000X0.600000X0*%
%ADD24RoundRect,0.250000X-0.600000X-0.750000X0.600000X-0.750000X0.600000X0.750000X-0.600000X0.750000X0*%
%ADD25O,1.700000X2.000000*%
%ADD26RoundRect,0.250000X0.600000X0.725000X-0.600000X0.725000X-0.600000X-0.725000X0.600000X-0.725000X0*%
G04 APERTURE END LIST*
D10*
%TO.C,S5*%
X66040000Y-103585000D03*
D11*
X66040000Y-106085000D03*
X66040000Y-108585000D03*
%TD*%
D12*
%TO.C,J29*%
X88960000Y-144890000D03*
D13*
X91460000Y-144890000D03*
X93960000Y-144890000D03*
X96460000Y-144890000D03*
%TD*%
D12*
%TO.C,J28*%
X95945000Y-153670000D03*
D13*
X98445000Y-153670000D03*
X100945000Y-153670000D03*
X103445000Y-153670000D03*
%TD*%
D14*
%TO.C,U4*%
X125730000Y-118110000D03*
X125730000Y-120650000D03*
X125730000Y-123190000D03*
X125730000Y-125730000D03*
X125730000Y-128270000D03*
X125730000Y-130810000D03*
X125730000Y-133350000D03*
X138430000Y-118110000D03*
X138430000Y-120650000D03*
X138430000Y-123190000D03*
X138430000Y-125730000D03*
X138430000Y-128270000D03*
X138430000Y-130810000D03*
X138430000Y-133350000D03*
%TD*%
%TO.C,U3*%
X125730000Y-142240000D03*
X125730000Y-144780000D03*
X125730000Y-147320000D03*
X125730000Y-149860000D03*
X125730000Y-152400000D03*
X125730000Y-154940000D03*
X125730000Y-157480000D03*
X138430000Y-142240000D03*
X138430000Y-144780000D03*
X138430000Y-147320000D03*
X138430000Y-149860000D03*
X138430000Y-152400000D03*
X138430000Y-154940000D03*
X138430000Y-157480000D03*
%TD*%
%TO.C,U2*%
X55880000Y-100305000D03*
X55880000Y-97765000D03*
X55880000Y-95225000D03*
X55880000Y-92685000D03*
X55880000Y-90145000D03*
X55880000Y-87605000D03*
X55880000Y-85065000D03*
X43180000Y-100305000D03*
X43180000Y-97765000D03*
X43180000Y-95225000D03*
X43180000Y-92685000D03*
X43180000Y-90145000D03*
X43180000Y-87605000D03*
X43180000Y-85065000D03*
%TD*%
%TO.C,U1*%
X55880000Y-73660000D03*
X55880000Y-71120000D03*
X55880000Y-68580000D03*
X55880000Y-66040000D03*
X55880000Y-63500000D03*
X55880000Y-60960000D03*
X55880000Y-58420000D03*
X43180000Y-73660000D03*
X43180000Y-71120000D03*
X43180000Y-68580000D03*
X43180000Y-66040000D03*
X43180000Y-63500000D03*
X43180000Y-60960000D03*
X43180000Y-58420000D03*
%TD*%
%TO.C,U6*%
X96520000Y-40640000D03*
X96520000Y-43180000D03*
X96520000Y-45720000D03*
X96520000Y-48260000D03*
X96520000Y-50800000D03*
X96520000Y-53340000D03*
X96520000Y-55880000D03*
X96520000Y-58420000D03*
X96520000Y-60960000D03*
X96520000Y-63500000D03*
X96520000Y-66040000D03*
X96520000Y-68580000D03*
X96520000Y-71120000D03*
X111760000Y-71120000D03*
X111760000Y-68580000D03*
X111760000Y-66040000D03*
X111760000Y-63500000D03*
X111760000Y-60960000D03*
X111760000Y-58420000D03*
X111760000Y-55880000D03*
X111760000Y-53340000D03*
X111760000Y-50800000D03*
X111760000Y-48260000D03*
X111760000Y-45720000D03*
X96520000Y-76200000D03*
X96520000Y-78740000D03*
X96520000Y-81280000D03*
X96520000Y-83820000D03*
X96520000Y-86360000D03*
X96520000Y-88900000D03*
X96520000Y-91440000D03*
X96520000Y-93980000D03*
X96520000Y-96520000D03*
X111760000Y-96520000D03*
X111760000Y-93980000D03*
X111760000Y-91440000D03*
X111760000Y-88900000D03*
X111760000Y-86360000D03*
X111760000Y-83820000D03*
X111760000Y-81280000D03*
X111760000Y-78740000D03*
X111760000Y-76200000D03*
X96520000Y-38100000D03*
X111760000Y-73660000D03*
X111760000Y-43180000D03*
X111760000Y-40640000D03*
X111760000Y-38100000D03*
X96520000Y-73660000D03*
%TD*%
D15*
%TO.C,J14*%
X101600000Y-51028600D03*
D16*
X101600000Y-48488600D03*
X101600000Y-45948600D03*
X101600000Y-43408600D03*
X101600000Y-40868600D03*
X101600000Y-38328600D03*
%TD*%
D15*
%TO.C,J15*%
X91998800Y-92684600D03*
D16*
X91998800Y-90144600D03*
X91998800Y-87604600D03*
%TD*%
D17*
%TO.C,R14*%
X139065000Y-178435000D03*
D18*
X128905000Y-178435000D03*
%TD*%
D17*
%TO.C,R12*%
X120650000Y-173355000D03*
D18*
X110490000Y-173355000D03*
%TD*%
D19*
%TO.C,J27*%
X143510000Y-111760000D03*
D20*
X143510000Y-109260000D03*
%TD*%
D15*
%TO.C,J9*%
X67310000Y-131445000D03*
D16*
X64770000Y-131445000D03*
X62230000Y-131445000D03*
X59690000Y-131445000D03*
X57150000Y-131445000D03*
X54610000Y-131445000D03*
%TD*%
D18*
%TO.C,R8*%
X110490000Y-179705000D03*
D17*
X120650000Y-179705000D03*
%TD*%
D15*
%TO.C,M4*%
X144780000Y-117475000D03*
D16*
X144780000Y-120015000D03*
X144780000Y-122555000D03*
X144780000Y-125095000D03*
X144780000Y-127635000D03*
X144780000Y-130175000D03*
%TD*%
D21*
%TO.C,U16*%
X111870000Y-166330000D03*
D11*
X111870000Y-163830000D03*
X111870000Y-161330000D03*
X111870000Y-158830000D03*
X111870000Y-156330000D03*
%TD*%
D15*
%TO.C,J13*%
X127000000Y-137795000D03*
D16*
X129540000Y-137795000D03*
X132080000Y-137795000D03*
X134620000Y-137795000D03*
%TD*%
D22*
%TO.C,H1*%
X54610000Y-37465000D03*
%TD*%
D15*
%TO.C,D8*%
X52070000Y-116190000D03*
D16*
X52070000Y-113650000D03*
X52070000Y-111110000D03*
%TD*%
D23*
%TO.C,J24*%
X37355000Y-71120000D03*
D20*
X37355000Y-73620000D03*
%TD*%
D17*
%TO.C,R4*%
X62230000Y-85090000D03*
D18*
X62230000Y-95250000D03*
%TD*%
D24*
%TO.C,J5*%
X36235000Y-124570000D03*
D25*
X38735000Y-124570000D03*
%TD*%
D14*
%TO.C,U19*%
X66040000Y-66130000D03*
X66040000Y-63590000D03*
X66040000Y-61050000D03*
X66040000Y-58510000D03*
X66040000Y-55970000D03*
X66040000Y-53430000D03*
X66040000Y-50890000D03*
X66040000Y-48350000D03*
X85090000Y-48350000D03*
X85090000Y-50890000D03*
X85090000Y-53430000D03*
X85090000Y-55970000D03*
X85090000Y-58510000D03*
X85090000Y-61050000D03*
X85090000Y-63590000D03*
X85090000Y-66130000D03*
X71755000Y-76290000D03*
X74295000Y-76290000D03*
X73010000Y-72140000D03*
X75550000Y-72140000D03*
X78090000Y-72140000D03*
X76835000Y-76290000D03*
X79375000Y-76290000D03*
%TD*%
D15*
%TO.C,J19*%
X112395000Y-147955000D03*
D16*
X112395000Y-145415000D03*
X109855000Y-147955000D03*
X109855000Y-145415000D03*
X107315000Y-147955000D03*
X107315000Y-145415000D03*
X104775000Y-147955000D03*
X104775000Y-145415000D03*
X102235000Y-147955000D03*
X102235000Y-145415000D03*
%TD*%
D22*
%TO.C,H4*%
X135255000Y-170815000D03*
%TD*%
D15*
%TO.C,J3*%
X51435000Y-124475000D03*
D16*
X51435000Y-121935000D03*
%TD*%
D15*
%TO.C,M1*%
X35560000Y-65405000D03*
D16*
X35560000Y-62865000D03*
X35560000Y-60325000D03*
X35560000Y-57785000D03*
X35560000Y-55245000D03*
X35560000Y-52705000D03*
%TD*%
D10*
%TO.C,S2*%
X88045000Y-167045000D03*
D11*
X88045000Y-169545000D03*
X88045000Y-172045000D03*
%TD*%
D14*
%TO.C,U21*%
X123190000Y-80010000D03*
X125730000Y-80010000D03*
X128270000Y-80010000D03*
X130810000Y-80010000D03*
X133350000Y-80010000D03*
X135890000Y-80010000D03*
X123190000Y-67310000D03*
X125730000Y-67310000D03*
X128270000Y-67310000D03*
X130810000Y-67310000D03*
X133350000Y-67310000D03*
X135890000Y-67310000D03*
%TD*%
D15*
%TO.C,D7*%
X56490000Y-116175000D03*
D16*
X56490000Y-113635000D03*
X56490000Y-111095000D03*
%TD*%
D21*
%TO.C,U12*%
X143510000Y-46275000D03*
D11*
X143510000Y-43775000D03*
X143510000Y-41275000D03*
X143510000Y-38775000D03*
X143510000Y-36275000D03*
%TD*%
D15*
%TO.C,M2*%
X35560000Y-92075000D03*
D16*
X35560000Y-89535000D03*
X35560000Y-86995000D03*
X35560000Y-84455000D03*
X35560000Y-81915000D03*
X35560000Y-79375000D03*
%TD*%
D24*
%TO.C,J4*%
X36830000Y-132715000D03*
D25*
X39330000Y-132715000D03*
%TD*%
D17*
%TO.C,R2*%
X69850000Y-85090000D03*
D18*
X69850000Y-95250000D03*
%TD*%
D12*
%TO.C,S3*%
X127715000Y-187960000D03*
D13*
X130215000Y-187960000D03*
X132715000Y-187960000D03*
%TD*%
D10*
%TO.C,U14*%
X37465000Y-36275000D03*
D11*
X37465000Y-38775000D03*
X37465000Y-41275000D03*
X37465000Y-43775000D03*
X37465000Y-46275000D03*
%TD*%
D16*
%TO.C,J18*%
X111760000Y-137795000D03*
X114300000Y-137795000D03*
X111760000Y-135255000D03*
X114300000Y-135255000D03*
X111760000Y-132715000D03*
X114300000Y-132715000D03*
X111760000Y-130175000D03*
X114300000Y-130175000D03*
X111760000Y-127635000D03*
D15*
X114300000Y-127635000D03*
%TD*%
D21*
%TO.C,U17*%
X103505000Y-171290000D03*
D11*
X103505000Y-168790000D03*
X103505000Y-166290000D03*
X103505000Y-163790000D03*
X103505000Y-161290000D03*
%TD*%
D22*
%TO.C,H2*%
X143713200Y-54559200D03*
%TD*%
%TO.C,H7*%
X83515200Y-92227400D03*
%TD*%
D15*
%TO.C,J12*%
X128270000Y-162560000D03*
D16*
X130810000Y-162560000D03*
X133350000Y-162560000D03*
X135890000Y-162560000D03*
%TD*%
D18*
%TO.C,R6*%
X110490000Y-182880000D03*
D17*
X120650000Y-182880000D03*
%TD*%
D15*
%TO.C,J21*%
X145415000Y-80010000D03*
D16*
X145415000Y-77470000D03*
X145415000Y-74930000D03*
X145415000Y-72390000D03*
X145415000Y-69850000D03*
X145415000Y-67310000D03*
%TD*%
D15*
%TO.C,J7*%
X67310000Y-114935000D03*
%TD*%
%TO.C,J16*%
X75565000Y-80645000D03*
D16*
X73025000Y-80645000D03*
X70485000Y-80645000D03*
X67945000Y-80645000D03*
X65405000Y-80645000D03*
X62865000Y-80645000D03*
X60325000Y-80645000D03*
%TD*%
D17*
%TO.C,R10*%
X120650000Y-176530000D03*
D18*
X110490000Y-176530000D03*
%TD*%
D21*
%TO.C,U18*%
X143510000Y-172680000D03*
D11*
X143510000Y-170180000D03*
X143510000Y-167680000D03*
X143510000Y-165180000D03*
X143510000Y-162680000D03*
%TD*%
D15*
%TO.C,M6*%
X90600000Y-158432500D03*
D16*
X90600000Y-155892500D03*
X90600000Y-153352500D03*
%TD*%
D22*
%TO.C,H5*%
X103632000Y-188468000D03*
%TD*%
D15*
%TO.C,M5*%
X86360000Y-158432500D03*
D16*
X86360000Y-155892500D03*
X86360000Y-153352500D03*
%TD*%
D15*
%TO.C,J8*%
X87630000Y-80645000D03*
D16*
X85090000Y-80645000D03*
X82550000Y-80645000D03*
%TD*%
D15*
%TO.C,D3*%
X63525000Y-121935000D03*
D16*
X63525000Y-124475000D03*
X63525000Y-127015000D03*
%TD*%
D24*
%TO.C,J6*%
X45720000Y-132715000D03*
D25*
X48220000Y-132715000D03*
%TD*%
D15*
%TO.C,D4*%
X67310000Y-121935000D03*
D16*
X67310000Y-124475000D03*
X67310000Y-127015000D03*
%TD*%
D19*
%TO.C,J26*%
X143620000Y-138430000D03*
D20*
X143620000Y-135930000D03*
%TD*%
D13*
%TO.C,J30*%
X121165000Y-187960000D03*
X118665000Y-187960000D03*
X116165000Y-187960000D03*
X113665000Y-187960000D03*
D12*
X111165000Y-187960000D03*
%TD*%
D15*
%TO.C,J17*%
X107315000Y-177800000D03*
D16*
X104775000Y-177800000D03*
X107315000Y-180340000D03*
X104775000Y-180340000D03*
X107315000Y-182880000D03*
X104775000Y-182880000D03*
%TD*%
D26*
%TO.C,U23*%
X99020000Y-180230000D03*
D13*
X96520000Y-180230000D03*
X94020000Y-180230000D03*
X91520000Y-180230000D03*
X89020000Y-180230000D03*
X86520000Y-180230000D03*
%TD*%
D15*
%TO.C,J11*%
X50800000Y-80645000D03*
D16*
X48260000Y-80645000D03*
X45720000Y-80645000D03*
X43180000Y-80645000D03*
%TD*%
D19*
%TO.C,J23*%
X143510000Y-181610000D03*
D20*
X143510000Y-179110000D03*
%TD*%
D15*
%TO.C,J10*%
X50800000Y-53975000D03*
D16*
X48260000Y-53975000D03*
X45720000Y-53975000D03*
X43180000Y-53975000D03*
%TD*%
D15*
%TO.C,D5*%
X59715000Y-121935000D03*
D16*
X59715000Y-124475000D03*
X59715000Y-127015000D03*
%TD*%
D23*
%TO.C,J25*%
X37355000Y-97790000D03*
D20*
X37355000Y-100290000D03*
%TD*%
D21*
%TO.C,U25*%
X45195000Y-117355000D03*
D11*
X45195000Y-114855000D03*
X45195000Y-112355000D03*
X45195000Y-109855000D03*
X45195000Y-107355000D03*
%TD*%
D18*
%TO.C,R3*%
X66040000Y-95250000D03*
D17*
X66040000Y-85090000D03*
%TD*%
D12*
%TO.C,U24*%
X86400000Y-187960000D03*
D13*
X88900000Y-187960000D03*
X91400000Y-187960000D03*
X93900000Y-187960000D03*
X96400000Y-187960000D03*
%TD*%
D17*
%TO.C,R13*%
X128905000Y-182245000D03*
D18*
X139065000Y-182245000D03*
%TD*%
D14*
%TO.C,U20*%
X135255000Y-52705000D03*
X135255000Y-50165000D03*
X135255000Y-47625000D03*
X135255000Y-45085000D03*
X135255000Y-42545000D03*
X135255000Y-40005000D03*
X117475000Y-52705000D03*
X117475000Y-50165000D03*
X117475000Y-47625000D03*
X117475000Y-45085000D03*
X117475000Y-42545000D03*
X117475000Y-40005000D03*
%TD*%
D15*
%TO.C,D6*%
X55905000Y-121935000D03*
D16*
X55905000Y-124475000D03*
X55905000Y-127015000D03*
%TD*%
D10*
%TO.C,U13*%
X46355000Y-36275000D03*
D11*
X46355000Y-38775000D03*
X46355000Y-41275000D03*
X46355000Y-43775000D03*
X46355000Y-46275000D03*
%TD*%
D22*
%TO.C,H3*%
X135255000Y-109220000D03*
%TD*%
D15*
%TO.C,J2*%
X145390000Y-99670000D03*
D16*
X145390000Y-97130000D03*
X145390000Y-94590000D03*
X145390000Y-92050000D03*
X145390000Y-89510000D03*
X145390000Y-86970000D03*
%TD*%
D15*
%TO.C,J20*%
X145415000Y-61595000D03*
D16*
X142875000Y-61595000D03*
X140335000Y-61595000D03*
X137795000Y-61595000D03*
X135255000Y-61595000D03*
X132715000Y-61595000D03*
%TD*%
D14*
%TO.C,U22*%
X135890000Y-86995000D03*
X133350000Y-86995000D03*
X130810000Y-86995000D03*
X128270000Y-86995000D03*
X125730000Y-86995000D03*
X123190000Y-86995000D03*
X135890000Y-99695000D03*
X133350000Y-99695000D03*
X130810000Y-99695000D03*
X128270000Y-99695000D03*
X125730000Y-99695000D03*
%TD*%
D22*
%TO.C,H6*%
X45720000Y-125095000D03*
%TD*%
D15*
%TO.C,J22*%
X128885000Y-106705000D03*
D16*
X126345000Y-106705000D03*
%TD*%
D21*
%TO.C,U15*%
X36195000Y-117435000D03*
D11*
X36195000Y-114935000D03*
X36195000Y-112435000D03*
X36195000Y-109935000D03*
X36195000Y-107435000D03*
%TD*%
D18*
%TO.C,R1*%
X73660000Y-95250000D03*
D17*
X73660000Y-85090000D03*
%TD*%
D15*
%TO.C,M3*%
X145415000Y-144780000D03*
D16*
X145415000Y-147320000D03*
X145415000Y-149860000D03*
X145415000Y-152400000D03*
X145415000Y-154940000D03*
X145415000Y-157480000D03*
%TD*%
D12*
%TO.C,S4*%
X139105000Y-187960000D03*
D13*
X141605000Y-187960000D03*
X144105000Y-187960000D03*
%TD*%
D10*
%TO.C,S1*%
X96410000Y-167045000D03*
D11*
X96410000Y-169545000D03*
X96410000Y-172045000D03*
%TD*%
M02*
